<?xml version="1.0" standalone="no"?>
<!DOCTYPE svg PUBLIC "-//W3C//DTD SVG 1.1//EN" "http://www.w3.org/Graphics/SVG/1.1/DTD/svg11.dtd" >
<svg xmlns="http://www.w3.org/2000/svg" xmlns:xlink="http://www.w3.org/1999/xlink" version="1.1">
<metadata>
Created by FontForge 20201107 at Wed Feb 19 01:00:55 2025
 By 
Copyright (c) 2025 by Khurasan. All rights reserved.
</metadata>
<defs>
<font id="Mayonice" horiz-adv-x="2381" >
  <font-face 
    font-family="Mayonice"
    font-weight="400"
    font-stretch="normal"
    units-per-em="2048"
    panose-1="0 0 0 0 0 0 0 0 0 0"
    ascent="1638"
    descent="-410"
    x-height="782"
    cap-height="1415.5"
    bbox="-2692.45 -432.541 9304.03 1844.8"
    underline-thickness="102"
    underline-position="-204"
    unicode-range="U+000D-20AC"
  />
<missing-glyph horiz-adv-x="729" 
 />
    <glyph glyph-name="noname" unicode="Mayonice" horiz-adv-x="9461" 
d="M2699 1139q25 -18 30 -34t-7 -46q-14 -30 -50.5 -95.5t-71.5 -127.5t-74 -144t-65.5 -154t-37.5 -149t0.5 -137t57.5 -110t126 -76q5 -2 15.5 -4.5t14 -4t9.5 -6t12 -10.5l21 -25q-104 -16 -185 16t-127 98t-67 157.5t-13 191t43.5 202.5t94.5 187q-62 -40 -212 -159
t-280.5 -221.5t-273 -186.5t-219.5 -84q-56 0 -92 20.5t-50 51.5t-14.5 73.5t8.5 82.5t25 81q126 343 389 703q-264 -189 -541 -416.5t-628 -533.5q-53 -46 -206.5 -188t-242.5 -212q-19 -16 -73.5 -47t-75.5 -35q-9 -1 -54 21q31 49 580 524q463 415 671 589q98 82 191 156
q75 60 220 170.5t210 161.5q7 6 22 18.5t26.5 21.5t23.5 16q46 5 76.5 -18t17.5 -71q-3 -15 -29 -57t-30 -53q-13 -22 -90.5 -150t-121.5 -205.5t-108 -194.5t-102 -207.5t-51 -153.5q-7 -47 8 -58.5t59 6.5q96 38 310 195t484 372t324 255q35 26 60 27.5t63 -23.5zM7105 88
q61 -9 82 -34q17 -21 -20 -29q-26 -6 -75 -2q-188 10 -382.5 11.5t-417.5 -5.5t-368 -13.5t-403 -19.5q-371 -17 -1534 -78q-15 -1 -58 -4.5t-73 -5.5q-133 -165 -143 -301q0 -27 -18 -34.5t-37 3.5q-38 21 -51.5 54t0.5 75q26 83 100 193q-557 -31 -643 -21q-42 2 -90 33
q-37 28 -23 56t66 40q48 13 149 29q15 2 43 -12.5t31 -26.5q17 -20 55 -22t70 3q43 4 416 31q195 260 409 465q-23 2 -94.5 -26t-103.5 -15q-28 12 -46.5 36t-21.5 52q-95 -52 -249.5 -98t-211.5 -41q-25 2 -47.5 17t-44 44.5t-31.5 46.5t-28 50q-17 32 -27 35t-41 -15
q-14 -8 -50.5 -27.5t-47 -25.5t-39 -21t-41 -20.5t-37 -16.5t-42.5 -17.5t-42 -15t-51 -16.5q-37 -12 -83.5 11t-71.5 68t-5 87q16 36 49 72q78 85 206 152t247 98q86 27 144 -8t85 -123q9 -27 -5 -77t-15 -58q-15 -89 40.5 -118t152.5 -3.5t172 54.5t141 62q61 118 133 199
q29 34 64.5 17.5t23.5 -60.5q-98 -138 -99 -193q-1 -57 119 13q83 48 238.5 151t232.5 148q18 10 36.5 16.5t39.5 8.5t36 -9.5t19 -36.5q1 -8 -13 -28t-23 -29q-44 -43 -131.5 -115.5t-106.5 -89.5q-327 -289 -535 -542q-17 -24 -36 -46q9 0 52 3.5t66 3.5q59 4 284 21.5
t347 23.5q1247 62 2122 37q149 -3 285 -21zM3248 694q70 56 52 73q-15 14 -74 -11q-210 -88 -359 -242q75 21 190.5 72.5t190.5 107.5zM7410 74q136 17 208 -20q45 -23 27 -47q-11 -15 -45 -25q-61 -10 -144.5 -4t-137.5 20q-79 45 29 67q26 5 63 9zM6973 815
q-5 -20 -39.5 -17t-48.5 31q-28 52 14 119.5t99 100.5q25 14 50.5 8t39.5 -24t19.5 -39.5t-9.5 -39.5q-14 -19 -45 -42.5t-53.5 -46t-26.5 -50.5zM9236 614q40 22 60 0q17 -19 -2 -42q-13 -15 -37 -23q-116 -37 -225 -66t-259.5 -65t-244.5 -60q-50 -12 -92 -9t-86 26
q-52 26 -72.5 70.5t-15.5 93.5q-107 -34 -210 -61.5t-248 -62t-233 -57.5q-50 -12 -90.5 -9t-87.5 26q-92 45 -88 157q-78 -39 -220.5 -89.5t-223.5 -73.5q-64 -19 -129 4q-48 18 -77 54.5t-28 82.5q-68 -37 -176 -102q-178 -86 -284 -28.5t-91 212.5q2 17 4.5 37.5t4 31
t1.5 22.5t-1 16.5t-6.5 8t-12.5 1.5t-21.5 -7.5t-30.5 -13.5t-42 -22q-70 -35 -131.5 -82.5t-154 -132.5t-117.5 -107q-39 -32 -74 -8.5t-21 63.5q5 18 150 244q-92 33 -242 39q-170 7 -190 -37q-4 -10 0 -22q8 -24 9 -47t-6 -42.5t-17 -37t-27 -33.5t-32 -28.5t-36.5 -25.5
t-36 -21.5t-35.5 -18.5q-49 -23 -98.5 -11.5t-89.5 50.5q-21 27 -21 71.5t14 87.5t36 86q16 34 39 60q80 84 131 71q20 -5 86.5 -5h146.5t163 -4t151 -22.5t94 -50.5q14 21 33.5 47.5t21.5 30.5q33 41 79 20q33 -14 39 -43q4 -18 -9 -32l-1 -2q-36 -54 -4 -43q9 3 25 12
q128 86 238 113q149 36 147 -88q0 -13 -2 -27q-18 -131 -14 -171q8 -77 77 -78q43 -1 113 26q88 34 230 149q21 18 38 21q31 50 86 119q51 60 101 10q12 -12 17.5 -20.5t2.5 -17.5t-5 -13t-14 -15t-16 -16q-59 -69 -81 -125q-34 -81 78 -78q138 4 431 119q36 14 56 23l4 4
q59 114 188 186t254 43q100 -25 105 -113q3 -35 -35.5 -85t-77.5 -50q-25 -3 -57 25q-6 35 49 90q8 13 4 21.5t-14.5 10.5t-22.5 3.5t-20 -0.5q-92 -9 -171 -73t-98 -142q-10 -34 17.5 -54t72.5 -18q179 5 383.5 48t366.5 95q4 4 10 7q37 77 108 143t163.5 100.5t175.5 14.5
q45 -12 79 -43.5t35 -75.5q5 -47 -15 -80t-54 -49.5t-85 -28.5t-98.5 -16.5t-105 -12.5t-94.5 -18q0 -3 -2 -6.5t-2 -5.5q-7 -34 19.5 -54t70.5 -18q181 5 387.5 48.5t365.5 94.5zM8665 758q-62 -6 -121.5 -39.5t-99.5 -81.5q37 15 104 34t115.5 33t54.5 19q9 17 -1 26
t-26 9h-26zM5110 608q9 33 -1.5 56.5t-35.5 29.5q-38 0 -76 -38t-61 -93q-48 -110 3 -105q41 3 111 64q6 5 11 10q27 24 49 76z" />
    <glyph glyph-name=".notdef" horiz-adv-x="729" 
 />
    <glyph glyph-name=".null" horiz-adv-x="0" 
 />
    <glyph glyph-name="nonmarkingreturn" horiz-adv-x="682" 
 />
    <glyph glyph-name="NULL" horiz-adv-x="0" 
 />
    <glyph glyph-name="NULL" horiz-adv-x="0" 
 />
    <glyph glyph-name="CR" unicode="&#xd;" horiz-adv-x="729" 
 />
    <glyph glyph-name="space" unicode=" " horiz-adv-x="729" 
 />
    <glyph glyph-name="exclam" unicode="!" horiz-adv-x="575" 
d="M707 1405q-5 -10 -35 -55q-283 -412 -443 -748q-2 -4 -5 -12t-5 -12t-5.5 -9t-7.5 -7t-11 -2t-15 3q-24 9 -33 30.5t-4 47.5q19 93 103.5 269t194.5 340t184 210q26 17 54 -3t28 -52zM188 332q-2 -33 -26.5 -52t-53 -18.5t-52 21.5t-23.5 57q0 41 39.5 60.5t78.5 1
t37 -69.5z" />
    <glyph glyph-name="quotedbl" unicode="&#x22;" horiz-adv-x="677" 
d="M387 1030q-31 -32 -50 -17.5t-9 42.5q38 91 43 119q1 3 3 11t3.5 12.5t5 10t10 8t15.5 3.5q53 2 66.5 -21t-8.5 -60.5t-40.5 -62t-38.5 -45.5zM240 1030q-22 -22 -37.5 -21.5t-22 15t-0.5 31.5q38 91 43 119q1 3 3 11t3.5 12.5t5 10t10 8t15.5 3.5q53 2 66.5 -21
t-8 -60.5t-40 -62t-38.5 -45.5z" />
    <glyph glyph-name="numbersign" unicode="#" horiz-adv-x="1214" 
d="M705 729q128 -7 225 -41q7 -6 5 -23t-17 -18q-35 -1 -84 -2t-94 -2.5t-84.5 -17.5t-55.5 -47q-191 -364 -227 -439q-2 -4 -5 -14.5t-5.5 -15t-9.5 -9.5t-17 2q-11 4 -21 21.5t-10 30.5q0 12 3.5 24.5t10 27.5t9.5 23q9 27 3 44t-21 23t-33 12.5t-34 13t-24 25t-2 48.5
q10 47 33 123q11 28 5 38t-42 3q-81 -15 -158 -45q-41 -16 -67 10q-24 22 -4 46q10 12 32 20q106 43 224 67q45 9 55 13q32 13 70 86q0 1 4.5 11.5t6 15t-0.5 8.5q-46 8 -116.5 -9.5t-119.5 -42.5q-13 -6 -20.5 -8t-16 3.5t-10.5 7.5t-14 16q-16 23 -10 32t32 17
q173 58 244 74q32 7 44 10t37.5 11t37.5 17t26.5 24.5t22.5 35.5q32 79 98 68q33 -7 37.5 -31t-14.5 -45q-28 -40 -29 -41q40 -13 64 -6q31 12 74.5 59t78 93t71.5 75t60 14q22 -15 26 -34t-9.5 -39t-28 -36.5t-37 -36.5t-29.5 -28q-43 -48 28 -70q18 -5 60 -13
q40 -8 54 -13q16 -8 20 -24t-5.5 -27t-26.5 -6q-73 22 -175 22q-28 0 -49 -14t-30.5 -30.5t-23 -45t-21.5 -41.5zM315 383q27 2 56 27t53 63t39.5 67t28.5 58q-78 7 -97 -20q-52 -72 -80 -195zM621 831q-52 18 -107.5 -32t-44.5 -88l70 6q34 0 57 39t25 75z" />
    <glyph glyph-name="dollar" unicode="$" horiz-adv-x="1173" 
d="M260 348q-35 -1 -77.5 -5.5t-58 -4t-43.5 12.5t-67 42q34 26 87.5 38.5t96 16t84 28.5t60.5 75q12 32 18.5 51.5t10 38.5t3.5 28.5t-7 18t-16 12t-28 6t-38 3t-52 0.5h-6q-41 0 -64.5 2.5t-52 11.5t-48 30t-33.5 56q-12 31 5 50.5t52 37.5q139 74 446 217q53 25 93.5 64
t63.5 78.5t42.5 78t44 70.5t55.5 47q14 -34 14 -62t-6.5 -44.5t-22.5 -47.5t-25 -55q-11 -35 -5.5 -42t41.5 -5q20 1 68 6t81 2.5t68 -16.5q85 -35 95.5 -100.5t-62.5 -122.5q-46 -36 -111 -73.5t-118 -55.5q-9 -3 -20.5 -3.5t-19 0t-21 2t-19.5 1.5l-18 34q4 18 46.5 46.5
t91.5 55t90.5 61t43.5 63.5q-58 6 -157 -11t-156 -41q-10 -4 -19.5 -12t-16 -14.5t-14.5 -19t-11.5 -19t-11 -22t-9.5 -19.5q-43 -81 -46 -99q-4 -28 31 -45q20 -10 80 -28q43 -13 68 -22.5t54.5 -32t45.5 -54.5q25 -43 22 -73.5t-44 -61.5q-140 -101 -377 -133
q-50 -7 -77.5 -33.5t-35 -62t-9.5 -71t-8.5 -67.5t-23.5 -44l-20 10q-23 31 -27.5 72t0.5 76t0 79zM682 670q-64 10 -150 28q-60 -86 -75 -121q-31 -69 22 -61q26 4 100.5 27.5t122.5 46.5q32 17 41.5 31.5t-1 24t-25.5 15t-35 9.5zM279 801h104q44 -1 81 64q31 55 24 87
q-5 19 -25 11q-132 -47 -193 -78q-67 -35 -61.5 -59.5t70.5 -24.5z" />
    <glyph glyph-name="percent" unicode="%" horiz-adv-x="1101" 
d="M176 96q-23 0 -33 4q-38 15 -59.5 39t-23 55.5t3 60.5t22.5 67t31 60.5t33 55.5q172 276 425 469q51 39 159 109.5t193 135t140 128.5q-53 37 -180 18.5t-255.5 -58t-185.5 -71.5q-66 -37 -72.5 -60t23.5 -91q31 -74 22.5 -107t-77.5 -75q-47 -30 -86 -46.5t-84.5 -24
t-85 12.5t-70.5 68q-30 54 -7 117t73.5 118t99.5 74q36 14 130.5 59t148.5 62q168 52 302.5 73t305.5 21q36 0 66 -22.5t39 -57.5q8 -34 -4.5 -57.5t-43.5 -50.5q-83 -73 -206 -167t-218.5 -168t-198 -164.5t-188.5 -197t-147 -225.5q-20 -38 -25.5 -62.5t0 -36.5
t13.5 -19.5t15 -18.5t5 -27zM279 1065q-52 -15 -105.5 -72.5t-46.5 -107.5q113 35 149 59q76 52 3 121zM616 252q-111 4 -127 87q-13 70 43 153q54 82 127 102q30 9 58 4q32 -6 51 -22.5t24.5 -35t14.5 -48t20 -48.5q18 -29 16.5 -53t-22.5 -51q-26 -32 -94.5 -61
t-110.5 -27zM604 330q6 4 41.5 25t61 38.5t34.5 28.5q6 11 2.5 30.5t-10.5 30.5q-20 34 -65 -13t-68 -89q-7 -12 4 -51z" />
    <glyph glyph-name="ampersand" unicode="&#x26;" horiz-adv-x="1423" 
d="M741 737q15 22 112 52t213 50.5t222.5 29.5t138.5 -11q6 -4 11.5 -10t8.5 -11t8 -14.5t7 -13.5q-8 -1 -39.5 -3t-58.5 -4.5t-65.5 -6.5t-69 -9.5t-60.5 -12t-50 -16t-27 -20.5q7 -33 -8.5 -52.5t-51.5 -43.5l-276 -182q-42 -29 -46 -38q-7 -13 25 -39q4 -4 10 -9
q41 -34 93 -62t118 -58t99 -48q102 -58 35 -58q-23 0 -68 7q-83 16 -178.5 63.5t-177.5 106.5q-28 20 -64.5 21.5t-73 -12.5t-79 -34.5t-83.5 -44.5t-85.5 -42.5t-84.5 -28.5t-82.5 -1.5t-78.5 37.5q-47 38 -53 73.5t26 86.5q25 38 56.5 72.5t60.5 57.5t59 46.5t54.5 42
t44 42t30 47.5t10 57.5t-13.5 74.5q-19 66 -3 124.5t63.5 103.5t109.5 78.5t135.5 51t141.5 21t127.5 -12t93.5 -48.5q37 -38 37 -69.5t-35 -72.5q-54 -62 -127.5 -114.5t-167 -107t-143.5 -91.5q-28 -21 -25.5 -46.5t19.5 -47.5t42.5 -34.5t43.5 -6.5q35 12 75 34.5
t64.5 39.5t60.5 44.5t43 32.5q-15 -2 -36.5 -1t-41 3t-33 11.5t-12.5 25.5zM829 1120q-75 0 -158.5 -20.5t-138.5 -57.5q-78 -53 -106 -146q-22 -74 5 -107q22 -27 67 -5q54 27 219 143.5t178 145.5q4 9 5.5 16t0 11.5t-3.5 8t-8 6t-9.5 3.5t-12.5 1.5t-12.5 0.5h-13h-12.5z
M467 459l20 24q-4 5 -13.5 20t-16 25t-18 22t-21.5 17t-23 5t-26 -9q-56 -37 -149 -128t-85 -128q12 -2 44.5 9.5t76.5 33t82.5 41.5t79 41.5t49.5 26.5z" />
    <glyph glyph-name="quotesingle" unicode="'" horiz-adv-x="518" 
d="M227 1030q-31 -32 -50 -17.5t-9 42.5q38 91 43 119q1 3 3 11t3.5 12.5t5 10t10 8t15.5 3.5q53 2 66.5 -21t-8.5 -60.5t-40.5 -62t-38.5 -45.5z" />
    <glyph glyph-name="parenleft" unicode="(" horiz-adv-x="514" 
d="M973 1370q-96 -42 -204 -117.5t-221.5 -189.5t-205.5 -245t-155 -295.5t-72 -329.5q-7 -120 59 -156q9 -21 -3.5 -32t-23.5 -5q-60 25 -93.5 76.5t-39.5 115t5 140t34.5 149.5t55 146.5t60 128.5t54.5 98q238 386 627 604q35 19 51 24t39 5t44 -20t22 -46t-33 -51z" />
    <glyph glyph-name="parenright" unicode=")" horiz-adv-x="870" 
d="M-137 63q28 23 94 75.5t108.5 87t110.5 93t113.5 103t103 107.5t93.5 115.5t71 118t49.5 125t14.5 126t-21 129.5q-31 94 -94 153t-166 103q-29 12 -51 12.5t-33 -6t-20 -13t-17.5 -5t-19.5 15.5q-8 12 -16 38.5t-1 35.5q16 19 78 26q8 3 18.5 1.5t12.5 -2t12 -5t16 -6.5
q163 -60 281.5 -209t118.5 -309q0 -108 -49.5 -224.5t-125.5 -215.5t-179.5 -198.5t-198.5 -172.5t-195 -139q-3 -2 -14 -10t-17.5 -12t-16.5 -8t-19 -5q-41 -5 -57.5 22.5t16.5 52.5z" />
    <glyph glyph-name="asterisk" unicode="*" horiz-adv-x="622" 
d="M508 1436q-44 -33 -143 -64q77 -65 97 -109q11 -22 -5 -26q-9 -18 -45 -8q-44 41 -82 67q-29 -53 -62 -75q-29 -20 -46.5 1.5t-10.5 53.5q4 21 -3.5 26t-51.5 -4q-29 -8 -48.5 9.5t1.5 46.5q23 9 46 17.5t34 11t20 7.5t10.5 6.5t-1.5 10t-8.5 15t-18 23.5t-23.5 34
q-12 20 -10 36.5t30 16.5q25 0 48 -35q16 -23 28 -25t19.5 8t21.5 38q11 23 40 33.5t40 -17.5q3 -12 2.5 -27.5t-1.5 -21.5t3 -12q7 -4 21.5 1t36 15t34.5 14q41 10 55.5 -13.5t-28.5 -53.5z" />
    <glyph glyph-name="plus" unicode="+" horiz-adv-x="784" 
d="M422 834l-21 -140q72 3 107 0q55 -4 72 -18q16 -15 10 -32t-33 -23q-72 -14 -166 -17q-12 -84 -18 -108q-14 -52 -33 -64q-19 -13 -35.5 -5.5t-19.5 34.5q-3 57 6 139q-137 0 -164 16q-9 4 -14 21t3 33t29 16l158 4q22 144 47 172q5 8 24 9.5t35.5 -7.5t12.5 -30z" />
    <glyph glyph-name="comma" unicode="," horiz-adv-x="591" 
d="M250 367q-46 -64 -107 -102q-67 -41 -76 5q-1 3 -1 6q-1 9 13.5 31t16.5 27q9 20 17 59.5t18 61.5q19 37 53.5 53.5t62.5 0t29 -62.5q2 -35 -26 -79z" />
    <glyph glyph-name="hyphen" unicode="-" horiz-adv-x="806" 
d="M182 686q93 2 192.5 5.5t108.5 3.5t62 -1q54 -3 71 -18q16 -15 10.5 -32t-32.5 -23q-88 -16 -238 -19.5t-192 14.5q-9 4 -14 21t3 33t29 16z" />
    <glyph glyph-name="period" unicode="." horiz-adv-x="493" 
d="M186 334q-34 0 -52.5 40t-5.5 81.5t58 46.5q62 7 82.5 -35.5t-5.5 -87.5t-77 -45z" />
    <glyph glyph-name="slash" unicode="/" horiz-adv-x="694" 
d="M764 1464q-101 -192 -416.5 -778.5t-335.5 -615.5q-29 -49 -51 -54q-21 -6 -32.5 7t-4.5 40q30 84 393.5 757.5t395.5 695.5q14 10 41 -6.5t10 -45.5z" />
    <glyph glyph-name="zero" unicode="0" horiz-adv-x="860" 
d="M768 745q-69 -141 -183.5 -258.5t-252.5 -191.5q-85 -47 -149.5 -37.5t-129.5 82.5q-73 82 -47 170q54 189 151.5 337t250.5 283q18 16 42 42.5t36.5 37.5t33 20t45 1.5t58.5 -29.5q277 -185 145 -457zM653 1090q-38 59 -96 22q-104 -67 -240 -261q-136 -195 -185 -341
q-46 -138 27 -136q28 0 72 23q135 68 250.5 182.5t180.5 247.5q69 143 -9 263z" />
    <glyph glyph-name="one" unicode="1" horiz-adv-x="555" 
d="M469 1100q-28 -16 -86.5 -40t-129.5 -47t-124 -21.5t-55 38.5q-2 17 28 29q49 24 246 103t225 83q25 4 51.5 -8t42 -32t19.5 -44t-14 -45q-183 -212 -265 -322q-247 -331 -247 -513q-75 6 -99 52t13 146q41 97 106 199t153.5 224.5t135.5 197.5z" />
    <glyph glyph-name="two" unicode="2" horiz-adv-x="956" 
d="M211 463q14 0 177 5.5t290.5 5t146.5 -12.5q22 -14 34.5 -32t0.5 -32.5t-55 -11.5q-159 10 -396.5 -6.5t-336.5 -48.5q-100 -33 -158 14q-44 36 -44.5 63.5t44.5 55.5q330 199 520 334q64 44 147 123q167 159 83 186q-99 32 -257.5 5t-236.5 -85q-21 -15 -43 -16.5
t-37 8.5t-24 25t-5 34.5t21 36.5q85 81 281 95q180 12 320 -39q130 -47 138 -123q4 -44 -35 -93q-63 -78 -164.5 -163.5t-225 -179t-185.5 -148.5z" />
    <glyph glyph-name="three" unicode="3" horiz-adv-x="854" 
d="M-141 449q26 -49 116 -59.5t200 14.5t214.5 65.5t172 97t59.5 105.5q-5 28 -31.5 46t-68.5 25.5t-80 10t-82.5 3.5t-59.5 3q-39 3 -75.5 25.5t-41.5 52t49 59.5q47 25 150.5 64.5t177.5 85.5q132 79 84 100q-37 16 -147 -10q-157 -32 -326 -99q-23 -9 -43.5 0t-24.5 35
q-2 11 6 29t17 24q89 59 268 95.5t293 25.5q38 -3 69.5 -30t43.5 -66q15 -43 -18 -87.5t-82 -75.5t-107 -68.5t-78 -61.5q18 -26 80.5 -72.5t85.5 -74.5q50 -65 48 -115t-58 -111q-38 -37 -107.5 -77t-154 -74.5t-174.5 -50.5t-167 -10.5t-134 50t-74 126.5z" />
    <glyph glyph-name="four" unicode="4" horiz-adv-x="868" 
d="M164 719l338 90q10 4 18.5 8.5t16.5 11t13 10.5t13 14t11 13.5t12.5 16.5t11.5 16q8 11 61 85.5t74 102t62.5 78t78.5 86.5q38 35 65 28t40.5 -34t7.5 -49q-12 -42 -80 -115q-52 -56 -83 -109t-60 -130q-2 -4 -6 -13.5t-6 -13.5q-14 -23 -48.5 -63.5t-46.5 -57.5
q-96 -139 -156.5 -269t-68.5 -259q-39 12 -61 24q-43 24 -50 72t13 106.5t46.5 116t50.5 114t26 85.5q-34 -6 -123 -37.5t-165 -48.5t-118 -2q-60 23 -67.5 58.5t32.5 84.5q75 95 234.5 264t181.5 193q10 11 14 15t13 10t18 5t19 -7q37 -22 12 -74q-28 -53 -75.5 -111.5
t-91.5 -102.5t-94.5 -102.5t-82.5 -109.5z" />
    <glyph glyph-name="five" unicode="5" horiz-adv-x="894" 
d="M199 791q24 2 139.5 20t187 17t133.5 -27q51 -22 73 -65t11 -90.5t-51 -84.5q-85 -77 -320 -187t-313 -81q-37 14 -51 32.5t-3 36t46 29.5q378 130 494 207q51 35 70 67t-4 50.5t-89 13.5q-45 -3 -110.5 -18.5t-113.5 -30.5t-106 -34.5t-67 -22.5q-70 -22 -105 20
q-19 24 -19.5 52.5t15 57t39 58t52.5 58.5t55 54t47.5 49t28.5 40q29 67 57 78.5t102 -3.5q62 -8 150 -5t178.5 1t105.5 -14q22 -20 33 -55q-5 -10 -16 -17t-32.5 -11.5t-44.5 -7t-64 -4.5t-78.5 -3.5t-101.5 -4t-121 -5.5q-37 -2 -58 -10.5t-45 -35.5z" />
    <glyph glyph-name="six" unicode="6" horiz-adv-x="763" 
d="M219 709q18 1 107.5 10t136.5 10q115 0 168 -51q35 -37 30 -75.5t-43 -76.5q-97 -98 -223 -172t-256 -106q-111 -27 -170 40t-28 175q25 91 77 170q64 103 215.5 264t272.5 270q11 33 49 43t59 -22q16 -31 9 -50.5t-37 -37.5q-34 -22 -73 -56.5t-86 -87t-73.5 -83.5
t-77.5 -94t-57 -70zM238 598q-78 -21 -128.5 -67.5t-66.5 -133.5q-7 -37 3.5 -45t45.5 2q119 28 256 119q111 74 128 121q11 33 -38 38q-60 5 -200 -34z" />
    <glyph glyph-name="seven" unicode="7" horiz-adv-x="960" 
d="M700 893q18 -5 63 -11.5t60 -9.5q28 -7 43.5 -27t1 -36t-58.5 -12q-140 12 -249 -33t-214 -152q-32 -31 -97.5 -93.5t-96.5 -94.5q-4 -4 -15 -14.5t-14 -13t-10.5 -11t-9 -12t-6 -12t-4 -14.5t0 -15.5t1.5 -19.5t5 -23q9 -34 -21 -39q-32 -6 -62 23q-45 45 -6 118
q2 4 5 8q33 54 91 114.5t125 124t102 105.5q-16 -6 -119.5 -19t-110.5 -9q-26 6 -39.5 23.5t-7.5 37.5t31 31q57 22 130.5 33.5t128.5 16t123 27t124 66.5q8 7 35 26q109 81 127 118q23 45 -51 53q-12 2 -27 2q-72 3 -183.5 -18.5t-218.5 -59.5q-21 -8 -48 -24.5t-48 -30.5
t-42.5 -25t-40 -10.5t-31.5 14.5q-5 16 -6 30.5t3.5 26.5t10.5 22t17.5 19.5t21 16.5t24.5 14.5l25 12.5t25.5 11.5t23.5 10.5q153 64 360 87q233 26 314 -32q89 -63 -60 -213q-19 -20 -125 -108z" />
    <glyph glyph-name="eight" unicode="8" horiz-adv-x="823" 
d="M485 520q-2 1 -11.5 7t-14 8.5t-12.5 6.5t-15.5 5.5t-15.5 1.5q-18 -11 -37.5 -36.5t-39.5 -41t-50 -14.5q-5 46 14.5 100.5t18.5 58.5q-3 13 -29.5 34.5t-60.5 44t-67.5 57t-54.5 71t-17 87.5t40 106q34 52 118.5 105.5t181.5 88t193.5 47t155.5 -17.5q68 -33 85 -109.5
t-23 -138.5q-20 -34 -175.5 -185.5t-158.5 -176.5q-2 -18 14 -47t33 -56.5t27.5 -58t-5.5 -60t-63 -53.5q-373 -184 -512 29q-60 91 -10 178q59 104 136 102q46 0 68 -32q19 -29 -7 -45q-5 -4 -13 -6q-48 -13 -70 -37t-40 -76q-28 -84 84 -84q100 0 246 54q53 20 63 30
q9 9 24 53zM172 842q-1 -34 51.5 -70t115 -55.5t93.5 -14.5q23 26 79 88t88 97.5t76 89t77 98.5q12 16 12 29.5t-10.5 22.5t-27 14.5t-38.5 7.5q-78 7 -198.5 -35t-218 -118.5t-99.5 -153.5z" />
    <glyph glyph-name="nine" unicode="9" horiz-adv-x="950" 
d="M696 899q-213 -117 -413 -170q-48 -13 -101.5 -3t-87 38t-39.5 68.5t41 89.5q101 109 257 186.5t317 99.5q91 13 164 -19t98.5 -93t-4.5 -142q-41 -96 -134 -206.5t-207.5 -208t-237.5 -180t-232 -134.5q-31 -10 -46 -5.5t-46 26.5q-11 24 1.5 37t46.5 24t44 17
q204 123 380.5 282t305.5 338q-49 -15 -107 -45zM262 842q64 9 159 57t190 94t163 54q62 2 72.5 25.5t-18 45t-58.5 17.5q-113 -18 -279.5 -87.5t-236.5 -146.5q-46 -49 -28 -61q9 -5 36 2z" />
    <glyph glyph-name="colon" unicode=":" horiz-adv-x="620" 
d="M299 739q-34 0 -52.5 40t-5.5 81.5t58 46.5q62 7 82.5 -35.5t-5.5 -87.5t-77 -45zM197 367q-34 0 -52.5 40t-5.5 81.5t58 46.5q62 7 82.5 -35.5t-5.5 -87.5t-77 -45z" />
    <glyph glyph-name="semicolon" unicode=";" horiz-adv-x="620" 
d="M250 379q-46 -64 -107 -101q-67 -41 -76 5q-1 3 -1 6q-1 9 13.5 30.5t16.5 26.5q9 20 17 59.5t18 61.5q19 37 53.5 53.5t62.5 0.5t29 -62q2 -36 -26 -80zM299 739q-34 0 -52.5 40t-5.5 81.5t58 46.5q62 7 82.5 -35.5t-5.5 -87.5t-77 -45z" />
    <glyph glyph-name="less" unicode="&#x3c;" horiz-adv-x="819" 
d="M324 373q-53 13 -109 43.5t-98.5 72t-46.5 88.5t47 93q40 34 108 71t115.5 57.5t142 58.5t113.5 46q46 17 83 -11q32 -25 16 -55q-8 -15 -29 -26q-64 -38 -207 -91t-189 -75q-29 -15 -49.5 -27.5t-30.5 -25t-15 -22.5t0.5 -22t12.5 -21t24.5 -21.5t32 -22t40.5 -24.5
q10 -7 61 -27q37 -13 43 -29t-15 -25.5t-50 -4.5z" />
    <glyph glyph-name="equal" unicode="=" horiz-adv-x="780" 
d="M131 618q96 2 192 5.5t109 4t62 -0.5q53 -3 71 -19q16 -15 10.5 -32t-32.5 -23q-88 -16 -238.5 -19t-191.5 15q-9 4 -14 21t2.5 32.5t29.5 15.5zM145 776q93 2 192.5 5.5t108.5 3.5t62 -1q55 -4 72 -18q16 -15 10 -32t-33 -23q-88 -16 -238.5 -19t-191.5 15q-9 4 -14 21
t2.5 32.5t29.5 15.5z" />
    <glyph glyph-name="greater" unicode="&#x3e;" horiz-adv-x="763" 
d="M37 438q-4 13 9.5 26t29.5 19q51 22 145.5 53t165.5 63t133 81q-25 45 -93 79t-133 57t-77 40q-22 29 -0.5 47t51.5 8q60 -22 88 -33t75.5 -34t80 -50t57.5 -61q57 -69 47.5 -123t-94.5 -90q-254 -105 -368 -147q-39 -16 -72.5 -0.5t-44.5 65.5z" />
    <glyph glyph-name="question" unicode="?" horiz-adv-x="839" 
d="M612 1284q-95 -30 -158 -86t-108 -156q-8 -16 -11 -38t-3 -38.5t-1 -31t-7.5 -20.5t-20.5 -3q-34 8 -50.5 38t-16.5 69q-2 97 73.5 185t185.5 139t218 55q51 2 90.5 -16.5t58 -48t16.5 -66.5t-28 -70q-55 -70 -135.5 -150.5t-143.5 -139t-137 -145.5t-127 -179
q-8 -15 -25.5 -23t-33.5 0q-34 18 -23 53q38 105 125 212.5t211 230.5q10 10 35.5 33t49 45t42.5 41q43 43 57 74.5t1 45.5t-48 12t-86 -22zM106 373q-14 44 34 76q44 29 87 17q41 -12 41 -60q0 -40 -21.5 -67.5t-48.5 -33.5t-54.5 11t-37.5 57z" />
    <glyph glyph-name="at" unicode="@" horiz-adv-x="1138" 
d="M395 639q12 8 33.5 25t37 28.5t37 25t39 17.5t36 3.5t35 -14.5t30.5 -40q3 -6 8.5 -16t6.5 -13.5t5.5 -8.5t5 -6.5t6.5 -2.5t8 0t10.5 4t13.5 5.5t18 8.5q124 57 181.5 185t2.5 250q-57 124 -207 119q-142 -5 -301 -118q-163 -117 -247 -282q-102 -198 -41 -385
q18 -55 53 -84t82 -31.5t97.5 7.5t108.5 34t104.5 46.5t97 47.5t75.5 35q3 1 12.5 4.5t12 4t10 2.5t10.5 1.5l9 -1.5t10 -4t8.5 -7.5t9.5 -11.5q8 -15 4 -31t-14 -28q-46 -54 -176.5 -114t-216.5 -77q-163 -32 -279 70q-95 85 -127 198t-7 223.5t91.5 218.5t159.5 189.5
t207 130t223 45.5q94 -3 169 -48t117 -112.5t53.5 -150.5t-10 -161.5t-86 -147t-163.5 -105.5q-43 -16 -73.5 -19.5t-45 2.5t-29.5 14t-27 15t-37.5 5t-62.5 -15q-59 -27 -98.5 -25t-89.5 50q-56 61 -21.5 133.5t105.5 133t129 77.5q48 13 101 -11t59 -73q3 -31 -29 -55
q-10 1 -49 14q-45 16 -89 -11.5t-70.5 -73t-35.5 -89.5z" />
    <glyph glyph-name="A" unicode="A" 
d="M1407 694q72 8 224 26.5t270 30t225 15.5q62 2 103 -17t63 -71q-148 0 -429 -42.5t-415 -45.5q-113 -2 -186 -120q-64 -100 -63 -220q0 -118 65 -161q46 -31 118 -9q5 2 28.5 11t34.5 11.5t27.5 -2t26.5 -20.5q14 -23 -23 -52q-53 -41 -131 -33q-53 5 -102 36
q-99 63 -133.5 170.5t0.5 218.5q10 35 15 54.5t3 35.5t-6.5 22t-22.5 8.5t-35.5 1t-55.5 -6.5q-35 -4 -88.5 -10.5t-74.5 -8.5t-59 -8.5t-53.5 -12t-45.5 -16.5t-48.5 -24t-49 -34t-59.5 -45.5t-69 -60.5q-70 -61 -199 -190q-44 -44 -92 -30q-36 11 -38 45q-3 27 22 55
q23 26 91 79t126.5 104t72.5 85q-63 10 -243 15q-134 3 -159 24q-17 15 -3 41q41 22 103 26.5t127 1t134 -3.5t143.5 20t135.5 66q96 72 250.5 197t262.5 211.5t257.5 184.5t286.5 159q10 4 30.5 13.5t30.5 13.5q43 16 77.5 0t40 -50.5t-19.5 -76.5q-85 -119 -258 -326
t-233 -285zM1698 1270q-83 -35 -281.5 -177t-397 -296t-210.5 -162q-8 -5 26 -3q19 1 294 33q62 7 77 7q25 0 96 78t162.5 200t141.5 191.5t92 128.5z" />
    <glyph glyph-name="B" unicode="B" horiz-adv-x="2922" 
d="M498 1137q260 130 526 173t563 17q30 -3 51 -7t47.5 -13t41.5 -27.5t18 -44.5q2 -22 -12.5 -46.5t-36 -44t-55.5 -41.5t-59.5 -35.5t-58.5 -31t-42 -22.5h122.5t119 -1.5t128 -4.5t120.5 -9.5t127 -16t117 -24.5t121 -34t109 -46t109 -59q59 -37 98 -114q21 -42 23.5 -82
t-9.5 -72t-38.5 -62t-56 -52t-70 -44t-72 -36t-70.5 -29q-200 -78 -455.5 -134.5t-533.5 -87.5t-508.5 -46.5t-496.5 -24.5q-45 -1 -313.5 -5.5t-409.5 -15.5q-35 -3 -103.5 -14t-103.5 -14q-22 -1 -33 0t-22 10t-17 29q-20 67 45 81q33 7 66.5 11.5t74 6t64 2t74.5 0
t67 -0.5q105 0 161.5 34.5t109.5 127.5q106 187 243 379q30 40 32 49t-5 57q1 15 -1 22t4 13.5t9.5 8.5t15 7.5t19.5 10.5q91 53 137 96.5t105 130.5q-41 -2 -70 -27q-18 -16 -35.5 -18t-26.5 3t-16 13q-15 18 3.5 51t58.5 54zM205 156q83 1 177.5 8t207.5 18.5t176 16.5
q151 11 320 29t407 49t462 79t374 105q137 52 195 108t39 106t-92.5 94.5t-195.5 78.5q-238 65 -577.5 72t-639 -33t-478.5 -109q-43 -17 -65 -33.5t-52 -54.5q-218 -277 -297 -405q-17 -27 -25 -47.5t-8.5 -40t17.5 -30.5t55 -11zM1511 1257q-160 8 -381.5 -22.5
t-261.5 -71.5q-24 -24 -68 -69t-80.5 -82.5t-66.5 -69.5q274 32 490.5 79t390.5 132q52 25 71.5 47.5t-3 38t-91.5 18.5z" />
    <glyph glyph-name="C" unicode="C" horiz-adv-x="2390" 
d="M1477 1010q195 109 264 168q59 50 64 83.5t-33 45t-105 2.5q-178 -25 -415 -124.5t-455 -232t-402 -288.5t-262 -287q-26 -43 -33.5 -70t6 -48.5t37 -35t72.5 -33.5q129 -51 314.5 -53.5t370.5 30.5t395.5 93.5t373 120t318.5 125.5q167 67 167 -23q0 -9 -18.5 -23.5
t-32.5 -21.5q-271 -139 -761 -269t-777 -130q-115 0 -235 16.5t-183 55.5q-76 47 -112 102.5t-36 109t27.5 112.5t69 109.5t99.5 102.5q226 205 467.5 360.5t517 261t549.5 136.5q131 17 194 -70q29 -40 28.5 -67.5t-28.5 -67.5q-43 -62 -190 -160t-226 -102q-40 0 -49 26
t19 46z" />
    <glyph glyph-name="D" unicode="D" horiz-adv-x="2795" 
d="M989 1077q-44 -22 -124 -58.5t-91 -35.5q-48 5 -63 38t28 73q61 50 238 103t270 60q91 6 151.5 9.5t185 7.5t217.5 -1.5t216.5 -15.5t216 -36t182 -62.5t149 -96t85.5 -134.5q16 -45 16.5 -86.5t-9 -73.5t-34 -64t-48 -53.5t-63 -47t-67 -40.5t-71.5 -37
q-156 -80 -363.5 -147t-470.5 -120.5t-396.5 -77t-380.5 -61.5q-47 -8 -69 -11q-12 -2 -32 -4.5l-28 -3.5t-22.5 -3.5t-20 -5.5t-15.5 -8t-13.5 -12t-9.5 -16.5t-8 -22t-4.5 -28.5t-3.5 -36q0 -29 -26.5 -36t-45.5 6q-28 14 -21 65q7 49 -16.5 66t-71.5 14
q-17 -1 -110.5 -12.5t-175 -18.5t-93.5 0q-34 23 -31.5 66t44.5 49q31 4 146 5.5t208 12.5t129 41q45 39 105 162q45 87 112.5 201t172 282t126.5 205zM2406 1047q-95 58 -226.5 90t-289.5 38t-291.5 1.5t-304.5 -19.5q-86 -7 -221 -203q-34 -45 -220 -359.5t-189 -334.5
q-4 -16 2.5 -24.5t22 -9.5t28.5 0.5t32 5t23 4.5q410 69 849 176t677 217q59 27 108 64t82 82.5t40.5 91.5t-22.5 93.5t-100 86.5z" />
    <glyph glyph-name="E" unicode="E" horiz-adv-x="1705" 
d="M334 1110q-48 48 14 100q13 12 199 57.5t246 55.5q273 52 583.5 83t650 30t586.5 -47q79 -14 104 -54q20 -30 -14 -47q-41 -19 -133 2q-72 17 -164 27q-112 14 -192 14q-149 4 -396.5 -3t-519 -32.5t-356.5 -64.5q-5 -56 -34 -111.5t-63 -93.5t-76 -89t-64 -89
q131 -7 370 9t326 17q87 0 114.5 -20t-6 -41.5t-98.5 -26.5q-38 -3 -109 -6t-92 -4q-405 -28 -602 -51q-64 -6 -104 -37q-147 -110 -252 -253q-131 -180 -96 -284q48 -139 387 -92q184 28 520 91t610.5 105t526.5 58q46 3 68 -3.5t22.5 -18t-2.5 -25.5q-1 -2 -2.5 -10
t-3 -10.5t-6.5 -8.5t-12.5 -8.5t-21 -5.5t-32.5 -4q-219 -12 -500 -57t-508.5 -91t-444.5 -83t-375.5 -35t-234.5 55q-111 77 -134 174.5t40 200.5q28 49 85 110t129 129t100 99q-86 0 -126 42q-28 29 -6 49q26 25 105 5q49 -13 103.5 6.5t97 52t98 97t86.5 108t84 119.5
q-24 -4 -80 -19.5t-137.5 -39t-118.5 -33.5q-11 -3 -33 -9.5t-31.5 -8.5t-24.5 -3t-26.5 5t-23.5 18z" />
    <glyph glyph-name="F" unicode="F" horiz-adv-x="2060" 
d="M582 911h1316q57 3 67 -29q7 -22 -16 -35q-7 -4 -16 -5q-75 -9 -249.5 -9t-231.5 -4q-565 -41 -967 -41q-10 0 -19.5 -2.5t-19.5 -10t-16 -12.5t-16.5 -18t-14 -17t-14.5 -20t-12 -18q-45 -64 -91.5 -155t-107 -227t-76.5 -169q-20 -42 -23 -68t6 -37.5t21.5 -17.5
t24 -16t12.5 -27q-33 -28 -70 -19.5t-66.5 43t-29.5 71.5q0 60 31 151q64 169 209 471q23 42 20 54.5t-51 23.5q-69 16 -46 54q20 32 76 50q16 5 30 7q78 11 116 47q31 30 81 102.5t69 114.5q12 31 8 35t-37 4q-13 0 -119 -13.5t-177 -8t-93 41.5q-16 31 -11.5 39t36.5 16
q52 14 119 24.5t109 14.5t129 11.5t112 9.5q45 4 70.5 12.5t36 17.5t32 26.5t49.5 33.5q37 20 61 25t35 -2.5t22 -20.5t21 -27t33 -23.5t57 -8.5q205 6 432 22.5t516.5 42.5t432.5 37q97 8 157 11t146 1t156 -14q63 -11 92 -45q23 -28 -6 -38q-25 -9 -84 3q-52 10 -80 10
q-74 -2 -149 -5.5t-164.5 -9.5t-145 -10t-164 -13.5t-145.5 -12.5t-164 -15t-148 -14q-87 -8 -246 -21t-289 -25.5t-245 -28.5q-14 -2 -46 -11t-58.5 -16t-58.5 -10.5t-46 6.5q-23 -10 -75 -101t-72 -137q-13 -31 -7 -38t42 -7z" />
    <glyph glyph-name="G" unicode="G" horiz-adv-x="2887" 
d="M2167 575q-92 -7 -277.5 -20t-277.5 -20q-57 -4 -163.5 -16t-195.5 -19t-163 -4q-21 1 -41 8t-33.5 18.5t-22 25t-6.5 28.5t12 29t35 25.5t62 18.5q33 6 68 10t78 7t68 4.5t78.5 4t69.5 3.5q155 8 505 14.5t536 18.5q8 1 42.5 4.5t51 4t46.5 -1.5t47 -9t33.5 -23.5
t22.5 -40.5q-34 -18 -96.5 -24.5t-140 -7t-105.5 -3.5q-23 -2 -32 -6t-11.5 -6.5t-4 -19.5t-3.5 -29q-3 -14 -9 -27t-17.5 -25t-21 -21t-27.5 -19.5t-27.5 -16.5t-31.5 -16t-29.5 -13t-30.5 -12t-25 -10q-200 -80 -415.5 -148.5t-455 -127t-478 -82.5t-427.5 -4
q-167 16 -241 86q-72 69 -85.5 153.5t35.5 171.5q52 91 152.5 190.5t223.5 188.5t233.5 159t220.5 130q449 245 784 321q12 2 47.5 10t51 11t46 7.5t50 4.5t44.5 -2.5t46 -9.5q56 -18 78.5 -59.5t12.5 -89t-44 -89.5q-39 -48 -119.5 -122t-130.5 -107q-7 -5 -18.5 -6
t-18.5 6q-5 7 -5 16t4.5 20.5t12 23.5t19.5 27t23.5 28.5t28 30.5t29.5 31t30.5 32t29.5 31q133 145 -11 142q-95 -1 -271 -60q-210 -71 -444.5 -182t-481 -270t-405.5 -319q-123 -123 -153.5 -211t39.5 -139.5t243 -58.5q245 -11 603.5 59t674 179t479.5 214z" />
    <glyph glyph-name="H" unicode="H" horiz-adv-x="2291" 
d="M178 14q-21 25 -21.5 79.5t14.5 121.5t41.5 146t56.5 152t63 142q-42 0 -160 -23t-154 -20q-34 1 -51 25.5t-4 52t53 35.5q49 9 117 17t127 14t72 8q41 4 60 18.5t40 53.5q47 84 141.5 271t141.5 271q18 29 52.5 38.5t60.5 -7.5t22 -57q-3 -39 -134.5 -253t-150.5 -257
q-10 -22 -4 -32t31 -7q70 8 184 27t204 33t255 27.5t362 18.5q42 1 73.5 23.5t64.5 62.5q8 10 55 65.5t62.5 73.5t56 63t64.5 67.5t58 52t64 49.5q80 56 131 -2q35 -40 -2 -70q-360 -300 -401 -391q309 0 377 -59q12 -10 20.5 -24.5t1 -27t-38.5 -8.5q-10 1 -80.5 9.5
t-100.5 11t-91 2.5t-117 -6q-54 -6 -94 -56q-298 -373 -371 -682q-7 -20 -22 -25.5t-35 13.5q-18 21 -18.5 60.5t14.5 92t36.5 108.5t53.5 120t59 116.5t59.5 108t49.5 84t33 54.5q-104 16 -339.5 -8.5t-425.5 -57t-311 -59.5q-250 -415 -239 -631q1 -33 -24 -40.5t-42 15.5
z" />
    <glyph glyph-name="I" unicode="I" horiz-adv-x="1796" 
d="M1477 1198l22 59q-337 -49 -723.5 -148t-673.5 -196q-50 -16 -69 18q-16 29 9 61q19 23 54 32q255 81 410.5 127.5t381 101t417.5 82.5q215 33 363 50.5t341.5 30t372 0t346.5 -49.5q104 -22 131 -139q-71 47 -164 65q-288 61 -880 -8q-38 -4 -58 -21t-40.5 -50.5
t-43.5 -53.5q-22 -18 -73.5 -50.5t-75.5 -55.5q-392 -366 -719 -910q519 58 1003 88q90 5 117 -43q13 -24 15.5 -38.5t-7.5 -21t-22 -8t-37 -1.5q-23 1 -63 2.5t-73 2.5t-63 1q-210 2 -443.5 -23.5t-438.5 -78.5q-31 -8 -45 -23.5t-21 -40.5q-17 -50 -26.5 -62t-17.5 -3.5
t-28 49.5l-8 16q-13 26 -30 37t-39 11t-54 -1q-63 -2 -417 -77.5t-396 -71.5q-25 3 -34.5 23.5t0 42.5t32.5 30q46 19 107 34t151.5 31t112.5 21q84 16 265 44t276 48q31 7 49.5 18.5t36.5 38.5q217 361 372 569.5t398 440.5z" />
    <glyph glyph-name="J" unicode="J" horiz-adv-x="2355" 
d="M2103 1231q-284 -8 -665 -51.5t-758 -112.5q-59 -11 -197 -40t-241.5 -47t-198.5 -26q-68 -9 -110 28q-29 25 -13 44q8 9 27 12q124 34 329 64q103 16 304 50t360.5 59t304.5 42q62 8 143.5 17t209.5 22t249.5 23t237.5 16.5t201 5t116 -13.5q63 -26 77 -93t-30 -128
q-91 -125 -260 -263t-373.5 -263.5t-440.5 -236.5t-457.5 -186.5t-427 -108.5t-347.5 -7q-74 14 -117.5 43t-70.5 102q-36 101 33 185t180 127q85 34 198 67.5t181 40.5q31 4 45.5 -18t5 -48.5t-36.5 -35.5q-22 -7 -112 -26.5t-165.5 -45t-131.5 -63.5q-176 -116 -67 -175
q77 -41 246 -41q62 0 99 7q335 61 679.5 198t615 302t452.5 337q62 58 94 101.5t34.5 68.5t-12.5 41.5t-46.5 20.5t-67.5 6.5t-76 -0.5z" />
    <glyph glyph-name="K" unicode="K" horiz-adv-x="3031" 
d="M2359 1047q-19 -4 -75 -16t-84 -19q-334 -83 -572 -144l-692 -178q-3 -1 -15 -3t-20.5 -4t-22 -5.5t-22.5 -8t-17.5 -10t-12.5 -13t-3 -15.5q2 -14 12 -20.5t26 -5.5t30 3.5t31 7t22 5.5q247 36 558.5 60t646.5 28.5t556 -31.5q50 -7 95.5 -47t31.5 -88
q-231 41 -494.5 53t-538.5 -5t-514 -43.5t-519 -68.5q-33 -5 -54 -18t-38 -41q-100 -172 -128 -252q-30 -84 -11 -117q18 -27 -5 -34q-22 -6 -38 10q-25 25 -34 61t-5.5 69.5t19 80.5t29 76.5t36.5 76t30 62.5q-25 -4 -265.5 -45.5t-364.5 -51.5q-60 -6 -82 47
q-11 23 -8.5 44.5t26.5 35.5q63 37 784 244q53 15 83 36.5t61 65.5q57 85 131 180.5t172 199t164 137.5q39 20 67 -15q30 -37 -2 -74q-15 -18 -51 -48.5t-51 -47.5q-5 -6 -35.5 -38.5t-45 -48.5t-44 -49t-47 -55.5t-39 -51t-35 -52.5t-20.5 -45q66 17 191 42.5t177 37.5
q41 10 408 98t559 131q87 20 147 -2q42 -15 25 -37q-21 -25 -113 -44z" />
    <glyph glyph-name="L" unicode="L" horiz-adv-x="1705" 
d="M2726 147q-61 8 -128 13.5t-121 9t-131.5 3t-121.5 -0.5t-132 -5.5t-121 -7t-131.5 -10.5t-121.5 -11t-131 -13t-123 -12q-148 -15 -323 -42t-300 -50t-326.5 -61.5t-305.5 -57.5q-50 -8 -83 -11t-76.5 -1t-79 19.5t-64.5 49.5q-27 30 -30 49t13 55q31 77 410 515
t555 626q7 7 22 25l30 36t34 38.5t37 35.5t36 25.5t34.5 10.5t29.5 -13q20 -25 18.5 -42t-18.5 -42q-32 -50 -78 -100t-108 -109.5t-90 -89.5q-1 -1 -73 -77.5t-83 -88.5t-78.5 -85t-87.5 -96.5t-79 -90t-85 -99.5t-74 -92t-76.5 -99t-62 -89.5t-59.5 -93.5q-57 -105 424 -5
q47 9 125 27q53 11 67 14q152 29 339.5 57.5t413 53t435 37.5t409 9t331.5 -30q54 -10 78.5 -25.5t60.5 -58.5z" />
    <glyph glyph-name="M" unicode="M" horiz-adv-x="2783" 
d="M1706 1229q-184 -130 -406.5 -307.5t-373.5 -305.5t-396 -340q-58 -50 -208 -189.5t-238 -209.5q-21 -17 -76.5 -48.5t-75.5 -35.5q-9 -1 -53 21q10 15 63.5 66.5t132 121.5t150.5 133.5t145 127t89 77.5q546 490 864 747q77 63 224.5 173.5t207.5 158.5q8 6 22 19
t25.5 22t24.5 15q47 5 77 -18t17 -71q-4 -16 -31.5 -61.5t-29.5 -48.5q-20 -34 -90.5 -151.5t-119.5 -203t-110 -198t-100 -204t-51 -154.5q-9 -49 7 -61t60 7q73 30 234 143t314 233.5t329 258.5t243 187q35 27 59 29t62 -23q26 -20 31.5 -35t-6.5 -45q-14 -30 -50.5 -95.5
t-72 -128t-74 -144.5t-65.5 -154.5t-38 -149.5t0.5 -137.5t57.5 -110.5t127 -76q6 -2 14.5 -4.5t13 -4t11 -5.5t12.5 -10l21 -25q-104 -16 -185 16t-127 98.5t-67 158.5t-13 191.5t43.5 202.5t94.5 187q-55 -35 -163 -120.5t-217 -171.5t-224.5 -170.5t-218.5 -137.5
t-166 -53q-69 0 -107.5 30t-45 79t1.5 99t28 103q129 342 393 703z" />
    <glyph glyph-name="N" unicode="N" horiz-adv-x="2420" 
d="M772 1067q-103 -111 -223.5 -260.5t-276.5 -353t-215 -277.5q-7 -8 -28 -35.5t-32.5 -42t-29.5 -34.5t-33 -33q-48 -41 -84 0q-19 24 -18.5 37.5t16.5 40.5q96 146 369 479q125 158 205 256t196 226.5t220 223.5q27 25 45 26.5t45 -26.5q46 -53 18 -153
q-13 -46 -85.5 -265.5t-98.5 -347.5q-18 -90 -20 -158t10 -112t39 -69.5t62 -33.5t82.5 -2t98 22.5t111.5 43.5q115 49 244.5 128.5t269 186.5t241.5 190t249.5 209t207.5 175q9 7 29 27.5t34 31.5t31.5 19t31.5 -3.5t24 -43.5q6 -23 -2.5 -46t-19 -35.5t-27.5 -29.5
q-127 -124 -262.5 -243.5t-305.5 -251.5t-327.5 -234t-323.5 -176t-299 -92q-53 -9 -99.5 14t-95.5 74q-62 66 -84 161t-9 202t35.5 204.5t50 208t34.5 172.5z" />
    <glyph glyph-name="O" unicode="O" horiz-adv-x="1990" 
d="M27 612q5 20 12 31t24 23q48 34 100 78t86.5 77.5t91.5 89.5t87 84q51 47 121 99t114.5 81t133.5 85q95 63 256 111.5t332.5 69t335 -6t251.5 -103.5q60 -52 71.5 -103t-22.5 -124q-55 -106 -171 -232t-254.5 -240t-271.5 -209t-249 -165q-173 -104 -330 -172t-317 -94
q-64 -9 -115 -9t-89.5 14.5t-66.5 34.5t-46 51.5t-28.5 64.5t-13 74.5t-0.5 81.5t9.5 85t17.5 85t23 81q5 9 2.5 15t-4.5 7.5t-11.5 4.5t-19 5t-26 8.5t-33.5 16.5zM965 1198q149 2 191 -1q169 -16 169 -112q-108 15 -274.5 -7.5t-328.5 -77t-239 -123.5
q-154 -139 -248 -339q-91 -194 -69 -326q22 -127 148 -136q42 -3 94 8q172 39 389.5 140t424.5 234t383 298.5t257 318.5q31 57 35.5 109t-17 92.5t-77 65t-138.5 24.5q-465 -9 -700 -168z" />
    <glyph glyph-name="P" unicode="P" horiz-adv-x="3168" 
d="M563 973q-322 -102 -401 -174q-21 -21 -18.5 -35.5t15.5 -23.5t12 -15t-28 -10q-40 -6 -75.5 4.5t-47 36.5t24.5 69q24 28 75 59t128.5 64t128 52.5t140 51.5t97.5 35q57 20 96 44.5t57.5 45t50.5 50t71 53.5q43 26 74 18q34 -9 41 -28.5t-2 -37t-4.5 -29.5t34.5 -9
q83 8 235 34.5t201 33.5q177 27 318.5 43.5t306.5 28t325 8t312 -22.5q123 -14 217.5 -46t146.5 -73t62 -90t-24.5 -96.5t-125.5 -94.5t-229 -83q-196 -51 -391 -78q-196 -29 -429 -50t-401 -30.5t-432 -22.5q-463 -23 -602 -37q-39 -4 -61 -17t-47 -44q-258 -315 -340 -553
q-37 -43 -62 11q-20 42 -15 81q1 2 1 4q12 56 59 137t113 178t86 132q19 27 16 40t-12.5 14.5t-27 7.5t-25.5 18q-14 24 31 35q85 24 118 46t84 93q13 19 41.5 52t49 62t32.5 58zM2365 1260q-57 -1 -115 -4t-127 -9t-113.5 -9.5t-127.5 -13t-113.5 -13t-126.5 -15.5
t-114 -14q-177 -21 -619 -115q-31 -6 -43.5 -9.5t-31 -13t-37.5 -26.5q-45 -39 -135 -142.5t-115 -148.5q-34 -62 214 -27q13 2 33 5q24 3 29 4q175 15 514.5 37.5t586.5 46t470 61.5q165 29 289.5 64t196 69.5t104 70t22.5 66.5t-58 57.5t-128.5 45t-197.5 27.5t-257 6z
" />
    <glyph glyph-name="Q" unicode="Q" horiz-adv-x="3170" 
d="M2144 567q-51 0 -360.5 -4.5t-360.5 0.5q-129 3 -235 25q-59 12 -108 37.5t-79.5 60.5t-19 82t71.5 96q98 78 254 140q184 71 375 123.5t400 86.5t418 27.5t382 -57.5q59 -17 102 -47.5t64 -70t9 -88t-61 -97.5q-38 -38 -94.5 -78.5t-94 -62.5t-106.5 -62
q64 -8 131.5 -8.5t122 2.5t120 -11.5t124.5 -50.5q13 -19 3 -32t-32 -13q-112 0 -335 -1t-334 -1q-39 0 -129 -35q-97 -39 -176.5 -70.5t-241 -91t-296.5 -104.5t-318 -99t-332 -87t-312 -55.5t-285 -18.5t-224 38.5t-154 102.5q-93 125 -29 240q74 132 241 271.5t373.5 255
t433.5 214t434 162.5t361 88q36 5 70 2t64.5 -16t37.5 -41t-10 -74q-27 26 -51.5 38.5t-53 13t-51.5 -4t-63 -16.5q-721 -210 -1243 -557q-168 -112 -301 -238q-253 -240 -125 -326q18 -13 45 -22q130 -45 350 -18q869 102 1628 452zM1499 670q318 -7 595 -5t335 27
q133 58 293 151q295 170 229 228q-7 6 -16 10q-60 29 -135 46t-140 24t-157.5 2.5t-150 -9.5t-158.5 -21.5t-141.5 -24.5t-137.5 -27q-84 -17 -194 -46.5t-238 -71t-235 -94.5t-150 -103q-20 -23 -18 -33.5t30 -22.5q55 -26 389 -30z" />
    <glyph glyph-name="R" unicode="R" horiz-adv-x="3010" 
d="M711 1087q-90 -7 -324.5 -90.5t-239.5 -103.5q-2 -9 2.5 -25.5t1 -23t-23.5 -2.5q-20 3 -43 24.5t-33 42.5q-20 39 58 89t210 95t224 72t157 43q809 198 1629 168q235 -9 469 -63q119 -28 159 -113q26 -52 19.5 -87t-51.5 -71q-60 -47 -160.5 -93t-189.5 -76.5
t-228 -67.5t-202.5 -52t-186.5 -42q-155 -34 -215 -60q205 -15 318.5 -26t288.5 -40t312 -71q110 -32 136 -115q20 -26 8.5 -52.5t-43.5 -31.5q-21 -3 -27.5 4t-7.5 22t-5 31.5t-26.5 35t-64.5 30.5q-223 63 -642.5 88.5t-829.5 11t-654 -58.5q-40 -7 -56.5 -19.5
t-37.5 -49.5q-55 -94 -142.5 -274t-107.5 -218q-50 22 -58 43q-12 27 17.5 110.5t82 195.5t54.5 118q17 43 13.5 48t-50.5 5q-6 0 -55 -3t-86 -2t-47 9q-27 24 -47 82q34 26 101 40.5t127.5 19t118.5 19t79 40.5q59 72 153.5 225t145.5 219zM569 639q29 -8 82.5 -8t127.5 7
t152 16.5t177 25.5t178.5 29.5t180.5 32.5t160 30.5t140.5 27.5t98.5 19q162 31 324 70t361.5 109.5t282.5 140.5q25 21 29.5 29.5t-3.5 14.5t-40 17q-127 46 -365 61.5t-493 5t-488.5 -33.5t-386.5 -51q-84 -14 -138.5 -49.5t-114.5 -106.5q-63 -73 -154.5 -201
t-110.5 -186z" />
    <glyph glyph-name="S" unicode="S" horiz-adv-x="2760" 
d="M834 442q-4 0 -69 2t-77 2.5t-69.5 3t-78.5 4t-69 4.5t-77 6.5t-67.5 8t-72.5 10.5q-58 9 -112 33t-94 60t-58 78.5t-1 94t74 101.5q113 100 300.5 181.5t395 133t435.5 86t424.5 48t359.5 10.5q299 -5 414 -62q75 -38 78 -104.5t-64 -116.5q-26 -37 -160.5 -97
t-277 -100t-188.5 -28q-10 3 -29 35q24 19 117.5 56.5t203.5 78.5t142 55q42 20 131 88q1 1 9 6t9.5 7.5t6.5 9.5t0 12q-5 17 -56 29t-89.5 16t-72.5 6q-467 18 -917 -55.5t-850 -247.5q-108 -45 -175 -90.5t-85 -84.5t5.5 -70.5t97 -51.5t188.5 -25q201 -9 580 -17.5
t448 -10.5q79 -3 166.5 -9.5t196.5 -16.5t167 -15q125 -10 217 16q116 34 256.5 62t231.5 39.5t104 7.5q26 -8 19 -31t-29 -25q-112 -9 -276.5 -41t-243.5 -69q14 -13 82 -55q7 -7 23.5 -15.5t23.5 -15.5q77 -71 72 -148.5t-95 -130.5q-83 -50 -213 -86t-266.5 -51t-272 -10
t-231.5 31q-84 19 -86 67q-4 60 52 120.5t147.5 108t177 81.5t166.5 57q-182 17 -545.5 18.5t-453.5 5.5zM1419 111q103 -11 220 -11.5t245 10.5t246 45t194 87q28 20 27.5 32.5t-31.5 32.5q-87 56 -204 63.5t-225.5 -22t-211 -75.5t-169.5 -90t-91 -72z" />
    <glyph glyph-name="T" unicode="T" horiz-adv-x="1275" 
d="M1274 1210l2 29q-13 -1 -133 -13t-182 -22q-117 -18 -472.5 -81t-547.5 -85q-50 -6 -89 7t-38 55q10 9 40 19.5t71.5 20.5t76 17.5t75.5 15t50 9.5q219 43 481 83t574.5 75t603.5 54t572 14.5t476 -38.5q74 -13 107 -57t4 -115q-12 22 -26.5 38.5t-35 27t-35 17t-44 10.5
t-43 5t-48.5 3q-11 1 -16 1q-283 17 -629 0q-108 -4 -304.5 -22t-276.5 -23q-49 -3 -59 -15q-10 -13 4 -42q-12 -23 -51 -50t-48 -36q-159 -162 -328.5 -402t-279.5 -450q-41 -78 -54 -119.5t-20 -124.5q0 -23 -20.5 -24.5t-32.5 12.5q-38 33 -29 107q17 119 141 338
t269 415t246 295q30 27 49 51z" />
    <glyph glyph-name="U" unicode="U" horiz-adv-x="2922" 
d="M2537 889q-258 -82 -719.5 -274.5t-603.5 -245.5q-349 -132 -745 -252q-61 -18 -126 -27t-138 -1t-119 40q-155 109 -66 309q46 101 112.5 193.5t151 172.5t165.5 144t186 135q12 9 40 21.5t42 15.5q54 9 66 -40q12 -44 -17 -87q-33 -51 -85 -32q-7 2 -13 6
q-75 -22 -232 -181q-173 -177 -275 -344q-121 -196 -43 -237q18 -10 46 -10q165 -2 428.5 73.5t555 192.5t580 238.5t575.5 229t470 146.5q34 7 54 -5t36 -46q12 -29 6 -45t-30 -35q-35 -28 -81 -68.5t-105 -97t-116.5 -117t-114.5 -127.5t-100 -129.5t-73 -122.5
t-32.5 -107t21.5 -83q-23 -23 -38 -12q-42 30 -53.5 80t2 107t45.5 125.5t72 131.5t87.5 129t85 113.5t71.5 89.5q20 24 27 33z" />
    <glyph glyph-name="V" unicode="V" horiz-adv-x="1777" 
d="M166 979q-32 -132 -56 -306t-24 -315q0 -89 24.5 -103t102.5 28q43 22 221 129q21 12 182.5 109t203 121t176 101t207 113.5t183 89.5t209.5 94q582 239 1096 326q48 8 115 13.5t145 2.5t105 -22q3 -2 6.5 -9.5t7 -17t4.5 -12.5q-2 0 -14 -4t-19 -4q-160 -13 -324.5 -45
t-306.5 -71.5t-307 -99t-294 -113t-300 -128.5q-446 -197 -1007 -551q-121 -78 -215 -121q-247 -111 -289 156q-32 199 47 543q21 91 41 151q7 20 23 25t41 -12q20 -16 22.5 -30t-6.5 -38z" />
    <glyph glyph-name="W" unicode="W" horiz-adv-x="3620" 
d="M1401 793q-101 -52 -366 -222t-501.5 -313.5t-326.5 -167.5q-125 -34 -202 37.5t-52 198.5q17 85 126.5 288.5t244 390t204.5 212.5q37 13 70 -13q33 -27 -41 -110q-80 -93 -185.5 -248t-201 -333t-109.5 -277q-5 -32 15 -42.5t52.5 -2t60 19.5t47.5 22
q219 117 633.5 370.5t621.5 365.5q48 26 80.5 18.5t37 -41t-13.5 -82.5q-10 -25 -42.5 -78t-43.5 -84q-19 -53 -24.5 -102.5t4 -96t40.5 -85t83 -62.5q143 -66 325 -57q256 14 514 89.5t498.5 217t403.5 328.5q28 33 38 54t4 33t-15.5 20.5t-19.5 22t-9 30.5q17 34 66 18
q52 -17 80 -67q33 -60 -1 -125q-56 -111 -174 -211q-224 -190 -460.5 -307.5t-524.5 -182.5q-96 -22 -195.5 -31t-203.5 -4t-194 29.5t-167.5 69.5t-124.5 115t-64.5 167.5t13.5 227.5z" />
    <glyph glyph-name="X" unicode="X" horiz-adv-x="1890" 
d="M1075 815q65 -29 274 -186q252 -188 292 -253q15 -24 -7 -24q-13 1 -143 84t-275.5 178.5t-175.5 112.5q-5 3 -20.5 12.5t-20.5 12.5t-18 10t-19.5 9t-18 5t-20 2t-20 -3t-22.5 -7q-174 -78 -284 -137.5t-214 -132.5q-8 -6 -81 -54.5t-136 -94t-139 -104.5t-126.5 -114
t-62.5 -94q-2 -7 -6.5 -22.5t-5.5 -19t-5.5 -11.5t-8.5 -7.5t-12 1t-18.5 6.5t-25.5 16q-209 142 801 723q192 110 199 115q2 1 5 3q30 20 30.5 27t-29.5 29q-18 15 -180.5 114t-208.5 146q-31 31 -11.5 54.5t53 26.5t44.5 -3q124 -137 375 -287q40 -25 68.5 -27.5
t74.5 11.5q87 24 208.5 64.5t230 78.5t230 78.5t226.5 69.5t200.5 47.5t170.5 15t120 -30.5q30 -18 49.5 -32.5t46 -38t37 -49.5t3.5 -52q-8 -23 -17.5 -31.5t-25.5 1.5t-24.5 18t-32.5 33q-15 16 -23.5 24.5t-23.5 22t-26.5 21t-26 13t-28.5 5.5q-116 0 -366.5 -65
t-492.5 -155t-337 -155z" />
    <glyph glyph-name="Y" unicode="Y" horiz-adv-x="2461" 
d="M84 1061q40 26 103.5 22.5t133.5 -23.5t154.5 -60.5t167.5 -87.5t171.5 -104.5t167.5 -112.5t155.5 -111t134.5 -99.5t105 -78t67 -46.5q54 -34 94 -36.5t98 22.5q204 86 349.5 246t201.5 369l15 57l-4 22q-20 3 -78 -31.5t-129.5 -82t-162.5 -92.5t-177 -64t-174 4
q-114 36 -152 118.5t0 194.5q13 45 43.5 114t52.5 93q29 33 62.5 30t54.5 -42q4 -8 -0.5 -23t-11.5 -24q-56 -76 -92 -181q-54 -158 20 -189q31 -13 84 -1q268 59 655 353q5 4 17.5 14.5t17.5 14t16 9.5t18.5 6t19 -2.5t24.5 -9.5q66 -35 59 -127q-30 -288 -172.5 -512.5
t-390.5 -355.5q-24 -13 -33.5 -18t-23 -14t-16 -12.5t-5 -11.5t2 -12.5l14 -14t21 -18t32.5 -22.5q18 -12 77 -47.5t95 -63.5t64 -63q-78 16 -137.5 48t-137.5 91q-67 51 -122 59t-134 -16q-108 -30 -239.5 -26t-266.5 28.5t-272 76t-256.5 117t-219.5 151.5t-161 180
q-28 43 -48.5 96.5t-30 111t10 108.5t68.5 79zM1452 281q-97 65 -302 215.5t-367 256.5t-320 183q-36 18 -71.5 30.5t-76.5 22.5t-75 7t-62.5 -17t-44 -49.5t-14.5 -89.5q1 -83 44 -160.5t114 -137t157.5 -110t183 -86.5t181 -59.5t159.5 -36.5q267 -44 494 31z" />
    <glyph glyph-name="Z" unicode="Z" horiz-adv-x="2420" 
d="M1473 512q123 66 233.5 149t155.5 162q-21 2 -66 3t-71.5 3.5t-58.5 18.5t-52 47q12 22 54.5 30.5t93.5 8t101 1t85 16.5t37 48q2 29 -24.5 54t-71 43t-75 27t-61.5 16q-161 38 -373 28.5t-408.5 -44.5t-359.5 -87q-12 -4 -45 -17t-54 -17.5t-48 -2.5q-7 60 2 74
q17 29 90 53q182 59 413.5 94t475 35t418.5 -43q79 -20 126 -66.5t76 -125.5q15 -40 43 -56.5t63 -17.5t71.5 -1t76.5 -13t70 -47q-8 -3 -24 -8t-21 -6.5t-20 -5t-21.5 -2.5t-26.5 1q-115 9 -182.5 -21.5t-134.5 -123.5q-40 -57 -138.5 -134.5t-133.5 -117.5q37 -20 107 -41
t137 -40t134.5 -43.5t117.5 -61t69 -82.5q-25 -8 -60 2.5t-79 32t-60 26.5q-123 42 -397 94q-121 22 -246 -39q-235 -118 -428.5 -186t-417.5 -100q-75 -11 -160 -10.5t-178 14.5t-167.5 56.5t-104.5 109.5q-24 46 -19 82t48 67q62 45 167 75.5t225 48t308.5 26.5t357 11.5
t431.5 2.5zM1274 406q-52 16 -180.5 16.5t-285 -13t-310 -35.5t-274.5 -53t-161 -63q-76 -61 82 -97q80 -18 160 -22q215 -10 471 66t498 201z" />
    <glyph glyph-name="bracketleft" unicode="[" horiz-adv-x="831" 
d="M1128 1516q-40 -28 -92 -38t-97.5 -9t-90.5 -3.5t-85 -32t-67 -83.5q-112 -233 -334.5 -653t-291.5 -556q-2 -3 -6 -11q-6 -11 -9.5 -17.5t-9 -18t-7.5 -19t-4 -17t0.5 -15t7 -11t14.5 -7t24 -0.5q43 4 225.5 33.5t341.5 51.5t189 15q28 -63 -11 -76q-47 -17 -125.5 -32
t-174.5 -29t-134 -21q-246 -45 -330 -41q-35 2 -51 11q-116 60 -71 182q28 69 104 209q62 116 176.5 327.5t207.5 385t173 329.5q17 33 18 69t-3 56t9 35t54 18q34 2 88 7.5t93.5 9t87 7t79.5 2t59.5 -6.5t38 -18t4.5 -33z" />
    <glyph glyph-name="backslash" unicode="\" horiz-adv-x="768" 
d="M-47 1520q-8 21 4 34.5t28.5 13t24.5 -4.5q29 -26 283 -747t270 -810q3 -28 -10.5 -39t-34.5 -2q-19 7 -41 60q-15 31 -228 642t-296 853z" />
    <glyph glyph-name="bracketright" unicode="]" horiz-adv-x="792" 
d="M877 1593q91 -10 121.5 -78.5t-15.5 -144.5q-76 -133 -189.5 -290.5t-209.5 -278.5t-205.5 -278.5t-183.5 -295.5q-13 -24 -24 -52t-16 -45.5t-14.5 -54.5t-13.5 -50q-9 -36 -28.5 -54t-55.5 -22q-52 -7 -191.5 -14.5t-211.5 -22.5q-16 -3 -32.5 2.5t-26.5 16t-14.5 23.5
t2.5 26t25 22q33 18 183.5 39.5t206.5 21.5q35 0 49.5 11t21.5 45q22 102 57.5 174t104.5 166q60 82 215.5 288.5t265 361.5t197.5 300q28 40 22 59t-57 19q-108 1 -320.5 -21.5t-306.5 -23.5q-40 0 -92 23q-66 29 -25 55q10 6 25 12t34 10t33 5.5t37 4.5t34 4
q23 3 121.5 15t134 15t108.5 9t127 5t107 -7z" />
    <glyph glyph-name="asciicircum" unicode="^" horiz-adv-x="823" 
d="M657 1155q-29 39 -26 154q1 82 -6 96q-9 16 -31 2q-68 -41 -175.5 -152t-168.5 -151q-25 -16 -51.5 -2t0.5 59q19 27 72 81t123 115.5t143 112t131.5 71.5t87.5 -5q16 -16 19 -46t-2 -58.5t-11.5 -63.5t-5.5 -53q9 -62 22 -121q12 -40 -11 -59t-57.5 -12t-52.5 32z" />
    <glyph glyph-name="underscore" unicode="_" horiz-adv-x="808" 
d="M-18 354q125 3 255.5 7.5t144.5 5t83 -1.5q72 -3 96 -23q21 -20 13 -42.5t-44 -29.5q-114 -21 -318 -24.5t-255 18.5q-13 6 -19 28t4.5 42t39.5 20z" />
    <glyph glyph-name="grave" unicode="`" horiz-adv-x="565" 
d="M426 1311q-43 -9 -103.5 13t-100 47.5t-93.5 64.5q-17 13 -12 38t23.5 36t43.5 -1q57 -39 143 -106.5t99 -91.5z" />
    <glyph glyph-name="a" unicode="a" horiz-adv-x="1187" 
d="M-49 565q15 30 49 70q75 84 203.5 151.5t247.5 100.5q175 51 233 -133q8 -27 -7 -79.5t-15 -56.5q-15 -91 45 -118.5t160.5 0.5t178 59.5t134.5 61.5q24 7 34 -19q12 -40 -101 -96t-246.5 -93t-184.5 -34q-26 2 -49.5 17.5t-44.5 44.5t-32 47t-28 51q-17 31 -26.5 33.5
t-38.5 -13.5q-15 -8 -51.5 -28t-47.5 -26t-39.5 -21t-41 -21t-37 -16.5t-42.5 -17t-42 -14.5t-51 -16q-38 -12 -84.5 10.5t-71.5 67.5t-4 88zM84 514q71 17 188.5 70t194.5 110q64 51 51 69.5t-78 -9.5q-208 -86 -356 -240z" />
    <glyph glyph-name="b" unicode="b" horiz-adv-x="1011" 
d="M170 657q13 7 59.5 33.5t72.5 40.5t76 38.5t83.5 37.5t80.5 26.5t82.5 16t73.5 -4t68 -24.5q94 -57 31 -159q-41 -66 -112 -115.5t-151.5 -74t-167 -29.5t-159.5 18q-41 12 -63.5 6.5t-51.5 -37.5q-23 -25 -153 -166q-16 -17 -25.5 -24t-24.5 -7.5t-34 11.5
q-24 15 -34 33t-4.5 41t11.5 37t22 42q3 6 5 9q395 681 854 1165q82 87 126 117q71 49 99 10q29 -41 3 -86t-81 -56q-7 -1 -13 -4t-12 -7.5t-9 -8t-9 -11t-8 -9.5q-98 -112 -170 -197.5t-172 -211.5t-175.5 -241.5t-117.5 -208.5zM717 774q-73 20 -303 -88
q-28 -14 -54.5 -32t-66 -49t-49.5 -38l-15 -26q54 -28 155 1t190 83t126 102q4 6 8.5 23t8.5 24z" />
    <glyph glyph-name="c" unicode="c" horiz-adv-x="958" 
d="M41 375q-42 21 -64.5 57.5t-22 72.5t8.5 73q26 82 98.5 154t172 109t190.5 15q100 -25 106 -113q3 -35 -36 -86t-78 -51q-21 -3 -56 27q-8 32 50 90q8 12 4 20t-15 10.5t-23 3.5t-20 -1q-91 -7 -170 -71t-100 -142q-9 -35 18 -55.5t72 -18.5q180 5 385 49t367 96
q41 21 61 -1q18 -19 -3 -42q-12 -14 -36 -22q-116 -38 -222.5 -66.5t-266 -66.5t-240.5 -58q-51 -13 -92 -10.5t-88 27.5z" />
    <glyph glyph-name="d" unicode="d" horiz-adv-x="1333" 
d="M500 621q-62 -24 -204.5 -113.5t-219.5 -108.5q-38 -10 -68.5 4.5t-46.5 42.5q-39 66 -7 142t102 143.5t148.5 116t131.5 59.5q69 14 111.5 0t103.5 -61q25 -19 36 -27t23 -5.5t16.5 8.5t19.5 29q6 8 9 13q298 436 490 621q2 2 10.5 10t12.5 11.5t12.5 11t13.5 10t13.5 7
t14.5 5t13.5 0t14.5 -4.5t14 -11q17 -22 14.5 -35.5t-21.5 -34.5q-82 -91 -159 -187t-158 -210t-133 -191.5t-143 -214.5q-151 -227 -9 -258q114 -25 366 75q181 72 308 157q15 10 31 3.5t18 -23t-18 -38.5q-67 -67 -330.5 -176t-413.5 -119q-45 -2 -76 5.5t-48.5 26
t-26.5 39.5t-10 56t1.5 64.5t7.5 74.5q1 5 1 7q2 17 17 43.5t18 32.5zM190 549q167 79 308 192q43 34 3 58q-35 21 -85 12q-9 -1 -17 -4q-80 -28 -153.5 -79.5t-118.5 -106.5q-32 -39 -40.5 -63t4 -30.5t38.5 -1t61 22.5z" />
    <glyph glyph-name="e" unicode="e" horiz-adv-x="956" 
d="M41 375q-42 21 -64.5 57.5t-22 72.5t8.5 73q19 61 67.5 122t111.5 107t139.5 67t144.5 5q46 -11 80 -43.5t37 -77.5q5 -55 -22.5 -90.5t-81.5 -52t-109 -25t-127.5 -17.5t-114.5 -20q0 -2 -1 -5.5t-1 -4.5q-9 -35 18 -55.5t72 -18.5q180 5 385 49t367 96q41 21 61 -1
q18 -19 -3 -42q-12 -14 -36 -22q-116 -38 -222.5 -66.5t-266 -66.5t-240.5 -58q-51 -13 -92 -10.5t-88 27.5zM410 723q8 12 4 20t-15 10.5t-23 3.5t-20 -1q-62 -6 -122 -39.5t-99 -81.5q36 15 104 34.5t116.5 33.5t54.5 20z" />
    <glyph glyph-name="f" unicode="f" horiz-adv-x="1163" 
d="M-47 594q-22 17 -22 32.5t26 24.5q50 14 123 21.5t121 12t103.5 32t96.5 80.5q124 159 280 285t327 196q68 26 133 -29q39 -31 45.5 -57.5t-19.5 -69.5q-36 -55 -110 -147t-99 -127q-2 -2 -5.5 -7t-5.5 -7.5t-6 -4.5t-9 -2q-25 0 -39 5.5t-16 16t0.5 21.5t13.5 27
t19 26.5t21 25.5t17 20q160 209 64 194q-37 -6 -111 -45q-59 -31 -118 -75.5t-124.5 -111t-105.5 -110.5t-115 -129q39 -1 120 3t146.5 6t130.5 -2t97 -24t22 -57q-14 -7 -128.5 -8.5t-215.5 0t-145 -1.5q-64 -6 -75 -19t-5 -75q11 -119 -57.5 -241.5t-169.5 -202.5
q-79 -64 -135 -25q-15 10 -23.5 23.5t-8.5 31.5t1 32.5t10.5 37t14 33t16.5 34t14 27.5q27 55 160 291q-218 17 -254 39zM295 504l-174 -307q55 12 105.5 81t70 138.5t-1.5 87.5z" />
    <glyph glyph-name="g" unicode="g" horiz-adv-x="997" 
d="M532 559q-44 -21 -157.5 -91.5t-157.5 -92.5q-58 -28 -97 -35.5t-84 14t-89 80.5q-25 33 -17.5 80.5t41.5 95.5t86 98t116 88t131 64.5t131.5 28t117.5 -20.5q8 -4 15.5 -9t13 -8.5t12 -10l10 -10t10.5 -12t9 -11.5t10 -13.5t10 -13.5q17 -23 40.5 -24t47.5 10.5t49 22
t51 5.5t46 -34q0 -28 -15 -49q-24 -32 -78 -82.5t-73 -71.5q-67 -76 -156 -200.5t-174 -234.5t-170 -188q-82 -75 -184.5 -104.5t-196 -12t-169.5 90t-103 188.5q-11 46 9 72t51.5 19.5t49.5 -42.5q42 -91 64 -120q63 -84 143 -109t158 6.5t145 108.5q79 92 213.5 274
t161.5 217q9 12 12.5 16.5t9.5 15.5t3.5 13.5t-13.5 1.5t-33 -10zM129 467q116 59 367 197q1 0 10 6l10.5 7t9 6.5t9.5 7.5l7.5 7.5t7.5 9t5.5 9.5t5 11.5t2.5 12.5q6 62 -62 62q-86 1 -224 -81q-139 -82 -205 -175q-50 -71 -30.5 -94.5t87.5 14.5z" />
    <glyph glyph-name="h" unicode="h" horiz-adv-x="1052" 
d="M850 1315q-204 -125 -414 -323.5t-336 -395.5q8 16 140 70q37 15 64.5 25.5t63.5 20t62 10t52.5 -7t42.5 -26.5t24.5 -54t5.5 -85q-6 -91 72 -88q67 3 236 92q104 55 130 65q45 17 61 11q14 -5 19 -23q5 -8 2 -16t-5 -12t-9.5 -8.5t-13 -7t-14 -6t-13.5 -5.5
q-41 -21 -154.5 -87.5t-179.5 -94.5q-93 -38 -154 0q-38 23 -59.5 54t-25.5 60t-4.5 59.5t3.5 51.5t-2.5 37t-21 15.5t-51.5 -13.5q-72 -30 -129 -66.5t-140.5 -104t-113.5 -89.5q-64 -47 -103 -6q-51 56 21 145q30 38 91.5 118t98.5 127.5t99 123.5t107.5 126.5
t108.5 115.5t118 111.5t120 92.5t129 80q44 22 74 5t26.5 -47t-28.5 -50z" />
    <glyph glyph-name="i" unicode="i" horiz-adv-x="673" 
d="M53 371q-68 24 -93 79.5t7 133.5q35 75 115 170q26 30 48 33.5t52 -23.5q12 -11 17.5 -19.5t3 -17t-4.5 -12.5t-13 -15t-15 -16q-62 -72 -84 -125q-33 -81 77 -78q138 4 433 119q35 14 55 23q38 18 54 -2t-17 -52q-38 -37 -224 -106.5t-282 -93.5q-64 -18 -129 2z
M420 954q-14 -19 -45.5 -42t-53.5 -46t-26 -53q-4 -11 -21.5 -15t-37.5 4t-29 25q-28 53 13.5 119.5t98.5 102.5q25 14 51 8.5t40 -24t19.5 -40t-9.5 -39.5z" />
    <glyph glyph-name="j" unicode="j" horiz-adv-x="602" 
d="M-586 127q86 -173 212.5 -202t275.5 98q222 192 362 622q7 38 -12 38q-11 -1 -56 -28q-6 -4 -10 -6q-21 -13 -71.5 -49.5t-73.5 -46.5q-20 -9 -43 6t-28 39t18 47q31 27 122.5 73.5t139.5 63.5q52 19 92 -27t35 -100q-7 -85 -44 -192.5t-99 -215t-138 -198.5t-169 -149
t-183 -60q-116 -6 -238.5 60.5t-191.5 158.5q-30 41 -1 80q23 31 57 25q28 -4 44 -37zM557 991q-14 -19 -45.5 -42t-53.5 -46t-26 -53q-4 -11 -21.5 -15t-37.5 4t-29 25q-28 53 13.5 119t99.5 102q25 14 50.5 8.5t39.5 -23.5t19.5 -39.5t-9.5 -39.5z" />
    <glyph glyph-name="k" unicode="k" horiz-adv-x="1308" 
d="M-113 293q10 30 38 81.5t46.5 96.5t14.5 82q-1 10 -5 25.5t-5.5 25t0 21.5t10.5 21.5t26 17.5q53 35 77 61.5t58 83.5q273 465 519 692q13 12 28 13t27 -3.5t31 -15.5q43 -25 10 -55q-36 -34 -116 -128t-164.5 -201t-147 -204.5t-60.5 -128.5q26 0 97 18.5t145.5 36.5
t148 29t119.5 -6t45 -68q-107 11 -273 -28.5t-316 -102.5q-8 -4 -15 -11.5t-10.5 -15.5t3 -14t22.5 -6q32 3 129 12.5t139.5 13.5t128 11t141 10.5t128 6t136.5 2.5q43 0 82 -28.5t52 -70.5q-73 12 -185.5 9.5t-177 -7.5t-172.5 -15.5t-172 -14.5q-114 -5 -293 -23
q-39 -5 -58.5 -16t-29.5 -41l-100 -250q-10 -22 -33.5 -21t-48.5 21q-22 22 -25.5 39t6.5 45z" />
    <glyph glyph-name="l" unicode="l" horiz-adv-x="841" 
d="M637 1485q2 2 10.5 10t12.5 11.5t12.5 11t13.5 10t13.5 7t14.5 5t13.5 0t14.5 -4.5t14 -11q17 -22 15 -36t-21 -34q-33 -37 -109.5 -120t-111.5 -122.5t-99 -115.5t-106 -134t-97 -141t-106 -172q-137 -241 21 -268q126 -21 390 91q168 72 289 153q15 10 31 3.5t18 -23
t-18 -38.5q-47 -47 -217 -126t-332 -128q-59 -18 -93.5 -25.5t-79.5 -10t-80.5 13.5t-67.5 51q-32 33 -39 78.5t5 94.5t42 116q85 188 277 435.5t370 418.5z" />
    <glyph glyph-name="m" unicode="m" horiz-adv-x="1732" 
d="M383 635q-67 -56 -219 -184q-6 -5 -27.5 -25t-33 -29t-33.5 -25.5t-38 -22t-36 -9.5t-39 2.5t-37 22.5q-30 26 -31 53.5t19 60.5q23 49 59 114t87 146t105 136.5t93 58.5q50 3 79 -34.5t-14 -76.5q-13 -11 -42.5 -29.5t-41.5 -27.5q-27 -23 -52 -56t-40 -57t-39 -67
q-31 -55 -21.5 -60.5t60.5 35.5q107 88 310 240q2 1 13.5 10.5t14.5 11.5t13.5 9.5t14.5 9t14 6.5t15.5 5t14.5 0.5t16 -2.5t15 -8t16 -12q20 -19 20 -49.5t-9.5 -54t-28.5 -60t-23 -46.5q73 25 197.5 98.5t185.5 97.5q53 22 93 28.5t65.5 -3.5t42 -27t24.5 -51t10.5 -67
t2.5 -83q0 -43 28 -67t75 -27t101.5 3.5t113.5 23t103.5 31.5t79.5 30q4 2 17.5 9t25 11.5t17.5 4.5q33 0 42.5 -20t-12.5 -42q-21 -24 -124.5 -64.5t-208.5 -64.5q-53 -12 -88.5 -17.5t-84 -7t-87.5 12.5t-68 43q-28 30 -38.5 73.5t-14.5 112.5q-2 60 -8 71q-11 19 -56 1
q-53 -22 -112 -55t-97 -57.5t-107 -71t-97 -64.5q-38 -24 -78 -25t-69.5 18t-43.5 61.5t-4 97.5z" />
    <glyph glyph-name="n" unicode="n" horiz-adv-x="1044" 
d="M213 692q113 78 222 108q151 42 161 -65q1 -20 -2 -45q-1 -9 -3 -25q-8 -62 -10 -91t3.5 -69t24.5 -52t59 -12t102 24q93 35 231 151q40 34 72 12q24 -18 15 -48q-7 -23 -35 -37q-25 -12 -111 -62.5t-127 -72.5q-120 -59 -206 -52t-132 70.5t-37 163.5q2 17 5 38.5
t4.5 31.5t1.5 22.5t-1 16.5t-6.5 8t-13 2t-21.5 -7.5t-30.5 -13.5t-42.5 -22q-54 -27 -112 -69.5t-95.5 -76t-101 -92t-95.5 -86.5q-27 -20 -51.5 -16.5t-38.5 26t-4 47.5q7 17 112.5 183.5t131.5 197.5q32 40 79 19q34 -14 40 -43q4 -18 -8 -31q-11 -13 -19 -32
q-9 -20 10 -15q10 3 29 14z" />
    <glyph glyph-name="o" unicode="o" horiz-adv-x="786" 
d="M809 621q-32 32 -181 52q-170 22 -251 -4q-47 -15 -37 -46q8 -25 9 -48t-6 -42.5t-16.5 -37t-26 -33.5t-31 -28t-36.5 -25.5t-36 -21t-35 -18.5q-52 -24 -100 -12t-89 51q-22 26 -22.5 70.5t13.5 88t36 84.5q16 33 39 60q76 85 131 71q17 -4 66 -5t109 -0.5t130.5 0
t134.5 -7.5t116 -20t80.5 -39.5t22.5 -64.5q-2 -13 -7.5 -21.5t-12.5 -2.5zM211 532q33 33 47 76q9 32 -1.5 56t-35.5 30q-38 0 -76 -38.5t-61 -92.5q-48 -110 2 -107q41 2 110 62q8 7 15 14z" />
    <glyph glyph-name="p" unicode="p" horiz-adv-x="868" 
d="M547 897q95 17 136 -36t15 -136q-20 -63 -63 -112t-98 -76.5t-118.5 -41t-126.5 -10t-120 20.5t-88.5 8t-69.5 -55q-19 -23 -40 -50t-36 -48t-38 -53.5t-34.5 -49.5t-36.5 -55t-34 -51q-7 -10 -27.5 -50.5t-41 -75t-46 -69.5t-53.5 -49t-53 0q-9 5 -15.5 11.5t-8.5 14
t-3 14t2 16t5 15t8.5 16t9 14.5t10 15t8.5 13q27 39 104 161t151 235.5t159.5 236t161.5 207t125 104.5q57 24 78 -23q6 -15 -6 -35t-37 -42.5t-52 -47t-54.5 -57.5t-41.5 -65q75 51 194.5 113.5t174.5 72.5zM172 580q82 -15 158.5 -4t141.5 60.5t95 127.5q13 41 -28 41
q-67 0 -197 -83.5t-170 -141.5z" />
    <glyph glyph-name="q" unicode="q" horiz-adv-x="1017" 
d="M123 469q-9 5 -39.5 20t-43 22.5t-34 24.5t-27.5 31.5t-6 37.5t13 48q66 122 182 205t250 105q31 5 53.5 0t34.5 -15.5t26.5 -22.5t28 -21.5t40 -13t63.5 2.5q15 3 31.5 -4t25.5 -21q10 -11 3 -26.5t-17.5 -28t-30.5 -27.5t-36 -25t-33 -21t-23 -15q-106 -73 -224 -187
t-194 -223q-66 -93 -85 -158t5.5 -89t89 -8.5t156.5 73.5q97 60 214 145t270 204.5t161 125.5q44 33 73 21q23 -11 3 -40q-9 -13 -25 -26q-33 -31 -104 -80t-93 -67q-28 -22 -205.5 -168t-277.5 -215q-102 -71 -144 -90q-33 -15 -63 -19q-68 -9 -119.5 15.5t-74 82
t3.5 148.5q8 25 17 49t22 48.5t22.5 41t27.5 43t26 38t29.5 41t27.5 38.5zM539 831l-2 3q-75 31 -188 -15t-189 -125q-66 -71 -51 -103q14 -30 82 1l10 4q31 16 70.5 40.5t81.5 54.5t73 53t68.5 52.5t44.5 34.5z" />
    <glyph glyph-name="r" unicode="r" horiz-adv-x="1032" 
d="M537 659q21 -45 72.5 -66.5t117.5 -18.5t122 13t112 27q5 1 21.5 7t27 9t24 -0.5t21.5 -17.5q6 -14 6 -22.5t-10.5 -15t-19.5 -9.5t-22 -6.5t-18 -5.5q-65 -24 -126.5 -41t-142 -29t-145.5 6.5t-98 69.5q-4 7 -13 23t-14.5 23.5t-16 18t-24.5 16t-34 7.5
q-56 6 -111.5 -15.5t-106 -66.5t-88 -87t-82.5 -97q-12 -16 -18 -23q-4 -6 -11.5 -20.5t-15.5 -25t-18 -15.5q-33 -9 -68 17.5t-12 62.5q34 76 130 240t169 241q20 20 49 23t49.5 -10t28.5 -37t-14 -56l-31 -45q18 4 46.5 11.5t45 12t41.5 8.5t41 3t36.5 -7t36 -18t32.5 -33
t31 -51z" />
    <glyph glyph-name="s" unicode="s" horiz-adv-x="985" 
d="M143 551q-26 -9 -46.5 -12.5t-42 -1.5t-37.5 15.5t-25 39.5q-14 41 24 96t99.5 101t127.5 81t107 41q13 2 29.5 -8t27.5 -24.5t6.5 -32t-28.5 -29.5q-229 -107 -264 -135q-37 -31 -19 -34q13 -2 52 5q53 9 68.5 11.5t64.5 8.5t71 5.5t63.5 -2.5t66.5 -10t56 -22.5
t56 -35.5q97 19 207 28.5t160 0.5q24 -4 38 -21t2.5 -31.5t-49.5 -11.5q-56 4 -161.5 -2.5t-175.5 -27.5q12 -47 -56 -129.5t-141 -132.5q-89 -63 -186 -42q-73 15 -99 66q-33 63 35 127q18 16 41 31q100 65 260 123q-36 15 -96.5 11.5t-119.5 -15.5t-116 -31zM326 352
q41 10 91 58.5t77 93.5q-79 -21 -197 -88q-34 -20 -48 -38.5t-5.5 -27.5t28.5 -10.5t54 12.5z" />
    <glyph glyph-name="t" unicode="t" horiz-adv-x="399" 
d="M-127 1186q39 12 182.5 26.5t198.5 14.5q49 0 80.5 11t47.5 31.5t26 42t26.5 49t38.5 46.5q23 20 69 13q44 -7 45 -34q0 -10 -7 -22q-5 -7 -16.5 -24t-19 -29t-14.5 -25.5t-5.5 -23t10.5 -13.5q12 -5 54.5 -7.5t101 -5.5t95.5 -9q40 -8 65 -20.5t29.5 -24.5t-4.5 -22.5
t-37.5 -15t-68.5 -1.5q-7 0 -26 1t-31 1q-155 0 -189 -5q-67 -11 -117 -63q-33 -34 -88 -114q-83 -122 -232.5 -349t-213.5 -323q-4 -7 -10.5 -18.5t-11.5 -21.5t-11.5 -20.5t-14 -17.5t-17 -12t-21 -4t-25.5 8q-14 8 -18.5 18.5t1.5 24.5t12.5 24t19 25.5t16.5 21.5
q33 53 206 321.5t257 414.5q19 32 19.5 45t-12 16t-50.5 2q-27 -1 -106.5 -10t-147.5 -15t-88 -1q-32 8 -42 27t3 38.5t41 28.5z" />
    <glyph glyph-name="u" unicode="u" horiz-adv-x="851" 
d="M731 846q25 -18 17 -43q-19 -40 -69.5 -124.5t-82 -155t-35.5 -132.5q0 -21 -20.5 -36t-36.5 -13q-42 3 -62.5 26.5t-19.5 55.5t12.5 69t27.5 66t30 47q-3 -3 -60 -43.5t-130 -91t-109 -72.5q-78 -52 -168 -12q-57 25 -65 94t21.5 144t75.5 144t90 99q30 17 58.5 9.5
t43.5 -31t1 -41.5q-52 -69 -99 -157t-57 -150q-4 -35 11 -41.5t47 10.5q64 31 225 162.5t248 212.5q20 19 45.5 21.5t41 -4t19.5 -13.5z" />
    <glyph glyph-name="v" unicode="v" horiz-adv-x="729" 
d="M-25 569q4 10 15 45t17.5 52.5t16 44t18.5 44t17 29.5q18 24 49 28t53.5 -13.5t16.5 -48.5q-3 -17 -17 -49.5t-34 -74.5t-29 -65q-17 -48 -7.5 -65.5t35.5 -11t58 33.5q65 52 166 162t193.5 217.5t113.5 128.5q22 16 38 9.5t25 -19.5t9 -23t-20 -39.5t-55 -72t-73 -87.5
t-84.5 -97.5t-79.5 -89.5t-68.5 -76t-41.5 -46q-52 -62 -126.5 -93.5t-137.5 -4.5q-57 25 -74 76.5t6 105.5z" />
    <glyph glyph-name="w" unicode="w" horiz-adv-x="1138" 
d="M180 498q52 34 99 120q32 60 83 25q33 -22 21 -74q-35 -141 56 -135q86 6 243 124q76 57 104 91q20 23 38 49.5t33 59t19.5 60.5t-8.5 52.5t-45 36.5q-21 6 -39 15q-19 9 -26.5 27.5t5 32.5t44.5 9q79 -8 129 -82q66 -102 43 -196.5t-101.5 -171t-176.5 -126.5t-183 -61
q-45 -7 -83.5 -1.5t-62 19.5t-46 30t-35.5 28.5t-32 17t-34 -5.5q-17 -9 -44.5 -28.5t-47 -31.5t-44 -22t-49 -6t-48.5 23q-27 21 -35 60.5t2 85.5t30 96t50.5 93.5t62 76t64.5 45.5t59 0q16 -8 20.5 -21.5t0.5 -25.5t-13 -23q-3 -4 -60 -70t-75 -102q-25 -46 -35.5 -77.5
t-5.5 -49.5t36 -10t87 43z" />
    <glyph glyph-name="x" unicode="x" horiz-adv-x="645" 
d="M-119 424q3 8 39 37.5t90 70.5l53 41q21 17 30 26.5t6 19.5t-9.5 15t-28.5 21t-38 29q-34 29 -22 54t58 30q29 -13 63 -33.5t48 -26t39.5 1.5t62.5 35q4 3 23 19t36 29t41 31.5t45 32.5t42 26t38 17t27 1q17 -6 18 -22t-14 -38t-34 -44.5t-47.5 -49.5t-49 -45.5
t-44.5 -39t-27 -23.5q-19 -16 -27 -28t-6 -27t18 -33q5 -6 77.5 -79.5t100.5 -109.5q27 -35 16.5 -47t-50.5 4q-44 17 -183 156q-8 8 -19.5 20t-15.5 16.5t-13 11t-12 7.5t-12 2t-14.5 -2t-17 -8.5t-22 -13t-27.5 -19.5q-19 -13 -56.5 -41t-69.5 -50t-59 -36
q-20 -9 -46.5 8.5t-6.5 53.5z" />
    <glyph glyph-name="y" unicode="y" horiz-adv-x="882" 
d="M221 471q-24 2 -96 -25t-102 -16q-42 18 -61 63t1 87q58 123 150 233q31 35 66.5 19t23.5 -60q-108 -154 -99 -203q8 -43 119 21q86 50 243 153.5t230 147.5q17 10 35.5 16.5t39 8.5t36 -9.5t20.5 -36.5q1 -8 -14 -28.5t-25 -30.5q-42 -40 -124 -108.5t-113 -96.5
q-324 -287 -535 -543q-12 -14 -56 -66.5t-62 -75.5t-53 -72t-52 -82t-33 -77.5t-20 -84.5q0 -27 -17 -34.5t-36 3.5q-36 19 -50.5 53t-1.5 74q37 108 147 264t225 284.5t214 221.5z" />
    <glyph glyph-name="z" unicode="z" horiz-adv-x="765" 
d="M203 479q11 1 156 21.5t198 9.5q44 -7 58.5 -23t-3.5 -31t-55 -18q-39 -3 -432 -61q-16 -3 -28 -4t-22.5 1.5t-16 3.5t-14.5 8t-11.5 9.5t-12.5 14.5t-14 16q-47 54 113 152q17 11 4 11q-7 0 -38 -6q-45 -9 -65 -10q-17 -2 -36 5.5t-29 19.5t1.5 29t49.5 32q46 17 147 36
t140 30q87 22 123 63q27 29 -3 39q-39 12 -149 -24q-45 -15 -71 -33q-17 -11 -26.5 -15.5t-23 -2t-22.5 17.5q-6 48 38.5 85t107.5 53t128 16.5t99 -17.5q21 -11 32.5 -23.5t13 -27t0 -27.5t-11.5 -30t-17 -28t-20 -28t-18 -24q-17 -23 33 -34q11 -2 31 -5q14 -1 16 -2
q40 -12 38 -31q-1 -20 -45 -25q-9 -1 -18 -1q-77 -4 -138.5 -17.5t-96.5 -30.5t-58 -35.5t-29.5 -33.5t-2.5 -25z" />
    <glyph glyph-name="braceleft" unicode="{" horiz-adv-x="806" 
d="M80 113q81 -12 148.5 -14.5t89.5 0t49 -0.5q54 -11 42 -43q-11 -29 -59 -47q-16 -6 -33 -8q-67 -9 -143.5 5t-139 49.5t-81 96t32.5 144.5q43 66 153 170t146 149q38 46 31 66t-64 35q-7 2 -24 5t-25.5 5.5t-21 8t-21 14t-15.5 20.5q-28 51 17 68q24 9 71.5 21t65.5 17
q171 58 309 113q166 67 183 234q10 101 45.5 170.5t115.5 109.5q18 9 49.5 17.5t47.5 5.5q32 -7 43.5 -23t1.5 -33t-37 -26q-68 -23 -105 -67.5t-69 -121.5q-15 -38 -22.5 -85t-12.5 -79.5t-17.5 -67.5t-44.5 -64.5t-88 -55.5q-50 -23 -147.5 -58.5t-140.5 -54.5
q-39 -16 -46 -33.5t5.5 -37t26.5 -42t10 -58.5t-37 -76q-34 -41 -147 -162t-167 -197q-35 -50 25 -69z" />
    <glyph glyph-name="bar" unicode="|" horiz-adv-x="612" 
d="M518 1434q-44 -182 -211.5 -840.5t-179.5 -693.5q-17 -54 -37 -66q-19 -12 -33.5 -1.5t-13.5 38.5q6 88 196.5 829.5t217.5 769.5q8 5 24 7t29 -10t8 -33z" />
    <glyph glyph-name="braceright" unicode="}" horiz-adv-x="882" 
d="M254 1409q-52 -7 -57 37q-3 29 39.5 48.5t108 27.5t137 10.5t128 -0.5t78.5 -8q52 -13 83.5 -52.5t31 -86.5t-32.5 -93q-44 -57 -161.5 -177.5t-168.5 -194.5q-27 -46 -11.5 -62t59.5 -26.5t90.5 -16t83 -29.5t36.5 -67q-38 -24 -91 -34.5t-93.5 -16t-81.5 -24.5
t-71.5 -72.5t-47.5 -147.5q-39 -217 -170 -341t-348 -134q-47 -2 -88 24q-42 26 -6 47q10 6 27 11q173 51 223 71q196 78 254 210q21 48 26 104q7 79 26.5 138t43 90t46.5 51.5t41 37t22 31.5q4 14 -11.5 36t-31.5 44.5t-18.5 62.5t26.5 90q31 56 82.5 111.5t112.5 114
t96 100.5q71 93 -63 116q-110 18 -273 -11q-51 -9 -76 -19z" />
    <glyph glyph-name="asciitilde" unicode="~" horiz-adv-x="1443" 
d="M94 440q-8 19 -9.5 35t4.5 31t13.5 26.5t22.5 28.5q75 89 197 166.5t206 77.5q51 0 93.5 -31t54.5 -80q7 -27 7 -66.5t0.5 -63t9.5 -43t38.5 -17.5t83.5 24q142 60 211.5 100t171.5 128q4 3 11.5 10.5t12 11.5t11.5 8.5t14 6.5q19 6 41 -11q15 -13 8 -37
q-13 -34 -114.5 -109t-213.5 -139t-161 -79q-110 -34 -174.5 13t-67.5 163q-3 88 -18.5 102.5t-75.5 -18.5q-41 -25 -83 -58.5t-68 -58t-72.5 -70.5t-67.5 -67q-19 -15 -41.5 -10t-44.5 26z" />
    <glyph glyph-name="exclamdown" unicode="&#xa1;" horiz-adv-x="493" 
d="M-276 -139q8 16 34 55q283 412 443 748q2 4 5.5 12t5 12t5 9t7.5 6.5t11 1.5t15 -3q48 -17 37 -77q-19 -93 -103.5 -269t-194.5 -340.5t-184 -210.5q-26 -17 -53.5 3.5t-27.5 52.5zM242 934q2 33 26.5 52t53 18.5t52 -21.5t23.5 -57q0 -41 -39.5 -60.5t-78.5 -1t-37 69.5
z" />
    <glyph glyph-name="cent" unicode="&#xa2;" horiz-adv-x="905" 
d="M748 588q-2 -25 -34.5 -40.5t-79.5 -24t-95.5 -18.5t-88.5 -31.5t-51 -55.5q-6 -17 -43.5 -154.5t-68.5 -195.5q-7 -13 -16 -19t-16 -6.5t-16 4t-14 8.5t-12.5 12t-9.5 9q-11 12 9.5 81t49.5 147.5t31 90.5q10 43 2.5 54.5t-49.5 11.5q-100 0 -127 4q-74 12 -106 60.5
t-7 107.5q90 179 424 293q103 35 135 110q9 22 22 47.5t33.5 60t44 51t42.5 5.5q23 -13 25 -35t-11 -45t-28.5 -49.5t-27 -50t-5.5 -46t34 -36.5q68 -34 72 -112q3 -60 -31 -94q-23 -23 -51 -15q-49 13 -15 90q2 6 3 8q18 45 -19 48q-34 2 -65 -23q-9 -8 -13 -15
q-39 -64 -83 -190q-14 -40 26 -39q11 0 94 16q102 20 131 -16q3 -4 5 -8zM436 811q-64 -15 -140 -58.5t-122 -90.5q-92 -92 -29.5 -109t152.5 8q24 4 44 23t35 52.5t24.5 59t21 65.5t14.5 50z" />
    <glyph glyph-name="sterling" unicode="&#xa3;" horiz-adv-x="1224" 
d="M1036 311q-118 -2 -207 -0.5t-155.5 1t-117.5 -8.5t-93 -28.5t-82 -59.5q-38 -37 -93.5 -55.5t-109 -14.5t-98.5 21t-68 52.5t-12 78.5q12 47 41.5 79t63.5 46.5t78 20t78.5 5t72.5 -2.5q7 -1 10 -1q45 -4 71.5 -1t42 20t36.5 63q9 19 18.5 57t15.5 54
q-103 -11 -141.5 -0.5t-50.5 39.5q2 28 24.5 41t54.5 16.5t66 9.5t64.5 29t44.5 66q75 231 201 360q34 35 59 58t65 50t73 36t71.5 0t70.5 -44q44 -47 48.5 -80.5t-27.5 -89.5q-113 -192 -205 -165q-36 9 -36.5 36.5t32.5 59.5q52 51 81 88t35 50.5t10 30.5q1 3 1 5
q-51 -10 -99.5 -38.5t-86 -66t-71.5 -86t-58.5 -95t-44.5 -97.5q-17 -38 -9 -53.5t52 -14.5q12 1 50 4.5t70 6t65 2t46 -6.5q27 -14 27 -35t-27 -30q-92 -30 -252 -39q-33 -2 -54.5 -12t-33 -30t-17 -38.5t-12.5 -50t-14 -51.5q-22 -60 -11 -77t73 -22q20 -1 112 -2.5
t169.5 -4.5t92.5 -9q24 -9 35.5 -25.5t2.5 -31.5t-38 -19zM348 340q-56 23 -176 10q-68 -8 -87 -44q-14 -28 17 -44q27 -14 76 -8q48 4 95.5 29t74.5 57z" />
    <glyph glyph-name="currency" unicode="&#xa4;" horiz-adv-x="890" 
d="M545 471q-34 27 -72 32.5t-80 -5.5q-91 -21 -184 -21q-48 0 -80.5 -6.5t-58.5 -30.5q-3 -3 -18 -5t-29.5 6t-10.5 32q3 14 9.5 36t10.5 36t3 16q-12 28 -14.5 47t5.5 37t18.5 29.5t35.5 34.5q8 8 12 15.5t2 13.5t-4.5 10.5t-11.5 10.5t-13.5 8.5t-16.5 8t-15 6.5
q-13 7 6 34q23 32 45 26q6 -2 10 -6q31 -30 68.5 -39t71.5 -2t73 14t74 10t76 -14q35 -15 61 -17t44 4.5t55 24.5l12 6q18 8 38 -5.5t17 -37.5q-1 -5 -15.5 -36.5t-11.5 -43.5q6 -20 6 -38t-3 -31t-14.5 -26t-19.5 -21t-26.5 -19.5t-28.5 -16.5l-32 -16q41 -16 63 -38
q30 -35 -1 -39q-27 -3 -54 14zM559 686q-20 2 -50 -3t-52 -1t-47 27q-19 18 -91.5 -1.5t-121.5 -48.5q-60 -41 -43.5 -66.5t79.5 -25.5q93 3 198 37t128 82z" />
    <glyph glyph-name="yen" unicode="&#xa5;" horiz-adv-x="753" 
d="M315 690q-13 -3 -38 -11t-39.5 -11.5t-36.5 -2t-41 12.5q-44 21 -64 46.5t-16 66.5q31 220 196 456q13 18 22 25.5t25.5 11.5t34.5 -8q33 -14 36 -37.5t-15 -50.5q-10 -17 -45 -73.5t-55 -92t-44.5 -87.5t-33.5 -96t-2 -81q49 12 193.5 136t272.5 246.5t130 123.5
q14 6 25.5 -0.5t25 -25t16.5 -21.5q9 -9 9 -18t-4 -14t-14.5 -13.5t-12.5 -10.5q-74 -81 -213 -263t-160 -208q-17 -23 -18 -33t11 -13t28.5 -5t36 -12.5t30.5 -30.5q-26 -13 -70 -22.5t-79 -22.5t-58 -41q-36 -42 23 -45q4 0 21 0.5t23 0t17 -3.5t17 -11t10 -21
q-13 -2 -42 -11t-46 -9q-49 0 -80.5 -20t-46.5 -52.5t-26 -66.5t-30.5 -69.5t-48.5 -54.5q-4 7 -20.5 23t-18.5 27q-3 14 19 86q22 75 1 84q-7 3 -20 0q-20 -5 -38.5 -12t-24.5 -10t-17 -4t-16 5q-16 11 -17.5 25.5t17.5 25.5q29 17 70 27t73 22t52 39q-23 8 -69.5 -6
t-63.5 -14q-33 0 -45.5 28.5t22.5 45.5q8 3 33 12t37 13t32.5 10.5t37.5 10.5t34 7q45 9 66 31t32 67z" />
    <glyph glyph-name="dieresis" unicode="&#xa8;" horiz-adv-x="464" 
d="M135 1432q2 33 36 38q33 5 49 -15q11 -14 1 -32q-14 -23 -34.5 -31t-36 3t-15.5 37zM256 1432q2 33 36 38q33 5 49 -15q11 -14 1 -32q-14 -23 -34.5 -31t-36 3t-15.5 37z" />
    <glyph glyph-name="plusminus" unicode="&#xb1;" horiz-adv-x="784" 
d="M422 834l-21 -140q72 3 107 0q55 -4 72 -18q16 -15 10 -32t-33 -23q-72 -14 -166 -17q-12 -84 -18 -108q-14 -52 -33 -64q-19 -13 -35.5 -5.5t-19.5 34.5q-3 57 6 139q-137 0 -164 16q-9 4 -14 21t3 33t29 16l158 4q22 144 47 172q5 8 24 9.5t35.5 -7.5t12.5 -30zM76 326
q93 2 192 5.5t108 3.5t62 -1q54 -3 72 -19q16 -15 10 -32t-33 -23q-88 -16 -238.5 -19t-191.5 15q-9 4 -13.5 21t3 33t29.5 16z" />
    <glyph glyph-name="acute" unicode="&#xb4;" horiz-adv-x="462" 
d="M106 1303q84 131 152 194q30 30 60 11.5t10 -58.5q-26 -58 -99 -111.5t-123 -35.5z" />
    <glyph glyph-name="cedilla" unicode="&#xb8;" horiz-adv-x="528" 
d="M207 737q98 -60 135 -94q52 -47 3 -90q-42 -38 -115 -43q-82 -5 -107 45l-4 8q3 16 27 27.5t60 20.5t42 12q-63 34 -94 59t-38 52.5t15.5 55t75.5 64.5q64 44 111 32q32 -8 22 -36q-7 -20 -35 -41q-61 -46 -98 -72z" />
    <glyph glyph-name="questiondown" unicode="&#xbf;" horiz-adv-x="798" 
d="M168 37q95 30 158 86t108 156q8 16 11 38t3 38.5t1 31t7.5 20.5t20.5 3q34 -8 51 -38t17 -69q2 -97 -73.5 -185t-185.5 -139t-218 -55q-51 -2 -90.5 16.5t-58.5 48t-17 66.5t28 70q55 70 135.5 150.5t143.5 139t137 145.5t127 179q8 15 25.5 23t33.5 0q34 -18 23 -53
q-38 -105 -125 -212.5t-211 -230.5q-10 -10 -35.5 -33t-49 -45t-42.5 -41q-43 -43 -57 -74.5t-1 -45.5t48 -12t86 22zM674 948q14 -44 -34 -76q-44 -29 -87 -17q-41 12 -41 60q0 40 21.5 67.5t48.5 33.5t54.5 -11t37.5 -57z" />
    <glyph glyph-name="Agrave" unicode="&#xc0;" 
d="M1407 694q72 8 224 26.5t270 30t225 15.5q62 2 103 -17t63 -71q-148 0 -429 -42.5t-415 -45.5q-113 -2 -186 -120q-64 -100 -63 -220q0 -118 65 -161q46 -31 118 -9q5 2 28.5 11t34.5 11.5t27.5 -2t26.5 -20.5q14 -23 -23 -52q-53 -41 -131 -33q-53 5 -102 36
q-99 63 -133.5 170.5t0.5 218.5q10 35 15 54.5t3 35.5t-6.5 22t-22.5 8.5t-35.5 1t-55.5 -6.5q-35 -4 -88.5 -10.5t-74.5 -8.5t-59 -8.5t-53.5 -12t-45.5 -16.5t-48.5 -24t-49 -34t-59.5 -45.5t-69 -60.5q-70 -61 -199 -190q-44 -44 -92 -30q-36 11 -38 45q-3 27 22 55
q23 26 91 79t126.5 104t72.5 85q-63 10 -243 15q-134 3 -159 24q-17 15 -3 41q41 22 103 26.5t127 1t134 -3.5t143.5 20t135.5 66q96 72 250.5 197t262.5 211.5t257.5 184.5t286.5 159q10 4 30.5 13.5t30.5 13.5q43 16 77.5 0t40 -50.5t-19.5 -76.5q-85 -119 -258 -326
t-233 -285zM1698 1270q-83 -35 -281.5 -177t-397 -296t-210.5 -162q-8 -5 26 -3q19 1 294 33q62 7 77 7q25 0 96 78t162.5 200t141.5 191.5t92 128.5zM2032 1540q-43 -9 -103.5 13t-100 47.5t-93.5 64.5q-17 13 -12 38t23.5 36.5t43.5 -0.5q55 -38 142 -106.5t100 -92.5z
" />
    <glyph glyph-name="Aacute" unicode="&#xc1;" 
d="M1407 694q72 8 224 26.5t270 30t225 15.5q62 2 103 -17t63 -71q-148 0 -429 -42.5t-415 -45.5q-113 -2 -186 -120q-64 -100 -63 -220q0 -118 65 -161q46 -31 118 -9q5 2 28.5 11t34.5 11.5t27.5 -2t26.5 -20.5q14 -23 -23 -52q-53 -41 -131 -33q-53 5 -102 36
q-99 63 -133.5 170.5t0.5 218.5q10 35 15 54.5t3 35.5t-6.5 22t-22.5 8.5t-35.5 1t-55.5 -6.5q-35 -4 -88.5 -10.5t-74.5 -8.5t-59 -8.5t-53.5 -12t-45.5 -16.5t-48.5 -24t-49 -34t-59.5 -45.5t-69 -60.5q-70 -61 -199 -190q-44 -44 -92 -30q-36 11 -38 45q-3 27 22 55
q23 26 91 79t126.5 104t72.5 85q-63 10 -243 15q-134 3 -159 24q-17 15 -3 41q41 22 103 26.5t127 1t134 -3.5t143.5 20t135.5 66q96 72 250.5 197t262.5 211.5t257.5 184.5t286.5 159q10 4 30.5 13.5t30.5 13.5q43 16 77.5 0t40 -50.5t-19.5 -76.5q-85 -119 -258 -326
t-233 -285zM1698 1270q-83 -35 -281.5 -177t-397 -296t-210.5 -162q-8 -5 26 -3q19 1 294 33q62 7 77 7q25 0 96 78t162.5 200t141.5 191.5t92 128.5zM1874 1536q87 136 151 195q30 30 60 11t10 -59q-26 -58 -98.5 -111.5t-122.5 -35.5z" />
    <glyph glyph-name="Acircumflex" unicode="&#xc2;" 
d="M1407 694q72 8 224 26.5t270 30t225 15.5q62 2 103 -17t63 -71q-148 0 -429 -42.5t-415 -45.5q-113 -2 -186 -120q-64 -100 -63 -220q0 -118 65 -161q46 -31 118 -9q5 2 28.5 11t34.5 11.5t27.5 -2t26.5 -20.5q14 -23 -23 -52q-53 -41 -131 -33q-53 5 -102 36
q-99 63 -133.5 170.5t0.5 218.5q10 35 15 54.5t3 35.5t-6.5 22t-22.5 8.5t-35.5 1t-55.5 -6.5q-35 -4 -88.5 -10.5t-74.5 -8.5t-59 -8.5t-53.5 -12t-45.5 -16.5t-48.5 -24t-49 -34t-59.5 -45.5t-69 -60.5q-70 -61 -199 -190q-44 -44 -92 -30q-36 11 -38 45q-3 27 22 55
q23 26 91 79t126.5 104t72.5 85q-63 10 -243 15q-134 3 -159 24q-17 15 -3 41q41 22 103 26.5t127 1t134 -3.5t143.5 20t135.5 66q96 72 250.5 197t262.5 211.5t257.5 184.5t286.5 159q10 4 30.5 13.5t30.5 13.5q43 16 77.5 0t40 -50.5t-19.5 -76.5q-85 -119 -258 -326
t-233 -285zM1698 1270q-83 -35 -281.5 -177t-397 -296t-210.5 -162q-8 -5 26 -3q19 1 294 33q62 7 77 7q25 0 96 78t162.5 200t141.5 191.5t92 128.5zM2046 1518q-26 -5 -36 -2t-13 20q-3 21 -1.5 46t-1 46.5t-7.5 35.5t-21 13t-43 -22q-12 -9 -53 -53t-68 -54q-31 3 -36 25
t18 39q150 135 233 194q31 22 64 3t30 -56q-5 -64 -21.5 -140.5t-43.5 -94.5z" />
    <glyph glyph-name="Atilde" unicode="&#xc3;" 
d="M1407 694q72 8 224 26.5t270 30t225 15.5q62 2 103 -17t63 -71q-148 0 -429 -42.5t-415 -45.5q-113 -2 -186 -120q-64 -100 -63 -220q0 -118 65 -161q46 -31 118 -9q5 2 28.5 11t34.5 11.5t27.5 -2t26.5 -20.5q14 -23 -23 -52q-53 -41 -131 -33q-53 5 -102 36
q-99 63 -133.5 170.5t0.5 218.5q10 35 15 54.5t3 35.5t-6.5 22t-22.5 8.5t-35.5 1t-55.5 -6.5q-35 -4 -88.5 -10.5t-74.5 -8.5t-59 -8.5t-53.5 -12t-45.5 -16.5t-48.5 -24t-49 -34t-59.5 -45.5t-69 -60.5q-70 -61 -199 -190q-44 -44 -92 -30q-36 11 -38 45q-3 27 22 55
q23 26 91 79t126.5 104t72.5 85q-63 10 -243 15q-134 3 -159 24q-17 15 -3 41q41 22 103 26.5t127 1t134 -3.5t143.5 20t135.5 66q96 72 250.5 197t262.5 211.5t257.5 184.5t286.5 159q10 4 30.5 13.5t30.5 13.5q43 16 77.5 0t40 -50.5t-19.5 -76.5q-85 -119 -258 -326
t-233 -285zM1698 1270q-83 -35 -281.5 -177t-397 -296t-210.5 -162q-8 -5 26 -3q19 1 294 33q62 7 77 7q25 0 96 78t162.5 200t141.5 191.5t92 128.5zM1874 1608q-12 56 -14 59q-9 17 -41 -12q-22 -20 -82 -86q-19 -16 -40.5 -13.5t-28.5 19t5 41.5q35 56 104 108
q103 77 152 34q29 -26 33 -95q2 -36 10.5 -49t22.5 -6t29.5 20t36 28t36.5 19q27 7 39 -11.5t-2 -37.5q-28 -38 -69.5 -63t-80.5 -30t-70.5 13.5t-39.5 61.5z" />
    <glyph glyph-name="Adieresis" unicode="&#xc4;" 
d="M1407 694q72 8 224 26.5t270 30t225 15.5q62 2 103 -17t63 -71q-148 0 -429 -42.5t-415 -45.5q-113 -2 -186 -120q-64 -100 -63 -220q0 -118 65 -161q46 -31 118 -9q5 2 28.5 11t34.5 11.5t27.5 -2t26.5 -20.5q14 -23 -23 -52q-53 -41 -131 -33q-53 5 -102 36
q-99 63 -133.5 170.5t0.5 218.5q10 35 15 54.5t3 35.5t-6.5 22t-22.5 8.5t-35.5 1t-55.5 -6.5q-35 -4 -88.5 -10.5t-74.5 -8.5t-59 -8.5t-53.5 -12t-45.5 -16.5t-48.5 -24t-49 -34t-59.5 -45.5t-69 -60.5q-70 -61 -199 -190q-44 -44 -92 -30q-36 11 -38 45q-3 27 22 55
q23 26 91 79t126.5 104t72.5 85q-63 10 -243 15q-134 3 -159 24q-17 15 -3 41q41 22 103 26.5t127 1t134 -3.5t143.5 20t135.5 66q96 72 250.5 197t262.5 211.5t257.5 184.5t286.5 159q10 4 30.5 13.5t30.5 13.5q43 16 77.5 0t40 -50.5t-19.5 -76.5q-85 -119 -258 -326
t-233 -285zM1698 1270q-83 -35 -281.5 -177t-397 -296t-210.5 -162q-8 -5 26 -3q19 1 294 33q62 7 77 7q25 0 96 78t162.5 200t141.5 191.5t92 128.5zM1806 1573q2 33 36 39q33 5 49 -15q11 -14 1 -32q-14 -23 -34.5 -31t-36 2.5t-15.5 36.5zM1927 1573q2 33 36 39
q33 5 49 -15q11 -14 1 -32q-14 -23 -34.5 -31t-36 2.5t-15.5 36.5z" />
    <glyph glyph-name="Aring" unicode="&#xc5;" 
d="M1407 694q72 8 224 26.5t270 30t225 15.5q62 2 103 -17t63 -71q-148 0 -429 -42.5t-415 -45.5q-113 -2 -186 -120q-64 -100 -63 -220q0 -118 65 -161q46 -31 118 -9q5 2 28.5 11t34.5 11.5t27.5 -2t26.5 -20.5q14 -23 -23 -52q-53 -41 -131 -33q-53 5 -102 36
q-99 63 -133.5 170.5t0.5 218.5q10 35 15 54.5t3 35.5t-6.5 22t-22.5 8.5t-35.5 1t-55.5 -6.5q-35 -4 -88.5 -10.5t-74.5 -8.5t-59 -8.5t-53.5 -12t-45.5 -16.5t-48.5 -24t-49 -34t-59.5 -45.5t-69 -60.5q-70 -61 -199 -190q-44 -44 -92 -30q-36 11 -38 45q-3 27 22 55
q23 26 91 79t126.5 104t72.5 85q-63 10 -243 15q-134 3 -159 24q-17 15 -3 41q41 22 103 26.5t127 1t134 -3.5t143.5 20t135.5 66q96 72 250.5 197t262.5 211.5t257.5 184.5t286.5 159q10 4 30.5 13.5t30.5 13.5q43 16 77.5 0t40 -50.5t-19.5 -76.5q-85 -119 -258 -326
t-233 -285zM1698 1270q-83 -35 -281.5 -177t-397 -296t-210.5 -162q-8 -5 26 -3q19 1 294 33q62 7 77 7q25 0 96 78t162.5 200t141.5 191.5t92 128.5zM1958 1540q-83 0 -89 67q-4 56 41 115q40 53 81 52q76 -4 96 -62t-20 -115t-109 -57zM1944 1602q19 -6 38 6.5t29 32.5
t6 41.5t-26 31.5q-20 11 -37 -15.5t-18.5 -56t8.5 -40.5z" />
    <glyph glyph-name="AE" unicode="&#xc6;" horiz-adv-x="2791" 
d="M3699 1389q79 -14 104 -54q20 -30 -14 -47q-41 -19 -133 2q-72 17 -164 27q-112 14 -193 14q-149 4 -396 -3t-518.5 -32.5t-356.5 -64.5q-5 -56 -34 -111.5t-63 -93.5t-76.5 -89t-64.5 -89q131 -7 370 9t326 17q113 0 124 -32q8 -22 -37 -40q-32 -13 -76 -16
q-38 -3 -109 -6t-92 -4q-405 -28 -602 -51q-65 -6 -105 -37q-147 -110 -252 -253q-131 -180 -96 -284q48 -139 387 -92q184 28 520 91t610.5 105t526.5 58q46 3 68 -3.5t22.5 -18t-2.5 -25.5q-1 -2 -2.5 -10t-3 -10.5t-6.5 -8.5t-12.5 -8.5t-21 -5.5t-32.5 -4
q-187 -10 -418 -44t-424 -73t-395 -75.5t-355 -57.5t-279.5 -13.5t-190.5 52.5q-159 108 -137 258q-9 71 14 154q10 35 15 54.5t3 35.5t-6.5 22t-22.5 8.5t-35.5 1t-55.5 -6.5q-35 -4 -88.5 -10.5t-74.5 -8.5t-59 -8.5t-53.5 -12t-45.5 -16.5t-48.5 -24t-49 -34t-59.5 -45.5
t-69 -60.5q-70 -61 -199 -190q-44 -44 -92 -30q-36 11 -38 45q-3 27 22 55q23 26 91 79t126.5 104t72.5 85q-63 10 -243 15q-134 3 -159 24q-17 15 -3 41q41 22 103 26.5t127 1t134 -3.5t143.5 20t135.5 66q96 72 250.5 197t262.5 211.5t257.5 184.5t286.5 159l61 27
q58 22 96 -13.5t15 -89.5q273 50 577.5 79t636.5 27.5t574 -46.5zM1698 1270q-83 -35 -281.5 -177t-397 -296t-210.5 -162q-8 -5 26 -3q19 1 294 33q62 7 77 7q25 0 96 78t162.5 200t141.5 191.5t92 128.5zM1894 1200l-92 -22q-54 -70 -158 -194t-139 -167q51 12 103.5 48.5
t105.5 97.5t90.5 111t89.5 126z" />
    <glyph glyph-name="Ccedilla" unicode="&#xc7;" horiz-adv-x="2390" 
d="M309 -41q98 -60 135 -94q52 -47 3 -90q-42 -38 -115 -43q-82 -5 -107 45l-4 8q3 16 27 27t59.5 20t42.5 12q-79 43 -110 74.5t-20.5 65.5t69.5 77q-91 17 -142 50q-76 47 -112 102.5t-36 109t27.5 112.5t69 109.5t99.5 102.5q226 205 467.5 360.5t517 261t549.5 136.5
q131 17 194 -70q29 -40 28.5 -67.5t-28.5 -67.5q-43 -62 -190 -160t-226 -102q-40 0 -49 26t19 46q195 109 264 168q59 50 64 83.5t-33 45t-105 2.5q-178 -25 -415 -124.5t-455 -232t-402 -288.5t-262 -287q-26 -43 -33.5 -70t6 -48.5t37 -35t72.5 -33.5
q129 -51 314.5 -53.5t370.5 30.5t395.5 93.5t373 120t318.5 125.5q167 67 167 -23q0 -9 -18.5 -23.5t-32.5 -21.5q-271 -139 -761 -269t-777 -130q-61 0 -141 6q-4 -6 -16 -14q-50 -37 -99 -72z" />
    <glyph glyph-name="Egrave" unicode="&#xc8;" horiz-adv-x="1705" 
d="M334 1110q-48 48 14 100q13 12 199 57.5t246 55.5q273 52 583.5 83t650 30t586.5 -47q79 -14 104 -54q20 -30 -14 -47q-41 -19 -133 2q-72 17 -164 27q-112 14 -192 14q-149 4 -396.5 -3t-519 -32.5t-356.5 -64.5q-5 -56 -34 -111.5t-63 -93.5t-76 -89t-64 -89
q131 -7 370 9t326 17q87 0 114.5 -20t-6 -41.5t-98.5 -26.5q-38 -3 -109 -6t-92 -4q-405 -28 -602 -51q-64 -6 -104 -37q-147 -110 -252 -253q-131 -180 -96 -284q48 -139 387 -92q184 28 520 91t610.5 105t526.5 58q46 3 68 -3.5t22.5 -18t-2.5 -25.5q-1 -2 -2.5 -10
t-3 -10.5t-6.5 -8.5t-12.5 -8.5t-21 -5.5t-32.5 -4q-219 -12 -500 -57t-508.5 -91t-444.5 -83t-375.5 -35t-234.5 55q-111 77 -134 174.5t40 200.5q28 49 85 110t129 129t100 99q-86 0 -126 42q-28 29 -6 49q26 25 105 5q49 -13 103.5 6.5t97 52t98 97t86.5 108t84 119.5
q-24 -4 -80 -19.5t-137.5 -39t-118.5 -33.5q-11 -3 -33 -9.5t-31.5 -8.5t-24.5 -3t-26.5 5t-23.5 18zM1374 1571q-43 -9 -103.5 13t-100 47.5t-93.5 64.5q-17 13 -12 38t24 36t44 -1q55 -38 141.5 -106t99.5 -92z" />
    <glyph glyph-name="Eacute" unicode="&#xc9;" horiz-adv-x="1705" 
d="M334 1110q-48 48 14 100q13 12 199 57.5t246 55.5q273 52 583.5 83t650 30t586.5 -47q79 -14 104 -54q20 -30 -14 -47q-41 -19 -133 2q-72 17 -164 27q-112 14 -192 14q-149 4 -396.5 -3t-519 -32.5t-356.5 -64.5q-5 -56 -34 -111.5t-63 -93.5t-76 -89t-64 -89
q131 -7 370 9t326 17q87 0 114.5 -20t-6 -41.5t-98.5 -26.5q-38 -3 -109 -6t-92 -4q-405 -28 -602 -51q-64 -6 -104 -37q-147 -110 -252 -253q-131 -180 -96 -284q48 -139 387 -92q184 28 520 91t610.5 105t526.5 58q46 3 68 -3.5t22.5 -18t-2.5 -25.5q-1 -2 -2.5 -10
t-3 -10.5t-6.5 -8.5t-12.5 -8.5t-21 -5.5t-32.5 -4q-219 -12 -500 -57t-508.5 -91t-444.5 -83t-375.5 -35t-234.5 55q-111 77 -134 174.5t40 200.5q28 49 85 110t129 129t100 99q-86 0 -126 42q-28 29 -6 49q26 25 105 5q49 -13 103.5 6.5t97 52t98 97t86.5 108t84 119.5
q-24 -4 -80 -19.5t-137.5 -39t-118.5 -33.5q-11 -3 -33 -9.5t-31.5 -8.5t-24.5 -3t-26.5 5t-23.5 18zM1239 1544q86 134 152 195q30 30 59.5 11.5t9.5 -58.5q-26 -58 -98.5 -112t-122.5 -36z" />
    <glyph glyph-name="Ecircumflex" unicode="&#xca;" horiz-adv-x="1705" 
d="M334 1110q-48 48 14 100q13 12 199 57.5t246 55.5q273 52 583.5 83t650 30t586.5 -47q79 -14 104 -54q20 -30 -14 -47q-41 -19 -133 2q-72 17 -164 27q-112 14 -192 14q-149 4 -396.5 -3t-519 -32.5t-356.5 -64.5q-5 -56 -34 -111.5t-63 -93.5t-76 -89t-64 -89
q131 -7 370 9t326 17q87 0 114.5 -20t-6 -41.5t-98.5 -26.5q-38 -3 -109 -6t-92 -4q-405 -28 -602 -51q-64 -6 -104 -37q-147 -110 -252 -253q-131 -180 -96 -284q48 -139 387 -92q184 28 520 91t610.5 105t526.5 58q46 3 68 -3.5t22.5 -18t-2.5 -25.5q-1 -2 -2.5 -10
t-3 -10.5t-6.5 -8.5t-12.5 -8.5t-21 -5.5t-32.5 -4q-219 -12 -500 -57t-508.5 -91t-444.5 -83t-375.5 -35t-234.5 55q-111 77 -134 174.5t40 200.5q28 49 85 110t129 129t100 99q-86 0 -126 42q-28 29 -6 49q26 25 105 5q49 -13 103.5 6.5t97 52t98 97t86.5 108t84 119.5
q-24 -4 -80 -19.5t-137.5 -39t-118.5 -33.5q-11 -3 -33 -9.5t-31.5 -8.5t-24.5 -3t-26.5 5t-23.5 18zM1466 1532q-26 -5 -36 -2t-13 20q-3 21 -1.5 46t-1 46.5t-7.5 35.5t-21 13t-43 -22q-12 -9 -52.5 -52.5t-67.5 -53.5q-31 3 -36.5 24.5t17.5 38.5q152 136 234 195
q31 22 64 2.5t30 -56.5q-5 -62 -22 -139.5t-44 -95.5z" />
    <glyph glyph-name="Edieresis" unicode="&#xcb;" horiz-adv-x="1705" 
d="M334 1110q-48 48 14 100q13 12 199 57.5t246 55.5q273 52 583.5 83t650 30t586.5 -47q79 -14 104 -54q20 -30 -14 -47q-41 -19 -133 2q-72 17 -164 27q-112 14 -192 14q-149 4 -396.5 -3t-519 -32.5t-356.5 -64.5q-5 -56 -34 -111.5t-63 -93.5t-76 -89t-64 -89
q131 -7 370 9t326 17q87 0 114.5 -20t-6 -41.5t-98.5 -26.5q-38 -3 -109 -6t-92 -4q-405 -28 -602 -51q-64 -6 -104 -37q-147 -110 -252 -253q-131 -180 -96 -284q48 -139 387 -92q184 28 520 91t610.5 105t526.5 58q46 3 68 -3.5t22.5 -18t-2.5 -25.5q-1 -2 -2.5 -10
t-3 -10.5t-6.5 -8.5t-12.5 -8.5t-21 -5.5t-32.5 -4q-219 -12 -500 -57t-508.5 -91t-444.5 -83t-375.5 -35t-234.5 55q-111 77 -134 174.5t40 200.5q28 49 85 110t129 129t100 99q-86 0 -126 42q-28 29 -6 49q26 25 105 5q49 -13 103.5 6.5t97 52t98 97t86.5 108t84 119.5
q-24 -4 -80 -19.5t-137.5 -39t-118.5 -33.5q-11 -3 -33 -9.5t-31.5 -8.5t-24.5 -3t-26.5 5t-23.5 18zM1241 1599q2 33 36 39q33 5 49 -15q11 -14 1 -32q-14 -23 -34.5 -31t-36 2.5t-15.5 36.5zM1362 1599q2 33 36 39q33 5 49 -15q11 -14 1 -32q-14 -23 -34.5 -31t-36 2.5
t-15.5 36.5z" />
    <glyph glyph-name="Igrave" unicode="&#xcc;" horiz-adv-x="1796" 
d="M1477 1198l22 59q-337 -49 -723.5 -148t-673.5 -196q-50 -16 -69 18q-16 29 9 61q19 23 54 32q255 81 410.5 127.5t381 101t417.5 82.5q215 33 363 50.5t341.5 30t372 0t346.5 -49.5q104 -22 131 -139q-71 47 -164 65q-288 61 -880 -8q-38 -4 -58 -21t-40.5 -50.5
t-43.5 -53.5q-22 -18 -73.5 -50.5t-75.5 -55.5q-392 -366 -719 -910q519 58 1003 88q90 5 117 -43q13 -24 15.5 -38.5t-7.5 -21t-22 -8t-37 -1.5q-23 1 -63 2.5t-73 2.5t-63 1q-210 2 -443.5 -23.5t-438.5 -78.5q-31 -8 -45 -23.5t-21 -40.5q-17 -50 -26.5 -62t-17.5 -3.5
t-28 49.5l-8 16q-13 26 -30 37t-39 11t-54 -1q-63 -2 -417 -77.5t-396 -71.5q-25 3 -34.5 23.5t0 42.5t32.5 30q46 19 107 34t151.5 31t112.5 21q84 16 265 44t276 48q31 7 49.5 18.5t36.5 38.5q217 361 372 569.5t398 440.5zM1888 1548q-43 -9 -103.5 13t-100 47.5
t-93.5 64.5q-17 13 -12 38t24 36.5t44 -0.5q54 -37 141 -106t100 -93z" />
    <glyph glyph-name="Iacute" unicode="&#xcd;" horiz-adv-x="1796" 
d="M1477 1198l22 59q-337 -49 -723.5 -148t-673.5 -196q-50 -16 -69 18q-16 29 9 61q19 23 54 32q255 81 410.5 127.5t381 101t417.5 82.5q215 33 363 50.5t341.5 30t372 0t346.5 -49.5q104 -22 131 -139q-71 47 -164 65q-288 61 -880 -8q-38 -4 -58 -21t-40.5 -50.5
t-43.5 -53.5q-22 -18 -73.5 -50.5t-75.5 -55.5q-392 -366 -719 -910q519 58 1003 88q90 5 117 -43q13 -24 15.5 -38.5t-7.5 -21t-22 -8t-37 -1.5q-23 1 -63 2.5t-73 2.5t-63 1q-210 2 -443.5 -23.5t-438.5 -78.5q-31 -8 -45 -23.5t-21 -40.5q-17 -50 -26.5 -62t-17.5 -3.5
t-28 49.5l-8 16q-13 26 -30 37t-39 11t-54 -1q-63 -2 -417 -77.5t-396 -71.5q-25 3 -34.5 23.5t0 42.5t32.5 30q46 19 107 34t151.5 31t112.5 21q84 16 265 44t276 48q31 7 49.5 18.5t36.5 38.5q217 361 372 569.5t398 440.5zM1645 1540q87 136 151 195q30 30 60 11.5
t10 -58.5q-26 -58 -98.5 -112t-122.5 -36z" />
    <glyph glyph-name="Icircumflex" unicode="&#xce;" horiz-adv-x="1796" 
d="M1477 1198l22 59q-337 -49 -723.5 -148t-673.5 -196q-50 -16 -69 18q-16 29 9 61q19 23 54 32q255 81 410.5 127.5t381 101t417.5 82.5q215 33 363 50.5t341.5 30t372 0t346.5 -49.5q104 -22 131 -139q-71 47 -164 65q-288 61 -880 -8q-38 -4 -58 -21t-40.5 -50.5
t-43.5 -53.5q-22 -18 -73.5 -50.5t-75.5 -55.5q-392 -366 -719 -910q519 58 1003 88q90 5 117 -43q13 -24 15.5 -38.5t-7.5 -21t-22 -8t-37 -1.5q-23 1 -63 2.5t-73 2.5t-63 1q-210 2 -443.5 -23.5t-438.5 -78.5q-31 -8 -45 -23.5t-21 -40.5q-17 -50 -26.5 -62t-17.5 -3.5
t-28 49.5l-8 16q-13 26 -30 37t-39 11t-54 -1q-63 -2 -417 -77.5t-396 -71.5q-25 3 -34.5 23.5t0 42.5t32.5 30q46 19 107 34t151.5 31t112.5 21q84 16 265 44t276 48q31 7 49.5 18.5t36.5 38.5q217 361 372 569.5t398 440.5zM1915 1528q-26 -5 -36 -2t-13 20q-3 21 -1.5 46
t-1 46.5t-7.5 35.5t-21 13t-43 -22q-12 -9 -53 -52.5t-68 -53.5q-31 3 -36 24.5t18 38.5q156 140 233 195q31 22 64 2.5t30 -56.5q-5 -64 -21.5 -140.5t-43.5 -94.5z" />
    <glyph glyph-name="Idieresis" unicode="&#xcf;" horiz-adv-x="1796" 
d="M1477 1198l22 59q-337 -49 -723.5 -148t-673.5 -196q-50 -16 -69 18q-16 29 9 61q19 23 54 32q255 81 410.5 127.5t381 101t417.5 82.5q215 33 363 50.5t341.5 30t372 0t346.5 -49.5q104 -22 131 -139q-71 47 -164 65q-288 61 -880 -8q-38 -4 -58 -21t-40.5 -50.5
t-43.5 -53.5q-22 -18 -73.5 -50.5t-75.5 -55.5q-392 -366 -719 -910q519 58 1003 88q90 5 117 -43q13 -24 15.5 -38.5t-7.5 -21t-22 -8t-37 -1.5q-23 1 -63 2.5t-73 2.5t-63 1q-210 2 -443.5 -23.5t-438.5 -78.5q-31 -8 -45 -23.5t-21 -40.5q-17 -50 -26.5 -62t-17.5 -3.5
t-28 49.5l-8 16q-13 26 -30 37t-39 11t-54 -1q-63 -2 -417 -77.5t-396 -71.5q-25 3 -34.5 23.5t0 42.5t32.5 30q46 19 107 34t151.5 31t112.5 21q84 16 265 44t276 48q31 7 49.5 18.5t36.5 38.5q217 361 372 569.5t398 440.5zM1647 1595q2 33 36 39q33 5 49 -15
q11 -14 1 -32q-14 -23 -34.5 -31t-36 2.5t-15.5 36.5zM1767 1595q2 33 36 39q33 5 49 -15q11 -14 1 -32q-14 -23 -34.5 -31t-36 2.5t-15.5 36.5z" />
    <glyph glyph-name="Eth" unicode="&#xd0;" horiz-adv-x="2795" 
d="M668 733q17 0 53.5 1t56.5 1q39 65 111.5 180.5t99.5 161.5q-44 -22 -124 -58.5t-91 -35.5q-48 5 -63 38t28 73q61 50 238 103t270 60q91 6 151.5 9.5t185 7.5t217.5 -1.5t216.5 -15.5t216 -36t182 -62.5t149 -96t85.5 -134.5q16 -45 16.5 -86.5t-9 -73.5t-34 -64
t-48 -53.5t-63 -47t-67 -40.5t-71.5 -37q-156 -80 -363.5 -147t-470.5 -120.5t-396.5 -77t-380.5 -61.5q-47 -8 -69 -11q-12 -2 -32 -4.5l-28 -3.5t-22.5 -3.5t-20 -5.5t-15.5 -8t-13.5 -12t-9.5 -16.5t-8 -22t-4.5 -28.5t-3.5 -36q0 -29 -26.5 -36t-45.5 6q-28 14 -21 65
q7 49 -16.5 66t-71.5 14q-17 -1 -110.5 -12.5t-175 -18.5t-93.5 0q-34 23 -31.5 66t44.5 49q31 4 146 5.5t208 12.5t129 41q45 39 105 162q54 106 149 262q-65 3 -78 13q-9 4 -13.5 21t3 32.5t29.5 15.5zM2406 1047q-95 58 -226.5 90t-289.5 38t-291.5 1.5t-304.5 -19.5
q-86 -7 -221 -203q-35 -49 -133 -215q378 4 412 2q54 -3 71 -18q16 -15 10.5 -32t-32.5 -23q-52 -9 -212 -15.5t-304 -5.5q-218 -366 -221 -387q-4 -16 2.5 -24.5t22 -9.5t28.5 0.5t32 5t23 4.5q410 69 849 176t677 217q59 27 108 64t82 82.5t40.5 91.5t-22.5 93.5
t-100 86.5z" />
    <glyph glyph-name="Ntilde" unicode="&#xd1;" horiz-adv-x="2420" 
d="M772 1067q-103 -111 -223.5 -260.5t-276.5 -353t-215 -277.5q-7 -8 -28 -35.5t-32.5 -42t-29.5 -34.5t-33 -33q-48 -41 -84 0q-19 24 -18.5 37.5t16.5 40.5q96 146 369 479q125 158 205 256t196 226.5t220 223.5q27 25 45 26.5t45 -26.5q46 -53 18 -153
q-13 -46 -85.5 -265.5t-98.5 -347.5q-18 -90 -20 -158t10 -112t39 -69.5t62 -33.5t82.5 -2t98 22.5t111.5 43.5q115 49 244.5 128.5t269 186.5t241.5 190t249.5 209t207.5 175q9 7 29 27.5t34 31.5t31.5 19t31.5 -3.5t24 -43.5q6 -23 -2.5 -46t-19 -35.5t-27.5 -29.5
q-127 -124 -262.5 -243.5t-305.5 -251.5t-327.5 -234t-323.5 -176t-299 -92q-53 -9 -99.5 14t-95.5 74q-62 66 -84 161t-9 202t35.5 204.5t50 208t34.5 172.5zM1544 1538q-12 56 -14 59q-9 17 -41 -12q-22 -20 -82 -86q-19 -16 -40.5 -13.5t-28.5 19t5 41.5q35 56 104 108
q103 77 152 34q29 -26 33 -95q2 -36 10.5 -48.5t22.5 -5.5t29.5 20t36 28t36.5 19q27 7 39 -12t-2 -38q-28 -38 -69.5 -63t-80.5 -30t-70.5 13.5t-39.5 61.5z" />
    <glyph glyph-name="Ograve" unicode="&#xd2;" horiz-adv-x="1990" 
d="M27 612q5 20 12 31t24 23q48 34 100 78t86.5 77.5t91.5 89.5t87 84q51 47 121 99t114.5 81t133.5 85q95 63 256 111.5t332.5 69t335 -6t251.5 -103.5q60 -52 71.5 -103t-22.5 -124q-55 -106 -171 -232t-254.5 -240t-271.5 -209t-249 -165q-173 -104 -330 -172t-317 -94
q-64 -9 -115 -9t-89.5 14.5t-66.5 34.5t-46 51.5t-28.5 64.5t-13 74.5t-0.5 81.5t9.5 85t17.5 85t23 81q5 9 2.5 15t-4.5 7.5t-11.5 4.5t-19 5t-26 8.5t-33.5 16.5zM965 1198q149 2 191 -1q169 -16 169 -112q-108 15 -274.5 -7.5t-328.5 -77t-239 -123.5
q-154 -139 -248 -339q-91 -194 -69 -326q22 -127 148 -136q42 -3 94 8q172 39 389.5 140t424.5 234t383 298.5t257 318.5q31 57 35.5 109t-17 92.5t-77 65t-138.5 24.5q-465 -9 -700 -168zM1810 1550q-43 -9 -103.5 13t-100 47.5t-93.5 64.5q-17 13 -12 38t24 36.5t44 -0.5
q54 -37 141 -106t100 -93z" />
    <glyph glyph-name="Oacute" unicode="&#xd3;" horiz-adv-x="1990" 
d="M27 612q5 20 12 31t24 23q48 34 100 78t86.5 77.5t91.5 89.5t87 84q51 47 121 99t114.5 81t133.5 85q95 63 256 111.5t332.5 69t335 -6t251.5 -103.5q60 -52 71.5 -103t-22.5 -124q-55 -106 -171 -232t-254.5 -240t-271.5 -209t-249 -165q-173 -104 -330 -172t-317 -94
q-64 -9 -115 -9t-89.5 14.5t-66.5 34.5t-46 51.5t-28.5 64.5t-13 74.5t-0.5 81.5t9.5 85t17.5 85t23 81q5 9 2.5 15t-4.5 7.5t-11.5 4.5t-19 5t-26 8.5t-33.5 16.5zM965 1198q149 2 191 -1q169 -16 169 -112q-108 15 -274.5 -7.5t-328.5 -77t-239 -123.5
q-154 -139 -248 -339q-91 -194 -69 -326q22 -127 148 -136q42 -3 94 8q172 39 389.5 140t424.5 234t383 298.5t257 318.5q31 57 35.5 109t-17 92.5t-77 65t-138.5 24.5q-465 -9 -700 -168zM1606 1579q87 136 151 195q30 30 60 11t10 -59q-26 -58 -98.5 -111.5t-122.5 -35.5z
" />
    <glyph glyph-name="Ocircumflex" unicode="&#xd4;" horiz-adv-x="1990" 
d="M27 612q5 20 12 31t24 23q48 34 100 78t86.5 77.5t91.5 89.5t87 84q51 47 121 99t114.5 81t133.5 85q95 63 256 111.5t332.5 69t335 -6t251.5 -103.5q60 -52 71.5 -103t-22.5 -124q-55 -106 -171 -232t-254.5 -240t-271.5 -209t-249 -165q-173 -104 -330 -172t-317 -94
q-64 -9 -115 -9t-89.5 14.5t-66.5 34.5t-46 51.5t-28.5 64.5t-13 74.5t-0.5 81.5t9.5 85t17.5 85t23 81q5 9 2.5 15t-4.5 7.5t-11.5 4.5t-19 5t-26 8.5t-33.5 16.5zM965 1198q149 2 191 -1q169 -16 169 -112q-108 15 -274.5 -7.5t-328.5 -77t-239 -123.5
q-154 -139 -248 -339q-91 -194 -69 -326q22 -127 148 -136q42 -3 94 8q172 39 389.5 140t424.5 234t383 298.5t257 318.5q31 57 35.5 109t-17 92.5t-77 65t-138.5 24.5q-465 -9 -700 -168zM1804 1544q-26 -5 -36 -1.5t-13 20.5q-3 21 -1.5 46t-0.5 46.5t-7.5 35.5
t-21.5 12.5t-43 -22.5q-12 -9 -52.5 -52.5t-67.5 -53.5q-31 3 -36.5 24.5t17.5 38.5q152 136 234 195q31 22 64 3t30 -56q-5 -63 -22 -140.5t-44 -95.5z" />
    <glyph glyph-name="Otilde" unicode="&#xd5;" horiz-adv-x="1990" 
d="M27 612q5 20 12 31t24 23q48 34 100 78t86.5 77.5t91.5 89.5t87 84q51 47 121 99t114.5 81t133.5 85q95 63 256 111.5t332.5 69t335 -6t251.5 -103.5q60 -52 71.5 -103t-22.5 -124q-55 -106 -171 -232t-254.5 -240t-271.5 -209t-249 -165q-173 -104 -330 -172t-317 -94
q-64 -9 -115 -9t-89.5 14.5t-66.5 34.5t-46 51.5t-28.5 64.5t-13 74.5t-0.5 81.5t9.5 85t17.5 85t23 81q5 9 2.5 15t-4.5 7.5t-11.5 4.5t-19 5t-26 8.5t-33.5 16.5zM965 1198q149 2 191 -1q169 -16 169 -112q-108 15 -274.5 -7.5t-328.5 -77t-239 -123.5
q-154 -139 -248 -339q-91 -194 -69 -326q22 -127 148 -136q42 -3 94 8q172 39 389.5 140t424.5 234t383 298.5t257 318.5q31 57 35.5 109t-17 92.5t-77 65t-138.5 24.5q-465 -9 -700 -168zM1665 1618q-12 56 -14 59q-9 17 -41 -12q-22 -20 -82 -86q-19 -16 -40.5 -13.5
t-28.5 19t5 41.5q35 56 104 108q103 77 152 34q29 -26 33 -95q2 -36 10.5 -48.5t22.5 -5.5t29.5 20t36 28t36.5 19q27 7 39 -12t-2 -38q-28 -38 -69.5 -63t-80.5 -30t-70.5 13.5t-39.5 61.5z" />
    <glyph glyph-name="Odieresis" unicode="&#xd6;" horiz-adv-x="1990" 
d="M27 612q5 20 12 31t24 23q48 34 100 78t86.5 77.5t91.5 89.5t87 84q51 47 121 99t114.5 81t133.5 85q95 63 256 111.5t332.5 69t335 -6t251.5 -103.5q60 -52 71.5 -103t-22.5 -124q-55 -106 -171 -232t-254.5 -240t-271.5 -209t-249 -165q-173 -104 -330 -172t-317 -94
q-64 -9 -115 -9t-89.5 14.5t-66.5 34.5t-46 51.5t-28.5 64.5t-13 74.5t-0.5 81.5t9.5 85t17.5 85t23 81q5 9 2.5 15t-4.5 7.5t-11.5 4.5t-19 5t-26 8.5t-33.5 16.5zM965 1198q149 2 191 -1q169 -16 169 -112q-108 15 -274.5 -7.5t-328.5 -77t-239 -123.5
q-154 -139 -248 -339q-91 -194 -69 -326q22 -127 148 -136q42 -3 94 8q172 39 389.5 140t424.5 234t383 298.5t257 318.5q31 57 35.5 109t-17 92.5t-77 65t-138.5 24.5q-465 -9 -700 -168zM1604 1620q2 33 36 39q33 5 49 -15q11 -14 1 -32q-14 -23 -34.5 -31t-36 2.5
t-15.5 36.5zM1724 1620q2 33 36 39q33 5 49 -15q11 -14 1 -32q-14 -23 -34.5 -31t-36 2.5t-15.5 36.5z" />
    <glyph glyph-name="multiply" unicode="&#xd7;" horiz-adv-x="684" 
d="M524 748l-127 -97q58 -55 66 -65q31 -40 29 -60q-2 -22 -19 -31.5t-39 1.5q-59 36 -119 90q-82 -62 -100 -72q-50 -33 -72 -31q-24 2 -28 18.5t16 39.5q48 49 119 104q-85 85 -88 115q-3 9 8.5 26t27 24t31.5 -7l103 -94q131 97 170 106q10 2 23.5 -9t16 -26t-17.5 -32z
" />
    <glyph glyph-name="Oslash" unicode="&#xd8;" horiz-adv-x="1990" 
d="M1616 1511l-51 -63q276 -3 407 -117q60 -52 71.5 -103t-22.5 -124q-55 -106 -171 -232t-254.5 -240t-271.5 -209t-249 -165q-173 -104 -330 -172t-317 -94l-49 -6q-17 -23 -39 -45q-34 -43 -61 -43q-21 -2 -29.5 12.5t2.5 40.5q2 6 24 37q-77 9 -125 50t-66.5 97.5
t-17.5 131.5t14.5 144t37.5 144q5 9 2.5 15t-4.5 7.5t-11.5 4.5t-19 5t-26 8.5t-33.5 16.5q5 20 12 31t24 23q48 34 100 78t86.5 77.5t91.5 89.5t87 84q51 47 121 99t114.5 81t133.5 85q105 70 289 122t372 64q106 122 119 127q16 6 38.5 -15.5t0.5 -46.5zM1325 1085l-49 5
q-281 -348 -803 -990q175 49 383 151.5t404 232t360.5 287.5t241.5 304q31 57 35.5 109t-17 92.5t-77 65t-138.5 24.5q-117 -4 -174 -10l-180 -223q14 -21 14 -48zM483 877q-155 -139 -248 -339q-91 -194 -69 -325q21 -126 145 -136q16 -2 33 -1q284 363 815 1011
q-187 -11 -386.5 -69.5t-289.5 -140.5zM965 1198q12 0 61 1t76 0.5t67 -4.5t68 -13l133 157q-256 -41 -405 -141z" />
    <glyph glyph-name="Ugrave" unicode="&#xd9;" horiz-adv-x="2922" 
d="M2537 889q-258 -82 -719.5 -274.5t-603.5 -245.5q-349 -132 -745 -252q-61 -18 -126 -27t-138 -1t-119 40q-155 109 -66 309q46 101 112.5 193.5t151 172.5t165.5 144t186 135q12 9 40 21.5t42 15.5q54 9 66 -40q12 -44 -17 -87q-33 -51 -85 -32q-7 2 -13 6
q-75 -22 -232 -181q-173 -177 -275 -344q-121 -196 -43 -237q18 -10 46 -10q165 -2 428.5 73.5t555 192.5t580 238.5t575.5 229t470 146.5q34 7 54 -5t36 -46q12 -29 6 -45t-30 -35q-35 -28 -81 -68.5t-105 -97t-116.5 -117t-114.5 -127.5t-100 -129.5t-73 -122.5
t-32.5 -107t21.5 -83q-23 -23 -38 -12q-42 30 -53.5 80t2 107t45.5 125.5t72 131.5t87.5 129t85 113.5t71.5 89.5q20 24 27 33zM1858 1470q-43 -9 -103.5 13t-100 47.5t-93.5 64.5q-17 13 -12 38t23.5 36.5t43.5 -0.5q55 -38 142 -106.5t100 -92.5z" />
    <glyph glyph-name="Uacute" unicode="&#xda;" horiz-adv-x="2922" 
d="M2537 889q-258 -82 -719.5 -274.5t-603.5 -245.5q-349 -132 -745 -252q-61 -18 -126 -27t-138 -1t-119 40q-155 109 -66 309q46 101 112.5 193.5t151 172.5t165.5 144t186 135q12 9 40 21.5t42 15.5q54 9 66 -40q12 -44 -17 -87q-33 -51 -85 -32q-7 2 -13 6
q-75 -22 -232 -181q-173 -177 -275 -344q-121 -196 -43 -237q18 -10 46 -10q165 -2 428.5 73.5t555 192.5t580 238.5t575.5 229t470 146.5q34 7 54 -5t36 -46q12 -29 6 -45t-30 -35q-35 -28 -81 -68.5t-105 -97t-116.5 -117t-114.5 -127.5t-100 -129.5t-73 -122.5
t-32.5 -107t21.5 -83q-23 -23 -38 -12q-42 30 -53.5 80t2 107t45.5 125.5t72 131.5t87.5 129t85 113.5t71.5 89.5q20 24 27 33zM1683 1448q84 131 152 194q30 30 60 11.5t10 -58.5q-26 -58 -99 -111.5t-123 -35.5z" />
    <glyph glyph-name="Ucircumflex" unicode="&#xdb;" horiz-adv-x="2922" 
d="M2537 889q-258 -82 -719.5 -274.5t-603.5 -245.5q-349 -132 -745 -252q-61 -18 -126 -27t-138 -1t-119 40q-155 109 -66 309q46 101 112.5 193.5t151 172.5t165.5 144t186 135q12 9 40 21.5t42 15.5q54 9 66 -40q12 -44 -17 -87q-33 -51 -85 -32q-7 2 -13 6
q-75 -22 -232 -181q-173 -177 -275 -344q-121 -196 -43 -237q18 -10 46 -10q165 -2 428.5 73.5t555 192.5t580 238.5t575.5 229t470 146.5q34 7 54 -5t36 -46q12 -29 6 -45t-30 -35q-35 -28 -81 -68.5t-105 -97t-116.5 -117t-114.5 -127.5t-100 -129.5t-73 -122.5
t-32.5 -107t21.5 -83q-23 -23 -38 -12q-42 30 -53.5 80t2 107t45.5 125.5t72 131.5t87.5 129t85 113.5t71.5 89.5q20 24 27 33zM1896 1397q-26 -5 -36 -2t-13 20q-3 21 -1.5 46t-0.5 46.5t-7 35.5t-21 13t-43 -22q-12 -9 -53 -53t-68 -54q-31 3 -36.5 25t17.5 39
q152 136 234 195q31 22 64 2.5t30 -56.5q-5 -62 -22 -139.5t-44 -95.5z" />
    <glyph glyph-name="Udieresis" unicode="&#xdc;" horiz-adv-x="2922" 
d="M2537 889q-258 -82 -719.5 -274.5t-603.5 -245.5q-349 -132 -745 -252q-61 -18 -126 -27t-138 -1t-119 40q-155 109 -66 309q46 101 112.5 193.5t151 172.5t165.5 144t186 135q12 9 40 21.5t42 15.5q54 9 66 -40q12 -44 -17 -87q-33 -51 -85 -32q-7 2 -13 6
q-75 -22 -232 -181q-173 -177 -275 -344q-121 -196 -43 -237q18 -10 46 -10q165 -2 428.5 73.5t555 192.5t580 238.5t575.5 229t470 146.5q34 7 54 -5t36 -46q12 -29 6 -45t-30 -35q-35 -28 -81 -68.5t-105 -97t-116.5 -117t-114.5 -127.5t-100 -129.5t-73 -122.5
t-32.5 -107t21.5 -83q-23 -23 -38 -12q-42 30 -53.5 80t2 107t45.5 125.5t72 131.5t87.5 129t85 113.5t71.5 89.5q20 24 27 33zM1657 1470q2 33 36 39q33 5 49 -15q11 -14 1 -32q-14 -23 -34.5 -31t-36 2.5t-15.5 36.5zM1778 1470q2 33 36 39q33 5 49 -15q11 -14 1 -32
q-14 -23 -34.5 -31t-36 2.5t-15.5 36.5z" />
    <glyph glyph-name="Yacute" unicode="&#xdd;" horiz-adv-x="2461" 
d="M84 1061q40 26 103.5 22.5t133.5 -23.5t154.5 -60.5t167.5 -87.5t171.5 -104.5t167.5 -112.5t155.5 -111t134.5 -99.5t105 -78t67 -46.5q54 -34 94 -36.5t98 22.5q204 86 349.5 246t201.5 369l15 57l-4 22q-20 3 -78 -31.5t-129.5 -82t-162.5 -92.5t-177 -64t-174 4
q-114 36 -152 118.5t0 194.5q13 45 43.5 114t52.5 93q29 33 62.5 30t54.5 -42q4 -8 -0.5 -23t-11.5 -24q-56 -76 -92 -181q-54 -158 20 -189q31 -13 84 -1q268 59 655 353q5 4 17.5 14.5t17.5 14t16 9.5t18.5 6t19 -2.5t24.5 -9.5q66 -35 59 -127q-30 -288 -172.5 -512.5
t-390.5 -355.5q-24 -13 -33.5 -18t-23 -14t-16 -12.5t-5 -11.5t2 -12.5l14 -14t21 -18t32.5 -22.5q18 -12 77 -47.5t95 -63.5t64 -63q-78 16 -137.5 48t-137.5 91q-67 51 -122 59t-134 -16q-108 -30 -239.5 -26t-266.5 28.5t-272 76t-256.5 117t-219.5 151.5t-161 180
q-28 43 -48.5 96.5t-30 111t10 108.5t68.5 79zM1452 281q-97 65 -302 215.5t-367 256.5t-320 183q-36 18 -71.5 30.5t-76.5 22.5t-75 7t-62.5 -17t-44 -49.5t-14.5 -89.5q1 -83 44 -160.5t114 -137t157.5 -110t183 -86.5t181 -59.5t159.5 -36.5q267 -44 494 31zM1843 1444
q84 131 152 194q30 30 59.5 11.5t9.5 -58.5q-26 -58 -98.5 -111.5t-122.5 -35.5z" />
    <glyph glyph-name="Thorn" unicode="&#xde;" horiz-adv-x="661" 
d="M-299 96q-32 28 0 72q230 374 623 999q18 31 46 55t54 11q41 -7 16 -64q-19 -39 -44 -82t-56.5 -93t-48.5 -79q-31 -51 -27 -61.5t62 -17.5q79 -11 124 -46.5t44.5 -84t-50.5 -95.5q-44 -42 -101.5 -65t-109.5 -30.5t-101.5 -15t-91 -28t-65.5 -59.5q-3 -4 -50.5 -83
t-84.5 -133.5t-69 -89.5q-27 -27 -39.5 -28.5t-30.5 18.5zM350 754q-80 35 -156.5 -11t-80.5 -133q134 9 237 66q33 21 32 42.5t-32 35.5z" />
    <glyph glyph-name="germandbls" unicode="&#xdf;" horiz-adv-x="1040" 
d="M174 514q54 20 195 36.5t237 38t92 60.5q-2 24 -85 55q-112 42 -128 49q-103 49 -67 110q15 23 49 50q45 34 109.5 68.5t109 67t80.5 86.5q47 70 10 100q-34 29 -107 0q-44 -17 -87 -53q-77 -64 -149 -141t-136.5 -163t-116 -161t-118.5 -174.5t-113 -163.5
q-80 -103 -94 -113q-48 -30 -76 6q-8 10 -12 17.5t-2.5 16t3 12t9.5 15.5l10 15q68 92 165 243.5t164.5 255.5t170.5 223.5t211 199.5q85 66 157 84q55 11 110 8.5t98.5 -24t70.5 -51t27 -71.5t-33 -86q-83 -109 -379 -315q18 -10 65 -33t79 -41.5t68.5 -44t54.5 -54
t15 -58.5q-1 -30 -16 -52t-43.5 -35t-56 -20.5t-66.5 -13.5q-6 -1 -41 -7t-52.5 -8.5t-55.5 -8.5t-62.5 -9t-60.5 -6.5t-62.5 -4.5t-55 -1t-51 3t-38.5 9q-33 12 -42.5 28.5t4 31.5t42.5 24z" />
    <glyph glyph-name="agrave" unicode="&#xe0;" horiz-adv-x="1187" 
d="M-49 565q15 30 49 70q75 84 203.5 151.5t247.5 100.5q175 51 233 -133q8 -27 -7 -79.5t-15 -56.5q-15 -91 45 -118.5t160.5 0.5t178 59.5t134.5 61.5q24 7 34 -19q12 -40 -101 -96t-246.5 -93t-184.5 -34q-26 2 -49.5 17.5t-44.5 44.5t-32 47t-28 51q-17 31 -26.5 33.5
t-38.5 -13.5q-15 -8 -51.5 -28t-47.5 -26t-39.5 -21t-41 -21t-37 -16.5t-42.5 -17t-42 -14.5t-51 -16q-38 -12 -84.5 10.5t-71.5 67.5t-4 88zM84 514q71 17 188.5 70t194.5 110q64 51 51 69.5t-78 -9.5q-208 -86 -356 -240zM643 1042q-43 -9 -103.5 13t-100 47.5t-93.5 64.5
q-17 13 -12 38t23.5 36.5t43.5 -0.5q55 -38 142 -106.5t100 -92.5z" />
    <glyph glyph-name="aacute" unicode="&#xe1;" horiz-adv-x="1187" 
d="M-49 565q15 30 49 70q75 84 203.5 151.5t247.5 100.5q175 51 233 -133q8 -27 -7 -79.5t-15 -56.5q-15 -91 45 -118.5t160.5 0.5t178 59.5t134.5 61.5q24 7 34 -19q12 -40 -101 -96t-246.5 -93t-184.5 -34q-26 2 -49.5 17.5t-44.5 44.5t-32 47t-28 51q-17 31 -26.5 33.5
t-38.5 -13.5q-15 -8 -51.5 -28t-47.5 -26t-39.5 -21t-41 -21t-37 -16.5t-42.5 -17t-42 -14.5t-51 -16q-38 -12 -84.5 10.5t-71.5 67.5t-4 88zM84 514q71 17 188.5 70t194.5 110q64 51 51 69.5t-78 -9.5q-208 -86 -356 -240zM442 1049q84 131 152 194q30 30 60 11.5t10 -58.5
q-26 -58 -99 -111.5t-123 -35.5z" />
    <glyph glyph-name="acircumflex" unicode="&#xe2;" horiz-adv-x="1187" 
d="M-49 565q15 30 49 70q75 84 203.5 151.5t247.5 100.5q175 51 233 -133q8 -27 -7 -79.5t-15 -56.5q-15 -91 45 -118.5t160.5 0.5t178 59.5t134.5 61.5q24 7 34 -19q12 -40 -101 -96t-246.5 -93t-184.5 -34q-26 2 -49.5 17.5t-44.5 44.5t-32 47t-28 51q-17 31 -26.5 33.5
t-38.5 -13.5q-15 -8 -51.5 -28t-47.5 -26t-39.5 -21t-41 -21t-37 -16.5t-42.5 -17t-42 -14.5t-51 -16q-38 -12 -84.5 10.5t-71.5 67.5t-4 88zM84 514q71 17 188.5 70t194.5 110q64 51 51 69.5t-78 -9.5q-208 -86 -356 -240zM700 1006q-26 -5 -36 -2t-13 20q-3 21 -1.5 46
t-0.5 46.5t-7 35.5t-21 13t-43 -22q-12 -9 -53 -53t-68 -54q-31 3 -36.5 25t17.5 39q146 131 234 194q31 22 64 3t30 -56q-5 -62 -22 -139.5t-44 -95.5z" />
    <glyph glyph-name="atilde" unicode="&#xe3;" horiz-adv-x="1187" 
d="M-49 565q15 30 49 70q75 84 203.5 151.5t247.5 100.5q175 51 233 -133q8 -27 -7 -79.5t-15 -56.5q-15 -91 45 -118.5t160.5 0.5t178 59.5t134.5 61.5q24 7 34 -19q12 -40 -101 -96t-246.5 -93t-184.5 -34q-26 2 -49.5 17.5t-44.5 44.5t-32 47t-28 51q-17 31 -26.5 33.5
t-38.5 -13.5q-15 -8 -51.5 -28t-47.5 -26t-39.5 -21t-41 -21t-37 -16.5t-42.5 -17t-42 -14.5t-51 -16q-38 -12 -84.5 10.5t-71.5 67.5t-4 88zM84 514q71 17 188.5 70t194.5 110q64 51 51 69.5t-78 -9.5q-208 -86 -356 -240zM504 1104q-12 56 -14 59q-9 17 -41 -12
q-22 -20 -82 -86q-19 -16 -40.5 -13.5t-28.5 19t5 41.5q35 56 104 108q103 77 152 34q29 -26 33 -95q2 -36 10.5 -49t22.5 -6t29.5 20t36 28t36.5 19q27 7 39 -11.5t-2 -37.5q-28 -38 -69.5 -63t-80.5 -30t-70.5 13.5t-39.5 61.5z" />
    <glyph glyph-name="adieresis" unicode="&#xe4;" horiz-adv-x="1187" 
d="M-49 565q15 30 49 70q75 84 203.5 151.5t247.5 100.5q175 51 233 -133q8 -27 -7 -79.5t-15 -56.5q-15 -91 45 -118.5t160.5 0.5t178 59.5t134.5 61.5q24 7 34 -19q12 -40 -101 -96t-246.5 -93t-184.5 -34q-26 2 -49.5 17.5t-44.5 44.5t-32 47t-28 51q-17 31 -26.5 33.5
t-38.5 -13.5q-15 -8 -51.5 -28t-47.5 -26t-39.5 -21t-41 -21t-37 -16.5t-42.5 -17t-42 -14.5t-51 -16q-38 -12 -84.5 10.5t-71.5 67.5t-4 88zM84 514q71 17 188.5 70t194.5 110q64 51 51 69.5t-78 -9.5q-208 -86 -356 -240zM424 1094q2 33 36 38q33 5 49 -15q11 -14 1 -32
q-14 -23 -34.5 -31t-36 3t-15.5 37zM545 1094q2 33 36 38q33 5 49 -15q11 -14 1 -32q-14 -23 -34.5 -31t-36 3t-15.5 37z" />
    <glyph glyph-name="aring" unicode="&#xe5;" horiz-adv-x="1187" 
d="M-49 565q15 30 49 70q75 84 203.5 151.5t247.5 100.5q175 51 233 -133q8 -27 -7 -79.5t-15 -56.5q-15 -91 45 -118.5t160.5 0.5t178 59.5t134.5 61.5q24 7 34 -19q12 -40 -101 -96t-246.5 -93t-184.5 -34q-26 2 -49.5 17.5t-44.5 44.5t-32 47t-28 51q-17 31 -26.5 33.5
t-38.5 -13.5q-15 -8 -51.5 -28t-47.5 -26t-39.5 -21t-41 -21t-37 -16.5t-42.5 -17t-42 -14.5t-51 -16q-38 -12 -84.5 10.5t-71.5 67.5t-4 88zM84 514q71 17 188.5 70t194.5 110q64 51 51 69.5t-78 -9.5q-208 -86 -356 -240zM512 1038q-83 0 -89 67q-4 56 41 115q40 53 81 52
q76 -4 96 -62t-20 -115t-109 -57zM498 1100q19 -6 38 6.5t29 32.5t6 41.5t-26 31.5q-20 11 -37 -15.5t-18.5 -56t8.5 -40.5z" />
    <glyph glyph-name="ae" unicode="&#xe6;" horiz-adv-x="1521" 
d="M606 375q-54 27 -73 74.5t-11 99.5q-9 16 -16.5 20.5t-15 2t-27.5 -12.5q-15 -8 -51.5 -28t-47.5 -26t-39.5 -21t-41 -21t-37 -16.5t-42.5 -17t-42 -14.5t-51 -16q-38 -12 -84.5 10.5t-71.5 67.5t-4 88q15 30 49 70q75 84 203.5 151.5t247.5 100.5q159 45 223 -107
q72 60 155.5 88.5t161.5 10.5q46 -11 80 -43.5t37 -77.5q5 -55 -22.5 -90.5t-81.5 -52t-109 -25t-127.5 -17.5t-114.5 -20q0 -2 -1 -5.5t-1 -4.5q-9 -35 18 -55.5t72 -18.5q180 5 385 49t367 96q41 21 62 -1q18 -19 -3 -42q-12 -14 -36 -22q-116 -38 -223 -66.5t-266 -66
t-241 -58.5q-51 -13 -92 -10.5t-88 27.5zM84 514q71 17 188.5 70t194.5 110q64 51 51 69.5t-78 -9.5q-208 -86 -356 -240zM975 723q8 12 4 20t-14.5 10.5t-22.5 3.5t-20 -1q-62 -6 -122.5 -39.5t-99.5 -81.5q36 15 104 34.5t116.5 33.5t54.5 20z" />
    <glyph glyph-name="ccedilla" unicode="&#xe7;" horiz-adv-x="958" 
d="M57 285q97 -60 136 -95q51 -46 3 -90q-42 -38 -115 -42q-82 -5 -108 44q-2 4 -4 9q3 16 27 27t59.5 20t42.5 12q-77 42 -107.5 72.5t-22.5 63.5t61 75q-37 22 -56 57t-18.5 70t8.5 70q26 82 98.5 154t172 109t190.5 15q100 -25 106 -113q3 -35 -36 -86t-78 -51
q-21 -3 -56 27q-8 32 50 90q8 12 4 20t-15 10.5t-23 3.5t-20 -1q-91 -7 -170 -71t-100 -142q-9 -35 18 -55.5t72 -18.5q180 5 385 49t367 96q41 21 61 -1q18 -19 -3 -42q-12 -14 -36 -22q-116 -38 -222.5 -66.5t-266 -66.5t-240.5 -58q-47 -12 -78 -12q-9 -6 -39 -28.5
t-47 -32.5z" />
    <glyph glyph-name="egrave" unicode="&#xe8;" horiz-adv-x="956" 
d="M41 375q-42 21 -64.5 57.5t-22 72.5t8.5 73q19 61 67.5 122t111.5 107t139.5 67t144.5 5q46 -11 80 -43.5t37 -77.5q5 -55 -22.5 -90.5t-81.5 -52t-109 -25t-127.5 -17.5t-114.5 -20q0 -2 -1 -5.5t-1 -4.5q-9 -35 18 -55.5t72 -18.5q180 5 385 49t367 96q41 21 61 -1
q18 -19 -3 -42q-12 -14 -36 -22q-116 -38 -222.5 -66.5t-266 -66.5t-240.5 -58q-51 -13 -92 -10.5t-88 27.5zM410 723q8 12 4 20t-15 10.5t-23 3.5t-20 -1q-62 -6 -122 -39.5t-99 -81.5q36 15 104 34.5t116.5 33.5t54.5 20zM582 1038q-43 -9 -103.5 13t-100 47.5t-93.5 64.5
q-17 13 -12 38t23.5 36.5t43.5 -0.5q55 -38 142 -106.5t100 -92.5z" />
    <glyph glyph-name="eacute" unicode="&#xe9;" horiz-adv-x="956" 
d="M41 375q-42 21 -64.5 57.5t-22 72.5t8.5 73q19 61 67.5 122t111.5 107t139.5 67t144.5 5q46 -11 80 -43.5t37 -77.5q5 -55 -22.5 -90.5t-81.5 -52t-109 -25t-127.5 -17.5t-114.5 -20q0 -2 -1 -5.5t-1 -4.5q-9 -35 18 -55.5t72 -18.5q180 5 385 49t367 96q41 21 61 -1
q18 -19 -3 -42q-12 -14 -36 -22q-116 -38 -222.5 -66.5t-266 -66.5t-240.5 -58q-51 -13 -92 -10.5t-88 27.5zM410 723q8 12 4 20t-15 10.5t-23 3.5t-20 -1q-62 -6 -122 -39.5t-99 -81.5q36 15 104 34.5t116.5 33.5t54.5 20zM307 1038q86 134 152 195q30 30 59.5 11.5
t9.5 -58.5q-26 -58 -98.5 -112t-122.5 -36z" />
    <glyph glyph-name="ecircumflex" unicode="&#xea;" horiz-adv-x="956" 
d="M41 375q-42 21 -64.5 57.5t-22 72.5t8.5 73q19 61 67.5 122t111.5 107t139.5 67t144.5 5q46 -11 80 -43.5t37 -77.5q5 -55 -22.5 -90.5t-81.5 -52t-109 -25t-127.5 -17.5t-114.5 -20q0 -2 -1 -5.5t-1 -4.5q-9 -35 18 -55.5t72 -18.5q180 5 385 49t367 96q41 21 61 -1
q18 -19 -3 -42q-12 -14 -36 -22q-116 -38 -222.5 -66.5t-266 -66.5t-240.5 -58q-51 -13 -92 -10.5t-88 27.5zM410 723q8 12 4 20t-15 10.5t-23 3.5t-20 -1q-62 -6 -122 -39.5t-99 -81.5q36 15 104 34.5t116.5 33.5t54.5 20zM606 1028q-26 -5 -36 -1.5t-13 20.5
q-3 21 -1.5 46t-0.5 46.5t-7.5 35.5t-21.5 12.5t-43 -22.5q-12 -9 -53 -52.5t-68 -53.5q-31 3 -36 24.5t18 38.5q152 136 234 195q31 22 64 3t30 -56q-5 -63 -22 -140.5t-44 -95.5z" />
    <glyph glyph-name="edieresis" unicode="&#xeb;" horiz-adv-x="956" 
d="M41 375q-42 21 -64.5 57.5t-22 72.5t8.5 73q19 61 67.5 122t111.5 107t139.5 67t144.5 5q46 -11 80 -43.5t37 -77.5q5 -55 -22.5 -90.5t-81.5 -52t-109 -25t-127.5 -17.5t-114.5 -20q0 -2 -1 -5.5t-1 -4.5q-9 -35 18 -55.5t72 -18.5q180 5 385 49t367 96q41 21 61 -1
q18 -19 -3 -42q-12 -14 -36 -22q-116 -38 -222.5 -66.5t-266 -66.5t-240.5 -58q-51 -13 -92 -10.5t-88 27.5zM410 723q8 12 4 20t-15 10.5t-23 3.5t-20 -1q-62 -6 -122 -39.5t-99 -81.5q36 15 104 34.5t116.5 33.5t54.5 20zM379 1075q2 33 36 39q33 5 49 -15q11 -14 1 -32
q-14 -23 -34.5 -31t-36 2.5t-15.5 36.5zM500 1075q2 33 36 39q33 5 49 -15q11 -14 1 -32q-14 -23 -34.5 -31t-36 2.5t-15.5 36.5z" />
    <glyph glyph-name="igrave" unicode="&#xec;" horiz-adv-x="673" 
d="M53 371q-68 24 -93 79.5t7 133.5q20 44 71.5 117.5t90.5 119.5q26 30 48 33.5t52 -23.5q12 -11 17.5 -19.5t3.5 -16.5t-4.5 -12.5t-13 -15l-15.5 -15.5q-31 -36 -75 -100.5t-56 -92.5q-33 -81 77 -78q138 4 433 119q35 14 55 23q38 18 54 -2t-17 -52q-38 -37 -224 -106.5
t-282 -93.5q-64 -18 -129 2zM432 1024q-43 -9 -103.5 13t-100 47.5t-93.5 64.5q-17 13 -12 38t23.5 36.5t43.5 -0.5q55 -38 142 -106.5t100 -92.5z" />
    <glyph glyph-name="iacute" unicode="&#xed;" horiz-adv-x="673" 
d="M53 371q-68 24 -93 79.5t7 133.5q20 44 71.5 117.5t90.5 119.5q26 30 48 33.5t52 -23.5q12 -11 17.5 -19.5t3.5 -16.5t-4.5 -12.5t-13 -15l-15.5 -15.5q-31 -36 -75 -100.5t-56 -92.5q-33 -81 77 -78q138 4 433 119q35 14 55 23q38 18 54 -2t-17 -52q-38 -37 -224 -106.5
t-282 -93.5q-64 -18 -129 2zM250 1030q87 136 151 195q30 30 60 11.5t10 -58.5q-26 -58 -98.5 -112t-122.5 -36z" />
    <glyph glyph-name="icircumflex" unicode="&#xee;" horiz-adv-x="673" 
d="M53 371q-68 24 -93 79.5t7 133.5q20 44 71.5 117.5t90.5 119.5q26 30 48 33.5t52 -23.5q12 -11 17.5 -19.5t3.5 -16.5t-4.5 -12.5t-13 -15l-15.5 -15.5q-31 -36 -75 -100.5t-56 -92.5q-33 -81 77 -78q138 4 433 119q35 14 55 23q38 18 54 -2t-17 -52q-38 -37 -224 -106.5
t-282 -93.5q-64 -18 -129 2zM432 997q-26 -5 -36 -1.5t-13 20.5q-3 21 -1.5 46t-1 46.5t-7.5 35.5t-21 13t-43 -22q-12 -9 -53 -53t-68 -54q-31 3 -36 25t18 39q150 135 233 194q31 22 64.5 3t30.5 -56q-5 -63 -22 -140.5t-44 -95.5z" />
    <glyph glyph-name="idieresis" unicode="&#xef;" horiz-adv-x="673" 
d="M53 371q-68 24 -93 79.5t7 133.5q20 44 71.5 117.5t90.5 119.5q26 30 48 33.5t52 -23.5q12 -11 17.5 -19.5t3.5 -16.5t-4.5 -12.5t-13 -15l-15.5 -15.5q-31 -36 -75 -100.5t-56 -92.5q-33 -81 77 -78q138 4 433 119q35 14 55 23q38 18 54 -2t-17 -52q-38 -37 -224 -106.5
t-282 -93.5q-64 -18 -129 2zM197 1083q2 33 36 39q33 5 49 -15q11 -14 1 -32q-14 -23 -34.5 -31t-36 2.5t-15.5 36.5zM317 1083q2 33 36 39q33 5 49 -15q11 -14 1 -32q-14 -23 -34.5 -31t-36 2.5t-15.5 36.5z" />
    <glyph glyph-name="eth" unicode="&#xf0;" horiz-adv-x="1021" 
d="M608 1112l-110 -61q125 -119 211.5 -249.5t107.5 -248.5q13 -77 -31 -141t-124 -95t-168 -18q-155 22 -290.5 100t-209.5 187q-25 37 -21 73t30.5 60.5t64.5 43t81 21t80 -5.5q182 -52 371 -170q40 -25 102 -45q-57 215 -305 428q-83 -49 -104 -57q-55 -23 -72 -19
q-14 4 -20.5 13.5t-3 22t17.5 24.5q37 30 109 76q-75 56 -172 120q-5 3 -22 11.5t-24.5 14.5t-16.5 15.5t-7.5 22t12.5 27.5q35 22 52.5 26.5t43.5 -6.5q124 -70 238 -170q128 69 162 72q11 0 23 -13.5t13 -29.5t-18 -29zM180 666q-22 5 -32.5 2.5t-10 -14t5.5 -23.5t13 -25
q34 -53 123.5 -105.5t178.5 -84.5t154 -43q35 -5 72 25q35 28 15 47q-14 15 -60 16q-52 6 -116.5 36.5t-115.5 64t-114 65t-113 39.5z" />
    <glyph glyph-name="ntilde" unicode="&#xf1;" horiz-adv-x="1044" 
d="M213 692q113 78 222 108q151 42 161 -65q1 -20 -2 -45q-1 -9 -3 -25q-8 -62 -10 -91t3.5 -69t24.5 -52t59 -12t102 24q93 35 231 151q40 34 72 12q24 -18 15 -48q-7 -23 -35 -37q-25 -12 -111 -62.5t-127 -72.5q-120 -59 -206 -52t-132 70.5t-37 163.5q2 17 5 38.5
t4.5 31.5t1.5 22.5t-1 16.5t-6.5 8t-13 2t-21.5 -7.5t-30.5 -13.5t-42.5 -22q-54 -27 -112 -69.5t-95.5 -76t-101 -92t-95.5 -86.5q-27 -20 -51.5 -16.5t-38.5 26t-4 47.5q7 17 112.5 183.5t131.5 197.5q32 40 79 19q34 -14 40 -43q4 -18 -8 -31q-11 -13 -19 -32
q-9 -20 10 -15q10 3 29 14zM428 1096q-12 56 -14 59q-9 17 -41 -12q-22 -20 -82 -86q-19 -16 -40.5 -13.5t-28.5 19t5 41.5q35 56 104 108q103 77 152 34q29 -26 33 -95q2 -36 10.5 -49t22.5 -6t29.5 20t36 28t36.5 19q27 7 39 -11.5t-2 -37.5q-28 -38 -69.5 -63t-80.5 -30
t-70.5 13.5t-39.5 61.5z" />
    <glyph glyph-name="ograve" unicode="&#xf2;" horiz-adv-x="786" 
d="M809 621q-32 32 -181 52q-170 22 -251 -4q-47 -15 -37 -46q8 -25 9 -48t-6 -42.5t-16.5 -37t-26 -33.5t-31 -28t-36.5 -25.5t-36 -21t-35 -18.5q-52 -24 -100 -12t-89 51q-22 26 -22.5 70.5t13.5 88t36 84.5q16 33 39 60q76 85 131 71q17 -4 66 -5t109 -0.5t130.5 0
t134.5 -7.5t116 -20t80.5 -39.5t22.5 -64.5q-2 -13 -7.5 -21.5t-12.5 -2.5zM211 532q33 33 47 76q9 32 -1.5 56t-35.5 30q-38 0 -76 -38.5t-61 -92.5q-48 -110 2 -107q41 2 110 62q8 7 15 14zM401 977q-43 -9 -103.5 13t-100 47.5t-93.5 64.5q-17 13 -12 38t24 36.5t44 -0.5
q54 -37 141 -106t100 -93z" />
    <glyph glyph-name="oacute" unicode="&#xf3;" horiz-adv-x="786" 
d="M809 621q-32 32 -181 52q-170 22 -251 -4q-47 -15 -37 -46q8 -25 9 -48t-6 -42.5t-16.5 -37t-26 -33.5t-31 -28t-36.5 -25.5t-36 -21t-35 -18.5q-52 -24 -100 -12t-89 51q-22 26 -22.5 70.5t13.5 88t36 84.5q16 33 39 60q76 85 131 71q17 -4 66 -5t109 -0.5t130.5 0
t134.5 -7.5t116 -20t80.5 -39.5t22.5 -64.5q-2 -13 -7.5 -21.5t-12.5 -2.5zM211 532q33 33 47 76q9 32 -1.5 56t-35.5 30q-38 0 -76 -38.5t-61 -92.5q-48 -110 2 -107q41 2 110 62q8 7 15 14zM203 997q87 136 151 195q30 30 60 11.5t10 -58.5q-26 -58 -98.5 -112t-122.5 -36
z" />
    <glyph glyph-name="ocircumflex" unicode="&#xf4;" horiz-adv-x="786" 
d="M809 621q-32 32 -181 52q-170 22 -251 -4q-47 -15 -37 -46q8 -25 9 -48t-6 -42.5t-16.5 -37t-26 -33.5t-31 -28t-36.5 -25.5t-36 -21t-35 -18.5q-52 -24 -100 -12t-89 51q-22 26 -22.5 70.5t13.5 88t36 84.5q16 33 39 60q76 85 131 71q17 -4 66 -5t109 -0.5t130.5 0
t134.5 -7.5t116 -20t80.5 -39.5t22.5 -64.5q-2 -13 -7.5 -21.5t-12.5 -2.5zM211 532q33 33 47 76q9 32 -1.5 56t-35.5 30q-38 0 -76 -38.5t-61 -92.5q-48 -110 2 -107q41 2 110 62q8 7 15 14zM412 979q-26 -5 -36.5 -2t-13.5 20q-3 21 -1.5 46t-0.5 46.5t-7 35.5t-21 13
t-43 -22q-12 -9 -53 -52.5t-68 -53.5q-31 3 -36 24.5t18 38.5q156 140 233 195q31 22 64 2.5t30 -56.5q-5 -64 -21.5 -140.5t-43.5 -94.5z" />
    <glyph glyph-name="otilde" unicode="&#xf5;" horiz-adv-x="786" 
d="M809 621q-32 32 -181 52q-170 22 -251 -4q-47 -15 -37 -46q8 -25 9 -48t-6 -42.5t-16.5 -37t-26 -33.5t-31 -28t-36.5 -25.5t-36 -21t-35 -18.5q-52 -24 -100 -12t-89 51q-22 26 -22.5 70.5t13.5 88t36 84.5q16 33 39 60q76 85 131 71q17 -4 66 -5t109 -0.5t130.5 0
t134.5 -7.5t116 -20t80.5 -39.5t22.5 -64.5q-2 -13 -7.5 -21.5t-12.5 -2.5zM211 532q33 33 47 76q9 32 -1.5 56t-35.5 30q-38 0 -76 -38.5t-61 -92.5q-48 -110 2 -107q41 2 110 62q8 7 15 14zM295 1036q-12 56 -14 59q-9 17 -41 -12q-22 -20 -82 -86q-19 -16 -40.5 -13.5
t-28.5 19t5 41.5q35 56 104 108q103 78 152 35q29 -26 33 -95q2 -36 10.5 -49t22.5 -6t29.5 20t36 28t36.5 19q27 7 39 -11.5t-2 -37.5q-38 -52 -95 -78t-105.5 -12t-59.5 71z" />
    <glyph glyph-name="odieresis" unicode="&#xf6;" horiz-adv-x="786" 
d="M809 621q-32 32 -181 52q-170 22 -251 -4q-47 -15 -37 -46q8 -25 9 -48t-6 -42.5t-16.5 -37t-26 -33.5t-31 -28t-36.5 -25.5t-36 -21t-35 -18.5q-52 -24 -100 -12t-89 51q-22 26 -22.5 70.5t13.5 88t36 84.5q16 33 39 60q76 85 131 71q17 -4 66 -5t109 -0.5t130.5 0
t134.5 -7.5t116 -20t80.5 -39.5t22.5 -64.5q-2 -13 -7.5 -21.5t-12.5 -2.5zM211 532q33 33 47 76q9 32 -1.5 56t-35.5 30q-38 0 -76 -38.5t-61 -92.5q-48 -110 2 -107q41 2 110 62q8 7 15 14zM154 1018q2 33 36 39q33 5 49 -15q11 -14 1 -32q-14 -23 -34.5 -31t-36 2.5
t-15.5 36.5zM274 1018q2 33 36 39q33 5 49 -15q11 -14 1 -32q-14 -23 -34.5 -31t-36 2.5t-15.5 36.5z" />
    <glyph glyph-name="divide" unicode="&#xf7;" horiz-adv-x="751" 
d="M141 686q93 2 192.5 5.5t108.5 3.5t62 -1q54 -3 71 -18q16 -15 10.5 -32t-32.5 -23q-88 -16 -238 -19.5t-192 14.5q-9 4 -14 21t3 33t29 16zM371 739q-21 0 -32.5 24.5t-3 50t35.5 28.5q37 4 49.5 -22t-3.5 -53.5t-46 -27.5zM297 453q-20 0 -31 24t-3.5 49.5t34.5 28.5
q38 4 51 -22t-3.5 -53t-47.5 -27z" />
    <glyph glyph-name="oslash" unicode="&#xf8;" horiz-adv-x="786" 
d="M379 844l-47 -68q51 2 109 0.5t115 -3t108 -10.5t89.5 -22.5t59 -38t16.5 -57.5q-2 -13 -7.5 -21.5t-12.5 -2.5q-32 32 -181 52q-170 22 -251 -4q-47 -15 -37 -46q8 -25 9 -48t-6 -42.5t-16.5 -37t-26 -33.5t-31 -28t-36.5 -25.5t-36 -21t-35 -18.5q-56 -31 -123 -4
l-82 -115q-21 -21 -27 -21q-11 -3 -15.5 4t-0.5 19q7 13 88 131l-29 25q-30 37 -20.5 98t34 116.5t52.5 88.5q76 85 131 71q24 -6 115 -6q65 88 71 92q7 5 20 -4t3 -20zM84 563q-29 -72 -21 -92q43 63 160 223h-2q-38 0 -76 -38.5t-61 -92.5zM211 532q33 33 47 76
q9 34 -4 60l-145 -207q42 15 102 71z" />
    <glyph glyph-name="ugrave" unicode="&#xf9;" horiz-adv-x="851" 
d="M731 846q25 -18 17 -43q-19 -40 -69.5 -124.5t-82 -155t-35.5 -132.5q0 -21 -20.5 -36t-36.5 -13q-42 3 -62.5 26.5t-19.5 55.5t12.5 69t27.5 66t30 47q-3 -3 -60 -43.5t-130 -91t-109 -72.5q-78 -52 -168 -12q-57 25 -65 94t21.5 144t75.5 144t90 99q30 17 58.5 9.5
t43.5 -31t1 -41.5q-52 -69 -99 -157t-57 -150q-4 -35 11 -41.5t47 10.5q64 31 225 162.5t248 212.5q20 19 45.5 21.5t41 -4t19.5 -13.5zM545 1040q-43 -9 -103.5 13t-100 47.5t-93.5 64.5q-17 13 -12 38t23.5 36.5t43.5 -0.5q55 -38 142 -106.5t100 -92.5z" />
    <glyph glyph-name="uacute" unicode="&#xfa;" horiz-adv-x="851" 
d="M731 846q25 -18 17 -43q-19 -40 -69.5 -124.5t-82 -155t-35.5 -132.5q0 -21 -20.5 -36t-36.5 -13q-42 3 -62.5 26.5t-19.5 55.5t12.5 69t27.5 66t30 47q-3 -3 -60 -43.5t-130 -91t-109 -72.5q-78 -52 -168 -12q-57 25 -65 94t21.5 144t75.5 144t90 99q30 17 58.5 9.5
t43.5 -31t1 -41.5q-52 -69 -99 -157t-57 -150q-4 -35 11 -41.5t47 10.5q64 31 225 162.5t248 212.5q20 19 45.5 21.5t41 -4t19.5 -13.5zM436 1030q86 134 152 195q30 30 59.5 11.5t9.5 -58.5q-26 -58 -98.5 -112t-122.5 -36z" />
    <glyph glyph-name="ucircumflex" unicode="&#xfb;" horiz-adv-x="851" 
d="M731 846q25 -18 17 -43q-19 -40 -69.5 -124.5t-82 -155t-35.5 -132.5q0 -21 -20.5 -36t-36.5 -13q-42 3 -62.5 26.5t-19.5 55.5t12.5 69t27.5 66t30 47q-3 -3 -60 -43.5t-130 -91t-109 -72.5q-78 -52 -168 -12q-57 25 -65 94t21.5 144t75.5 144t90 99q30 17 58.5 9.5
t43.5 -31t1 -41.5q-52 -69 -99 -157t-57 -150q-4 -35 11 -41.5t47 10.5q64 31 225 162.5t248 212.5q20 19 45.5 21.5t41 -4t19.5 -13.5zM592 997q-26 -5 -36 -1.5t-13 20.5q-3 21 -1.5 46t-1 46.5t-7.5 35.5t-21 13t-43 -22q-12 -9 -53 -53t-68 -54q-31 3 -36 25t18 39
q150 135 233 194q31 22 64 3t30 -56q-5 -64 -21.5 -141t-43.5 -95z" />
    <glyph glyph-name="udieresis" unicode="&#xfc;" horiz-adv-x="851" 
d="M731 846q25 -18 17 -43q-19 -40 -69.5 -124.5t-82 -155t-35.5 -132.5q0 -21 -20.5 -36t-36.5 -13q-42 3 -62.5 26.5t-19.5 55.5t12.5 69t27.5 66t30 47q-3 -3 -60 -43.5t-130 -91t-109 -72.5q-78 -52 -168 -12q-57 25 -65 94t21.5 144t75.5 144t90 99q30 17 58.5 9.5
t43.5 -31t1 -41.5q-52 -69 -99 -157t-57 -150q-4 -35 11 -41.5t47 10.5q64 31 225 162.5t248 212.5q20 19 45.5 21.5t41 -4t19.5 -13.5zM348 1069q2 33 36 39q33 5 49 -15q11 -14 1 -32q-14 -23 -34.5 -31t-36 2.5t-15.5 36.5zM469 1069q2 33 36 39q33 5 49 -15
q11 -14 1 -32q-14 -23 -34.5 -31t-36 2.5t-15.5 36.5z" />
    <glyph glyph-name="yacute" unicode="&#xfd;" horiz-adv-x="882" 
d="M221 471q-24 2 -96 -25t-102 -16q-42 18 -61 63t1 87q58 123 150 233q31 35 66.5 19t23.5 -60q-108 -154 -99 -203q8 -43 119 21q86 50 243 153.5t230 147.5q17 10 35.5 16.5t39 8.5t36 -9.5t20.5 -36.5q1 -8 -14 -28.5t-25 -30.5q-42 -40 -124 -108.5t-113 -96.5
q-324 -287 -535 -543q-12 -14 -56 -66.5t-62 -75.5t-53 -72t-52 -82t-33 -77.5t-20 -84.5q0 -27 -17 -34.5t-36 3.5q-36 19 -50.5 53t-1.5 74q37 108 147 264t225 284.5t214 221.5zM410 1016q85 134 151 194q30 30 60 11.5t10 -58.5q-26 -58 -98.5 -111.5t-122.5 -35.5z" />
    <glyph glyph-name="thorn" unicode="&#xfe;" horiz-adv-x="815" 
d="M-252 41q-27 -5 -46.5 12.5t-12.5 44.5q4 13 11.5 29t20.5 40t15 28q80 143 173 298t217 354.5t181 293.5q1 2 28 76t50 110q21 33 53.5 35t51.5 -25.5t4 -66.5q-12 -34 -36 -85t-48.5 -99.5t-28.5 -57.5q84 -1 150 -23t102 -61t43 -88.5t-28.5 -110.5t-110.5 -120
q-102 -81 -209.5 -125.5t-261.5 -83.5q-56 -14 -97.5 -48t-66.5 -78t-45 -88t-48 -89t-61 -72zM72 522v4q111 25 280.5 118.5t210.5 172.5q33 65 -19 105q-50 39 -132 26q-97 -16 -152 -98q-72 -107 -188 -328z" />
    <glyph glyph-name="ydieresis" unicode="&#xff;" horiz-adv-x="882" 
d="M221 471q-24 2 -96 -25t-102 -16q-42 18 -61 63t1 87q58 123 150 233q31 35 66.5 19t23.5 -60q-108 -154 -99 -203q8 -43 119 21q86 50 243 153.5t230 147.5q17 10 35.5 16.5t39 8.5t36 -9.5t20.5 -36.5q1 -8 -14 -28.5t-25 -30.5q-42 -40 -124 -108.5t-113 -96.5
q-324 -287 -535 -543q-12 -14 -56 -66.5t-62 -75.5t-53 -72t-52 -82t-33 -77.5t-20 -84.5q0 -27 -17 -34.5t-36 3.5q-36 19 -50.5 53t-1.5 74q37 108 147 264t225 284.5t214 221.5zM385 1061q2 33 36 39q33 5 49 -15q11 -14 1 -32q-14 -23 -34.5 -31t-36 2.5t-15.5 36.5z
M506 1061q2 33 36 39q33 5 49 -15q11 -14 1 -32q-14 -23 -34.5 -31t-36 2.5t-15.5 36.5z" />
    <glyph glyph-name="dotlessi" unicode="&#x131;" horiz-adv-x="673" 
d="M53 371q-68 24 -93 79.5t7 133.5q20 44 71.5 117.5t90.5 119.5q26 30 48 33.5t52 -23.5q12 -11 17.5 -19.5t3.5 -16.5t-4.5 -12.5t-13 -15l-15.5 -15.5q-31 -36 -75 -100.5t-56 -92.5q-33 -81 77 -78q138 4 433 119q35 14 55 23q38 18 54 -2t-17 -52q-38 -37 -224 -106.5
t-282 -93.5q-64 -18 -129 2z" />
    <glyph glyph-name="Lslash" unicode="&#x141;" horiz-adv-x="1705" 
d="M131 616l248 56q374 425 475 532q7 7 22 25l30 36t34 38.5t37 35.5t36 25.5t34.5 10.5t29.5 -13q20 -25 18.5 -42t-18.5 -42q-32 -50 -78 -100t-108 -109.5t-90 -89.5q-170 -179 -248 -266q29 7 119 24q79 14 110 4q27 -10 22 -28t-44 -33q-112 -39 -314 -84
q-273 -308 -403 -528q-57 -105 424 -5q47 9 125 27q53 11 67 14q152 29 339.5 57.5t413 53t435 37.5t409 9t331.5 -30q54 -10 78.5 -25.5t60.5 -58.5q-61 8 -128 13.5t-121 9t-131.5 3t-121.5 -0.5t-132 -5.5t-121 -7t-131.5 -10.5t-121.5 -11t-131 -13t-123 -12
q-148 -15 -323 -42t-300 -50t-326.5 -61.5t-305.5 -57.5q-50 -8 -83 -11t-76.5 -1t-79 19.5t-64.5 49.5q-27 30 -30 49t13 55q17 38 128 178t266 320q-137 -25 -166 -20q-14 2 -24 17t-2 33t40 25z" />
    <glyph glyph-name="lslash" unicode="&#x142;" horiz-adv-x="841" 
d="M88 922q89 27 92 28q101 143 224.5 286t232.5 249q2 2 10.5 10t12.5 11.5t12.5 11t13.5 10t13.5 7t14.5 5t13.5 0t14.5 -4.5t14 -11q17 -22 15 -36t-21 -34q-35 -39 -100.5 -110t-104 -113t-91 -104t-96.5 -119q13 4 29.5 9t27 8t19.5 5q56 11 74 2q21 -10 19.5 -28
t-25.5 -31q-67 -36 -234 -88q-86 -126 -147 -236q-137 -241 21 -268q126 -21 390 91q168 72 289 153q15 10 31 3.5t18 -23t-18 -38.5q-47 -47 -217 -126t-332 -128q-59 -18 -93.5 -25.5t-79.5 -10t-80.5 13.5t-67.5 51q-32 33 -39 78.5t5 94.5t42 116q38 86 121 215
q-17 0 -21 2q-8 2 -15 11.5t-10.5 21.5t2 24t21.5 17z" />
    <glyph glyph-name="OE" unicode="&#x152;" horiz-adv-x="2924" 
d="M27 612q5 20 12 31t24 23q48 34 100 78t86.5 77.5t91.5 89.5t87 84q51 47 121 99t114.5 81t133.5 85q95 63 256 111.5t332.5 69t335 -6t251.5 -103.5l15 -14l24 6q273 52 584 83t650.5 30t586.5 -47q79 -14 104 -54q20 -30 -14 -47q-41 -19 -133 2q-72 17 -164 27
q-112 14 -193 14q-149 4 -396 -3t-518.5 -32.5t-356.5 -64.5q-5 -56 -34 -111.5t-63 -93.5t-76.5 -89t-64.5 -89q131 -7 370 9t326 17q113 0 124 -32q8 -22 -37 -40q-32 -13 -76 -16q-38 -3 -109 -6t-92 -4q-405 -28 -602 -51q-65 -6 -105 -37q-147 -110 -252 -253
q-131 -180 -96 -284q48 -139 387 -92q184 28 520 91t610.5 105t526.5 58q46 3 68 -3.5t22.5 -18t-2.5 -25.5q-1 -2 -2.5 -10t-3 -10.5t-6.5 -8.5t-12.5 -8.5t-21 -5.5t-32.5 -4q-187 -10 -418 -44t-424 -73t-395 -75.5t-355 -57.5t-279.5 -13.5t-190.5 52.5
q-111 77 -134 174.5t40 200.5q0 2 2 4q-72 -51 -199 -129q-173 -104 -330 -172t-317 -94q-64 -9 -115 -9t-89.5 14.5t-66.5 34.5t-46 51.5t-28.5 64.5t-13 74.5t-0.5 81.5t9.5 85t17.5 85t23 81q5 9 2.5 15t-4.5 7.5t-11.5 4.5t-19 5t-26 8.5t-33.5 16.5zM965 1198
q149 2 191 -1q169 -16 169 -112q-108 15 -274.5 -7.5t-328.5 -77t-239 -123.5q-154 -139 -248 -339q-91 -194 -69 -326q22 -127 148 -136q42 -3 94 8q254 58 583.5 237.5t575.5 399.5q-78 5 -111 46q-24 29 0 47q28 21 103 3q58 -15 118 10q122 129 185 248q27 52 32 90
l-202 -57q-10 -3 -33 -10t-32 -8.5t-24.5 -2.5t-27 5t-23.5 18q-47 47 15 100q11 11 303 82q-58 74 -205 74q-465 -9 -700 -168z" />
    <glyph glyph-name="oe" unicode="&#x153;" horiz-adv-x="1243" 
d="M328 375q-43 21 -64 55q-28 -23 -102 -61q-52 -24 -100 -12t-89 51q-22 26 -22.5 70.5t13.5 88t36 84.5q16 33 39 60q76 85 131 71q11 -3 35 -4t47 -1t67.5 0.5t71.5 0.5v-2q73 62 158 91.5t164 11.5q46 -11 79.5 -43.5t36.5 -77.5q4 -46 -16 -79t-54 -49.5t-85.5 -28.5
t-99 -17t-105 -13t-94.5 -18q0 -2 -1 -5.5t-1 -4.5q-9 -35 18 -55.5t72 -18.5q180 5 384.5 49t366.5 96q41 21 62 -1q18 -19 -3 -42q-12 -14 -36 -22q-116 -38 -222.5 -66.5t-266 -66.5t-240.5 -58q-51 -13 -92 -10.5t-88 27.5zM211 532q33 33 47 76q9 32 -1.5 56t-35.5 30
q-38 0 -76 -38.5t-61 -92.5q-48 -110 2 -107q41 2 110 62q8 7 15 14zM696 723q8 12 4 20t-14.5 10.5t-22.5 3.5t-20 -1q-62 -6 -122 -39.5t-99 -81.5q36 15 103.5 34.5t116 33.5t54.5 20z" />
    <glyph glyph-name="Scaron" unicode="&#x160;" horiz-adv-x="2760" 
d="M834 442q-4 0 -69 2t-77 2.5t-69.5 3t-78.5 4t-69 4.5t-77 6.5t-67.5 8t-72.5 10.5q-58 9 -112 33t-94 60t-58 78.5t-1 94t74 101.5q113 100 300.5 181.5t395 133t435.5 86t424.5 48t359.5 10.5q299 -5 414 -62q75 -38 78 -104.5t-64 -116.5q-26 -37 -160.5 -97
t-277 -100t-188.5 -28q-10 3 -29 35q24 19 117.5 56.5t203.5 78.5t142 55q42 20 131 88q1 1 9 6t9.5 7.5t6.5 9.5t0 12q-5 17 -56 29t-89.5 16t-72.5 6q-467 18 -917 -55.5t-850 -247.5q-108 -45 -175 -90.5t-85 -84.5t5.5 -70.5t97 -51.5t188.5 -25q201 -9 580 -17.5
t448 -10.5q79 -3 166.5 -9.5t196.5 -16.5t167 -15q125 -10 217 16q116 34 256.5 62t231.5 39.5t104 7.5q26 -8 19 -31t-29 -25q-112 -9 -276.5 -41t-243.5 -69q14 -13 82 -55q7 -7 23.5 -15.5t23.5 -15.5q77 -71 72 -148.5t-95 -130.5q-83 -50 -213 -86t-266.5 -51t-272 -10
t-231.5 31q-84 19 -86 67q-4 60 52 120.5t147.5 108t177 81.5t166.5 57q-182 17 -545.5 18.5t-453.5 5.5zM1419 111q103 -11 220 -11.5t245 10.5t246 45t194 87q28 20 27.5 32.5t-31.5 32.5q-87 56 -204 63.5t-225.5 -22t-211 -75.5t-169.5 -90t-91 -72zM1456 1743
q26 5 36 1.5t13 -20.5q3 -21 1.5 -46t0.5 -46.5t7.5 -35.5t21.5 -12.5t43 22.5q12 9 53 52.5t68 53.5q31 -3 36 -24.5t-18 -38.5q-156 -140 -233 -195q-31 -22 -64 -3t-30 56q5 64 21.5 141t43.5 95z" />
    <glyph glyph-name="scaron" unicode="&#x161;" horiz-adv-x="985" 
d="M143 551q-26 -9 -46.5 -12.5t-42 -1.5t-37.5 15.5t-25 39.5q-14 41 24 96t99.5 101t127.5 81t107 41q13 2 29.5 -8t27.5 -24.5t6.5 -32t-28.5 -29.5q-229 -107 -264 -135q-37 -31 -19 -34q13 -2 52 5q53 9 68.5 11.5t64.5 8.5t71 5.5t63.5 -2.5t66.5 -10t56 -22.5
t56 -35.5q97 19 207 28.5t160 0.5q24 -4 38 -21t2.5 -31.5t-49.5 -11.5q-56 4 -161.5 -2.5t-175.5 -27.5q12 -47 -56 -129.5t-141 -132.5q-89 -63 -186 -42q-73 15 -99 66q-33 63 35 127q18 16 41 31q100 65 260 123q-36 15 -96.5 11.5t-119.5 -15.5t-116 -31zM326 352
q41 10 91 58.5t77 93.5q-79 -21 -197 -88q-34 -20 -48 -38.5t-5.5 -27.5t28.5 -10.5t54 12.5zM229 1321q26 5 36.5 2t13.5 -20q3 -21 1.5 -46t0.5 -46.5t7 -35.5t21 -13t43 22q12 9 53 52.5t68 53.5q31 -3 36.5 -24.5t-17.5 -38.5q-152 -136 -234 -195q-31 -22 -64 -3
t-30 56q5 64 21.5 141t43.5 95z" />
    <glyph glyph-name="Ydieresis" unicode="&#x178;" horiz-adv-x="2461" 
d="M84 1061q40 26 103.5 22.5t133.5 -23.5t154.5 -60.5t167.5 -87.5t171.5 -104.5t167.5 -112.5t155.5 -111t134.5 -99.5t105 -78t67 -46.5q54 -34 94 -36.5t98 22.5q204 86 349.5 246t201.5 369l15 57l-4 22q-20 3 -78 -31.5t-129.5 -82t-162.5 -92.5t-177 -64t-174 4
q-114 36 -152 118.5t0 194.5q13 45 43.5 114t52.5 93q29 33 62.5 30t54.5 -42q4 -8 -0.5 -23t-11.5 -24q-56 -76 -92 -181q-54 -158 20 -189q31 -13 84 -1q268 59 655 353q5 4 17.5 14.5t17.5 14t16 9.5t18.5 6t19 -2.5t24.5 -9.5q66 -35 59 -127q-30 -288 -172.5 -512.5
t-390.5 -355.5q-24 -13 -33.5 -18t-23 -14t-16 -12.5t-5 -11.5t2 -12.5l14 -14t21 -18t32.5 -22.5q18 -12 77 -47.5t95 -63.5t64 -63q-78 16 -137.5 48t-137.5 91q-67 51 -122 59t-134 -16q-108 -30 -239.5 -26t-266.5 28.5t-272 76t-256.5 117t-219.5 151.5t-161 180
q-28 43 -48.5 96.5t-30 111t10 108.5t68.5 79zM1452 281q-97 65 -302 215.5t-367 256.5t-320 183q-36 18 -71.5 30.5t-76.5 22.5t-75 7t-62.5 -17t-44 -49.5t-14.5 -89.5q1 -83 44 -160.5t114 -137t157.5 -110t183 -86.5t181 -59.5t159.5 -36.5q267 -44 494 31zM1808 1432
q2 33 36 38q33 5 49 -15q11 -14 1 -32q-14 -23 -34.5 -31t-36 3t-15.5 37zM1929 1432q2 33 36 38q33 5 49 -15q11 -14 1 -32q-14 -23 -34.5 -31t-36 3t-15.5 37z" />
    <glyph glyph-name="Zcaron" unicode="&#x17d;" horiz-adv-x="2420" 
d="M1473 512q123 66 233.5 149t155.5 162q-21 2 -66 3t-71.5 3.5t-58.5 18.5t-52 47q12 22 54.5 30.5t93.5 8t101 1t85 16.5t37 48q2 29 -24.5 54t-71 43t-75 27t-61.5 16q-161 38 -373 28.5t-408.5 -44.5t-359.5 -87q-12 -4 -45 -17t-54 -17.5t-48 -2.5q-7 60 2 74
q17 29 90 53q182 59 413.5 94t475 35t418.5 -43q79 -20 126 -66.5t76 -125.5q15 -40 43 -56.5t63 -17.5t71.5 -1t76.5 -13t70 -47q-8 -3 -24 -8t-21 -6.5t-20 -5t-21.5 -2.5t-26.5 1q-115 9 -182.5 -21.5t-134.5 -123.5q-40 -57 -138.5 -134.5t-133.5 -117.5q37 -20 107 -41
t137 -40t134.5 -43.5t117.5 -61t69 -82.5q-25 -8 -60 2.5t-79 32t-60 26.5q-123 42 -397 94q-121 22 -246 -39q-235 -118 -428.5 -186t-417.5 -100q-75 -11 -160 -10.5t-178 14.5t-167.5 56.5t-104.5 109.5q-24 46 -19 82t48 67q62 45 167 75.5t225 48t308.5 26.5t357 11.5
t431.5 2.5zM1274 406q-52 16 -180.5 16.5t-285 -13t-310 -35.5t-274.5 -53t-161 -63q-76 -61 82 -97q80 -18 160 -22q215 -10 471 66t498 201zM1479 1745q26 5 36 1.5t13 -20.5q3 -21 1.5 -46t0.5 -46.5t7.5 -35.5t21.5 -12.5t43 22.5q12 9 52.5 52.5t67.5 53.5
q31 -3 36.5 -24.5t-17.5 -38.5q-152 -136 -234 -195q-31 -22 -64 -3t-30 56q5 63 22 140.5t44 95.5z" />
    <glyph glyph-name="zcaron" unicode="&#x17e;" horiz-adv-x="765" 
d="M203 479q11 1 156 21.5t198 9.5q44 -7 58.5 -23t-3.5 -31t-55 -18q-39 -3 -432 -61q-16 -3 -28 -4t-22.5 1.5t-16 3.5t-14.5 8t-11.5 9.5t-12.5 14.5t-14 16q-47 54 113 152q17 11 4 11q-7 0 -38 -6q-45 -9 -65 -10q-17 -2 -36 5.5t-29 19.5t1.5 29t49.5 32q46 17 147 36
t140 30q87 22 123 63q27 29 -3 39q-39 12 -149 -24q-45 -15 -71 -33q-17 -11 -26.5 -15.5t-23 -2t-22.5 17.5q-6 48 38.5 85t107.5 53t128 16.5t99 -17.5q21 -11 32.5 -23.5t13 -27t0 -27.5t-11.5 -30t-17 -28t-20 -28t-18 -24q-17 -23 33 -34q11 -2 31 -5q14 -1 16 -2
q40 -12 38 -31q-1 -20 -45 -25q-9 -1 -18 -1q-77 -4 -138.5 -17.5t-96.5 -30.5t-58 -35.5t-29.5 -33.5t-2.5 -25zM389 1323q26 5 36 2t13 -20q3 -21 1.5 -46t1 -46.5t7.5 -35.5t21 -13t43 22q12 9 53 52.5t68 53.5q31 -3 36 -24.5t-18 -38.5q-156 -140 -233 -195
q-31 -22 -64 -3t-30 56q5 64 21.5 141t43.5 95z" />
    <glyph glyph-name="circumflex" unicode="&#x2c6;" horiz-adv-x="559" 
d="M377 1251q-26 -5 -36 -1.5t-13 20.5q-3 21 -1.5 46t-1 46.5t-7.5 35.5t-21 13t-43 -22q-12 -9 -53 -53t-68 -54q-31 3 -36 25t18 39q150 135 233 194q31 22 64 3t30 -56q-5 -64 -21.5 -141t-43.5 -95z" />
    <glyph glyph-name="caron" unicode="&#x2c7;" horiz-adv-x="559" 
d="M184 1563q26 5 36 1.5t13 -20.5q3 -21 1.5 -46t1 -46.5t7.5 -35.5t21 -13t43 22q12 9 53 53t68 54q31 -3 36 -25t-18 -39q-150 -135 -233 -194q-31 -22 -64 -3t-30 56q5 64 21.5 141t43.5 95z" />
    <glyph glyph-name="ring" unicode="&#x2da;" horiz-adv-x="462" 
d="M207 1288q-83 0 -89 67q-4 56 41 115q40 53 81 52q76 -4 96 -62t-20 -115t-109 -57zM193 1350q19 -6 38 6.5t29 32.5t6 41.5t-26 31.5q-20 11 -37 -15.5t-18.5 -56t8.5 -40.5z" />
    <glyph glyph-name="tilde" unicode="&#x2dc;" horiz-adv-x="663" 
d="M291 1337q-12 56 -14 59q-9 17 -41 -12q-22 -20 -82 -86q-19 -16 -40.5 -13t-28.5 19.5t5 41.5q35 56 104 108q103 77 152 34q29 -26 33 -95q2 -36 10.5 -49t22.5 -6t29.5 20t36 28t36.5 19q27 7 39 -11.5t-2 -37.5q-38 -52 -95 -78t-105.5 -12t-59.5 71z" />
    <glyph glyph-name="quoteleft" unicode="&#x2018;" horiz-adv-x="518" 
d="M276 1178q22 22 37.5 21.5t22 -15t0.5 -31.5q-38 -91 -43 -119q-1 -3 -3 -11t-3.5 -12.5t-5 -10t-10 -8t-15.5 -3.5q-53 -2 -66.5 21t8 60.5t40 62t38.5 45.5z" />
    <glyph glyph-name="quoteright" unicode="&#x2019;" horiz-adv-x="518" 
d="M227 1030q-31 -32 -50 -17.5t-9 42.5q38 91 43 119q1 3 3 11t3.5 12.5t5 10t10 8t15.5 3.5q53 2 66.5 -21t-8.5 -60.5t-40.5 -62t-38.5 -45.5z" />
    <glyph glyph-name="quotesinglbase" unicode="&#x201a;" horiz-adv-x="591" 
d="M250 367q-46 -64 -107 -102q-67 -41 -76 5q-1 3 -1 6q-1 9 13.5 31t16.5 27q9 20 17 59.5t18 61.5q19 37 53.5 53.5t62.5 0t29 -62.5q2 -35 -26 -79z" />
    <glyph glyph-name="quotedblleft" unicode="&#x201c;" horiz-adv-x="677" 
d="M297 1178q31 32 50 17.5t9 -42.5q-38 -91 -43 -119q-1 -3 -3 -11t-3.5 -12.5t-5 -10t-10 -8t-15.5 -3.5q-53 -2 -66.5 21t8.5 60.5t40.5 62t38.5 45.5zM444 1178q22 22 37.5 21.5t22 -15t0.5 -31.5q-38 -91 -43 -119q-1 -3 -3 -11t-3.5 -12.5t-5 -10t-10 -8t-15.5 -3.5
q-53 -2 -66.5 21t8 60.5t40 62t38.5 45.5z" />
    <glyph glyph-name="quotedblright" unicode="&#x201d;" horiz-adv-x="677" 
d="M387 1030q-31 -32 -50 -17.5t-9 42.5q38 91 43 119q1 3 3 11t3.5 12.5t5 10t10 8t15.5 3.5q53 2 66.5 -21t-8.5 -60.5t-40.5 -62t-38.5 -45.5zM240 1030q-22 -22 -37.5 -21.5t-22 15t-0.5 31.5q38 91 43 119q1 3 3 11t3.5 12.5t5 10t10 8t15.5 3.5q53 2 66.5 -21
t-8 -60.5t-40 -62t-38.5 -45.5z" />
    <glyph glyph-name="quotedblbase" unicode="&#x201e;" horiz-adv-x="821" 
d="M479 367q-46 -64 -107 -102q-67 -41 -76 5q-1 3 -1 6q-1 9 14 31t17 27q9 20 16.5 59.5t17.5 61.5q19 37 54 53.5t63 0t29 -62.5q2 -33 -27 -79zM264 367q-46 -64 -107 -102q-67 -41 -76 5q-1 3 -1 6q-1 9 14 31t17 27q9 20 16.5 59.5t17.5 61.5q19 37 54 53.5t63 0
t29 -62.5q2 -33 -27 -79z" />
    <glyph glyph-name="ellipsis" unicode="&#x2026;" horiz-adv-x="1480" 
d="M186 334q-34 0 -52.5 40t-5.5 81.5t58 46.5q62 7 82.5 -35.5t-5.5 -87.5t-77 -45zM680 334q-34 0 -52.5 40t-5.5 81.5t58 46.5q62 7 82.5 -35.5t-5.5 -87.5t-77 -45zM1174 334q-34 0 -52.5 40t-5.5 81.5t58 46.5q62 7 82.5 -35.5t-5.5 -87.5t-77 -45z" />
    <glyph glyph-name="perthousand" unicode="&#x2030;" horiz-adv-x="0" 
d="M-2474 33q14 3 42 -11.5t34 -25.5q16 -22 53 -24.5t70 3.5q442 34 702 52q35 2 271.5 19.5t361.5 23.5q1202 60 2124 36q159 -3 286 -20q48 -7 74.5 -25.5t6 -32.5t-90.5 -8q-188 10 -384 11.5t-416 -5t-372 -13t-403 -19.5q-875 -43 -1536 -80q-27 -2 -150.5 -9.5
t-213.5 -13t-231 -12.5t-203 -7t-129 3q-47 5 -88 33q-36 28 -23 56t63 40q47 12 152 29zM1683 -2q-66 39 5 59q31 8 90 15q135 17 207 -20q44 -22 27 -46q-10 -16 -46 -26q-60 -10 -144 -3.5t-139 21.5z" />
    <glyph glyph-name="fraction" unicode="&#x2044;" horiz-adv-x="694" 
d="M764 1464q-101 -192 -416.5 -778.5t-335.5 -615.5q-29 -49 -51 -54q-21 -6 -32.5 7t-4.5 40q30 84 393.5 757.5t395.5 695.5q14 10 41 -6.5t10 -45.5z" />
    <glyph glyph-name="Euro" unicode="&#x20ac;" horiz-adv-x="1107" 
d="M457 889q10 -1 33 -2.5t37 -3t33.5 -4.5t33.5 -7q19 -8 27.5 -24t-0.5 -27.5t-33 -7.5q-18 -1 -55.5 0t-65 -0.5t-49.5 -7.5q-35 -10 -59 -39q-30 -35 19 -45q5 -1 11 -2q16 -1 66.5 1t88.5 -1.5t58 -18.5q6 -4 13 -14.5t12 -13.5q-31 -14 -123.5 -18.5t-167 -15.5
t-84.5 -44q-3 -12 -11 -35q-8 -26 -12 -39.5t-10.5 -38t-7.5 -37t-1 -31.5t5.5 -28.5t15 -20t25.5 -14t39 -4t53 5.5q315 65 516 228q26 22 50 15t27.5 -28.5t-9.5 -40.5q-79 -88 -238 -164.5t-291 -101.5q-118 -22 -223 62q-32 28 -51 60.5t-23 60t-4.5 54t0 44.5t-5 28.5
t-22.5 8.5t-51 -17q-26 9 -29 27q-15 25 17 46t80.5 36.5t55.5 21.5q7 7 26.5 40t21.5 36q-19 3 -44 9.5t-50 21.5t-23 32q2 13 33 25q62 13 114 16q26 2 70 33t93 73.5t106 90.5t116 81.5t115 47.5t110.5 -12t96.5 -96q15 -25 18 -51.5t-8 -53.5t-22.5 -47t-37.5 -47.5
t-39.5 -40t-41.5 -37.5q-18 -16 -37 -17t-35 15q-11 11 -11 22.5t4 18.5t15 20q72 91 105 152q21 41 8 55t-59 8q-43 -5 -80.5 -17.5t-73 -35.5t-59 -41.5t-62 -52.5t-59.5 -51z" />
    </font>
</defs>
</svg>
