<?xml version="1.0" standalone="no"?>
<!DOCTYPE svg PUBLIC "-//W3C//DTD SVG 1.1//EN" "http://www.w3.org/Graphics/SVG/1.1/DTD/svg11.dtd" >
<svg xmlns="http://www.w3.org/2000/svg" xmlns:xlink="http://www.w3.org/1999/xlink" version="1.1">
<metadata>
Created by FontForge 20201107 at Sun Jan 26 04:11:31 2025
 By 
Copyright (c) 2025 by Khurasan. All rights reserved.
</metadata>
<defs>
<font id="Mayonice" horiz-adv-x="1163" >
  <font-face 
    font-family="Mayonice"
    font-weight="400"
    font-stretch="normal"
    units-per-em="1000"
    panose-1="0 0 0 0 0 0 0 0 0 0"
    ascent="800"
    descent="-200"
    x-height="382"
    cap-height="691.5"
    bbox="-1314.96 -211.125 4542.39 900.263"
    underline-thickness="50"
    underline-position="-100"
    unicode-range="U+000D-20AC"
  />
<missing-glyph horiz-adv-x="356" 
 />
    <glyph glyph-name="noname" unicode="Mayonice" horiz-adv-x="4620" 
d="M1318 556q11 -8 14.5 -16.5t-3.5 -22.5q-12 -25 -36 -66t-48 -89t-43 -99t-21.5 -96.5t18 -81.5t74.5 -53q9 -3 14 -4t11 -8l10 -12q-53 -8 -91 8t-61.5 48t-33 76.5t-5.5 93.5t20.5 98.5t46.5 91.5q-26 -17 -64.5 -47.5t-83 -65.5t-92 -71.5t-92 -66t-83.5 -48.5
t-66 -19q-36 0 -53 15t-21.5 37.5t0.5 49t14 49.5q34 92 83.5 178.5t106.5 164.5q-144 -103 -288 -223t-283 -241q-56 -48 -109 -99t-110 -96q-4 -4 -14 -10t-21.5 -12.5t-22 -11.5t-15.5 -6t-13 3.5t-13 6.5q4 6 23.5 25t47 44t60.5 54t63 55.5t54 47t35 30.5
q103 93 207 184.5t214 179.5q52 42 104.5 81t105.5 81q9 8 17 14.5t18 12.5q20 2 36.5 -8t9.5 -35q-1 -5 -5 -12t-8.5 -15t-9 -15t-6.5 -12q-16 -26 -37.5 -61.5t-45 -76t-48 -83.5t-45 -83.5t-35.5 -77t-20 -63.5q-4 -23 3.5 -28t29.5 3q26 10 69 38t94 65.5t106.5 80.5
t107.5 84t96 76t73 57q17 12 29.5 13.5t30.5 -11.5zM3469 43q18 -3 29.5 -9t13 -12t-9.5 -9.5t-39 -1.5q-194 10 -384.5 3.5t-382.5 -16.5q-189 -8 -374.5 -18t-374.5 -20q-11 -1 -27 -2t-37 -3q-27 -34 -47 -71.5t-23 -75.5q0 -14 -9 -17t-18 2q-18 10 -25.5 26.5t0.5 36.5
q13 41 49 94q-46 -3 -95 -5.5t-92.5 -4t-77.5 -2t-49 1.5q-14 1 -23.5 4.5t-20.5 11.5q-19 14 -11.5 27.5t32.5 19.5q22 6 36 8t37 6q8 1 21 -6t15 -13q10 -11 27 -10.5t34 1.5q51 5 101.5 8t101.5 7q24 33 51 65t53.5 62t51 55.5t44.5 44.5q-11 1 -23.5 -3.5t-25 -9.5
t-25.5 -8t-23 1q-14 6 -22.5 17.5t-10.5 25.5q-24 -13 -57 -25.5t-66 -22.5t-61 -15.5t-41 -4.5t-24 9.5t-20 20t-16.5 24t-13.5 23.5q-8 16 -13 17t-20 -7q-27 -15 -47.5 -26t-39 -20t-38.5 -16.5t-46 -15.5q-14 -5 -31 1t-30 18.5t-19 28.5t2 33q8 18 24 35
q20 22 47.5 41.5t57 35t60 27t56.5 18.5q43 14 71 -4t41 -60q6 -17 -1 -33.5t-9 -32.5q-5 -31 7 -45.5t34.5 -17.5t51.5 3.5t58 16.5t55 21.5t41 19.5q13 25 30 51t35 46q7 8 16 10t16 -1.5t10.5 -11t0.5 -18.5q-13 -18 -27.5 -42.5t-19 -42t6.5 -22t50 18.5q59 34 115 72.5
t115 73.5q7 4 17.5 8t20 4.5t17 -4.5t9.5 -18q1 -5 -7 -15t-11 -13q-28 -27 -57.5 -50.5t-58.5 -49.5q-70 -62 -135.5 -127.5t-125.5 -137.5q-4 -5 -8.5 -11t-9.5 -11q14 1 29 2t29 1q77 5 153.5 11.5t154.5 10.5q260 13 518.5 19.5t517.5 -1.5q34 -1 69.5 -3t69.5 -7z
M1586 339q33 26 26 34.5t-37 -4.5q-51 -21 -94 -50t-81 -68q15 4 38.5 12.5t49.5 20.5t52 26t46 29zM3618 36q37 4 64.5 0t41 -12t11 -17.5t-23.5 -15.5q-13 -3 -32 -3.5t-38.5 1t-37.5 4.5t-30 6q-25 14 -13 23t58 14zM3405 398q-2 -5 -7.5 -7t-12 -1t-13 4.5t-10.5 10.5
q-8 14 -4.5 30t13 31t22 27t24.5 19q13 7 24.5 4t19 -11.5t9.5 -19.5t-4 -19q-7 -9 -16.5 -16.5l-19 -15t-16.5 -16t-9 -20.5zM4510 300q12 7 20.5 4.5t11 -9t-2 -14.5t-19.5 -13q-47 -15 -89 -26.5t-84 -21.5t-86.5 -21t-96.5 -24q-26 -5 -45 -4.5t-42 12.5q-27 14 -36 36
t-7 44q-44 -14 -83 -24.5t-79 -20.5t-82.5 -20t-92.5 -23q-26 -5 -44.5 -4.5t-42.5 12.5q-26 13 -35 34.5t-8 42.5q-21 -11 -52 -23.5t-62.5 -23.5t-59.5 -20t-43 -13q-17 -5 -31.5 -4.5t-31.5 6.5q-23 8 -37.5 26t-13.5 41q-20 -11 -43 -24.5t-43 -25.5q-44 -22 -79 -24.5
t-59.5 10.5t-36.5 40t-8 64q2 23 4.5 36.5t-1 18t-15.5 0t-39 -18.5q-28 -14 -53 -32.5t-49 -39t-47.5 -42.5t-47.5 -43q-10 -8 -19.5 -8.5t-16.5 4.5t-10 13.5t0 17.5q1 3 7.5 14.5t17 28t23.5 36.5t25 40q-15 5 -37.5 9.5t-47 7t-49 3t-43 -2.5t-28.5 -9.5t-6 -17.5
q8 -24 1.5 -43.5t-21 -34.5t-33.5 -26.5t-35 -19.5q-23 -12 -48 -5.5t-44 24.5q-8 10 -10 25t1 31.5t9 33t14 30.5q8 17 19 29q14 14 30.5 27t33.5 8q9 -3 33 -3t55 0.5t65.5 0t66 -4.5t56.5 -11.5t37 -21.5q9 14 16.5 23.5t10.5 14.5q10 12 22.5 12.5t21.5 -5.5t12.5 -16
t-3.5 -18q2 3 -2 -2.5t-6.5 -11.5t0.5 -8.5t18 6.5q16 11 37 22.5t43 20.5t43 13.5t36 1t23 -17.5t5 -41q-4 -31 -7 -57.5t4 -43.5t27 -20.5t62 12.5q35 14 64 36t48 37q10 8 19 10q9 15 19.5 29t22.5 29q12 14 23.5 16.5t25.5 -11.5q15 -15 9.5 -22t-16.5 -18
q-14 -16 -24 -31t-16 -30q-10 -23 4 -31.5t41.5 -6t63.5 11.5t69.5 20.5t60.5 22t37 14.5l2 2q13 26 36.5 49.5t53 40t62 23t64.5 -0.5q20 -5 34.5 -18t16.5 -37q1 -8 -4 -19t-13 -21.5t-18 -18t-20 -7.5q-7 -1 -15 3t-13 9q-2 12 7.5 24.5t16.5 19.5q4 7 2 10.5t-7 5
t-11 1.5h-10q-23 -2 -44.5 -11.5t-39 -24t-30.5 -32.5t-17 -37q-5 -17 9 -26.5t35 -8.5q49 1 100.5 8.5t100 18t91 22t74.5 21.5q1 1 5 3q13 27 37 53t53.5 45t62.5 27.5t65 0.5q20 -5 37.5 -20t18.5 -38q4 -36 -18 -52.5t-56.5 -24.5t-74.5 -11t-72 -12q0 -2 -1 -3t-1 -3
q-4 -17 9.5 -26.5t34.5 -8.5q49 1 101 8.5t101 18t92 22t74 21.5zM4231 370q-32 -3 -60.5 -19.5t-47.5 -39.5q16 6 38 12.5t42.5 12.5t35.5 10.5t18 6.5q4 7 1.5 10.5t-7.5 5t-11 1.5h-9zM2495 297q5 17 -0.5 28t-17.5 14q-20 0 -38 -19t-29 -45q-14 -33 -10.5 -43.5
t15.5 -7.5t28 14t28 22q9 8 14.5 18.5t9.5 18.5z" />
    <glyph glyph-name=".notdef" horiz-adv-x="356" 
 />
    <glyph glyph-name=".null" horiz-adv-x="0" 
 />
    <glyph glyph-name="nonmarkingreturn" unicode="&#xd;" horiz-adv-x="356" 
 />
    <glyph glyph-name="NULL" horiz-adv-x="0" 
 />
    <glyph glyph-name="NULL" horiz-adv-x="0" 
 />
    <glyph glyph-name="space" unicode=" " horiz-adv-x="356" 
 />
    <glyph glyph-name="exclam" unicode="!" horiz-adv-x="281" 
d="M345 686q-4 -8 -8 -14t-9 -13q-61 -89 -115 -178t-101 -187q-5 -9 -8 -16.5t-16 -2.5q-12 5 -16 15.5t-2 22.5q4 23 18 58t34 75.5t43.5 82.5t48 79t48.5 65t43 40q13 8 26.5 -2t13.5 -25zM92 162q-1 -17 -13 -25.5t-26 -8.5t-25.5 9.5t-11.5 28.5q0 16 12 24.5t26.5 9
t26.5 -8.5t11 -29z" />
    <glyph glyph-name="quotedbl" unicode="&#x22;" horiz-adv-x="331" 
d="M189 503q-8 -9 -14.5 -10.5t-10.5 1.5t-5 9t1 12q2 5 5.5 12.5t6.5 16t5.5 16t3.5 13.5l4 14t14 8q28 1 32 -11t-3.5 -28t-20 -31.5t-18.5 -21.5zM117 503q-8 -9 -14.5 -10.5t-10.5 1.5t-5 9t1 12q2 5 5.5 12.5t6.5 16t5.5 16t3.5 13.5l4 14t14 8q28 1 32 -11t-3.5 -28
t-20 -31.5t-18.5 -21.5z" />
    <glyph glyph-name="numbersign" unicode="#" horiz-adv-x="593" 
d="M344 356q26 -2 56 -7t54 -13q2 -3 2 -11t-8 -9q-18 -2 -41 -1.5t-45.5 -1t-41 -8.5t-27.5 -23q-28 -54 -56.5 -107t-54.5 -107q-3 -6 -5 -14.5t-13 -3.5q-6 2 -10.5 10.5t-4.5 14.5q0 10 4 19t7 18q7 21 -2.5 28t-22.5 11t-23.5 11.5t-5.5 30.5q3 14 7 30t9 30t3 19
t-21 1q-41 -8 -77 -22q-12 -5 -22 -1.5t-14 10t-1 15t18 13.5q24 10 53.5 19t55.5 14q8 2 13.5 2.5t13.5 3.5q9 4 19 19t15 23q1 2 4 9t1 8q-12 2 -27.5 0.5t-31.5 -5.5t-31 -9.5t-25 -10.5q-13 -6 -17.5 -2.5t-12.5 11.5q-9 11 -4.5 15.5t15.5 8.5q29 10 59 19.5t60 16.5
q27 6 49 14t33 34q2 4 5.5 10.5t9.5 12t14 9t19 1.5q17 -4 18 -15t-7 -22l-8 -10t-6 -10q7 -2 15 -3.5t16 0.5q17 7 36.5 29t38 44.5t35.5 37.5t29 7q14 -10 12.5 -21.5t-10.5 -23t-21 -22.5t-19 -18q-12 -14 -7 -21.5t18.5 -12t30.5 -7t27 -6.5q6 -3 8.5 -8.5t1.5 -10.5
t-5 -8t-11 -1q-20 6 -42.5 8.5t-42.5 2.5q-15 0 -24 -6.5t-15 -16t-11 -20.5t-11 -21zM154 187q14 1 27.5 13.5t25 29.5t20 34t13.5 28q-16 2 -29 0t-18 -10q-14 -19 -23 -42.5t-16 -52.5zM303 406q-14 4 -28 -1t-25 -15t-17.5 -22t-3.5 -21l34 3q9 0 16.5 6t12.5 15t8 18.5
t3 16.5z" />
    <glyph glyph-name="dollar" unicode="$" horiz-adv-x="573" 
d="M127 170q-24 0 -38.5 -2.5t-26 -2t-24 6t-31.5 20.5q19 15 43 19t46.5 7.5t41.5 13.5t29 37q11 29 14.5 44.5t-2.5 22.5t-22.5 8.5t-45.5 1.5q-33 0 -58 7t-39 42q-7 17 4 26.5t24 16.5q54 29 108.5 54.5t109.5 51.5q35 16 54.5 40.5t33 48.5t25.5 45t33 31q7 -18 7 -30
t-4 -22.5t-10.5 -22t-12.5 -27.5q-6 -17 -2.5 -20.5t20.5 -2.5q29 1 53 4t53 -8q21 -9 32.5 -21.5t14 -27.5t-5 -30.5t-25.5 -29.5q-22 -17 -54 -35.5t-58 -27.5q-10 -3 -19.5 -2t-19.5 2l-9 17q2 10 23 22.5t45 27t44 29.5t21 31q-15 1 -35.5 -0.5t-42 -5t-42 -8.5
t-33.5 -11q-16 -7 -24 -22.5t-16 -29.5q-12 -23 -18 -36t-3.5 -21t15 -13.5t38.5 -13.5q25 -8 47 -18t35 -35q11 -22 10.5 -36t-21.5 -30q-42 -30 -88 -44t-96 -21q-33 -5 -44 -23.5t-14 -40.5t-4 -42.5t-13 -29.5l-10 5q-9 13 -11.5 26.5t-2.5 27.5t1.5 28t-0.5 29z
M333 327q-18 3 -36.5 6.5t-36.5 7.5q-3 -4 -14 -19.5t-19.5 -32t-9 -28.5t16.5 -9q4 1 17 4t29 8t33 11.5t30 12.5q16 9 20 15.5t0 11.5t-13 7.5t-17 4.5zM136 391q13 0 25.5 0.5t25.5 -0.5q15 0 27 14t18.5 30t6 27.5t-12.5 7.5q-28 -10 -52 -19.5t-42 -18.5
q-34 -17 -30.5 -29t34.5 -12z" />
    <glyph glyph-name="percent" unicode="%" horiz-adv-x="538" 
d="M86 47h-8t-8 2q-29 12 -36.5 32.5t-2.5 44t18 47t24 41.5q42 68 93 124t115 105q28 21 60.5 42.5t65 43.5t62 45.5t52.5 50.5q-12 9 -35 11t-52.5 -2t-62.5 -11.5t-62.5 -16.5t-54 -18.5t-36.5 -16.5q-17 -9 -25 -15.5t-10 -14t1 -17.5t10 -27q7 -18 10 -30.5t0.5 -22
t-11.5 -18t-26 -18.5q-20 -12 -41.5 -22t-42.5 -12.5t-40 6t-35 33.5q-12 19 -7.5 42.5t18.5 45t33.5 39t36.5 24.5q35 14 68 31t68 28q40 12 76 21t71 14.5t71.5 8t78.5 2.5q17 0 31.5 -11t19.5 -28q5 -18 -2.5 -30t-20.5 -23q-62 -54 -128 -102.5t-128.5 -100.5
t-117.5 -111.5t-94 -135.5q-13 -25 -13.5 -36.5t4 -17.5t9.5 -10.5t4 -15.5zM136 520q-12 -3 -25.5 -12.5t-25 -22t-18.5 -26.5t-5 -27q16 5 37 12t36 17.5t18 24.5t-17 34zM301 123q-32 1 -46.5 15t-16 34t7.5 43t25.5 41t37 29t41.5 7q17 -3 25 -10.5t12 -18t7 -22.5
t10 -24q8 -14 8 -25.5t-11 -25.5q-6 -8 -19 -16t-27.5 -14t-29 -9.5t-24.5 -3.5zM295 161q6 4 15.5 9.5t20 12t19 12.5t12.5 11t1.5 15t-5.5 15q-6 10 -15.5 5t-20 -15.5t-18.5 -23t-11 -16.5q-3 -5 -1.5 -12.5t3.5 -12.5z" />
    <glyph glyph-name="ampersand" unicode="&#x26;" horiz-adv-x="695" 
d="M362 360q5 7 29 16.5t57.5 18t72.5 15.5t74.5 11.5t63 4t38.5 -6.5q7 -4 10 -10.5t7 -13.5q-12 -1 -40 -3t-57 -6t-53.5 -10t-30.5 -16q4 -18 -5.5 -28t-23.5 -19l-135 -89q-21 -14 -23 -20t18 -22q34 -28 73.5 -45t77.5 -37q37 -21 30 -26t-46 1q-44 8 -91 32.5
t-83 50.5q-20 14 -43.5 10t-49.5 -16t-53.5 -28t-55.5 -26.5t-55 -10.5t-51 20q-23 19 -26 36t13 42q26 40 57 63.5t55.5 43.5t36 43.5t-1.5 64.5q-12 38 2 70t43.5 55.5t69.5 38.5t80.5 19.5t75.5 -2.5t55 -26q19 -18 18.5 -33.5t-17.5 -35.5q-22 -26 -48.5 -46t-54 -37
t-56 -34t-55.5 -36q-14 -10 -12.5 -23t9.5 -23.5t20.5 -16.5t21.5 -3q18 6 35.5 16t33 21t28.5 21t22 16q-8 0 -18 -0.5t-19.5 1t-16 6t-6.5 12.5zM405 547q-34 0 -75 -9t-70 -29q-26 -18 -40 -44t-16 -47.5t7.5 -33.5t31.5 -1q7 3 23.5 13.5t37 24.5t43 30t42 30.5t32.5 26
t16 16.5q4 10 2 14.5t-7.5 6.5t-13 2h-13.5zM238 236q-5 6 -10.5 15.5t-13 17t-16 10.5t-18.5 -4q-9 -6 -28.5 -22t-39.5 -35.5t-34 -38.5t-12 -29q8 -2 30.5 8t48.5 23t49.5 25.5t33.5 17.5z" />
    <glyph glyph-name="quotesingle" unicode="'" horiz-adv-x="253" 
d="M111 503q-8 -9 -14.5 -10.5t-10.5 1.5t-5 9t1 12q2 5 5.5 12.5t6.5 16t5.5 16t3.5 13.5l4 14t14 8q28 1 32 -11t-3.5 -28t-20 -31.5t-18.5 -21.5z" />
    <glyph glyph-name="parenleft" unicode="(" horiz-adv-x="251" 
d="M475 669q-38 -16 -82.5 -45.5t-89.5 -70t-88 -91t-77 -109t-56 -124t-26 -135.5q-2 -26 4.5 -46t24.5 -30q5 -11 -1.5 -15.5t-11.5 -2.5q-36 15 -51 45.5t-15 69.5t11 83t27 85t33.5 76.5t31.5 57.5q116 188 306 295q18 10 25.5 12t18.5 2q8 0 16.5 -5.5t12.5 -14
t2 -18.5t-15 -19z" />
    <glyph glyph-name="parenright" unicode=")" horiz-adv-x="425" 
d="M-67 31q35 29 80.5 64.5t91.5 76.5t87.5 86.5t69.5 94.5t38 100.5t-7 104.5q-16 48 -47.5 76.5t-79.5 48.5q-20 8 -30 6t-16.5 -6t-11 -5.5t-11.5 7.5q-2 2 -4 7t-3.5 10.5t-2 10.5t1.5 8q5 5 18 8.5t20 4.5q11 2 15 0t14 -6q39 -14 74 -40.5t62 -60t43 -73t16 -79.5
q0 -46 -17 -91.5t-45 -89t-65 -84t-77.5 -77t-82 -67.5t-78.5 -55q-7 -5 -15.5 -10.5t-17.5 -6.5q-10 -1 -17.5 2.5t-10.5 9t-1.5 12.5t9.5 13z" />
    <glyph glyph-name="asterisk" unicode="*" horiz-adv-x="304" 
d="M248 701q-11 -8 -29 -15.5t-41 -15.5q12 -10 23 -21t17.5 -20.5t8.5 -16.5t-4 -8q-3 -6 -10 -6t-12 2q-21 20 -40 33q-6 -11 -13 -20.5t-17 -16.5q-8 -5 -13.5 -4t-9.5 5.5t-5.5 11.5t0.5 14q2 8 -1.5 12.5t-25.5 -1.5q-13 -4 -23.5 4.5t0.5 22.5q26 10 39 13.5t15 7.5
t-5 12t-20 28q-5 10 -5 18t15 8q8 0 14 -6t9 -11q12 -18 19 -12.5t15 22.5q2 4 7.5 9t12 7.5t12 1t7.5 -9.5q3 -11 1 -19.5t1 -10.5q6 -4 19 3.5t26 11.5q19 4 27 -7t-14 -26z" />
    <glyph glyph-name="plus" unicode="+" horiz-adv-x="383" 
d="M196 339q35 1 52 0q11 -1 20.5 -2.5t14.5 -6.5q8 -8 5.5 -16t-16.5 -11q-32 -6 -81 -8q-3 -20 -5 -32t-4 -21q-3 -11 -6.5 -19t-9.5 -12q-9 -6 -17 -3t-10 17q-2 28 3 68q-28 0 -50 1.5t-30 6.5q-3 1 -5.5 6.5t-2 11.5t4 11t12.5 5l77 2q5 29 10.5 52.5t12.5 31.5
q2 3 8 4t12.5 0t11 -5.5t3.5 -12.5z" />
    <glyph glyph-name="comma" unicode="," horiz-adv-x="289" 
d="M122 179q-11 -15 -25.5 -28.5t-28.5 -22t-24.5 -8t-11.5 14.5q-1 6 6 14t9 14q7 16 8 29.5t9 29.5q7 14 19 22t23.5 8t20 -8t8.5 -26q1 -11 -3 -20.5t-10 -18.5z" />
    <glyph glyph-name="hyphen" unicode="-" horiz-adv-x="394" 
d="M89 335q45 1 75 2t49.5 2t31.5 1t21 -1q11 -1 20.5 -2.5t14.5 -6.5q8 -8 5.5 -16t-16.5 -11q-20 -4 -52 -6.5t-64.5 -3t-58.5 1t-35 6.5q-3 1 -5.5 6.5t-2 11.5t4 11t12.5 5z" />
    <glyph glyph-name="period" unicode="." horiz-adv-x="241" 
d="M91 163q-13 0 -21 12t-9.5 27t5.5 28t25 15q24 3 34.5 -9.5t9.5 -28.5t-13 -30t-31 -14z" />
    <glyph glyph-name="slash" unicode="/" horiz-adv-x="339" 
d="M373 715q-10 -20 -31 -58.5t-47.5 -89t-58 -108.5t-62.5 -116t-60 -112t-52.5 -96.5t-38 -69.5t-17.5 -31q-6 -10 -12 -17t-13 -9q-10 -3 -16 3t-2 20q3 10 20.5 44.5t44 85.5t59.5 113t67 125t67 123.5t60 107.5t45 77t22 33q3 2 8.5 1t11 -4t7.5 -8.5t-2 -13.5z" />
    <glyph glyph-name="zero" unicode="0" horiz-adv-x="420" 
d="M375 364q-34 -69 -89.5 -126.5t-123.5 -93.5q-42 -23 -73 -18.5t-63 40.5q-17 19 -24 38.5t1 44.5q27 95 75 166.5t121 136.5q15 13 25.5 25.5t21 19.5t24 5.5t34.5 -15.5q66 -44 85 -99t-14 -124zM319 532q-18 29 -47 11q-28 -18 -61.5 -56.5t-64 -83.5t-54.5 -91
t-32 -78.5t3 -46t50 6.5q65 33 121.5 88.5t88.5 121.5q17 35 17 65.5t-21 62.5z" />
    <glyph glyph-name="one" unicode="1" horiz-adv-x="271" 
d="M229 537q-7 -4 -24 -11.5t-38 -16t-44 -15t-42 -9t-31.5 1t-13.5 16.5q-1 5 4.5 8.5t9.5 5.5q7 3 25 11t42 18t50.5 20.5t50 19.5t40.5 15t22 7q13 2 25 -4t20 -15.5t10 -21.5t-7 -22q-17 -20 -42.5 -49.5t-53.5 -64.5t-55.5 -73.5t-49.5 -77t-35.5 -75.5t-13.5 -68
q-35 3 -48.5 25.5t6.5 71.5q17 40 40 77.5t48.5 74.5t52.5 74t52 77z" />
    <glyph glyph-name="two" unicode="2" horiz-adv-x="467" 
d="M103 226q11 0 36 1t56.5 2t66 1.5t64 0.5t51 -1.5t26.5 -4.5q7 -5 13 -11.5t6.5 -12.5t-6 -10t-23.5 -3q-36 2 -87 1.5t-103 -4.5t-97.5 -10t-70.5 -14q-18 -6 -39.5 -6t-37.5 13q-21 17 -22 30.5t22 27.5q24 15 55.5 34t65.5 40.5t68.5 44.5t64.5 44q5 3 19 14.5
t31.5 26.5t34.5 32.5t28 33t12 27.5t-13 17q-24 8 -57.5 8.5t-68 -5.5t-65.5 -17t-50 -25q-13 -9 -25.5 -7.5t-20 9t-8 19t10.5 22.5q24 23 65.5 34.5t88 13t91 -7t75 -24.5t39.5 -40t-15 -54q-26 -32 -61.5 -63t-73.5 -61t-76 -59t-70 -57z" />
    <glyph glyph-name="three" unicode="3" horiz-adv-x="417" 
d="M-69 219q11 -21 43.5 -27t75 -1t88.5 19.5t84 33.5t61 41t20 43q-3 18 -23 26.5t-45 11.5t-50.5 3t-38.5 2q-14 1 -28.5 7.5t-22.5 16.5t-5.5 21t23.5 22q22 12 40.5 19l37 14t38.5 16t44 24q34 20 42.5 31.5t0 16t-29 3.5t-44.5 -7q-48 -10 -84.5 -21.5t-74.5 -26.5
q-11 -4 -21 -0.5t-12 17.5q-1 5 2.5 14t8.5 12q22 15 58 27t75 20t76.5 11.5t64.5 0.5q19 -2 34 -15t21 -32q8 -23 -8 -42.5t-41 -37t-51.5 -33t-38.5 -30.5q6 -9 16.5 -17.5t22 -17t22.5 -18t20 -19.5q24 -32 23.5 -56t-28.5 -54q-18 -18 -52 -38t-75.5 -36t-85.5 -25
t-81.5 -5t-65.5 24t-36 62z" />
    <glyph glyph-name="four" unicode="4" horiz-adv-x="424" 
d="M245 395q17 7 26.5 18.5t20.5 25.5q32 44 64.5 89t70.5 83q13 13 24.5 13.5t19 -6t10.5 -17t1 -17.5q-5 -16 -16.5 -30t-22.5 -26q-26 -29 -41 -55t-29 -62q-2 -3 -3 -6.5t-3 -6.5q-9 -15 -22 -29.5t-24 -29.5q-20 -28 -38.5 -59t-33.5 -63.5t-25.5 -66.5t-12.5 -69
q-8 2 -15.5 5t-14.5 7q-19 10 -23 28t0.5 40.5t15 47t21 48t19 43.5t9.5 34q-19 -3 -45.5 -12.5t-55 -18.5t-54.5 -13.5t-43 1.5q-30 11 -33 28.5t16 41.5q47 59 99.5 113t103.5 110q7 8 13.5 13t17.5 -2t11 -16t-5 -20q-15 -29 -37 -54.5t-45 -50.5t-45.5 -50t-40.5 -53z
" />
    <glyph glyph-name="five" unicode="5" horiz-adv-x="437" 
d="M97 386q27 3 56 8t58.5 8t57.5 1t53 -12q19 -8 29.5 -22.5t12.5 -31t-4.5 -33.5t-21.5 -30q-11 -10 -34.5 -25.5t-53 -31.5t-62.5 -31.5t-64 -27t-56 -16t-39 0.5q-27 11 -28.5 25t24.5 23q31 11 65 23t66.5 25t61 26t48.5 27q19 13 29 25t9.5 21.5t-12.5 14.5t-37 3
q-24 -2 -53 -9t-57 -15.5t-50.5 -16.5t-33.5 -11q-14 -5 -27 -4t-24 14q-12 14 -9.5 30t12.5 32.5t26 33.5t31.5 32t28 28.5t17.5 23.5q7 17 13.5 26t14.5 12.5t20 2.5t30 -4q19 -3 52 -3t66.5 0.5t60.5 -0.5t33 -6t10 -12t6 -15q-5 -9 -19 -13t-41 -6t-67 -3t-97 -4
q-17 -1 -27.5 -4.5t-22.5 -17.5l-51 -61v0z" />
    <glyph glyph-name="six" unicode="6" horiz-adv-x="373" 
d="M107 346q29 2 59.5 5.5t59.5 4.5q22 0 43.5 -4.5t38.5 -20.5q18 -17 15 -36.5t-21 -37.5q-47 -48 -108 -84t-126 -52q-27 -7 -48.5 -1t-35 21t-17.5 37t4 48q12 43 38 83q17 28 47.5 64t64.5 72.5t68 69.5t58 55q3 7 9.5 13t14.5 8t16 -0.5t13 -10.5q8 -15 4 -25t-18 -18
q-22 -14 -46.5 -38.5t-49 -52t-46 -54.5t-37.5 -46zM116 292q-34 -9 -60.5 -30.5t-34.5 -67.5q-4 -19 1.5 -22.5t22.5 1.5q29 7 63 23.5t62 35t46.5 37t16.5 29t-29 11t-88 -16.5z" />
    <glyph glyph-name="seven" unicode="7" horiz-adv-x="469" 
d="M342 436q11 -3 27.5 -5t32.5 -5q10 -3 17 -9.5t7.5 -13t-6.5 -11.5t-25 -3q-70 6 -122.5 -16.5t-103.5 -73.5q-23 -23 -47.5 -46t-47.5 -46q-9 -9 -15.5 -15t-10 -13t-3.5 -15.5t4 -22.5q4 -15 -7.5 -18.5t-24.5 4t-19 25t10 43.5q14 23 33.5 44.5t41 42t42.5 41t38 40.5
q-4 -2 -21 -4.5t-36.5 -5t-36 -4t-18.5 -0.5q-10 2 -16 8t-7.5 12.5t2 13.5t13.5 11q33 12 64 16l62 8t61 13.5t60 32.5q6 5 18.5 14t25.5 19.5t24 21.5t13.5 20t-6.5 15t-34 7q-18 1 -41 -1.5t-48.5 -7.5t-53 -12.5t-53.5 -16.5q-15 -6 -29.5 -16t-28 -17.5t-25 -10
t-20.5 6.5q-6 18 0 30.5t17.5 21.5t26.5 15.5t27 12.5q34 14 81.5 25.5t94.5 17t87.5 3t62.5 -16t18.5 -39.5t-44.5 -67q-11 -12 -29.5 -27t-31.5 -26z" />
    <glyph glyph-name="eight" unicode="8" horiz-adv-x="402" 
d="M237 254q-8 5 -16 9.5t-18 4.5q-9 -6 -15 -13.5t-12.5 -15t-14.5 -12t-20 -4.5q-2 14 1 26.5t6.5 23t6.5 17.5t2 11q-2 7 -14.5 16.5t-29 22t-33 27.5t-26.5 34.5t-9 43t20 51.5q17 26 58 51.5t88.5 43t94.5 23t76 -8.5q17 -8 27.5 -22.5t14 -31t0.5 -34.5t-12 -33
q-8 -14 -34 -40t-54.5 -53.5t-51 -51t-23.5 -32.5q-1 -8 4.5 -18.5t12.5 -22t13.5 -24t7 -24.5t-7 -23.5t-27.5 -21.5q-30 -15 -64.5 -27.5t-68 -14.5t-64.5 10t-53 46q-29 44 -5 87q21 37 44 45t39 1.5t20 -19.5t-13 -18q-24 -7 -35 -19t-19 -36q-7 -21 3.5 -30.5
t30.5 -10.5t46 4t49.5 12t41 14t21.5 11q5 5 7.5 12t4.5 14zM84 411q0 -14 15.5 -27t36.5 -22.5t42.5 -15t32.5 -3.5q39 44 80 89t76 93q12 17 1 25.5t-32 10.5q-28 3 -70.5 -9t-82.5 -33.5t-69 -49.5t-30 -58z" />
    <glyph glyph-name="nine" unicode="9" horiz-adv-x="464" 
d="M340 439q-48 -26 -98 -47.5t-104 -35.5q-24 -6 -49.5 -1t-42.5 18t-19.5 33t20.5 44q25 27 57 50t68.5 41.5t76 31t78.5 17.5q34 5 62.5 -3t46.5 -25.5t23.5 -42t-6.5 -53.5q-21 -49 -65.5 -101.5t-101 -100.5t-117 -88.5t-112.5 -65.5q-14 -6 -22.5 -3t-22.5 13
q-5 10 -1 15.5t12 9t17.5 6.5t16.5 7q99 60 185 137t150 166q-26 -8 -52 -22zM128 411q28 4 60 19t64 32t64 31.5t62 17.5q25 1 32 8t3 15.5t-15 14.5t-22 5q-23 -4 -58 -14.5t-72 -25.5t-70 -34t-52 -40q-5 -6 -9.5 -12.5t-5.5 -11t3 -6.5t16 1z" />
    <glyph glyph-name="colon" unicode=":" horiz-adv-x="303" 
d="M146 361q-13 0 -21 12t-9.5 27t5.5 28t25 15q24 3 34.5 -9.5t9.5 -28.5t-13 -30t-31 -14zM96 179q-13 0 -21 12t-9.5 27t5.5 28t25 15q24 3 34.5 -9.5t9.5 -28.5t-13 -30t-31 -14z" />
    <glyph glyph-name="semicolon" unicode=";" horiz-adv-x="303" 
d="M122 185q-11 -15 -25.5 -28.5t-28.5 -22t-24.5 -8t-11.5 14.5q-1 6 6 14t9 14q7 16 8 29.5t9 29.5q7 14 19 22t23.5 8t20 -8t8.5 -26q1 -11 -3 -20.5t-10 -18.5zM146 361q-13 0 -21 12t-9.5 27t5.5 28t25 15q24 3 34.5 -9.5t9.5 -28.5t-13 -30t-31 -14z" />
    <glyph glyph-name="less" unicode="&#x3c;" horiz-adv-x="400" 
d="M158 182q-25 6 -53.5 21t-48 35.5t-22.5 43.5t23 45q21 18 50 33.5t61.5 30t64.5 27t58 23.5q13 5 25.5 1.5t19 -11t5 -17.5t-15.5 -18q-21 -12 -46 -22.5t-50.5 -20t-50.5 -19t-46 -19.5q-29 -14 -39.5 -25.5t-7 -22t18 -21t35.5 -22.5q7 -5 14.5 -7.5t15.5 -5.5
q15 -5 19 -11t1 -10.5t-11.5 -7t-19.5 -0.5z" />
    <glyph glyph-name="equal" unicode="=" horiz-adv-x="381" 
d="M64 302q45 1 75 2t49.5 2t31.5 1t21 -1q11 -1 20.5 -2.5t14.5 -6.5q8 -8 5.5 -16t-16.5 -11q-20 -4 -52 -6.5t-64.5 -3t-58.5 1t-35 6.5q-3 1 -5.5 6.5t-2 11.5t4 11t12.5 5zM71 379q45 1 75 2t49.5 2t31.5 1t21 -1q11 -1 20.5 -2.5t14.5 -6.5q8 -8 5.5 -16t-16.5 -11
q-20 -4 -52 -6.5t-64.5 -3t-58.5 1t-35 6.5q-3 1 -5.5 6.5t-2 11.5t4 11t12.5 5z" />
    <glyph glyph-name="greater" unicode="&#x3e;" horiz-adv-x="373" 
d="M18 214q-2 8 5.5 14t13.5 8q29 12 57 21.5t55 19t53 22.5t52 33q-11 19 -33 32t-45.5 22t-43.5 16.5t-26 15.5q-11 15 0 23.5t25 3.5q42 -15 81.5 -33.5t65.5 -53.5t23 -60.5t-46 -43.5q-45 -19 -90 -37t-90 -35q-20 -7 -35.5 -0.5t-21.5 32.5z" />
    <glyph glyph-name="question" unicode="?" horiz-adv-x="410" 
d="M299 627q-45 -14 -76.5 -41t-53.5 -77q-5 -11 -5.5 -23.5t-1 -22t-3 -15t-11.5 -3.5q-18 5 -25.5 20t-7.5 32q-1 37 21 70t56 58t75.5 40t80.5 17q26 1 44.5 -8t28 -23.5t8.5 -32.5t-14 -34q-32 -41 -66.5 -74t-69 -67t-68 -72t-61.5 -87q-4 -7 -12.5 -11.5t-16.5 0.5
q-17 9 -11 26q10 28 28 56.5t40 56t47 53.5t49 50q12 11 29 26.5t33 31.5q22 22 28 36.5t0 22t-23 6.5t-42 -11zM52 182q-5 16 7 28.5t28 16.5t30 -2t14 -27t-10.5 -33.5t-24 -15.5t-26.5 5t-18 28z" />
    <glyph glyph-name="at" unicode="@" horiz-adv-x="556" 
d="M193 312q13 9 29.5 22.5t32.5 21t31.5 4.5t27.5 -26q5 -10 8 -15.5t6 -7t9 1t17 7.5q29 13 52 36.5t36 52t14.5 60.5t-12.5 63q-20 44 -62 54t-92 -5.5t-100.5 -53t-87 -88t-52 -111t4.5 -121.5q10 -32 31.5 -45t49.5 -12t59 11.5t61 24.5t56.5 27.5t44.5 20.5
q13 5 22 6.5t18 -12.5q5 -7 2.5 -15.5t-7.5 -13.5q-12 -14 -36.5 -29t-53 -28t-56.5 -22.5t-46 -13.5q-38 -8 -72.5 0t-63.5 34q-48 43 -62.5 97t-3 109t44.5 107t78.5 92t100 64t109.5 22q47 -2 82.5 -23.5t56.5 -55t27 -73.5t-5.5 -79t-41.5 -72t-80 -51
q-34 -12 -48.5 -9.5t-24 8.5t-21 9t-40.5 -7q-15 -6 -26.5 -9.5t-21.5 -3t-20.5 6t-23.5 18.5q-22 21 -15.5 48t26.5 51.5t46.5 43.5t46.5 25q11 3 24 1.5t24.5 -6.5t19.5 -14t10 -22q1 -8 -3.5 -15t-10.5 -12q-8 1 -12.5 3t-11.5 4q-18 6 -33.5 -0.5t-28.5 -20.5
t-21.5 -31.5t-11.5 -32.5z" />
    <glyph glyph-name="A" unicode="A" 
d="M687 339q88 9 175.5 20.5t175.5 14.5q27 1 48.5 -7.5t32.5 -35.5q-52 0 -103.5 -6.5t-103 -14t-103 -14.5t-102.5 -8q-34 -1 -59.5 -22.5t-41 -53t-19.5 -66.5t3.5 -62.5t28.5 -41.5t56 -3q7 2 14.5 5.5t15.5 5t15 0t12 -10.5q5 -8 -4.5 -19t-27.5 -17.5t-42.5 -5.5
t-50.5 18q-50 32 -65.5 83.5t0.5 106.5q7 24 9 36.5t-3.5 18t-18.5 5t-37 -3.5q-54 -7 -87 -10.5t-58.5 -12.5t-52.5 -28t-69 -56q-26 -23 -49.5 -46t-47.5 -47q-14 -14 -28.5 -15.5t-24 4.5t-11 18.5t10.5 26.5q11 13 32.5 29.5t44 34.5t41 35.5t24.5 31.5q-36 6 -74.5 6
t-69.5 1.5t-47 8t-7 23.5q28 15 65 14t79 -2t85.5 5.5t84.5 36.5q63 46 124.5 97.5t124.5 100.5t129 93t138 76q8 3 15 6.5t15 6.5q16 6 29.5 2.5t21 -12.5t7.5 -23t-10 -29q-56 -78 -119 -150.5t-121 -147.5zM829 620q-23 -10 -61.5 -34.5t-83 -57t-92 -68t-88 -66.5
t-70 -54t-39.5 -30q-3 -2 8.5 -1.5t31 2.5t44 5t47 5.5t40 4.5t23.5 2q9 0 28.5 19.5t44 49t51.5 65t51 68t41.5 57t23.5 33.5z" />
    <glyph glyph-name="B" unicode="B" horiz-adv-x="1427" 
d="M243 555q133 66 263 85.5t269 7.5q12 -1 24.5 -3t24 -7t19 -13.5t9.5 -21.5q2 -17 -13.5 -33.5t-37 -31t-44 -25.5t-34.5 -18q65 0 134 -1t136.5 -10t132 -28.5t121.5 -55.5q16 -10 28 -24.5t20 -31.5q19 -38 9.5 -67t-34 -51.5t-57.5 -38.5t-61 -27q-103 -40 -226.5 -66
t-252.5 -42t-256.5 -23.5t-238.5 -11.5q-89 -3 -177 -3t-176 -7q-26 -2 -50.5 -7t-50.5 -7q-14 -1 -22 1.5t-13 17.5q-5 17 1.5 27t20.5 13q42 9 84 9h85q26 0 45 4t34 13t27.5 24t25.5 38q27 48 57 94t62 91q7 10 11 15t4.5 9t-0.5 10t-2 18q-2 17 3.5 19.5t19.5 10.5
q22 13 38 24t29 23.5t25 27.5t26 36q-13 -1 -21 -4.5t-13 -8.5q-14 -13 -24 -9.5t-14 8.5q-8 8 1 24t29 27zM100 76q69 1 137 8.5t137 12.5q37 3 93.5 8t124 12.5t141.5 18t146.5 23.5t139 29.5t118.5 36.5q69 26 95.5 52.5t19 51.5t-45 46.5t-95.5 38.5q-61 17 -134 25.5
t-151 10t-156 -3t-150 -13.5t-133 -23t-104 -30q-22 -8 -32.5 -16.5t-24.5 -26.5q-34 -43 -73.5 -95t-71.5 -103q-7 -12 -12 -23t-4.5 -20t8.5 -14.5t27 -5.5zM738 614q-37 2 -87 -1t-97 -9.5t-83.5 -16t-46.5 -19.5q-26 -26 -53 -54t-52 -54q55 6 111.5 14.5t111.5 20.5
t107.5 28.5t99.5 39.5q19 9 29.5 17.5t10 15.5t-12.5 12t-38 6z" />
    <glyph glyph-name="C" unicode="C" horiz-adv-x="1167" 
d="M721 493q36 20 69.5 39.5t59.5 42.5q22 19 28.5 32.5t0 22t-23.5 10.5t-41 -1q-60 -8 -131.5 -33t-146 -61t-147.5 -80.5t-136.5 -92t-112.5 -96t-75 -92.5q-12 -21 -15.5 -34.5t1.5 -23t19 -17t35 -16.5q55 -22 125 -25.5t147.5 5.5t158.5 28.5t159 44t148.5 51
t126.5 50.5q8 3 22 8t27.5 6.5t23 -4t9.5 -21.5q0 -5 -10 -12.5t-15 -9.5q-43 -22 -102 -45t-126 -44.5t-139.5 -41t-141.5 -33.5t-131.5 -22.5t-110.5 -8.5q-21 0 -49 1.5t-56.5 5t-55 10.5t-43.5 18q-48 30 -62.5 63.5t-6.5 67.5t33.5 67.5t58.5 63.5q81 73 169 135.5
t182.5 111t194.5 80t203 43.5q29 4 53 -2.5t42 -31.5q14 -20 14 -33t-14 -33q-9 -14 -34.5 -35t-56 -41.5t-61 -35.5t-51.5 -16q-20 0 -24 12.5t9 22.5z" />
    <glyph glyph-name="D" unicode="D" horiz-adv-x="1365" 
d="M483 526q-7 -4 -23 -11.5t-33.5 -15.5t-31.5 -13.5t-17 -5.5q-11 1 -19.5 6t-11.5 12.5t-0.5 16.5t14.5 19q16 13 49.5 26.5t71 25t72.5 19t55 9.5q40 3 101.5 6t132 2t143.5 -8.5t135.5 -26t109 -51t63.5 -83.5q14 -40 5.5 -70t-29.5 -53t-51 -40.5t-60 -32.5
q-57 -29 -127 -53.5t-145 -44.5t-152 -36.5t-149 -29.5t-135.5 -23t-111.5 -17q-21 -3 -35 -4.5t-23 -7.5t-13.5 -18.5t-5.5 -37.5q0 -16 -13 -18t-22 3q-13 7 -10 32q4 26 -9 33.5t-34 5.5q-10 0 -38 -3.5t-59 -7t-57 -5.5t-31 1q-8 6 -12 14.5t-3.5 17.5t5.5 15.5t16 8.5
q19 3 53 3t70 1.5t67 7t46 17.5q22 19 51 79q18 35 43.5 78.5t53 88.5t55 89t49.5 80zM1175 511q-49 30 -113 44t-136 18.5t-147.5 1t-146.5 -9.5q-14 -1 -29.5 -11.5t-29.5 -25.5t-27 -32t-22 -30q-5 -7 -21.5 -33.5t-38.5 -63t-46.5 -77.5t-45 -76.5t-34.5 -60.5t-14 -28
q-3 -11 3 -14t15.5 -3t19.5 2l15 3q55 9 119.5 21.5t133 27t138 31.5t134 35.5t121 37.5t99.5 39q35 16 64.5 40.5t41.5 52.5t2 57t-55 54z" />
    <glyph glyph-name="E" unicode="E" horiz-adv-x="833" 
d="M163 542q-23 23 7 49q2 2 17.5 6.5t37 10.5t47 12t49 11.5t41.5 9.5t25 5q63 12 135.5 22.5t150.5 18t158 11.5t157.5 3.5t150.5 -6t137 -17.5q27 -5 41 -16.5t12.5 -21t-19.5 -14.5t-55 4q-19 5 -39.5 8t-40.5 5q-29 4 -54.5 5.5t-39.5 1.5q-30 1 -81.5 0.5t-113 -2.5
t-127 -5.5t-124.5 -9.5t-105.5 -14t-69.5 -18q-3 -30 -16.5 -54t-31.5 -46t-36.5 -43t-31.5 -44q43 -2 85.5 -0.5t84.5 4.5t84.5 6t85.5 3q34 0 48 -6t12.5 -13.5t-16.5 -14.5t-39 -9t-48 -2.5t-50 -2.5q-74 -5 -147.5 -11t-146.5 -14q-16 -2 -27 -5t-24 -13
q-36 -27 -71.5 -63.5t-61 -74.5t-36.5 -73.5t3.5 -60.5t58 -36t126.5 1q102 16 202 34.5t200.5 36.5t201.5 32t205 21q18 1 27.5 -0.5t13.5 -5t3.5 -8t-1.5 -9.5q-1 -4 -2 -7.5t-4 -7t-10.5 -5.5t-21.5 -3q-100 -5 -205 -21.5t-205.5 -35.5t-194 -37t-172 -28t-138 -7
t-92.5 26q-55 38 -65.5 85t19.5 98q12 20 31.5 42t41 43.5t43 42t37.5 37.5q-30 0 -47.5 10.5t-20.5 21t10 17t45 -1.5q31 -8 62 7t60 43.5t56 65t51 71.5q-10 -2 -29 -7t-42.5 -11.5t-47.5 -13.5t-45 -13q-23 -6 -38 -10t-30 11z" />
    <glyph glyph-name="F" unicode="F" horiz-adv-x="1006" 
d="M927 445q16 1 23.5 -4t9 -11t-2.5 -12t-13 -7q-25 -3 -55.5 -3.5t-62 -0.5h-62t-55.5 -2q-117 -8 -236 -14t-236 -6q-18 0 -31 -16.5t-24 -31.5q-18 -26 -36 -60t-35 -70.5t-33 -72.5t-30 -66q-13 -27 -11.5 -39t8 -17.5t14.5 -9t9 -15.5q-11 -12 -25 -11t-26.5 9t-21 21
t-8.5 27q0 16 5 37.5t10 36.5q10 26 22.5 55.5t26 60t27.5 60t26 54.5q5 10 8 16.5t2 10t-7 6t-18 5.5q-21 5 -24 13.5t4.5 17t21.5 15t27 8.5q16 2 30 6.5t27 16.5q8 7 18.5 21t21 29.5t19.5 30.5t14 25q7 15 4 17t-18 2q-16 0 -44.5 -4t-57.5 -6t-54 1.5t-34 18.5t-5.5 19
t17.5 8q54 14 113.5 19t115.5 10q23 2 34 6t18.5 9t15 12.5t24.5 16.5q19 10 29.5 12t17 -1t11 -10t10.5 -13.5t16 -11.5t28 -4q169 5 337 21t337 29q56 5 112.5 6.5t111.5 -7.5q19 -3 32.5 -12t16 -17t-8 -12t-39.5 2q-25 5 -39 5q-132 -4 -264 -15.5t-263 -23.5
q-96 -9 -191 -16.5t-190 -20.5q-9 -1 -22.5 -5t-28.5 -8t-28.5 -5.5t-22.5 3.5q-6 -3 -17 -19t-22.5 -35.5t-20.5 -37t-12 -24.5q-7 -15 -3.5 -18.5t20.5 -3.5h643z" />
    <glyph glyph-name="G" unicode="G" horiz-adv-x="1410" 
d="M1058 281q-68 -5 -135.5 -10t-135.5 -10q-62 -5 -127.5 -13t-127.5 -6q-19 1 -33 10.5t-17 22t8.5 24.5t44.5 18q43 8 88 10t89 4q128 7 254 7.5t254 8.5q15 1 33.5 3t36 0.5t31 -9t18.5 -26.5q-14 -8 -35.5 -10.5t-45.5 -3.5t-47 -1t-39 -2q-11 -1 -15.5 -2.5t-6 -4.5
t-1.5 -8.5t-2 -14.5q-3 -16 -15 -28t-28 -21.5t-33.5 -16.5t-30.5 -12q-90 -36 -200.5 -72t-226 -63t-229.5 -40t-211 -2q-30 3 -62.5 11.5t-55.5 30.5q-35 34 -41.5 75.5t17.5 83.5q27 47 76 94t106.5 90t116.5 79.5t106 62.5q91 50 186 92t197 65q18 4 35.5 8t35.5 6
t35 1.5t33 -5.5q21 -7 32 -20t13 -29.5t-4 -34t-18 -32.5q-9 -12 -25 -27.5t-33 -31.5t-34.5 -30.5t-29.5 -22.5q-3 -2 -9 -3t-9 3q-6 7 0.5 20t20 29t30.5 33.5t33 34.5q26 28 29.5 43t-6.5 21.5t-31 5t-45 -6t-47 -11.5t-38 -12q-72 -24 -159.5 -63t-176 -87.5t-171 -106
t-143.5 -119.5q-44 -44 -64 -80t-13.5 -61.5t41 -40.5t99.5 -18q63 -3 139.5 5.5t158.5 24.5t165 38t157.5 47.5t136 52.5t101.5 53z" />
    <glyph glyph-name="H" unicode="H" horiz-adv-x="1119" 
d="M87 7q-13 16 -10 52t15.5 81t31.5 92.5t38 87.5q-16 0 -37 -3.5t-42.5 -8t-41 -7.5t-32.5 -2q-13 0 -20.5 7.5t-8.5 17t5.5 18.5t22.5 12q20 4 44 7t45.5 5t39 4t25.5 3q21 2 30 9.5t19 25.5q35 62 69 132.5t69 132.5q7 11 18.5 16t22.5 3.5t18.5 -9.5t6.5 -23
q-1 -13 -19.5 -46t-42.5 -71.5t-46 -75t-31 -56.5q-5 -11 -2.5 -16t15.5 -3q47 6 91 13.5t98 15.5t126 14t176 9q23 1 38 13t29 29q42 49 86 99.5t90 81.5q14 10 31 13.5t33 -14.5q11 -12 9 -20t-10 -14q-15 -13 -45 -38.5t-61 -54t-57 -55.5t-33 -43q20 0 47.5 -1t54 -4
t49 -9t33.5 -15q4 -3 7.5 -8.5t4.5 -10.5t-3.5 -8.5t-16.5 -1.5q-41 5 -86 10t-104 -2q-14 -2 -26 -9t-20 -18q-29 -36 -56.5 -75.5t-52 -82t-43.5 -87t-29 -88.5q-3 -8 -11 -12.5t-17 6.5q-12 14 -8 43t17 66t32.5 77t39 75.5t36 63t23.5 38.5q-28 4 -71.5 2.5t-94 -6.5
t-104.5 -12.5t-103 -16t-89 -16t-63 -12.5q-14 -23 -34.5 -59.5t-39.5 -79.5t-32 -87.5t-11 -81.5q1 -17 -11.5 -20t-20.5 8z" />
    <glyph glyph-name="I" unicode="I" horiz-adv-x="877" 
d="M732 614q-90 -13 -185.5 -33.5t-186 -44t-171 -47t-139.5 -43.5q-17 -5 -26 1t-10 16.5t7 21t26 15.5q147 47 293 88.5t297 63.5q86 13 173.5 24t174.5 15.5t174 -0.5t173 -24q24 -5 40 -20.5t24 -47.5q-17 11 -39 19.5t-41 12.5q-48 10 -102.5 13t-111 1t-112 -7
t-104.5 -11q-16 -2 -24.5 -7.5t-14.5 -14t-12 -19t-18 -20.5q-18 -15 -37 -25.5t-36 -26.5q-108 -101 -193.5 -213t-157.5 -231q128 14 248.5 24.5t241.5 18.5q14 1 30.5 -1.5t26.5 -19.5q14 -24 4.5 -29t-29.5 -5q-25 1 -48.5 2t-48.5 1q-97 1 -211 -11t-220 -39
q-17 -5 -23 -12.5t-9 -18.5q-6 -19 -10 -27t-8 -7.5t-8.5 9.5l-12.5 25q-10 20 -23.5 22t-36.5 1q-16 0 -48.5 -6t-73.5 -14.5t-85 -18t-83 -17.5t-68 -13t-39 -4t-14.5 7.5t-4.5 14t4.5 15t13.5 10.5q19 8 42 14t47 11t48 9t44 8q66 13 132 22t132 23q14 3 23.5 8.5
t18.5 19.5q48 79 88.5 143t83.5 121.5t91.5 112.5t112.5 116z" />
    <glyph glyph-name="J" unicode="J" horiz-adv-x="1150" 
d="M1027 601q-68 -2 -150 -8t-172 -16.5t-185 -24.5t-188 -31q-77 -14 -155 -31t-156 -24q-20 -3 -34.5 2.5t-22 13.5t-6 15.5t15.5 9.5q39 11 80 18t81 13q119 19 236.5 39.5t236.5 34.5q23 3 69.5 8t104 11t120 11t117.5 8t96.5 2.5t57.5 -6.5q15 -6 25 -18t13 -27
t-0.5 -31.5t-14.5 -31.5q-46 -62 -127 -128.5t-182.5 -128.5t-215 -116t-223.5 -91t-208.5 -53t-169.5 -3q-31 6 -54.5 19t-37.5 52q-10 27 -3.5 50.5t22.5 43t39 34.5t46 24q18 7 42.5 15.5t50 16t50 13.5t42.5 8q12 1 18.5 -5t7.5 -15t-4 -18t-15 -12q-18 -5 -42.5 -10.5
t-52 -12.5t-55 -17.5t-50.5 -25.5q-39 -25 -48 -43.5t1 -30.5t34.5 -19t52.5 -10t54.5 -2.5t41.5 3.5q127 23 252 67t236.5 99.5t205.5 118t159 124.5q47 44 57.5 68t-1 35t-38 12.5t-54.5 0.5z" />
    <glyph glyph-name="K" unicode="K" horiz-adv-x="1480" 
d="M1152 511q-20 -5 -40 -8.5t-38 -8.5q-70 -17 -139.5 -34.5t-139.5 -35.5l-338 -87q-5 -1 -14.5 -3t-19 -5t-16 -8.5t-5.5 -12.5q1 -9 8.5 -11t17 -1t19 3.5t14.5 3.5q56 8 126 15.5t147 13.5t158 10t158 4.5t146.5 -3t124.5 -12.5q10 -2 22.5 -7.5t22.5 -14.5t15.5 -20
t1.5 -24q-118 21 -245 25.5t-256 -2t-258 -21.5t-250 -33q-16 -2 -26.5 -8.5t-18.5 -20.5t-22.5 -39t-27 -52t-19.5 -51.5t1 -37.5q4 -7 3 -11t-5 -5.5t-9.5 -0.5t-9.5 5q-20 19 -20 46t9.5 56.5t24 57t23.5 48.5q-76 -11 -153.5 -26t-154.5 -21q-29 -3 -40 23
q-5 12 -4.5 21.5t13.5 17.5q8 4 35.5 13.5t65.5 21.5t81.5 25t83.5 25t71.5 21l45.5 13q26 8 40.5 18t29.5 32q17 25 45 62.5t60 75t64.5 69t58.5 45.5q19 10 33 -7q15 -18 -1 -36q-11 -13 -25 -23.5t-25 -23.5q-14 -15 -33.5 -36t-39 -43.5t-35.5 -45.5t-22 -41
q45 11 90 19.5t90 19.5q118 28 235.5 57t236.5 55q27 6 50 3.5t32 -9.5t-2 -17t-51 -18z" />
    <glyph glyph-name="L" unicode="L" horiz-adv-x="833" 
d="M1331 72q-77 10 -154 11.5t-154 -2t-154.5 -11.5t-153.5 -15q-156 -16 -307.5 -45.5t-305.5 -57.5q-20 -3 -40 -5.5t-39 -0.5t-36.5 9.5t-32.5 24.5q-14 15 -15 24t7 27q4 11 24 37.5t49.5 63.5t67 81t77.5 90.5t79.5 91.5t73.5 83t60.5 67t39.5 43q7 8 21 25t29.5 32.5
t31.5 23t27 -3.5t9.5 -20.5t-9.5 -20.5q-13 -20 -29.5 -39t-34.5 -37t-36.5 -35t-34.5 -35q-44 -47 -95 -102t-101.5 -113t-96 -116.5t-77.5 -113.5q-9 -16 6.5 -21.5t44.5 -4.5t67 7t74.5 13.5t66 14t42.5 9.5q58 11 135 23t162.5 22.5t176 18.5t175.5 11.5t160.5 0.5
t131.5 -14q26 -5 38.5 -12.5t29.5 -28.5z" />
    <glyph glyph-name="M" unicode="M" horiz-adv-x="1359" 
d="M833 600q-146 -103 -290 -223.5t-284 -241.5q-56 -48 -108.5 -98.5t-109.5 -96.5q-5 -4 -15 -10.5t-21.5 -13t-22 -11.5t-15.5 -6t-13 3.5t-13 6.5q4 7 24 26t47.5 44.5t60 54t62.5 55t54 47t35 30.5q104 94 208.5 185.5t213.5 179.5q52 42 105 81t106 81q9 8 16.5 15
t18.5 12q21 2 37 -8t9 -35q-2 -10 -13.5 -27t-16.5 -27q-15 -26 -36.5 -62t-45.5 -76t-48 -83t-44.5 -84t-35.5 -77t-20 -63q-5 -24 3 -29.5t30 3.5q26 11 68.5 39t93.5 65.5t107 80.5t108 84t96.5 76t73.5 56q17 13 29 14.5t30 -11.5q12 -9 15.5 -17t-3.5 -22
q-12 -25 -36 -66t-48.5 -89.5t-43.5 -99.5t-21 -96.5t18 -81.5t75 -53q8 -3 13 -4t12 -8l10 -12q-53 -8 -91 8t-61.5 48t-33 77t-5.5 94t20.5 98.5t46.5 91.5q-27 -17 -65.5 -47.5t-83 -66t-92 -72t-92 -66t-84 -48.5t-66.5 -19q-35 0 -52.5 15t-22 37.5t0.5 49.5t14 50
q35 92 85 178.5t107 164.5z" />
    <glyph glyph-name="N" unicode="N" horiz-adv-x="1182" 
d="M377 521q-42 -45 -87 -100t-90 -112.5t-88.5 -115t-83.5 -107.5q-14 -17 -29 -37t-31 -34q-11 -9 -21 -10t-20 10t-9.5 18.5t8.5 19.5q15 23 38.5 54.5t49 64t50 63.5t42.5 52q73 93 147.5 181.5t155.5 163.5q12 11 22 12.5t22 -12.5q14 -17 14.5 -35.5t-5.5 -39.5
q-22 -75 -47.5 -146.5t-42.5 -152.5q-16 -78 -7.5 -120t35.5 -56t68 -5.5t91 30.5q74 32 153.5 85t157 114t149.5 123t132 112q8 7 18 17.5t20 17t19.5 3.5t15.5 -23q5 -18 -5 -31.5t-19 -22.5q-47 -46 -104.5 -98t-121 -103.5t-131 -100t-134 -87t-130.5 -65t-120 -33.5
q-27 -5 -49.5 7.5t-45.5 35.5q-27 29 -37 65.5t-10 77.5t8.5 84t18.5 85t20 80.5t13 70.5z" />
    <glyph glyph-name="O" unicode="O" horiz-adv-x="972" 
d="M13 299q2 10 6 15t12 11q51 35 92 77t86 84q40 38 86.5 69t93.5 60q31 20 77 38t100 31t111.5 19t111 3t99 -16.5t75.5 -39.5q29 -25 35 -50.5t-11 -60.5q-19 -36 -51 -75t-71.5 -78t-84.5 -76.5t-90 -71.5t-87.5 -62.5t-77.5 -49.5q-74 -45 -152.5 -80.5t-163.5 -49.5
q-52 -9 -86.5 -1t-54.5 28t-28 49.5t-7 63t8 68.5t17 67q2 7 0.5 9.5t-7 4t-15.5 4t-23 10.5zM471 585q23 0 53.5 1t57.5 -3.5t46 -16.5t19 -36q-26 3 -61.5 2t-74.5 -6.5t-79.5 -14.5t-77.5 -21.5t-67.5 -28t-50.5 -33.5q-39 -36 -71.5 -81.5t-53 -92t-28.5 -89.5t1 -74
t37 -46t78 -4q56 13 122.5 39t136.5 62.5t139 81.5t129 94.5t107.5 102t75.5 104.5q15 27 17.5 53t-8.5 45.5t-37 31.5t-68 12q-37 -1 -81.5 -4.5t-90.5 -12.5t-90 -25t-80 -40z" />
    <glyph glyph-name="P" unicode="P" horiz-adv-x="1547" 
d="M275 475q-18 -6 -46 -15.5t-57 -21t-54.5 -24t-38.5 -24.5q-12 -11 -9 -17.5t7.5 -11t6 -7.5t-13.5 -5q-14 -2 -28 0t-23 9t-10 18t13 27q16 18 52 37t78 36.5t83 31.5t65 23q30 11 46.5 22t28.5 22t24 23.5t35 26.5q8 5 17.5 8t18.5 1q19 -5 20.5 -14t-1 -18t-2.5 -15
t17 -4q54 5 107 15t106 18q76 12 153 21.5t154 14t154.5 3.5t154.5 -11q92 -11 146.5 -39t62 -63t-36.5 -71t-149 -63q-53 -14 -103.5 -23.5t-87.5 -14.5q-154 -23 -307.5 -32.5t-308.5 -17.5q-74 -4 -147.5 -7t-146.5 -11q-20 -2 -30.5 -8.5t-22.5 -21.5
q-48 -59 -94.5 -128.5t-71.5 -141.5q-10 -12 -17.5 -8.5t-12.5 13.5t-7 22.5t0 19.5q5 23 20.5 52t35 58.5t39 58t31.5 49.5q9 14 8 19.5t-6.5 7.5t-13 3.5t-12.5 8.5q-5 8 2 11.5t13 5.5q20 6 33 10.5t23.5 11t20 17.5t22.5 29q15 21 32.5 40.5t27.5 43.5zM1155 615
q-101 -2 -205 -14t-204 -24q-76 -9 -151.5 -24.5t-150.5 -31.5q-18 -4 -29.5 -7.5t-25.5 -16.5q-11 -9 -28.5 -28t-36.5 -40.5t-35 -41.5t-22 -32q-5 -9 1.5 -13.5t20 -5.5t31 0t34.5 3t30 4t18 3q103 9 202 15.5t194 13.5t187.5 17t183.5 25q110 19 178 42t97.5 46t23 43.5
t-45 36.5t-106.5 24t-161 6z" />
    <glyph glyph-name="Q" unicode="Q" horiz-adv-x="1548" 
d="M1047 277q-39 0 -84 -0.5t-92 -1.5t-92 -1t-84 1q-29 1 -57.5 3.5t-57.5 8.5q-27 6 -52.5 18t-39 30t-9.5 40t35 47q27 22 59.5 38.5t64.5 29.5q84 33 181.5 60.5t198.5 42.5t200.5 13t188.5 -28q28 -8 50 -23t31.5 -34.5t4.5 -42.5t-30 -48q-30 -30 -68.5 -54t-75.5 -45
q34 -5 64 -4t59.5 1t58.5 -5.5t61 -24.5q8 -9 2 -15.5t-16 -6.5q-82 0 -163.5 -0.5t-163.5 -0.5q-17 0 -32.5 -5.5t-30.5 -11.5q-37 -15 -99 -39.5t-140 -52.5t-167 -56.5t-179.5 -52t-177.5 -39t-161.5 -17t-131 14t-86.5 54.5q-20 27 -25.5 56.5t11.5 60.5q31 56 93 111
t141.5 106t170 95.5t180 79.5t171.5 58.5t144 33.5q16 2 34 1t31.5 -8t18.5 -20.5t-5 -35.5q-27 25 -50.5 25t-56.5 -10q-161 -47 -314 -113t-293 -159q-12 -8 -41 -29t-62.5 -48.5t-64.5 -58.5t-47.5 -60.5t-12 -53t41.5 -36.5q42 -14 85.5 -14t85.5 5q207 24 406.5 79
t388.5 142zM732 327q80 -1 154.5 -2t135.5 -0.5t104 3.5t60 10q9 4 36.5 17t61.5 31t68.5 39.5t59 41t32.5 36t-11 25.5q-53 25 -117 31.5t-130.5 2t-131.5 -16t-119 -22.5q-23 -5 -58 -13.5t-74 -19.5t-80 -25t-77.5 -29.5t-65.5 -32.5t-44 -34q-10 -11 -9 -16t15 -11
q9 -4 28.5 -7t45 -4.5t56 -2.5t60.5 -1z" />
    <glyph glyph-name="R" unicode="R" horiz-adv-x="1470" 
d="M347 531q-15 -1 -41.5 -8t-56.5 -16.5t-61.5 -20.5t-57 -21t-41.5 -18t-17 -11q-1 -5 0.5 -10t2 -9t-2 -6t-10.5 0q-11 2 -21.5 13t-15.5 20q-7 14 10 29t48 30.5t71 29.5t77.5 26t67.5 20t43 11q194 48 395 69t400 13q57 -2 115 -10t114 -21q25 -6 46 -18.5t32 -36.5
q12 -26 9.5 -42.5t-25.5 -34.5q-38 -30 -98.5 -55t-127.5 -45t-132.5 -35.5t-113.5 -26.5q-26 -6 -53 -12t-52 -17q112 -8 226 -21t223 -46q23 -7 40.5 -20t25.5 -36q10 -13 4.5 -26t-21.5 -15q-14 -2 -15 4t-2.5 16t-10 21t-36.5 19q-57 16 -140 27t-178.5 16.5t-197.5 7
t-198 -2t-180.5 -10.5t-143.5 -18q-20 -4 -28 -10.5t-18 -23.5q-35 -59 -63 -119.5t-59 -120.5q-7 3 -16 8t-12 13q-5 11 4 40t23 61.5t28.5 62.5t19.5 43q8 21 6.5 23.5t-24.5 2.5q-6 0 -20 -1t-28.5 -1.5t-27 0.5t-16.5 4q-7 6 -13.5 19t-9.5 21q19 14 49.5 19.5t62 9.5
t58 9.5t38.5 19.5q21 25 38.5 52.5t35 55.5t35 55.5t37.5 53.5zM278 312q22 -6 69.5 -3t108 11t128.5 19.5t131.5 23t115 21.5t80.5 16q30 6 70.5 14.5t85.5 19.5t92 24.5t89.5 29t78 32.5t57.5 36q17 14 15.5 18t-22.5 12q-44 16 -110.5 24t-144.5 9.5t-162.5 -1.5t-164 -9
t-148.5 -14.5t-116 -17.5q-43 -8 -69.5 -25.5t-54.5 -50.5q-12 -14 -31.5 -39.5t-39.5 -53.5t-36.5 -54t-21.5 -42z" />
    <glyph glyph-name="S" unicode="S" horiz-adv-x="1348" 
d="M407 216q-69 2 -142 5.5t-141 14.5q-35 6 -67.5 22.5t-50 40.5t-14.5 54t39 62q48 42 118.5 75.5t153.5 59t173 43t178 28t168.5 15t143.5 3.5q22 0 49 -1t54 -4t53 -9t46 -16q38 -19 38.5 -51t-31.5 -57q-7 -10 -29 -22.5t-52 -25.5t-64.5 -25.5t-66.5 -21.5t-57 -13.5
t-37 -1.5q-5 2 -8.5 7.5t-5.5 9.5q10 8 40.5 20.5t66 26t69 26t50.5 20.5q18 8 33 19.5t31 23.5q4 3 9 6.5t3 10.5t-16.5 11.5t-32 7.5t-34 4.5t-23.5 1.5q-220 8 -440 -26t-423 -122q-67 -28 -100 -55t-31.5 -48.5t38 -36t108.5 -17.5q126 -6 251 -8t251 -6
q66 -2 129.5 -8.5t129.5 -11.5q26 -2 53 -1t53 9q46 13 95.5 24t91 17.5t70 9.5t32.5 2q13 -4 9 -15t-14 -12q-22 -2 -56.5 -7t-71.5 -12t-71 -16t-55 -19q9 -8 19 -14t21 -13q5 -5 11.5 -7.5t11.5 -7.5q38 -35 36 -72.5t-47 -63.5q-42 -25 -104 -42t-130 -24.5t-133 -5.5
t-113 15q-13 3 -27 10t-15 23q-2 31 26 59.5t70 51.5t88.5 40.5t80.5 27.5q-58 5 -120.5 7t-126 2t-125 0.5t-116.5 2.5zM693 54q46 -5 106.5 -6t122 5.5t118 22t95.5 42.5q14 10 13.5 16t-15.5 16q-38 24 -82.5 29.5t-90.5 -2t-90 -24t-80.5 -35t-62 -36.5t-34.5 -28z" />
    <glyph glyph-name="T" unicode="T" horiz-adv-x="623" 
d="M623 605q-39 -5 -77.5 -8t-76.5 -9q-125 -19 -249 -43t-249 -38q-9 -1 -20 -1t-20.5 3t-15.5 9.5t-6 18.5q7 6 27.5 12t45 11.5t47 10t33.5 6.5q84 17 192 34t227 32t244 26.5t243.5 16t225.5 1t190 -17.5q34 -6 51.5 -26.5t2.5 -57.5q-9 18 -22 27.5t-29 14t-33.5 6
t-36.5 2.5q-75 5 -152.5 4.5t-154.5 -4.5q-72 -3 -142 -10t-142 -12q-7 0 -14 -1t-11.5 -3.5t-5.5 -8t4 -15.5q-8 -14 -22.5 -22.5t-25.5 -19.5q-40 -41 -82 -92.5t-81 -107t-73.5 -111.5t-60.5 -105q-10 -19 -16.5 -32.5t-10 -26t-5.5 -26.5t-4 -34q0 -12 -10 -12t-16 6
q-11 9 -13.5 24.5t-0.5 27.5q4 31 23 74.5t46.5 92.5t61.5 100.5t68 98t65.5 85t55.5 61.5q15 13 24 25z" />
    <glyph glyph-name="U" unicode="U" horiz-adv-x="1427" 
d="M1239 434q-82 -26 -163 -57.5t-161 -65t-160.5 -67.5t-161.5 -64q-90 -34 -181 -64.5t-183 -58.5q-20 -6 -45 -10.5t-50.5 -5t-49.5 4.5t-42 17q-43 30 -47.5 68.5t15.5 82.5q23 51 55.5 95t71.5 82.5t83 72.5t90 65q6 5 19.5 10.5t20.5 7.5q22 4 29 -11.5t2.5 -33.5
t-19.5 -30t-36 0q-21 -6 -57 -36.5t-75 -72t-75 -88.5t-56.5 -87t-19 -66.5t36.5 -26.5q54 -1 124 14.5t150.5 41t168.5 60t178.5 71.5t180.5 74.5t174 70.5t160 59t138 39q17 4 26.5 -2.5t17.5 -22.5q7 -14 3 -22.5t-15 -16.5q-21 -17 -55.5 -48t-73 -70t-75 -82t-62 -84
t-35 -75.5t7.5 -56.5q-8 -8 -12 -8t-7 2q-27 19 -28.5 51t12.5 70.5t39 80t52.5 79t52 68t37.5 46.5z" />
    <glyph glyph-name="V" unicode="V" horiz-adv-x="868" 
d="M81 478q-7 -29 -14 -66.5t-12.5 -77.5t-9 -81t-3.5 -78q0 -44 12 -50.5t50 13.5q27 14 54.5 30.5t53.5 32.5q70 42 139 83.5t139 80.5t142 75.5t147 67.5q128 53 263 94.5t272 64.5q13 2 38.5 4.5t53 3.5t51.5 -1.5t35 -9.5q2 -2 4.5 -9t4.5 -10q-4 -1 -7.5 -2.5
t-8.5 -1.5q-101 -8 -196 -29t-187.5 -50.5t-183 -66.5t-181.5 -77q-128 -57 -251 -125.5t-241 -143.5q-26 -17 -51.5 -31.5t-53.5 -27.5q-56 -25 -87.5 -11t-45 52.5t-13 92.5t8.5 109t19.5 101.5t19.5 70.5q3 9 11 12t20 -6q11 -8 11.5 -14.5t-3.5 -18.5z" />
    <glyph glyph-name="W" unicode="W" horiz-adv-x="1768" 
d="M684 387q-32 -17 -81 -47t-105.5 -66t-116 -73.5t-113.5 -70t-98 -56t-69 -30.5q-30 -8 -55.5 -3t-43 21t-24.5 41t-1 56q4 21 21.5 59.5t42.5 84.5t55 94.5t60 90t57 70.5t45 36q8 3 17.5 1t16.5 -7q6 -5 4.5 -12.5t-6 -16t-10 -15.5t-8.5 -10q-18 -21 -41.5 -53
t-49.5 -69.5t-51 -79t-46 -81t-35.5 -75t-18.5 -61.5q-3 -17 7.5 -21t25 -1t29.5 10t23 11q78 42 154.5 87.5t152.5 91.5l152 92t154 88q18 10 31.5 10t20 -7.5t6.5 -21.5t-7 -32q-8 -20 -21 -39t-21 -40q-9 -25 -12 -50t2 -47.5t19.5 -41t40.5 -30.5q39 -18 77.5 -24
t81.5 -4q92 5 188.5 27.5t187.5 62t172 94.5t143 126q18 21 20 31.5t-2.5 16.5t-11.5 12t-7 18q6 13 23 10.5t32 -15t22 -34t-6 -46.5q-15 -30 -37 -55.5t-48 -47.5q-55 -47 -110.5 -84t-114.5 -66.5t-122.5 -51t-133.5 -37.5q-53 -12 -112 -16.5t-115.5 2t-105.5 26
t-82 54.5t-46 87.5t4 126.5z" />
    <glyph glyph-name="X" unicode="X" horiz-adv-x="923" 
d="M525 398q12 -5 40.5 -24t63 -44t70 -53t62 -51t38.5 -38.5t-1 -15.5q-4 0 -24 12t-49 31t-63 41t-65 42t-55 35.5t-34 21.5q-21 13 -38.5 21.5t-39.5 -1.5q-44 -20 -78 -36.5t-62.5 -32t-53 -31t-49.5 -32.5q-10 -7 -32 -21.5t-50 -34t-58.5 -42t-56.5 -45t-45 -44
t-24 -38.5q-3 -11 -5 -18t-5.5 -10t-10 -0.5t-19.5 10.5q-23 16 -16 40.5t34 54.5t70.5 63t92.5 66t100 64t94.5 56t74 42t38.5 23q17 11 17.5 14.5t-14.5 14.5q-11 9 -36.5 24.5t-55 33t-56.5 36t-42 33.5q-12 12 -8.5 21t14 14t22 5.5t14.5 -2.5q37 -41 86 -76t97 -64
q20 -13 33.5 -14t36.5 6q56 16 120.5 38t131 45t131.5 43.5t121.5 33t101 13.5t71.5 -15q10 -6 23.5 -15t24 -20t16.5 -23.5t2 -25.5q-5 -14 -11.5 -16t-14.5 4t-17.5 16.5t-20.5 21t-22.5 18.5t-24.5 8q-29 0 -77.5 -9t-105 -24t-117.5 -34t-116 -39.5t-99.5 -40.5
t-68.5 -36z" />
    <glyph glyph-name="Y" unicode="Y" horiz-adv-x="1202" 
d="M41 518q35 20 92.5 5.5t125.5 -48.5t139 -80.5t133 -91.5t108.5 -80.5t65.5 -46.5q26 -17 45.5 -18t48.5 11q99 42 170 119t99 181l7 28l-2 11q-9 1 -29.5 -10.5t-48.5 -29.5t-61.5 -38.5t-69.5 -35.5t-72.5 -21t-70.5 5q-57 18 -74 58t0 95q3 9 8 23.5t12 29.5t14 28.5
t13 19.5q14 16 30 15t27 -21q2 -5 -0.5 -12t-5.5 -11q-9 -12 -20 -32t-20 -42.5t-13.5 -44t-1 -38t17.5 -24t43 -0.5q40 9 83 27.5t85 42.5t80.5 50.5t71.5 51.5q14 11 24.5 18.5t30.5 -2.5q17 -9 24 -26.5t5 -35.5q-14 -139 -82.5 -248.5t-192.5 -175.5q-18 -10 -28 -16
t-10.5 -11.5t8 -13t26.5 -19.5q30 -20 61 -38.5t54 -46.5q-41 8 -71 25.5t-63 42.5q-17 13 -31 19.5t-28.5 9t-30 0t-35.5 -7.5q-54 -13 -117.5 -12.5t-130 13.5t-132.5 37t-125 57t-107.5 74t-78.5 88q-13 19 -24 46.5t-14 55t4.5 52.5t33.5 39zM709 137
q-60 40 -118.5 83.5t-118 85.5t-120.5 80.5t-126 70.5q-24 12 -53.5 21.5t-55 8t-43 -18.5t-16.5 -58q1 -43 22 -79t55 -66t77.5 -54t89 -42t89 -29.5t77.5 -17.5q60 -10 121 -7.5t120 22.5z" />
    <glyph glyph-name="Z" unicode="Z" horiz-adv-x="1182" 
d="M719 250q25 13 53 30.5t54.5 37.5t48.5 41.5t34 42.5q-16 2 -33 1.5t-33 1.5t-30.5 9t-24.5 23q5 10 20.5 13.5t35.5 4.5t41.5 1t39.5 2t30.5 8.5t13.5 21.5t-13 26.5t-33 20t-38 14t-29 7.5q-60 14 -133.5 14.5t-149 -7.5t-147 -23.5t-127.5 -33.5q-20 -7 -35 -13.5
t-37 -4.5q-1 7 -2 18.5t3 17.5q5 9 20 16t24 10q66 21 148.5 36.5t169 22t170 3t150.5 -19.5q40 -10 62.5 -33t36.5 -61q10 -26 28.5 -31.5t40.5 -5.5t45.5 -3.5t43.5 -25.5q-17 -5 -27 -8.5t-28 -1.5q-28 2 -49.5 0t-39.5 -10.5t-34 -23t-32 -37.5q-14 -19 -30.5 -34
t-34.5 -29t-35.5 -28.5t-32.5 -31.5q18 -9 43 -17t53 -16t56.5 -17t53.5 -20.5t43.5 -26t26.5 -34.5q-10 -3 -22.5 0t-26 8.5t-26 12t-22.5 9.5q-47 16 -96.5 26.5t-97.5 19.5q-32 6 -61.5 0.5t-58.5 -19.5q-52 -26 -101 -48t-99 -40t-102.5 -31t-110.5 -21
q-33 -5 -77.5 -5.5t-88.5 7.5t-80 27t-52 54q-11 23 -10 40t24 33q39 28 105 44t157.5 24t208 10t256.5 2zM622 198q-22 7 -69.5 8t-107.5 -2.5t-126 -11t-124 -18t-102.5 -23t-61.5 -25.5q-14 -11 -12 -19.5t13.5 -15t29 -11t35 -7t32 -4t20.5 -1.5q56 -3 117 7t122.5 28
t121 43t112.5 52z" />
    <glyph glyph-name="bracketleft" unicode="[" horiz-adv-x="406" 
d="M551 740q-18 -13 -37.5 -17.5t-39 -5t-38.5 -0.5t-36.5 -5t-32.5 -17t-27 -36q-72 -150 -151.5 -295.5t-154.5 -294.5q-4 -8 -9.5 -18.5t-7.5 -19.5t2.5 -15t19.5 -4q15 1 46 6t69 11t79.5 12.5t77.5 11.5t62.5 7.5t34.5 0.5q8 -19 5 -27t-10 -10q-20 -7 -47 -12.5
t-56.5 -10.5t-58 -9t-50.5 -8q-14 -3 -40.5 -7.5t-55 -8.5t-54 -4.5t-36.5 5.5q-28 14 -37 37t2 52q11 26 24 51.5t27 50.5q69 128 137.5 254t134.5 255q10 19 9 34t-1.5 26.5t4.5 18t26 8.5q36 3 77 7t74.5 5t53.5 -4.5t15 -23.5z" />
    <glyph glyph-name="backslash" unicode="\" horiz-adv-x="375" 
d="M-23 742q-3 9 0 14t8.5 7.5t11.5 2t8 -2.5q4 -3 17 -35.5t32 -83.5t42.5 -115.5t47.5 -132.5t46.5 -134t41 -120.5t30 -91.5t13.5 -47q2 -14 -5 -19.5t-17 -0.5q-6 2 -10.5 10t-9.5 19q-2 4 -12.5 33t-26.5 75t-36.5 104t-42.5 120t-43.5 124t-40 116t-33 95.5
t-21.5 62.5z" />
    <glyph glyph-name="bracketright" unicode="]" horiz-adv-x="387" 
d="M428 778q22 -3 37.5 -13t22 -25t5 -33.5t-12.5 -37.5q-42 -74 -92.5 -142t-102 -135.5t-101 -136.5t-89.5 -144q-14 -25 -19.5 -49t-13.5 -50q-5 -17 -14 -26t-27 -11q-48 -7 -98.5 -7.5t-98.5 -10.5q-11 -2 -20 2.5t-13.5 12t-2.5 15.5t14 14q9 5 35.5 10t57 9.5
t58.5 7.5t39 3q17 0 24 5t11 22q6 26 13 47.5t16.5 40.5t21.5 38t28 40q41 56 84.5 113.5t86 115.5t83.5 117t77 118q12 20 10.5 29t-27.5 9q-38 0 -76.5 -3t-77.5 -7t-77 -8t-75 -4q-8 0 -24 4t-27.5 10.5t-13 14t19.5 15.5q16 6 33 8l34 4q79 9 151.5 17.5t140.5 0.5z" />
    <glyph glyph-name="asciicircum" unicode="^" horiz-adv-x="402" 
d="M321 564q-11 15 -12 39.5t-0.5 46t-2 34t-16.5 3.5q-24 -15 -44.5 -34t-40 -39.5t-40 -40t-43.5 -34.5q-5 -3 -12.5 -3.5t-13 2.5t-6.5 10t7 19q7 10 27 31t46.5 45t56.5 48.5t58 41t50.5 22.5t33.5 -5q9 -9 9.5 -22.5t-1.5 -29t-5 -30.5t-3 -26q1 -5 4 -23.5t7 -35.5
q4 -16 -2 -24.5t-16.5 -10.5t-22 2.5t-18.5 13.5z" />
    <glyph glyph-name="underscore" unicode="_" horiz-adv-x="395" 
d="M-9 173q60 1 99.5 2.5t66 2.5t42.5 1t28 -1q15 -1 27 -3t20 -8q10 -10 6.5 -20.5t-21.5 -14.5q-27 -5 -69.5 -8t-85.5 -4t-78.5 1t-46.5 8q-5 2 -8 9.5t-2.5 15t5.5 13.5t17 6z" />
    <glyph glyph-name="grave" unicode="`" horiz-adv-x="276" 
d="M208 640q-17 -4 -36.5 1t-39 15t-37.5 22t-32 23q-6 5 -6 13.5t4.5 15t12 10t16.5 -2.5q8 -6 26 -19t37.5 -28t35 -29t19.5 -21z" />
    <glyph glyph-name="a" unicode="a" horiz-adv-x="580" 
d="M-24 276q8 17 24 34q20 22 47 41.5t57 35t60 27.5t56 19q44 13 72 -4.5t42 -60.5q5 -17 -2 -33.5t-9 -32.5q-5 -32 8 -46.5t36.5 -16.5t54.5 5t60.5 18t55 22.5t38.5 18.5q12 4 17 -9q3 -11 -11.5 -23.5t-39.5 -24.5t-56 -23.5t-61 -20t-55 -13.5t-37 -4q-14 1 -25 9.5
t-20.5 20t-16.5 24.5t-13 24q-8 16 -13 17t-19 -7q-27 -15 -47.5 -26.5t-39.5 -20.5t-39 -16.5t-46 -14.5q-14 -5 -31 1t-30 18t-19 28.5t2 33.5zM41 251q15 4 38.5 12.5t49.5 20.5t52.5 26t46.5 29q32 26 25 34t-38 -5q-49 -20 -93 -49.5t-81 -67.5z" />
    <glyph glyph-name="b" unicode="b" horiz-adv-x="494" 
d="M83 321q27 15 64 36t77.5 37t80 20.5t69.5 -13.5q25 -15 27 -35t-12 -43q-21 -33 -55 -56.5t-73.5 -36t-81.5 -14.5t-78 9q-20 6 -31 3.5t-25 -18.5q-18 -20 -37 -40.5t-38 -40.5q-10 -11 -18.5 -15t-22.5 5q-13 8 -17 17.5t-2 20t7.5 21t11.5 20.5q88 151 192.5 296.5
t224.5 272.5q7 7 21.5 22.5t31 28t32.5 18t25 -6.5q7 -10 7 -21t-5.5 -21t-16 -17t-23.5 -10q-9 -2 -14.5 -8t-10.5 -12q-36 -41 -81 -93.5t-88.5 -109t-81 -112.5t-59.5 -104zM350 378q-12 3 -32 -1t-42 -11.5t-42 -16t-32 -14.5q-23 -11 -43 -27t-40 -31l-7 -13
q21 -11 54.5 -4.5t68 22t64.5 36t43 37.5q3 5 4 11.5t4 11.5z" />
    <glyph glyph-name="c" unicode="c" horiz-adv-x="468" 
d="M20 183q-33 17 -39.5 45.5t1.5 53.5q9 30 32.5 58t54.5 48t67 29t71 1q21 -5 35.5 -18.5t16.5 -36.5q1 -8 -4 -19.5t-13 -22t-18.5 -18t-20.5 -7.5q-6 -1 -14 3.5t-13 9.5q-3 12 7 24.5t17 19.5q4 6 2 9.5t-7 5t-11 1.5h-10q-23 -2 -44.5 -11.5t-39.5 -23.5t-30.5 -32
t-17.5 -37q-5 -18 9 -27.5t35 -8.5q49 1 101 8.5t100.5 18t91.5 22.5t74 22q12 6 21 4t11.5 -8.5t-2 -14.5t-19.5 -13q-47 -15 -89 -26.5t-84 -22t-86.5 -21t-96.5 -23.5q-26 -6 -45 -5.5t-43 13.5z" />
    <glyph glyph-name="d" unicode="d" horiz-adv-x="651" 
d="M244 303q-26 -10 -52 -26l-52 -32t-51.5 -30t-51.5 -20q-20 -5 -34 2.5t-22 20.5q-20 32 -3.5 69.5t50 70t72.5 56.5t64 29q36 7 57 -1t48 -29q12 -9 18.5 -13t11.5 -3t9 7.5t12 17.5q23 34 52.5 75t61 82.5t64 79.5t61.5 66q6 5 13 11.5t14.5 11t15 4.5t15.5 -8
q9 -10 7 -17.5t-10 -16.5q-84 -93 -153 -191t-137 -201q-38 -57 -37.5 -86t25.5 -38t68.5 -1t92 25.5t96 41t80.5 45.5q6 4 12 3t9 -5.5t2.5 -11t-8.5 -14.5q-15 -15 -59 -38.5t-98.5 -46t-110.5 -39.5t-95 -20q-34 -2 -51 8t-23.5 28t-4.5 43t5 54q2 11 7.5 19.5t9.5 17.5z
M93 268q38 18 77 42.5t73 51.5q12 10 10 17.5t-11.5 12t-23 5.5t-23.5 -3q-41 -14 -76.5 -39.5t-56.5 -51.5q-16 -20 -19.5 -31t2 -14.5t18.5 -0.5t30 11z" />
    <glyph glyph-name="e" unicode="e" horiz-adv-x="467" 
d="M20 183q-33 17 -39.5 45.5t1.5 53.5q9 30 32.5 60t55 52t67.5 32.5t71 2.5q21 -5 38 -20.5t19 -38.5q3 -35 -19 -52t-56.5 -24.5t-74.5 -11t-72 -12.5q0 -2 -0.5 -3t-0.5 -2q-5 -18 9 -27.5t35 -8.5q49 1 101 8.5t100.5 18t91.5 22.5t74 22q12 6 21 4t11.5 -8.5t-2 -14.5
t-19.5 -13q-47 -15 -89 -26.5t-84 -22t-86.5 -21t-96.5 -23.5q-26 -6 -45 -5.5t-43 13.5zM200 353q4 6 2 9.5t-7 5t-11 1.5h-10q-31 -3 -60 -19.5t-48 -39.5q16 6 38 12.5t42.5 12.5t35.5 10.5t18 7.5z" />
    <glyph glyph-name="f" unicode="f" horiz-adv-x="568" 
d="M-23 290q-11 8 -11 15.5t13 12.5q31 9 61 10.5t57.5 6t52.5 15.5t46 39q58 75 133.5 137.5t162.5 97.5q17 7 34 2t31 -16q18 -14 22.5 -28t-9.5 -34q-23 -36 -50 -67.5t-52 -66.5q-3 -4 -5.5 -7t-7.5 -3q-22 0 -25.5 8t2 19.5t15.5 23t16 18.5q19 24 33 47t15.5 36
t-14 12.5t-57.5 -22.5q-61 -32 -116.5 -89t-109.5 -119q20 -1 48 0.5t57.5 3t58 1.5t49.5 -4t32 -12.5t7 -24.5q-4 -2 -21.5 -3t-41.5 -1h-52h-53h-44.5t-26.5 -1q-16 -2 -24.5 -3.5t-12.5 -6t-4 -13t2 -23.5q3 -31 -5.5 -62.5t-24.5 -60t-37.5 -52.5t-43.5 -42
q-16 -13 -32.5 -18t-33.5 6q-14 9 -15.5 23t3 29t12 29.5t12.5 25.5q17 35 37.5 71t40.5 71q-9 1 -27.5 2.5t-38 4t-36 5.5t-22.5 7zM59 96q22 4 40.5 26t31 47.5t16.5 48t-3 28.5z" />
    <glyph glyph-name="g" unicode="g" horiz-adv-x="487" 
d="M260 273q-16 -8 -36 -20t-41 -25t-41 -25t-36 -20q-19 -9 -36 -14.5t-32.5 -3t-31 13t-32.5 33.5q-15 19 -7 46.5t31 55.5t57 54t72 43t75.5 22t67.5 -9q17 -8 25 -18.5t19 -24.5q7 -10 16 -11.5t19 2t20 8.5t20 7t20 -0.5t19 -15.5q0 -14 -7 -24q-16 -21 -36.5 -38
t-37.5 -37q-32 -36 -60.5 -76t-57.5 -79.5t-59.5 -77.5t-66.5 -71q-41 -37 -90.5 -51.5t-95.5 -5t-82.5 43t-50.5 92.5q-4 18 1.5 29t15 14.5t20 -1.5t17.5 -18q8 -16 14 -30.5t17 -28.5q24 -32 51.5 -46t56.5 -12.5t57.5 17.5t52.5 44q50 57 93 118.5t90 121.5q3 4 7.5 9.5
t5 9.5t-4 4.5t-18.5 -5.5zM63 228q17 9 41.5 22t50 26.5t49 26.5t38.5 21q11 8 21 15.5t12 22.5q2 19 -11 25.5t-34.5 3t-49 -15t-55 -28.5t-51.5 -38t-39 -42q-25 -35 -15 -46t43 7z" />
    <glyph glyph-name="h" unicode="h" horiz-adv-x="514" 
d="M415 642q-48 -29 -99 -69t-100 -86t-92 -96t-75 -100q1 2 8.5 6.5t17.5 9t21.5 9.5t20.5 9q27 11 55.5 20t51.5 6.5t36.5 -21t10.5 -62.5q-2 -26 9.5 -35.5t30.5 -7t43 12.5t48.5 22.5t46.5 24.5t36 17q10 4 22 6.5t17 -12.5q4 -14 -6.5 -18.5t-19.5 -8.5
q-42 -21 -81 -46t-82 -43q-18 -8 -38 -9.5t-37 9.5q-23 14 -32 31t-11 34.5t0 32.5t0.5 25t-9 12t-27.5 -6q-29 -12 -52.5 -26.5t-45 -30.5t-43 -34t-46.5 -36q-11 -8 -24.5 -12t-25.5 9q-8 9 -10 18.5t0.5 18.5t8 17.5t11.5 16.5q44 57 92 119.5t101 122t111 110.5t122 85
q17 9 29 5t17 -13t2.5 -20t-13.5 -17z" />
    <glyph glyph-name="i" unicode="i" horiz-adv-x="329" 
d="M26 181q-32 11 -45.5 38.5t3.5 65.5q11 23 25 43t31 40q12 14 23.5 16.5t25.5 -11.5q15 -14 9.5 -21t-15.5 -18q-30 -35 -41 -61q-10 -23 4.5 -31.5t41.5 -6t63 11.5t70 20.5t60.5 22t36.5 14.5q18 8 26 -1t-8 -25q-11 -10 -43.5 -25t-71.5 -29.5t-76 -27t-56 -16.5
q-18 -5 -32 -4.5t-31 5.5zM205 466q-7 -9 -16.5 -16.5l-19 -15t-17 -16.5t-8.5 -21q-2 -4 -7.5 -6t-12 -1.5t-13 4t-10.5 10.5q-8 14 -4.5 30t13 31t22 27.5t24.5 19.5q13 7 24.5 4t19 -11.5t9.5 -19.5t-4 -19z" />
    <glyph glyph-name="j" unicode="j" horiz-adv-x="294" 
d="M-286 62q42 -84 104 -99t134 48q33 28 59.5 63.5t48.5 75t38.5 81.5t30.5 84q3 13 -0.5 16.5t-10 1t-14 -7.5t-13.5 -8q-22 -14 -39 -27t-32 -20q-8 -3 -16.5 0.5t-13.5 11t-5 16.5t9 17q8 7 25 17t36.5 20t37.5 18t29 12q13 5 25 0.5t20.5 -14.5t13 -23t3.5 -25
q-3 -35 -16 -77.5t-35 -86.5t-50.5 -85.5t-62 -74t-70.5 -53t-75 -21.5q-30 -2 -60.5 7t-58.5 24t-51.5 35t-39.5 41q-10 13 -6.5 26t13.5 20t22 5t20 -18zM272 484q-7 -9 -16.5 -16.5l-19 -15t-17 -16.5t-8.5 -21q-2 -4 -7.5 -6t-12 -1.5t-13 4t-10.5 10.5q-8 14 -4.5 30
t13 31t22 27.5t24.5 19.5q13 7 24.5 4t19 -11.5t9.5 -19.5t-4 -19z" />
    <glyph glyph-name="k" unicode="k" horiz-adv-x="639" 
d="M-55 143q5 15 13.5 31t17 32.5t13.5 32.5t4 31q-1 8 -3.5 15.5t-2.5 14.5t4 13t15 11q13 9 22.5 16.5t16.5 15t13 17t14 22.5q28 49 59 96.5t63.5 91t65 82t65.5 68.5q10 9 20.5 6.5t21.5 -9.5q21 -13 5 -27q-11 -10 -33.5 -35t-49 -57.5t-54.5 -68.5t-50.5 -68
t-37 -57.5t-13.5 -36.5q13 0 38 6.5t55.5 14.5t62 14.5t57.5 7t42 -7.5t16 -30q-28 3 -64 -1.5t-74.5 -13.5t-77.5 -22t-72 -27q-4 -2 -7.5 -6t-5 -7.5t1 -6.5t11.5 -3q97 9 195.5 18t196.5 9q21 0 39.5 -13.5t25.5 -34.5q-47 5 -90.5 4.5t-86 -3.5t-84.5 -7.5t-84 -7.5
q-35 -2 -71 -4.5t-72 -6.5q-17 -2 -27.5 -7t-15.5 -21l-49 -122q-5 -11 -17 -10t-23 10q-11 11 -12.5 19t3.5 22z" />
    <glyph glyph-name="l" unicode="l" horiz-adv-x="411" 
d="M311 725q6 5 13 11.5t14.5 11t15 4.5t15.5 -8q9 -10 7 -17.5t-10 -16.5q-42 -47 -81 -89t-76.5 -87t-74.5 -97.5t-75 -119.5q-34 -59 -31 -89t30 -39t71.5 -0.5t94 27t97 43t80.5 46.5q6 4 12 3t9 -5.5t2.5 -11t-8.5 -14.5q-11 -11 -39.5 -27.5t-66 -34t-80 -34
t-82.5 -28.5q-23 -7 -44.5 -12.5t-41 -5.5t-37.5 7t-34 25q-24 25 -20 60t24 81q22 49 59.5 106t81.5 113.5t90 108t85 89.5z" />
    <glyph glyph-name="m" unicode="m" horiz-adv-x="846" 
d="M187 310q-27 -23 -54 -45t-53 -45q-11 -10 -25 -23t-30 -22t-32 -10t-32 13t-15 26.5t9 29.5l16.5 33t25 45.5t30.5 49.5t33 45.5t33 34t30 14.5q11 1 22 -4t17 -12.5t5.5 -17.5t-12.5 -20q-9 -8 -20 -14t-21 -14q-21 -18 -35.5 -41t-28.5 -47q-15 -27 -10.5 -29.5
t29.5 17.5q37 30 75 59l76 58q8 6 16.5 13t17.5 10.5t18.5 2t19.5 -10.5q10 -10 10 -23.5t-5.5 -28t-13 -28t-11.5 -23.5q25 9 48.5 21t46 25.5t45.5 26.5t47 23q40 16 63 14.5t35 -16t15 -40t3 -57.5q0 -22 14 -32.5t36.5 -13t50 1.5t54.5 11t51 15.5t39 14.5q5 2 14.5 7
t14.5 5q17 0 21.5 -9.5t-6.5 -20.5q-5 -6 -21 -14t-39 -17t-50 -17.5t-53 -14.5q-20 -5 -42 -8.5t-43 -3.5t-40.5 6t-34.5 21q-15 16 -19.5 39t-6.5 52q-1 24 -4 34.5t-27 0.5q-55 -23 -103.5 -56t-98.5 -65q-19 -12 -38.5 -12.5t-33.5 9.5t-21 29.5t-2 47.5z" />
    <glyph glyph-name="n" unicode="n" horiz-adv-x="510" 
d="M104 338q15 11 36 22.5t43 20.5t43 13.5t36.5 0.5t23.5 -17.5t4 -40.5q-4 -31 -6.5 -58t4.5 -43.5t27 -20.5t61 12q35 13 64.5 35.5t48.5 38.5q13 11 24 9.5t16 -9t2 -18.5t-17 -18q-9 -5 -23 -12.5t-29.5 -17t-32 -19t-31.5 -17.5q-43 -23 -78.5 -25.5t-59.5 10.5
t-36 40t-9 64q3 23 5 37t-1.5 18.5t-15.5 0t-39 -18.5q-56 -29 -102 -72t-95 -86q-9 -8 -19 -8.5t-17 4.5t-10.5 14t0.5 18q1 2 9 15.5t19.5 32.5t25.5 40.5t27 41.5t23 35t15 21q10 12 22 12t21.5 -6t13.5 -15.5t-3 -17.5q2 3 -2 -3t-7 -12t0 -8t19 7z" />
    <glyph glyph-name="o" unicode="o" horiz-adv-x="384" 
d="M395 303q-7 7 -28 13t-47.5 10.5t-55.5 6t-52 -0.5t-36.5 -9t-9.5 -19q8 -25 1.5 -44.5t-20.5 -34.5t-33 -26t-35 -19q-24 -13 -48.5 -6t-43.5 25q-9 10 -10.5 24.5t1 31t8.5 33t14 30.5q5 9 9.5 16.5t9.5 12.5q13 14 30 27t34 8q11 -3 40 -2.5t66 0.5t76.5 -2t71.5 -8.5
t51.5 -19.5t16.5 -35q-1 -6 -3.5 -10.5t-6.5 -1.5zM103 260q8 8 14 18t9 19q5 16 -0.5 27.5t-17.5 14.5q-20 0 -38 -19.5t-29 -44.5q-14 -33 -10.5 -43.5t15.5 -8t28.5 14t28.5 22.5z" />
    <glyph glyph-name="p" unicode="p" horiz-adv-x="424" 
d="M267 438q24 4 41 -1t26 -17t11 -29.5t-4 -36.5q-12 -40 -41 -65.5t-65.5 -38.5t-76.5 -13.5t-74 10.5q-28 8 -43 4t-34 -27q-29 -35 -55 -73.5t-52 -76.5q-6 -10 -18 -33.5t-26.5 -45.5t-31 -35.5t-32.5 -4.5q-11 6 -12.5 14t1.5 16.5t8.5 17t10.5 15.5q16 23 41.5 64
t56.5 89t65 99t66.5 94.5t62 74.5t50.5 40q12 5 22 3.5t16 -14.5q4 -10 -6.5 -22t-26.5 -27t-33.5 -33t-26.5 -39q15 10 39.5 25t51 28.5t50.5 24t39 13.5zM84 283q29 -6 58.5 -4t55.5 13t46.5 31t32.5 50q7 20 -14 20q-17 0 -44 -12.5t-54 -29.5t-49.5 -36t-31.5 -32z" />
    <glyph glyph-name="q" unicode="q" horiz-adv-x="497" 
d="M60 229l-30 15t-27.5 18t-15.5 23.5t6 33.5q32 60 89 100t122 51q24 4 35.5 -3t20.5 -15.5t22 -14.5t42 -1q8 2 15.5 -1.5t12.5 -10.5q6 -9 -2 -20t-20.5 -20.5t-25.5 -17.5t-19 -12q-24 -17 -52 -40t-55 -49t-52.5 -54.5t-44.5 -56.5q-33 -47 -42 -77.5t3 -42.5t43 -5
t77 36q40 24 84.5 56.5t87.5 65t80.5 62t62.5 48.5q12 9 22.5 11t15.5 -2t2.5 -12t-15.5 -19q-22 -20 -47.5 -37t-48.5 -35q-60 -47 -116.5 -95.5t-119.5 -91.5q-26 -18 -50.5 -33.5t-50.5 -19.5q-24 -3 -45 2.5t-35 20.5t-18.5 39.5t5.5 57.5q14 45 37 78.5t47 67.5z
M262 407q-20 8 -44.5 5t-50 -13t-49 -26t-40.5 -34q-33 -35 -25 -50.5t45 2.5q20 10 44.5 26.5t47.5 33.5t42.5 32t30.5 23z" />
    <glyph glyph-name="r" unicode="r" horiz-adv-x="504" 
d="M262 322q11 -24 36.5 -32.5t55.5 -8.5t61 6t54 13q4 1 10.5 3.5t13 4t12.5 0t10 -8.5q5 -8 2 -13t-9 -8t-13 -4.5t-11 -3.5q-25 -9 -60.5 -20t-72 -14.5t-68.5 3.5t-49 34q-9 14 -17 27t-33 16q-31 3 -58.5 -10t-52.5 -34.5t-46.5 -47.5t-40.5 -49q-5 -8 -9.5 -16.5
t-12.5 -13.5q-7 -2 -16 0.5t-16 7.5t-10 13t3 18q5 11 20.5 41t36.5 66t44.5 71t44.5 57q10 10 24 11t24.5 -5t13.5 -18t-7 -27l-15 -22q23 5 44.5 11.5t40 5.5t35.5 -12t31 -41z" />
    <glyph glyph-name="s" unicode="s" horiz-adv-x="481" 
d="M70 269q-23 -8 -44 -7t-30 27q-7 21 12 47t48.5 49t62 40t52.5 20q6 1 14.5 -3.5t13 -12t3.5 -16t-14 -14.5q-33 -15 -55.5 -26t-37.5 -18.5t-23.5 -12.5t-12.5 -9q-14 -11 -12.5 -15t28.5 1q28 4 57.5 8.5t58 4t54.5 -8t48 -26.5q22 4 48 7.5t51 6t46 2.5t34 -2
q9 -2 15 -7t7 -11t-5 -10t-21 -3q-10 1 -30 0.5t-43.5 -2t-48 -4.5t-43.5 -9q3 -12 -5.5 -30t-23.5 -36t-33.5 -35t-33.5 -27q-34 -24 -69 -23t-55.5 17.5t-19 42.5t41.5 52q23 15 53 29.5t74 30.5q-14 5 -33.5 5.5t-41.5 -2.5t-45 -8.5t-42 -11.5zM159 172q11 3 23 11
t23 19t20.5 22.5t15.5 21.5q-27 -8 -51.5 -20t-44.5 -23q-18 -10 -23.5 -18.5t-2.5 -13.5t13.5 -5t26.5 6z" />
    <glyph glyph-name="t" unicode="t" horiz-adv-x="195" 
d="M-62 579q10 3 36.5 6.5t55.5 6.5t55.5 5t38.5 2q32 0 46.5 8.5t23 22t15 28.5t22.5 29q6 5 17.5 6.5t21 -1t14.5 -9.5t-1 -17q-4 -7 -10.5 -15.5t-11 -16.5t-5.5 -14.5t5 -9.5q5 -2 19 -3t31.5 -2t36.5 -2t36 -4q25 -5 36.5 -13t10 -15t-15.5 -11t-39 -2q-6 0 -13 0.5
t-15 0.5q-44 0 -70 -0.5t-45 -8.5t-36 -26t-41 -54q-56 -82 -109.5 -164t-108.5 -164q-5 -7 -9.5 -17t-10.5 -17.5t-14 -10.5t-20 3q-9 5 -9.5 12t3.5 15t10.5 15.5t10.5 13.5q56 90 114.5 179t111.5 180q14 23 9 27.5t-30 3.5q-14 0 -38.5 -3t-50.5 -6t-48 -4.5t-30 0.5
q-12 3 -17.5 9.5t-5 13.5t6.5 13.5t17 9.5z" />
    <glyph glyph-name="u" unicode="u" horiz-adv-x="416" 
d="M357 413q12 -9 8 -21q-11 -23 -26 -48t-29 -50.5t-24.5 -51.5t-11.5 -51q0 -11 -10.5 -18t-17.5 -6q-27 2 -34.5 18.5t-4 38t14 42t18.5 30.5q-1 -1 -18.5 -13.5t-41 -29t-47.5 -33t-39 -25.5q-38 -25 -82 -6q-20 9 -27 27t-5 41t11.5 48t22.5 48.5t28.5 42t29.5 28.5
q10 7 21.5 5.5t19.5 -7.5t11 -14t-2 -15q-11 -15 -23.5 -34t-23 -39t-18.5 -40.5t-11 -36.5q-2 -18 5 -20.5t23 5.5q18 9 50.5 33t67.5 52.5t66.5 56t46.5 41.5q8 7 17 9.5t16.5 1.5t12.5 -4t6 -5z" />
    <glyph glyph-name="v" unicode="v" horiz-adv-x="356" 
d="M-12 278l19.5 58.5t21.5 46.5q7 9 17.5 12t20.5 0.5t16 -10t4 -19.5q-1 -7 -5.5 -18t-10.5 -23.5t-12.5 -25.5t-10.5 -25q-6 -18 -5 -27t8 -11t17 2.5t22 14.5q18 14 40 36t44.5 47t45.5 50.5t42.5 48.5t35 40.5t23.5 25.5q8 6 14.5 5.5t11 -4.5t7 -9t2.5 -8
q0 -6 -13.5 -24.5t-34 -43.5t-45 -53t-47.5 -53.5t-41 -45.5t-25 -28q-12 -14 -27 -25.5t-32.5 -19t-35.5 -9t-34 5.5q-29 13 -36 37.5t3 51.5z" />
    <glyph glyph-name="w" unicode="w" horiz-adv-x="556" 
d="M88 243q15 10 26.5 25.5t21.5 33.5q8 14 17.5 18t23.5 -6q10 -7 11 -16.5t-1 -19.5q-9 -38 -0.5 -52.5t28 -13.5t45.5 14.5t51 30.5t45 34t28 26q11 12 23 30.5t17.5 37.5t2 34.5t-24.5 23.5q-12 3 -19 7q-7 3 -11 9.5t-3 12.5t7 10t18 2q21 -2 36.5 -13t26.5 -27
q22 -33 23 -65t-12.5 -61t-39 -54t-55.5 -44t-62 -31.5t-58 -15.5q-35 -6 -57 3t-36.5 20.5t-25.5 19t-24 0.5q-14 -8 -27.5 -18t-28 -17.5t-29 -8t-29.5 11.5q-16 12 -18 36t5.5 51t22.5 54.5t33 48.5t37 31t34 2q13 -7 11.5 -16.5t-7.5 -17.5q-14 -19 -34.5 -40t-31.5 -44
q-12 -21 -17.5 -37.5t-2.5 -24.5t17 -5t43 21z" />
    <glyph glyph-name="x" unicode="x" horiz-adv-x="315" 
d="M-58 207q1 3 13 13.5t27 22.5t29.5 22.5t19.5 14.5q12 10 15.5 15.5t0 10.5t-13 11t-22.5 17q-17 14 -10.5 26.5t28.5 14.5q20 -9 31.5 -17t21.5 -11.5t21 0t30 17.5q7 6 24 19.5t36 27.5t36.5 23t26.5 6q15 -6 4.5 -24t-30.5 -39t-42 -40t-29 -25q-13 -11 -16 -20t9 -23
q6 -7 17.5 -18t24 -24t24.5 -26t21 -24q14 -17 8.5 -23t-25.5 2q-8 3 -20.5 13t-25.5 22t-25 23.5t-18 17.5l-19 19t-13.5 8.5t-16 -3.5t-26.5 -17q-21 -14 -44 -32.5t-46 -29.5q-3 -2 -10 -1t-12 4.5t-7.5 10t3.5 16.5z" />
    <glyph glyph-name="y" unicode="y" horiz-adv-x="431" 
d="M108 230q-11 1 -23.5 -3.5t-25.5 -9.5t-25.5 -8t-22.5 1q-20 8 -29.5 30.5t0.5 42.5q14 29 33.5 59.5t39.5 54.5q7 9 16 11t16.5 -1.5t11 -11t0.5 -18.5q-13 -18 -27.5 -43t-19 -42.5t6.5 -22t50 18.5q60 35 116 73.5t115 73.5q7 4 17 8t19.5 4.5t17 -4.5t10.5 -18
q1 -5 -7.5 -15.5t-11.5 -13.5q-28 -26 -57.5 -50t-58.5 -50q-70 -62 -135.5 -127.5t-125.5 -137.5q-20 -24 -42.5 -50.5t-42 -55t-33.5 -58t-17 -60.5q0 -14 -8.5 -17t-17.5 2q-17 9 -24.5 25.5t-0.5 36.5q15 42 49 94.5t75.5 105t85 99t76.5 77.5z" />
    <glyph glyph-name="z" unicode="z" horiz-adv-x="374" 
d="M99 234q18 1 41 5t47 7t46 4.5t39 -1.5t24.5 -8t6.5 -11t-9 -10.5t-22 -5.5q-8 -1 -33.5 -4.5t-57.5 -8t-65 -9.5t-55 -8q-14 -2 -22 -1.5t-14 3.5t-10.5 8.5t-11.5 13.5q-8 9 -5 18.5t11.5 19t21.5 19t27 17.5q7 4 4 5t-11 -0.5t-19.5 -3.5t-21.5 -3q-8 -1 -17.5 2.5
t-14 9.5t0 14t24.5 16q30 11 67 16.5t73 15.5q29 7 47 19.5t19 21.5t-18 10t-62 -13q-24 -8 -35 -16q-9 -6 -18 -9t-17 9q-3 25 18.5 42t52.5 25.5t62.5 8.5t48.5 -9q18 -9 21.5 -21t-1.5 -24.5t-14 -24.5t-16 -22q-5 -6 0 -10t13 -6t16 -2.5t10 -1.5q23 -7 18.5 -17.5
t-30.5 -10.5q-50 -3 -81.5 -12t-49.5 -20t-24 -21.5t-4 -15.5z" />
    <glyph glyph-name="braceleft" unicode="{" horiz-adv-x="394" 
d="M39 55q34 -5 57.5 -6t40 -1t26.5 0.5t16 -0.5q16 -3 20 -10.5t-1.5 -15t-17 -14t-25.5 -8.5q-31 -4 -70 2.5t-68.5 24t-39.5 47t16 70.5q14 22 32.5 41.5t38 38t39 37.5t36.5 39q19 23 15.5 32t-31.5 17q-15 4 -29.5 7t-22.5 19q-6 11 -6 19.5t14 13.5q16 6 33 10t34 9
q38 13 75.5 26.5t75.5 28.5q39 16 61.5 43.5t27.5 70.5q5 44 21 80t58 57q7 4 23 8t24 3q24 -5 24 -19t-20 -21q-36 -12 -53.5 -35.5t-31.5 -56.5q-11 -28 -13 -52t-7.5 -45t-19.5 -40t-50 -35q-35 -16 -70.5 -28t-70.5 -27q-17 -7 -21 -14t-1.5 -14.5t9 -16t10 -19.5t1 -25
t-17.5 -32q-38 -45 -78 -85.5t-75 -89.5q-17 -24 12 -34z" />
    <glyph glyph-name="bar" unicode="|" horiz-adv-x="299" 
d="M253 700q-5 -22 -16 -64.5t-24.5 -98t-30 -119.5t-32.5 -127.5t-31.5 -123t-27.5 -106t-20 -76.5t-9 -34q-4 -11 -8 -19.5t-10 -12.5q-9 -5 -16.5 -0.5t-6.5 18.5q1 10 9 48t21.5 94t30.5 124t35 137.5t35.5 136t32 119t25 85.5t13.5 37q2 3 8 3.5t11.5 -1.5t9 -6.5
t1.5 -13.5z" />
    <glyph glyph-name="braceright" unicode="}" horiz-adv-x="431" 
d="M124 688q-11 -2 -18.5 1.5t-9.5 16.5q-1 12 13.5 20.5t38.5 13.5t53 7t56.5 2t48.5 -1.5t30 -3.5q19 -5 32.5 -17t19.5 -28t3 -34t-15 -34q-19 -24 -40 -46l-42 -44t-41.5 -44.5t-37.5 -47.5q-12 -18 -7.5 -27t18.5 -13.5t33.5 -7t38 -7.5t31 -14.5t12.5 -28.5
q-18 -12 -37 -15.5t-37.5 -6.5t-36 -7t-32 -16t-26.5 -35.5t-19 -63.5q-19 -104 -82 -165.5t-171 -66.5q-11 0 -25 4t-22 10t-6.5 13t20.5 13q37 11 79 24t77.5 33.5t60.5 51.5t29 79q4 52 17.5 80.5t27.5 45t26.5 25t15.5 19.5q2 9 -5.5 18t-15 21.5t-9.5 30.5t13 44
q13 24 30.5 44t36.5 38.5t38.5 37t36.5 39.5q16 21 10.5 33.5t-24 19t-46 7t-55.5 -2t-51.5 -7t-34.5 -8.5z" />
    <glyph glyph-name="asciitilde" unicode="~" horiz-adv-x="705" 
d="M46 215q-8 20 -2.5 32.5t17.5 26.5q17 20 41.5 41t52 38.5t54.5 28.5t49 11q24 0 45 -15t27 -39q5 -20 3.5 -40.5t1.5 -34.5t15.5 -17t47.5 11q32 13 55.5 24t44 22.5t41 26.5t46.5 38q6 5 11 10.5t13 7.5q5 2 10.5 0t9.5 -5q7 -6 4 -18q-3 -9 -19 -23.5t-38.5 -31
t-49.5 -34t-52.5 -32t-46.5 -25.5t-33 -14q-54 -17 -85 6t-33 80q-1 21 -2.5 33.5t-6.5 17t-13.5 1.5t-23.5 -11q-43 -26 -75 -58t-67 -66q-8 -8 -20 -4.5t-22 12.5z" />
    <glyph glyph-name="exclamdown" unicode="&#xa1;" horiz-adv-x="241" 
d="M-134.979 -67.958q3.99902 7.99902 7.99902 13.999t8.99902 12.999q60.9971 88.9951 114.993 177.989q53.9971 88.9941 100.994 186.988q5 9 7.99902 16.499q3 7.5 16 2.5q11.999 -4.99902 15.998 -15.499q4 -10.499 2 -22.498q-3.99902 -22.999 -17.998 -57.9971
q-14 -34.998 -33.998 -75.4951q-19.999 -40.498 -43.498 -82.4951q-23.498 -41.9971 -47.9971 -78.9951q-24.498 -36.998 -48.4971 -64.9961q-23.998 -27.998 -42.9971 -39.9971q-12.999 -8 -26.498 1.99902q-13.499 10 -13.499 24.999zM118.006 456.01
q1 16.999 12.999 25.499q11.999 8.49902 25.998 8.49902t25.499 -9.49902q11.499 -9.5 11.499 -28.499q0 -15.999 -11.999 -24.498q-12 -8.5 -26.499 -9t-26.498 8.5q-11.999 8.99902 -10.999 28.998z" />
    <glyph glyph-name="cent" unicode="&#xa2;" horiz-adv-x="442" 
d="M365 287q-1 -11 -12.5 -17.5t-28.5 -10.5t-37.5 -7.5t-39 -9t-33 -14.5t-19.5 -24q-6 -19 -12 -41t-12 -45t-13.5 -45t-17.5 -40q-6 -10 -12 -11.5t-11.5 1t-10 7l-7.5 7.5q-5 5 1 27t15 48.5t17.5 49.5t10.5 31q5 21 1.5 26.5t-24.5 5.5h-31.5t-30.5 2q-37 6 -52 29.5
t-3 52.5q14 28 38 50.5t52.5 40t59 30.5t57.5 22q22 8 39.5 20t26.5 34q3 7 10.5 22.5t17 30.5t20.5 24t21 3q12 -7 12.5 -17t-5 -22t-14 -24.5t-13.5 -24.5t-3 -22.5t17 -17.5q22 -11 29.5 -31t4.5 -38.5t-13.5 -30.5t-25.5 -8q-10 3 -13 8.5t-2.5 12t3.5 14t6 13.5
q6 14 0.5 19t-14.5 4t-19 -6t-14 -12q-11 -19 -22 -45.5t-19 -47.5q-5 -13 1 -16.5t18 -2.5t27.5 5t31 6t28.5 -1t19 -14zM213 396q-16 -4 -33.5 -11.5t-35 -17t-33 -21t-26.5 -23.5q-26 -26 -27 -38t12 -15.5t34.5 -1t40.5 5.5q15 3 26 17.5t19 33.5t13.5 38.5t9.5 32.5z
" />
    <glyph glyph-name="sterling" unicode="&#xa3;" horiz-adv-x="598" 
d="M506 152q-72 -2 -122 -0.5t-85.5 -0.5t-61.5 -12t-51 -34q-24 -24 -58.5 -31t-65.5 0t-50 25.5t-12 45.5q8 31 28 46.5t44.5 21.5t50 5.5t45.5 -1.5q17 -1 28 -1t18.5 3.5t13 12t13.5 25.5q6 13 9 26.5t8 27.5q-27 -3 -44.5 -2.5t-27.5 3t-14.5 7.5t-7.5 11q1 19 17.5 23
t37 7t40.5 11.5t29 37.5q16 49 39 94t59 82q16 16 36.5 34.5t42 29t44 9t43.5 -23.5q22 -23 24 -39.5t-14 -43.5q-7 -12 -17.5 -27.5t-24 -29t-28.5 -21.5t-30 -3q-18 5 -18 18t16 29q22 22 34 36t18 23.5t7.5 15t2.5 10.5q-33 -6 -60 -25.5t-49 -45.5t-38.5 -56.5
t-28.5 -59.5q-8 -19 -5 -26.5t26 -6.5q9 0 25 2t33.5 3.5t32.5 1t22 -3.5q14 -7 13.5 -17t-13.5 -15q-26 -8 -61 -12.5t-62 -6.5q-21 -1 -31.5 -9t-16 -20.5t-8 -28t-8.5 -31.5q-11 -29 -5.5 -37.5t35.5 -10.5q12 -1 39.5 -1t57.5 -1t55 -2t31 -4q18 -7 20 -20.5t-20 -16.5z
M170 166q-17 7 -41 7t-45 -2q-22 -3 -33 -11.5t-11 -17.5t11.5 -15t35.5 -3q24 2 47 14.5t36 27.5z" />
    <glyph glyph-name="currency" unicode="&#xa4;" horiz-adv-x="435" 
d="M266 230q-18 14 -35 16t-39 -3q-43 -10 -90 -10q-19 0 -36.5 -2.5t-31.5 -15.5l-5 -1.5t-10.5 -0.5t-10 4.5t-2.5 13.5q3 13 7.5 27t3.5 16q-6 14 -7 23.5t2 17t10 15t17 16.5q7 7 7 12.5t-5 9.5t-12 7.5l-13 6.5q-4 2 -1.5 8t7.5 12t12 8.5t12 -2.5q21 -20 42.5 -20.5
t43.5 4t45 8t46 -6.5q14 -6 24 -7.5t19 0t18.5 6t22.5 10.5q8 4 18.5 -2.5t8.5 -18.5q-2 -8 -8.5 -19.5t-4.5 -19.5q5 -18 2 -30.5t-12 -21.5t-22 -16l-26 -14q11 -5 18.5 -9.5t12.5 -9.5q8 -10 6.5 -14t-7.5 -5t-14 1.5t-13 6.5zM273 335q-11 1 -20 -0.5t-17.5 -2t-17 2
t-18.5 11.5q-5 4 -17.5 3.5t-28.5 -4.5t-31.5 -10.5t-26.5 -12.5q-16 -10 -20.5 -18.5t-0.5 -14.5t14.5 -9t24.5 -3q19 1 44.5 5t48.5 11.5t41.5 18t24.5 23.5z" />
    <glyph glyph-name="yen" unicode="&#xa5;" horiz-adv-x="368" 
d="M154 337q-20 -5 -38 -11t-38 5q-20 9 -30.5 21t-8.5 34q8 60 34.5 116t61.5 107q8 11 16.5 16.5t23.5 -2.5q17 -8 17.5 -18.5t-7.5 -24.5q-12 -21 -29 -47.5t-31.5 -54.5t-23 -56t-4.5 -52q13 3 39.5 22.5t58 46.5t65 58t61.5 57t46.5 44t20.5 19q11 5 18.5 -5.5
t14.5 -17.5q10 -9 2 -15.5t-13 -11.5q-23 -25 -46.5 -54.5t-46.5 -59.5t-45.5 -60t-43.5 -56q-11 -15 -8.5 -18.5t11.5 -5t20.5 -5t19.5 -17.5q-13 -6 -26.5 -9t-27 -6.5t-25.5 -9t-22 -17.5q-18 -21 11 -22q13 0 25.5 -0.5t17.5 -16.5q-11 -2 -21.5 -6t-21.5 -4
q-32 0 -46.5 -15t-22.5 -36t-16 -42.5t-28 -34.5q-4 7 -10.5 11.5t-8.5 12.5t3 23t9 29.5t2.5 24t-14.5 6.5q-23 -6 -31 -10.5t-16 0.5t-9 12.5t9 12.5q13 8 26.5 11.5t26 6.5t23 8.5t19.5 16.5q-15 5 -31.5 -2.5t-33.5 -7.5q-8 0 -14 4t-8 10t0 12t11 10q21 8 42 15t43 11
q23 5 33 16t15 32z" />
    <glyph glyph-name="dieresis" unicode="&#xa8;" horiz-adv-x="227" 
d="M66 699q1 12 9.5 16t17.5 3t14.5 -7.5t0.5 -15.5t-12.5 -13t-14 -3.5t-11 5.5t-4.5 15zM125 699q1 12 9.5 16t17.5 3t14.5 -7.5t0.5 -15.5t-12.5 -13t-14 -3.5t-11 5.5t-4.5 15z" />
    <glyph glyph-name="plusminus" unicode="&#xb1;" horiz-adv-x="383" 
d="M196 339q35 1 52 0q11 -1 20.5 -2.5t14.5 -6.5q8 -8 5.5 -16t-16.5 -11q-32 -6 -81 -8q-3 -20 -5 -32t-4 -21q-3 -11 -6.5 -19t-9.5 -12q-9 -6 -17 -3t-10 17q-2 28 3 68q-28 0 -50 1.5t-30 6.5q-3 1 -5.5 6.5t-2 11.5t4 11t12.5 5l77 2q5 29 10.5 52.5t12.5 31.5
q2 3 8 4t12.5 0t11 -5.5t3.5 -12.5zM37 159q45 1 75 2t49.5 2t31.5 1t21 -1q11 -1 20.5 -2.5t14.5 -6.5q8 -8 5.5 -16t-16.5 -11q-20 -4 -52 -6.5t-64.5 -3t-58.5 1t-35 6.5q-3 1 -5.5 6.5t-2 11.5t4 11t12.5 5z" />
    <glyph glyph-name="acute" unicode="&#xb4;" horiz-adv-x="226" 
d="M52 636q20 32 37.5 55t36.5 40q7 7 15 8t14 -2.5t8 -11t-3 -17.5q-6 -13 -18.5 -27.5t-28 -26t-32 -17.5t-29.5 -1z" />
    <glyph glyph-name="cedilla" unicode="&#xb8;" horiz-adv-x="258" 
d="M101 360q17 -11 34 -21.5t32 -24.5q14 -13 12.5 -24.5t-12 -20.5t-27 -14.5t-33 -5.5t-30.5 6t-19 20q1 6 9 10.5t18.5 8t20.5 6t15 4.5q-59 31 -65 54.5t45 58.5q19 13 35 15.5t24 -2t6.5 -14t-17.5 -21.5l-24 -18t-24 -17z" />
    <glyph glyph-name="questiondown" unicode="&#xbf;" horiz-adv-x="390" 
d="M82.0186 18.0381q44.9971 13.999 76.4951 40.998q31.498 26.998 53.4971 76.9951q4.99902 10.999 5.49902 23.498q0.5 12.5 1 21.999t3 14.999t11.499 3.5q17.999 -5 25.499 -19.999q7.49902 -14.999 7.49902 -31.998q1 -36.998 -20.999 -69.9961
q-21.998 -32.9971 -55.9961 -57.9961q-33.998 -24.998 -75.4951 -39.9971q-41.498 -15 -80.4951 -16.999q-25.999 -1 -44.4971 7.99902q-18.499 9 -27.999 23.499q-9.49902 14.499 -8.49902 32.498t13.999 33.9971q31.998 40.998 66.4961 73.9961t68.9951 66.9961
q34.498 33.998 67.9961 71.9951q33.498 37.998 61.4961 86.9951q4 6.99902 12.5 11.499q8.49902 4.5 16.499 -0.5q16.998 -8.99902 10.999 -25.998q-9.99902 -27.999 -27.998 -56.4971t-39.998 -55.9961q-21.999 -27.499 -46.9971 -53.4971t-48.9971 -49.9971
q-11.999 -10.999 -28.998 -26.498t-32.998 -31.498q-21.999 -21.999 -27.998 -36.498q-6 -14.499 0 -21.999q5.99902 -7.49902 22.998 -6.49902t41.998 10.999zM329.003 463.011q5 -15.999 -6.99902 -28.498q-12 -12.499 -27.999 -16.499t-29.998 2t-13.999 26.998
q0 20.999 10.5 33.498q10.499 12.5 23.998 15.499q13.499 3 26.498 -4.99902q13 -8 17.999 -27.999z" />
    <glyph glyph-name="Agrave" unicode="&#xc0;" 
d="M687 339q88 9 175.5 20.5t175.5 14.5q27 1 48.5 -7.5t32.5 -35.5q-52 0 -103.5 -6.5t-103 -14t-103 -14.5t-102.5 -8q-34 -1 -59.5 -22.5t-41 -53t-19.5 -66.5t3.5 -62.5t28.5 -41.5t56 -3q7 2 14.5 5.5t15.5 5t15 0t12 -10.5q5 -8 -4.5 -19t-27.5 -17.5t-42.5 -5.5
t-50.5 18q-50 32 -65.5 83.5t0.5 106.5q7 24 9 36.5t-3.5 18t-18.5 5t-37 -3.5q-54 -7 -87 -10.5t-58.5 -12.5t-52.5 -28t-69 -56q-26 -23 -49.5 -46t-47.5 -47q-14 -14 -28.5 -15.5t-24 4.5t-11 18.5t10.5 26.5q11 13 32.5 29.5t44 34.5t41 35.5t24.5 31.5q-36 6 -74.5 6
t-69.5 1.5t-47 8t-7 23.5q28 15 65 14t79 -2t85.5 5.5t84.5 36.5q63 46 124.5 97.5t124.5 100.5t129 93t138 76q8 3 15 6.5t15 6.5q16 6 29.5 2.5t21 -12.5t7.5 -23t-10 -29q-56 -78 -119 -150.5t-121 -147.5zM829 620q-23 -10 -61.5 -34.5t-83 -57t-92 -68t-88 -66.5
t-70 -54t-39.5 -30q-3 -2 8.5 -1.5t31 2.5t44 5t47 5.5t40 4.5t23.5 2q9 0 28.5 19.5t44 49t51.5 65t51 68t41.5 57t23.5 33.5zM992 752q-17 -4 -36.5 1t-39 15t-37.5 22t-32 23q-6 5 -6 13.5t4.5 15t12 10t16.5 -2.5q8 -6 26 -19t37.5 -28t35 -29t19.5 -21z" />
    <glyph glyph-name="Aacute" unicode="&#xc1;" 
d="M687 339q88 9 175.5 20.5t175.5 14.5q27 1 48.5 -7.5t32.5 -35.5q-52 0 -103.5 -6.5t-103 -14t-103 -14.5t-102.5 -8q-34 -1 -59.5 -22.5t-41 -53t-19.5 -66.5t3.5 -62.5t28.5 -41.5t56 -3q7 2 14.5 5.5t15.5 5t15 0t12 -10.5q5 -8 -4.5 -19t-27.5 -17.5t-42.5 -5.5
t-50.5 18q-50 32 -65.5 83.5t0.5 106.5q7 24 9 36.5t-3.5 18t-18.5 5t-37 -3.5q-54 -7 -87 -10.5t-58.5 -12.5t-52.5 -28t-69 -56q-26 -23 -49.5 -46t-47.5 -47q-14 -14 -28.5 -15.5t-24 4.5t-11 18.5t10.5 26.5q11 13 32.5 29.5t44 34.5t41 35.5t24.5 31.5q-36 6 -74.5 6
t-69.5 1.5t-47 8t-7 23.5q28 15 65 14t79 -2t85.5 5.5t84.5 36.5q63 46 124.5 97.5t124.5 100.5t129 93t138 76q8 3 15 6.5t15 6.5q16 6 29.5 2.5t21 -12.5t7.5 -23t-10 -29q-56 -78 -119 -150.5t-121 -147.5zM829 620q-23 -10 -61.5 -34.5t-83 -57t-92 -68t-88 -66.5
t-70 -54t-39.5 -30q-3 -2 8.5 -1.5t31 2.5t44 5t47 5.5t40 4.5t23.5 2q9 0 28.5 19.5t44 49t51.5 65t51 68t41.5 57t23.5 33.5zM915 750q20 32 37.5 55t36.5 40q7 7 15 8t14 -2.5t8 -11t-3 -17.5q-6 -13 -18.5 -27.5t-28 -26t-32 -17.5t-29.5 -1z" />
    <glyph glyph-name="Acircumflex" unicode="&#xc2;" 
d="M687 339q88 9 175.5 20.5t175.5 14.5q27 1 48.5 -7.5t32.5 -35.5q-52 0 -103.5 -6.5t-103 -14t-103 -14.5t-102.5 -8q-34 -1 -59.5 -22.5t-41 -53t-19.5 -66.5t3.5 -62.5t28.5 -41.5t56 -3q7 2 14.5 5.5t15.5 5t15 0t12 -10.5q5 -8 -4.5 -19t-27.5 -17.5t-42.5 -5.5
t-50.5 18q-50 32 -65.5 83.5t0.5 106.5q7 24 9 36.5t-3.5 18t-18.5 5t-37 -3.5q-54 -7 -87 -10.5t-58.5 -12.5t-52.5 -28t-69 -56q-26 -23 -49.5 -46t-47.5 -47q-14 -14 -28.5 -15.5t-24 4.5t-11 18.5t10.5 26.5q11 13 32.5 29.5t44 34.5t41 35.5t24.5 31.5q-36 6 -74.5 6
t-69.5 1.5t-47 8t-7 23.5q28 15 65 14t79 -2t85.5 5.5t84.5 36.5q63 46 124.5 97.5t124.5 100.5t129 93t138 76q8 3 15 6.5t15 6.5q16 6 29.5 2.5t21 -12.5t7.5 -23t-10 -29q-56 -78 -119 -150.5t-121 -147.5zM829 620q-23 -10 -61.5 -34.5t-83 -57t-92 -68t-88 -66.5
t-70 -54t-39.5 -30q-3 -2 8.5 -1.5t31 2.5t44 5t47 5.5t40 4.5t23.5 2q9 0 28.5 19.5t44 49t51.5 65t51 68t41.5 57t23.5 33.5zM999 741q-13 -2 -17.5 -0.5t-6.5 9.5q-2 13 -1 28.5t-1 26.5t-9.5 13.5t-24.5 -10.5q-14 -11 -28 -28t-31 -24q-16 2 -18 12.5t9 18.5
q28 25 56 49t58 46q15 10 31 1t15 -27q-1 -9 -3 -26.5t-6 -35.5t-10 -33t-13 -20z" />
    <glyph glyph-name="Atilde" unicode="&#xc3;" 
d="M687 339q88 9 175.5 20.5t175.5 14.5q27 1 48.5 -7.5t32.5 -35.5q-52 0 -103.5 -6.5t-103 -14t-103 -14.5t-102.5 -8q-34 -1 -59.5 -22.5t-41 -53t-19.5 -66.5t3.5 -62.5t28.5 -41.5t56 -3q7 2 14.5 5.5t15.5 5t15 0t12 -10.5q5 -8 -4.5 -19t-27.5 -17.5t-42.5 -5.5
t-50.5 18q-50 32 -65.5 83.5t0.5 106.5q7 24 9 36.5t-3.5 18t-18.5 5t-37 -3.5q-54 -7 -87 -10.5t-58.5 -12.5t-52.5 -28t-69 -56q-26 -23 -49.5 -46t-47.5 -47q-14 -14 -28.5 -15.5t-24 4.5t-11 18.5t10.5 26.5q11 13 32.5 29.5t44 34.5t41 35.5t24.5 31.5q-36 6 -74.5 6
t-69.5 1.5t-47 8t-7 23.5q28 15 65 14t79 -2t85.5 5.5t84.5 36.5q63 46 124.5 97.5t124.5 100.5t129 93t138 76q8 3 15 6.5t15 6.5q16 6 29.5 2.5t21 -12.5t7.5 -23t-10 -29q-56 -78 -119 -150.5t-121 -147.5zM829 620q-23 -10 -61.5 -34.5t-83 -57t-92 -68t-88 -66.5
t-70 -54t-39.5 -30q-3 -2 8.5 -1.5t31 2.5t44 5t47 5.5t40 4.5t23.5 2q9 0 28.5 19.5t44 49t51.5 65t51 68t41.5 57t23.5 33.5zM915 785q-3 15 -5 24t-7.5 8.5t-18 -12.5t-36.5 -39q-7 -6 -15 -6.5t-13 3t-6.5 10.5t3.5 16q10 16 32.5 37.5t46 32t42 3t20.5 -49.5
q1 -23 7.5 -26t15.5 3t20.5 16t22.5 13q14 4 19.5 -5.5t-1.5 -18.5q-14 -19 -34 -31t-39.5 -14.5t-34.5 6t-19 30.5z" />
    <glyph glyph-name="Adieresis" unicode="&#xc4;" 
d="M687 339q88 9 175.5 20.5t175.5 14.5q27 1 48.5 -7.5t32.5 -35.5q-52 0 -103.5 -6.5t-103 -14t-103 -14.5t-102.5 -8q-34 -1 -59.5 -22.5t-41 -53t-19.5 -66.5t3.5 -62.5t28.5 -41.5t56 -3q7 2 14.5 5.5t15.5 5t15 0t12 -10.5q5 -8 -4.5 -19t-27.5 -17.5t-42.5 -5.5
t-50.5 18q-50 32 -65.5 83.5t0.5 106.5q7 24 9 36.5t-3.5 18t-18.5 5t-37 -3.5q-54 -7 -87 -10.5t-58.5 -12.5t-52.5 -28t-69 -56q-26 -23 -49.5 -46t-47.5 -47q-14 -14 -28.5 -15.5t-24 4.5t-11 18.5t10.5 26.5q11 13 32.5 29.5t44 34.5t41 35.5t24.5 31.5q-36 6 -74.5 6
t-69.5 1.5t-47 8t-7 23.5q28 15 65 14t79 -2t85.5 5.5t84.5 36.5q63 46 124.5 97.5t124.5 100.5t129 93t138 76q8 3 15 6.5t15 6.5q16 6 29.5 2.5t21 -12.5t7.5 -23t-10 -29q-56 -78 -119 -150.5t-121 -147.5zM829 620q-23 -10 -61.5 -34.5t-83 -57t-92 -68t-88 -66.5
t-70 -54t-39.5 -30q-3 -2 8.5 -1.5t31 2.5t44 5t47 5.5t40 4.5t23.5 2q9 0 28.5 19.5t44 49t51.5 65t51 68t41.5 57t23.5 33.5zM882 768q1 12 9.5 16t17.5 3t14.5 -7.5t0.5 -15.5t-12.5 -13t-14 -3.5t-11 5.5t-4.5 15zM941 768q1 12 9.5 16t17.5 3t14.5 -7.5t0.5 -15.5
t-12.5 -13t-14 -3.5t-11 5.5t-4.5 15z" />
    <glyph glyph-name="Aring" unicode="&#xc5;" 
d="M687 339q88 9 175.5 20.5t175.5 14.5q27 1 48.5 -7.5t32.5 -35.5q-52 0 -103.5 -6.5t-103 -14t-103 -14.5t-102.5 -8q-34 -1 -59.5 -22.5t-41 -53t-19.5 -66.5t3.5 -62.5t28.5 -41.5t56 -3q7 2 14.5 5.5t15.5 5t15 0t12 -10.5q5 -8 -4.5 -19t-27.5 -17.5t-42.5 -5.5
t-50.5 18q-50 32 -65.5 83.5t0.5 106.5q7 24 9 36.5t-3.5 18t-18.5 5t-37 -3.5q-54 -7 -87 -10.5t-58.5 -12.5t-52.5 -28t-69 -56q-26 -23 -49.5 -46t-47.5 -47q-14 -14 -28.5 -15.5t-24 4.5t-11 18.5t10.5 26.5q11 13 32.5 29.5t44 34.5t41 35.5t24.5 31.5q-36 6 -74.5 6
t-69.5 1.5t-47 8t-7 23.5q28 15 65 14t79 -2t85.5 5.5t84.5 36.5q63 46 124.5 97.5t124.5 100.5t129 93t138 76q8 3 15 6.5t15 6.5q16 6 29.5 2.5t21 -12.5t7.5 -23t-10 -29q-56 -78 -119 -150.5t-121 -147.5zM829 620q-23 -10 -61.5 -34.5t-83 -57t-92 -68t-88 -66.5
t-70 -54t-39.5 -30q-3 -2 8.5 -1.5t31 2.5t44 5t47 5.5t40 4.5t23.5 2q9 0 28.5 19.5t44 49t51.5 65t51 68t41.5 57t23.5 33.5zM956 752q-32 0 -39.5 18t-0.5 39.5t23 39t33 17.5q30 -2 41 -20t7 -39t-20.5 -38t-43.5 -17zM949 782q10 -3 19 3t14 16t3.5 20.5t-13.5 15.5
q-8 4 -14 -3t-9.5 -17.5t-4 -21t4.5 -13.5z" />
    <glyph glyph-name="AE" unicode="&#xc6;" horiz-adv-x="1363" 
d="M1806 678q27 -5 41 -16.5t12.5 -21t-19.5 -14.5t-55 4q-19 5 -39.5 8t-40.5 5q-29 4 -54.5 5.5t-39.5 1.5q-30 1 -81.5 0.5t-113 -2.5t-127 -5.5t-124.5 -9.5t-105.5 -14t-69.5 -18q-3 -30 -16.5 -54t-31.5 -46t-36.5 -43t-31.5 -44q43 -2 85.5 -0.5t84.5 4.5t84.5 6
t85.5 3q34 0 48 -6t12.5 -13.5t-16.5 -14.5t-39 -9t-48 -2.5t-50 -2.5q-74 -5 -147.5 -11t-146.5 -14q-16 -2 -27 -5t-24 -13q-36 -27 -71.5 -63.5t-61 -74.5t-36.5 -73.5t3.5 -60.5t58 -36t126.5 1q102 16 202 34.5t200.5 36.5t201.5 32t205 21q18 1 27.5 -0.5t13.5 -5
t3.5 -8t-1.5 -9.5q-1 -4 -2 -7.5t-4 -7t-10.5 -5.5t-21.5 -3q-101 -5 -205.5 -21.5t-205 -35.5t-194 -37t-172 -28t-138 -7t-92.5 26q-40 27 -56 59t-11 67q-4 35 7 75q7 24 9 36.5t-3.5 18t-18.5 5t-37 -3.5q-54 -7 -87 -10.5t-58.5 -12.5t-52.5 -28t-69 -56
q-26 -23 -49.5 -46t-47.5 -47q-14 -14 -28.5 -15.5t-24 4.5t-11 18.5t10.5 26.5q11 13 32.5 29.5t44 34.5t41 35.5t24.5 31.5q-36 6 -74.5 6t-69.5 1.5t-47 8t-7 23.5q28 15 65 14t79 -2t85.5 5.5t84.5 36.5q63 46 124.5 97.5t124.5 100.5t129 93t138 76l30 13q14 5 26.5 3
t20.5 -9.5t10.5 -19t-3.5 -24.5q94 17 207.5 30.5t230 18.5t229.5 1t206 -21zM829 620q-23 -10 -61.5 -34.5t-83 -57t-92 -68t-88 -66.5t-70 -54t-39.5 -30q-3 -2 8.5 -1.5t31 2.5t44 5t47 5.5t40 4.5t23.5 2q9 0 28.5 19.5t44 49t51.5 65t51 68t41.5 57t23.5 33.5zM880 575
q-35 -45 -72 -88t-73 -88q26 6 51.5 25t49.5 45t46.5 56.5t42.5 60.5z" />
    <glyph glyph-name="Ccedilla" unicode="&#xc7;" horiz-adv-x="1167" 
d="M151 -20q17 -11 34 -21.5t32 -24.5q14 -12 12.5 -24t-12 -21t-27 -14.5t-33 -5.5t-30.5 6t-19 20q1 6 9 10.5t18.5 8t20.5 6t15 4.5q-28 15 -44 27.5t-20 24.5t4.5 25t29.5 29q-20 4 -38 10t-31 14q-48 30 -62.5 63.5t-6.5 67.5t33.5 67.5t58.5 63.5q81 73 169 135.5
t182.5 111t194.5 80t203 43.5q29 4 53 -2.5t42 -31.5q14 -20 14 -33t-14 -33q-9 -14 -34.5 -35t-56 -41.5t-61 -35.5t-51.5 -16q-20 0 -24 12.5t9 22.5q36 20 69.5 39.5t59.5 42.5q22 19 28.5 32.5t0 22t-23.5 10.5t-41 -1q-60 -8 -131.5 -33t-146 -61t-147.5 -80.5
t-136.5 -92t-112.5 -96t-75 -92.5q-12 -21 -15.5 -34.5t1.5 -23t19 -17t35 -16.5q55 -22 125 -25.5t147.5 5.5t158.5 28.5t159 44t148.5 51t126.5 50.5q8 3 22 8t27.5 6.5t23 -4t9.5 -21.5q0 -5 -10 -12.5t-15 -9.5q-43 -22 -102 -45t-126 -44.5t-139.5 -41t-141.5 -33.5
t-131.5 -22.5t-110.5 -8.5q-30 0 -69 3q-2 -3 -8 -7l-24 -18t-24 -17z" />
    <glyph glyph-name="Egrave" unicode="&#xc8;" horiz-adv-x="833" 
d="M163 542q-23 23 7 49q2 2 17.5 6.5t37 10.5t47 12t49 11.5t41.5 9.5t25 5q63 12 135.5 22.5t150.5 18t158 11.5t157.5 3.5t150.5 -6t137 -17.5q27 -5 41 -16.5t12.5 -21t-19.5 -14.5t-55 4q-19 5 -39.5 8t-40.5 5q-29 4 -54.5 5.5t-39.5 1.5q-30 1 -81.5 0.5t-113 -2.5
t-127 -5.5t-124.5 -9.5t-105.5 -14t-69.5 -18q-3 -30 -16.5 -54t-31.5 -46t-36.5 -43t-31.5 -44q43 -2 85.5 -0.5t84.5 4.5t84.5 6t85.5 3q34 0 48 -6t12.5 -13.5t-16.5 -14.5t-39 -9t-48 -2.5t-50 -2.5q-74 -5 -147.5 -11t-146.5 -14q-16 -2 -27 -5t-24 -13
q-36 -27 -71.5 -63.5t-61 -74.5t-36.5 -73.5t3.5 -60.5t58 -36t126.5 1q102 16 202 34.5t200.5 36.5t201.5 32t205 21q18 1 27.5 -0.5t13.5 -5t3.5 -8t-1.5 -9.5q-1 -4 -2 -7.5t-4 -7t-10.5 -5.5t-21.5 -3q-100 -5 -205 -21.5t-205.5 -35.5t-194 -37t-172 -28t-138 -7
t-92.5 26q-55 38 -65.5 85t19.5 98q12 20 31.5 42t41 43.5t43 42t37.5 37.5q-30 0 -47.5 10.5t-20.5 21t10 17t45 -1.5q31 -8 62 7t60 43.5t56 65t51 71.5q-10 -2 -29 -7t-42.5 -11.5t-47.5 -13.5t-45 -13q-23 -6 -38 -10t-30 11zM671 767q-17 -4 -36.5 1t-39 15t-37.5 22
t-32 23q-6 5 -6 13.5t4.5 15t12 10t16.5 -2.5q8 -6 26 -19t37.5 -28t35 -29t19.5 -21z" />
    <glyph glyph-name="Eacute" unicode="&#xc9;" horiz-adv-x="833" 
d="M163 542q-23 23 7 49q2 2 17.5 6.5t37 10.5t47 12t49 11.5t41.5 9.5t25 5q63 12 135.5 22.5t150.5 18t158 11.5t157.5 3.5t150.5 -6t137 -17.5q27 -5 41 -16.5t12.5 -21t-19.5 -14.5t-55 4q-19 5 -39.5 8t-40.5 5q-29 4 -54.5 5.5t-39.5 1.5q-30 1 -81.5 0.5t-113 -2.5
t-127 -5.5t-124.5 -9.5t-105.5 -14t-69.5 -18q-3 -30 -16.5 -54t-31.5 -46t-36.5 -43t-31.5 -44q43 -2 85.5 -0.5t84.5 4.5t84.5 6t85.5 3q34 0 48 -6t12.5 -13.5t-16.5 -14.5t-39 -9t-48 -2.5t-50 -2.5q-74 -5 -147.5 -11t-146.5 -14q-16 -2 -27 -5t-24 -13
q-36 -27 -71.5 -63.5t-61 -74.5t-36.5 -73.5t3.5 -60.5t58 -36t126.5 1q102 16 202 34.5t200.5 36.5t201.5 32t205 21q18 1 27.5 -0.5t13.5 -5t3.5 -8t-1.5 -9.5q-1 -4 -2 -7.5t-4 -7t-10.5 -5.5t-21.5 -3q-100 -5 -205 -21.5t-205.5 -35.5t-194 -37t-172 -28t-138 -7
t-92.5 26q-55 38 -65.5 85t19.5 98q12 20 31.5 42t41 43.5t43 42t37.5 37.5q-30 0 -47.5 10.5t-20.5 21t10 17t45 -1.5q31 -8 62 7t60 43.5t56 65t51 71.5q-10 -2 -29 -7t-42.5 -11.5t-47.5 -13.5t-45 -13q-23 -6 -38 -10t-30 11zM605 754q20 32 37.5 55t36.5 40q7 7 15 8
t14 -2.5t8 -11t-3 -17.5q-6 -13 -18.5 -27.5t-28 -26t-32 -17.5t-29.5 -1z" />
    <glyph glyph-name="Ecircumflex" unicode="&#xca;" horiz-adv-x="833" 
d="M163 542q-23 23 7 49q2 2 17.5 6.5t37 10.5t47 12t49 11.5t41.5 9.5t25 5q63 12 135.5 22.5t150.5 18t158 11.5t157.5 3.5t150.5 -6t137 -17.5q27 -5 41 -16.5t12.5 -21t-19.5 -14.5t-55 4q-19 5 -39.5 8t-40.5 5q-29 4 -54.5 5.5t-39.5 1.5q-30 1 -81.5 0.5t-113 -2.5
t-127 -5.5t-124.5 -9.5t-105.5 -14t-69.5 -18q-3 -30 -16.5 -54t-31.5 -46t-36.5 -43t-31.5 -44q43 -2 85.5 -0.5t84.5 4.5t84.5 6t85.5 3q34 0 48 -6t12.5 -13.5t-16.5 -14.5t-39 -9t-48 -2.5t-50 -2.5q-74 -5 -147.5 -11t-146.5 -14q-16 -2 -27 -5t-24 -13
q-36 -27 -71.5 -63.5t-61 -74.5t-36.5 -73.5t3.5 -60.5t58 -36t126.5 1q102 16 202 34.5t200.5 36.5t201.5 32t205 21q18 1 27.5 -0.5t13.5 -5t3.5 -8t-1.5 -9.5q-1 -4 -2 -7.5t-4 -7t-10.5 -5.5t-21.5 -3q-100 -5 -205 -21.5t-205.5 -35.5t-194 -37t-172 -28t-138 -7
t-92.5 26q-55 38 -65.5 85t19.5 98q12 20 31.5 42t41 43.5t43 42t37.5 37.5q-30 0 -47.5 10.5t-20.5 21t10 17t45 -1.5q31 -8 62 7t60 43.5t56 65t51 71.5q-10 -2 -29 -7t-42.5 -11.5t-47.5 -13.5t-45 -13q-23 -6 -38 -10t-30 11zM716 748q-13 -2 -17.5 -0.5t-6.5 9.5
q-2 13 -1 28.5t-1 26.5t-9.5 13.5t-24.5 -10.5q-14 -11 -28 -28t-31 -24q-16 2 -18 12.5t9 18.5q28 25 56 49t58 46q15 10 31 1t15 -27q-1 -9 -3 -26.5t-6 -35.5t-10 -33t-13 -20z" />
    <glyph glyph-name="Edieresis" unicode="&#xcb;" horiz-adv-x="833" 
d="M163 542q-23 23 7 49q2 2 17.5 6.5t37 10.5t47 12t49 11.5t41.5 9.5t25 5q63 12 135.5 22.5t150.5 18t158 11.5t157.5 3.5t150.5 -6t137 -17.5q27 -5 41 -16.5t12.5 -21t-19.5 -14.5t-55 4q-19 5 -39.5 8t-40.5 5q-29 4 -54.5 5.5t-39.5 1.5q-30 1 -81.5 0.5t-113 -2.5
t-127 -5.5t-124.5 -9.5t-105.5 -14t-69.5 -18q-3 -30 -16.5 -54t-31.5 -46t-36.5 -43t-31.5 -44q43 -2 85.5 -0.5t84.5 4.5t84.5 6t85.5 3q34 0 48 -6t12.5 -13.5t-16.5 -14.5t-39 -9t-48 -2.5t-50 -2.5q-74 -5 -147.5 -11t-146.5 -14q-16 -2 -27 -5t-24 -13
q-36 -27 -71.5 -63.5t-61 -74.5t-36.5 -73.5t3.5 -60.5t58 -36t126.5 1q102 16 202 34.5t200.5 36.5t201.5 32t205 21q18 1 27.5 -0.5t13.5 -5t3.5 -8t-1.5 -9.5q-1 -4 -2 -7.5t-4 -7t-10.5 -5.5t-21.5 -3q-100 -5 -205 -21.5t-205.5 -35.5t-194 -37t-172 -28t-138 -7
t-92.5 26q-55 38 -65.5 85t19.5 98q12 20 31.5 42t41 43.5t43 42t37.5 37.5q-30 0 -47.5 10.5t-20.5 21t10 17t45 -1.5q31 -8 62 7t60 43.5t56 65t51 71.5q-10 -2 -29 -7t-42.5 -11.5t-47.5 -13.5t-45 -13q-23 -6 -38 -10t-30 11zM606 781q1 12 9.5 16t17.5 3t14.5 -7.5
t0.5 -15.5t-12.5 -13t-14 -3.5t-11 5.5t-4.5 15zM665 781q1 12 9.5 16t17.5 3t14.5 -7.5t0.5 -15.5t-12.5 -13t-14 -3.5t-11 5.5t-4.5 15z" />
    <glyph glyph-name="Igrave" unicode="&#xcc;" horiz-adv-x="877" 
d="M732 614q-90 -13 -185.5 -33.5t-186 -44t-171 -47t-139.5 -43.5q-17 -5 -26 1t-10 16.5t7 21t26 15.5q147 47 293 88.5t297 63.5q86 13 173.5 24t174.5 15.5t174 -0.5t173 -24q24 -5 40 -20.5t24 -47.5q-17 11 -39 19.5t-41 12.5q-48 10 -102.5 13t-111 1t-112 -7
t-104.5 -11q-16 -2 -24.5 -7.5t-14.5 -14t-12 -19t-18 -20.5q-18 -15 -37 -25.5t-36 -26.5q-108 -101 -193.5 -213t-157.5 -231q128 14 248.5 24.5t241.5 18.5q14 1 30.5 -1.5t26.5 -19.5q14 -24 4.5 -29t-29.5 -5q-25 1 -48.5 2t-48.5 1q-97 1 -211 -11t-220 -39
q-17 -5 -23 -12.5t-9 -18.5q-6 -19 -10 -27t-8 -7.5t-8.5 9.5l-12.5 25q-10 20 -23.5 22t-36.5 1q-16 0 -48.5 -6t-73.5 -14.5t-85 -18t-83 -17.5t-68 -13t-39 -4t-14.5 7.5t-4.5 14t4.5 15t13.5 10.5q19 8 42 14t47 11t48 9t44 8q66 13 132 22t132 23q14 3 23.5 8.5
t18.5 19.5q48 79 88.5 143t83.5 121.5t91.5 112.5t112.5 116zM922 756q-17 -4 -36.5 1t-39 15t-37.5 22t-32 23q-6 5 -6 13.5t4.5 15t12 10t16.5 -2.5q8 -6 26 -19t37.5 -28t35 -29t19.5 -21z" />
    <glyph glyph-name="Iacute" unicode="&#xcd;" horiz-adv-x="877" 
d="M732 614q-90 -13 -185.5 -33.5t-186 -44t-171 -47t-139.5 -43.5q-17 -5 -26 1t-10 16.5t7 21t26 15.5q147 47 293 88.5t297 63.5q86 13 173.5 24t174.5 15.5t174 -0.5t173 -24q24 -5 40 -20.5t24 -47.5q-17 11 -39 19.5t-41 12.5q-48 10 -102.5 13t-111 1t-112 -7
t-104.5 -11q-16 -2 -24.5 -7.5t-14.5 -14t-12 -19t-18 -20.5q-18 -15 -37 -25.5t-36 -26.5q-108 -101 -193.5 -213t-157.5 -231q128 14 248.5 24.5t241.5 18.5q14 1 30.5 -1.5t26.5 -19.5q14 -24 4.5 -29t-29.5 -5q-25 1 -48.5 2t-48.5 1q-97 1 -211 -11t-220 -39
q-17 -5 -23 -12.5t-9 -18.5q-6 -19 -10 -27t-8 -7.5t-8.5 9.5l-12.5 25q-10 20 -23.5 22t-36.5 1q-16 0 -48.5 -6t-73.5 -14.5t-85 -18t-83 -17.5t-68 -13t-39 -4t-14.5 7.5t-4.5 14t4.5 15t13.5 10.5q19 8 42 14t47 11t48 9t44 8q66 13 132 22t132 23q14 3 23.5 8.5
t18.5 19.5q48 79 88.5 143t83.5 121.5t91.5 112.5t112.5 116zM803 752q20 32 37.5 55t36.5 40q7 7 15 8t14 -2.5t8 -11t-3 -17.5q-6 -13 -18.5 -27.5t-28 -26t-32 -17.5t-29.5 -1z" />
    <glyph glyph-name="Icircumflex" unicode="&#xce;" horiz-adv-x="877" 
d="M732 614q-90 -13 -185.5 -33.5t-186 -44t-171 -47t-139.5 -43.5q-17 -5 -26 1t-10 16.5t7 21t26 15.5q147 47 293 88.5t297 63.5q86 13 173.5 24t174.5 15.5t174 -0.5t173 -24q24 -5 40 -20.5t24 -47.5q-17 11 -39 19.5t-41 12.5q-48 10 -102.5 13t-111 1t-112 -7
t-104.5 -11q-16 -2 -24.5 -7.5t-14.5 -14t-12 -19t-18 -20.5q-18 -15 -37 -25.5t-36 -26.5q-108 -101 -193.5 -213t-157.5 -231q128 14 248.5 24.5t241.5 18.5q14 1 30.5 -1.5t26.5 -19.5q14 -24 4.5 -29t-29.5 -5q-25 1 -48.5 2t-48.5 1q-97 1 -211 -11t-220 -39
q-17 -5 -23 -12.5t-9 -18.5q-6 -19 -10 -27t-8 -7.5t-8.5 9.5l-12.5 25q-10 20 -23.5 22t-36.5 1q-16 0 -48.5 -6t-73.5 -14.5t-85 -18t-83 -17.5t-68 -13t-39 -4t-14.5 7.5t-4.5 14t4.5 15t13.5 10.5q19 8 42 14t47 11t48 9t44 8q66 13 132 22t132 23q14 3 23.5 8.5
t18.5 19.5q48 79 88.5 143t83.5 121.5t91.5 112.5t112.5 116zM935 746q-13 -2 -17.5 -0.5t-6.5 9.5q-2 13 -1 28.5t-1 26.5t-9.5 13.5t-24.5 -10.5q-14 -11 -28 -28t-31 -24q-16 2 -18 12.5t9 18.5q28 25 56 49t58 46q15 10 31 1t15 -27q-1 -9 -3 -26.5t-6 -35.5t-10 -33
t-13 -20z" />
    <glyph glyph-name="Idieresis" unicode="&#xcf;" horiz-adv-x="877" 
d="M732 614q-90 -13 -185.5 -33.5t-186 -44t-171 -47t-139.5 -43.5q-17 -5 -26 1t-10 16.5t7 21t26 15.5q147 47 293 88.5t297 63.5q86 13 173.5 24t174.5 15.5t174 -0.5t173 -24q24 -5 40 -20.5t24 -47.5q-17 11 -39 19.5t-41 12.5q-48 10 -102.5 13t-111 1t-112 -7
t-104.5 -11q-16 -2 -24.5 -7.5t-14.5 -14t-12 -19t-18 -20.5q-18 -15 -37 -25.5t-36 -26.5q-108 -101 -193.5 -213t-157.5 -231q128 14 248.5 24.5t241.5 18.5q14 1 30.5 -1.5t26.5 -19.5q14 -24 4.5 -29t-29.5 -5q-25 1 -48.5 2t-48.5 1q-97 1 -211 -11t-220 -39
q-17 -5 -23 -12.5t-9 -18.5q-6 -19 -10 -27t-8 -7.5t-8.5 9.5l-12.5 25q-10 20 -23.5 22t-36.5 1q-16 0 -48.5 -6t-73.5 -14.5t-85 -18t-83 -17.5t-68 -13t-39 -4t-14.5 7.5t-4.5 14t4.5 15t13.5 10.5q19 8 42 14t47 11t48 9t44 8q66 13 132 22t132 23q14 3 23.5 8.5
t18.5 19.5q48 79 88.5 143t83.5 121.5t91.5 112.5t112.5 116zM804 779q1 12 9.5 16t17.5 3t14.5 -7.5t0.5 -15.5t-12.5 -13t-14 -3.5t-11 5.5t-4.5 15zM863 779q1 12 9.5 16t17.5 3t14.5 -7.5t0.5 -15.5t-12.5 -13t-14 -3.5t-11 5.5t-4.5 15z" />
    <glyph glyph-name="Eth" unicode="&#xd0;" horiz-adv-x="1365" 
d="M326 358q13 0 26.5 0.5t27.5 0.5q27 45 54 88t49 79q-7 -4 -23 -11.5t-33.5 -15.5t-31.5 -13.5t-17 -5.5q-11 1 -19.5 6t-11.5 12.5t-0.5 16.5t14.5 19q16 13 49.5 26.5t71 25t72.5 19t55 9.5q40 3 101.5 6t132 2t143.5 -8.5t135.5 -26t109 -51t63.5 -83.5
q14 -40 5.5 -70t-29.5 -53t-51 -40.5t-60 -32.5q-57 -29 -127 -53.5t-145 -44.5t-152 -36.5t-149 -29.5t-135.5 -23t-111.5 -17q-21 -3 -35 -4.5t-23 -7.5t-13.5 -18.5t-5.5 -37.5q0 -16 -13 -18t-22 3q-13 7 -10 32q4 26 -9 33.5t-34 5.5q-10 0 -38 -3.5t-59 -7t-57 -5.5
t-31 1q-8 6 -12 14.5t-3.5 17.5t5.5 15.5t16 8.5q19 3 53 3t70 1.5t67 7t46 17.5q22 19 51 79q14 28 33 60.5t40 67.5q-32 2 -38 6q-3 1 -5.5 6.5t-2 11.5t4 11t12.5 5zM1175 511q-49 30 -113 44t-136 18.5t-147.5 1t-146.5 -9.5q-14 -1 -29.5 -11.5t-29.5 -25.5t-27 -32
t-22 -30q-5 -8 -23.5 -37t-41.5 -68q35 0 68.5 0.5t61 0.5h46.5h25q11 -1 20.5 -2.5t14.5 -6.5q8 -8 5.5 -16t-16.5 -11q-12 -2 -40 -4t-63 -3.5t-74 -2t-75 -0.5q-20 -33 -39 -65.5t-34 -59t-25 -44t-10 -20.5q-3 -11 3 -14t15.5 -3t19.5 2l15 3q55 9 119.5 21.5t133 27
t138 31.5t134 35.5t121 37.5t99.5 39q35 16 64.5 40.5t41.5 52.5t2 57t-55 54z" />
    <glyph glyph-name="Ntilde" unicode="&#xd1;" horiz-adv-x="1182" 
d="M377 521q-42 -45 -87 -100t-90 -112.5t-88.5 -115t-83.5 -107.5q-14 -17 -29 -37t-31 -34q-11 -9 -21 -10t-20 10t-9.5 18.5t8.5 19.5q15 23 38.5 54.5t49 64t50 63.5t42.5 52q73 93 147.5 181.5t155.5 163.5q12 11 22 12.5t22 -12.5q14 -17 14.5 -35.5t-5.5 -39.5
q-22 -75 -47.5 -146.5t-42.5 -152.5q-16 -78 -7.5 -120t35.5 -56t68 -5.5t91 30.5q74 32 153.5 85t157 114t149.5 123t132 112q8 7 18 17.5t20 17t19.5 3.5t15.5 -23q5 -18 -5 -31.5t-19 -22.5q-47 -46 -104.5 -98t-121 -103.5t-131 -100t-134 -87t-130.5 -65t-120 -33.5
q-27 -5 -49.5 7.5t-45.5 35.5q-27 29 -37 65.5t-10 77.5t8.5 84t18.5 85t20 80.5t13 70.5zM754 751q-3 15 -5 24t-7.5 8.5t-18 -12.5t-36.5 -39q-7 -6 -15 -6.5t-13 3t-6.5 10.5t3.5 16q10 16 32.5 37.5t46 32t42 3t20.5 -49.5q1 -23 7.5 -26t15.5 3t20.5 16t22.5 13
q14 4 19.5 -5.5t-1.5 -18.5q-14 -19 -34 -31t-39.5 -14.5t-34.5 6t-19 30.5z" />
    <glyph glyph-name="Ograve" unicode="&#xd2;" horiz-adv-x="972" 
d="M13 299q2 10 6 15t12 11q51 35 92 77t86 84q40 38 86.5 69t93.5 60q31 20 77 38t100 31t111.5 19t111 3t99 -16.5t75.5 -39.5q29 -25 35 -50.5t-11 -60.5q-19 -36 -51 -75t-71.5 -78t-84.5 -76.5t-90 -71.5t-87.5 -62.5t-77.5 -49.5q-74 -45 -152.5 -80.5t-163.5 -49.5
q-52 -9 -86.5 -1t-54.5 28t-28 49.5t-7 63t8 68.5t17 67q2 7 0.5 9.5t-7 4t-15.5 4t-23 10.5zM471 585q23 0 53.5 1t57.5 -3.5t46 -16.5t19 -36q-26 3 -61.5 2t-74.5 -6.5t-79.5 -14.5t-77.5 -21.5t-67.5 -28t-50.5 -33.5q-39 -36 -71.5 -81.5t-53 -92t-28.5 -89.5t1 -74
t37 -46t78 -4q56 13 122.5 39t136.5 62.5t139 81.5t129 94.5t107.5 102t75.5 104.5q15 27 17.5 53t-8.5 45.5t-37 31.5t-68 12q-37 -1 -81.5 -4.5t-90.5 -12.5t-90 -25t-80 -40zM884 757q-17 -4 -36.5 1t-39 15t-37.5 22t-32 23q-6 5 -6 13.5t4.5 15t12 10t16.5 -2.5
q8 -6 26 -19t37.5 -28t35 -29t19.5 -21z" />
    <glyph glyph-name="Oacute" unicode="&#xd3;" horiz-adv-x="972" 
d="M13 299q2 10 6 15t12 11q51 35 92 77t86 84q40 38 86.5 69t93.5 60q31 20 77 38t100 31t111.5 19t111 3t99 -16.5t75.5 -39.5q29 -25 35 -50.5t-11 -60.5q-19 -36 -51 -75t-71.5 -78t-84.5 -76.5t-90 -71.5t-87.5 -62.5t-77.5 -49.5q-74 -45 -152.5 -80.5t-163.5 -49.5
q-52 -9 -86.5 -1t-54.5 28t-28 49.5t-7 63t8 68.5t17 67q2 7 0.5 9.5t-7 4t-15.5 4t-23 10.5zM471 585q23 0 53.5 1t57.5 -3.5t46 -16.5t19 -36q-26 3 -61.5 2t-74.5 -6.5t-79.5 -14.5t-77.5 -21.5t-67.5 -28t-50.5 -33.5q-39 -36 -71.5 -81.5t-53 -92t-28.5 -89.5t1 -74
t37 -46t78 -4q56 13 122.5 39t136.5 62.5t139 81.5t129 94.5t107.5 102t75.5 104.5q15 27 17.5 53t-8.5 45.5t-37 31.5t-68 12q-37 -1 -81.5 -4.5t-90.5 -12.5t-90 -25t-80 -40zM784 771q20 32 37.5 55t36.5 40q7 7 15 8t14 -2.5t8 -11t-3 -17.5q-6 -13 -18.5 -27.5t-28 -26
t-32 -17.5t-29.5 -1z" />
    <glyph glyph-name="Ocircumflex" unicode="&#xd4;" horiz-adv-x="972" 
d="M13 299q2 10 6 15t12 11q51 35 92 77t86 84q40 38 86.5 69t93.5 60q31 20 77 38t100 31t111.5 19t111 3t99 -16.5t75.5 -39.5q29 -25 35 -50.5t-11 -60.5q-19 -36 -51 -75t-71.5 -78t-84.5 -76.5t-90 -71.5t-87.5 -62.5t-77.5 -49.5q-74 -45 -152.5 -80.5t-163.5 -49.5
q-52 -9 -86.5 -1t-54.5 28t-28 49.5t-7 63t8 68.5t17 67q2 7 0.5 9.5t-7 4t-15.5 4t-23 10.5zM471 585q23 0 53.5 1t57.5 -3.5t46 -16.5t19 -36q-26 3 -61.5 2t-74.5 -6.5t-79.5 -14.5t-77.5 -21.5t-67.5 -28t-50.5 -33.5q-39 -36 -71.5 -81.5t-53 -92t-28.5 -89.5t1 -74
t37 -46t78 -4q56 13 122.5 39t136.5 62.5t139 81.5t129 94.5t107.5 102t75.5 104.5q15 27 17.5 53t-8.5 45.5t-37 31.5t-68 12q-37 -1 -81.5 -4.5t-90.5 -12.5t-90 -25t-80 -40zM881 754q-13 -2 -17.5 -0.5t-6.5 9.5q-2 13 -1 28.5t-1 26.5t-9.5 13.5t-24.5 -10.5
q-14 -11 -28 -28t-31 -24q-16 2 -18 12.5t9 18.5q28 25 56 49t58 46q15 10 31 1t15 -27q-1 -9 -3 -26.5t-6 -35.5t-10 -33t-13 -20z" />
    <glyph glyph-name="Otilde" unicode="&#xd5;" horiz-adv-x="972" 
d="M13 299q2 10 6 15t12 11q51 35 92 77t86 84q40 38 86.5 69t93.5 60q31 20 77 38t100 31t111.5 19t111 3t99 -16.5t75.5 -39.5q29 -25 35 -50.5t-11 -60.5q-19 -36 -51 -75t-71.5 -78t-84.5 -76.5t-90 -71.5t-87.5 -62.5t-77.5 -49.5q-74 -45 -152.5 -80.5t-163.5 -49.5
q-52 -9 -86.5 -1t-54.5 28t-28 49.5t-7 63t8 68.5t17 67q2 7 0.5 9.5t-7 4t-15.5 4t-23 10.5zM471 585q23 0 53.5 1t57.5 -3.5t46 -16.5t19 -36q-26 3 -61.5 2t-74.5 -6.5t-79.5 -14.5t-77.5 -21.5t-67.5 -28t-50.5 -33.5q-39 -36 -71.5 -81.5t-53 -92t-28.5 -89.5t1 -74
t37 -46t78 -4q56 13 122.5 39t136.5 62.5t139 81.5t129 94.5t107.5 102t75.5 104.5q15 27 17.5 53t-8.5 45.5t-37 31.5t-68 12q-37 -1 -81.5 -4.5t-90.5 -12.5t-90 -25t-80 -40zM813 790q-3 15 -5 24t-7.5 8.5t-18 -12.5t-36.5 -39q-7 -6 -15 -6.5t-13 3t-6.5 10.5t3.5 16
q10 16 32.5 37.5t46 32t42 3t20.5 -49.5q1 -23 7.5 -26t15.5 3t20.5 16t22.5 13q14 4 19.5 -5.5t-1.5 -18.5q-14 -19 -34 -31t-39.5 -14.5t-34.5 6t-19 30.5z" />
    <glyph glyph-name="Odieresis" unicode="&#xd6;" horiz-adv-x="972" 
d="M13 299q2 10 6 15t12 11q51 35 92 77t86 84q40 38 86.5 69t93.5 60q31 20 77 38t100 31t111.5 19t111 3t99 -16.5t75.5 -39.5q29 -25 35 -50.5t-11 -60.5q-19 -36 -51 -75t-71.5 -78t-84.5 -76.5t-90 -71.5t-87.5 -62.5t-77.5 -49.5q-74 -45 -152.5 -80.5t-163.5 -49.5
q-52 -9 -86.5 -1t-54.5 28t-28 49.5t-7 63t8 68.5t17 67q2 7 0.5 9.5t-7 4t-15.5 4t-23 10.5zM471 585q23 0 53.5 1t57.5 -3.5t46 -16.5t19 -36q-26 3 -61.5 2t-74.5 -6.5t-79.5 -14.5t-77.5 -21.5t-67.5 -28t-50.5 -33.5q-39 -36 -71.5 -81.5t-53 -92t-28.5 -89.5t1 -74
t37 -46t78 -4q56 13 122.5 39t136.5 62.5t139 81.5t129 94.5t107.5 102t75.5 104.5q15 27 17.5 53t-8.5 45.5t-37 31.5t-68 12q-37 -1 -81.5 -4.5t-90.5 -12.5t-90 -25t-80 -40zM783 791q1 12 9.5 16t17.5 3t14.5 -7.5t0.5 -15.5t-12.5 -13t-14 -3.5t-11 5.5t-4.5 15z
M842 791q1 12 9.5 16t17.5 3t14.5 -7.5t0.5 -15.5t-12.5 -13t-14 -3.5t-11 5.5t-4.5 15z" />
    <glyph glyph-name="multiply" unicode="&#xd7;" horiz-adv-x="334" 
d="M194 318q12 -11 19.5 -18.5t12.5 -13.5q7 -8 11 -15t3 -14q-1 -11 -9 -16t-19 1q-12 8 -27.5 19t-30.5 25q-18 -14 -29 -22t-20 -13q-10 -7 -19 -11.5t-16 -3.5q-11 1 -13.5 9t7.5 19q11 11 26 24t32 27q-17 17 -29.5 32.5t-13.5 23.5q-1 3 2 9t8 10.5t11.5 6t11.5 -4.5
l50 -46q27 20 50 35t33 17q3 1 8.5 -2t8.5 -8t2.5 -11t-8.5 -12z" />
    <glyph glyph-name="Oslash" unicode="&#xd8;" horiz-adv-x="972" 
d="M764 707q61 -1 113 -14.5t86 -42.5q29 -25 35 -50.5t-11 -60.5q-19 -36 -51 -75t-71.5 -78t-84.5 -76.5t-90 -71.5t-87.5 -62.5t-77.5 -49.5q-74 -45 -152.5 -80.5t-163.5 -49.5l-24 -3q-8 -10 -12.5 -15t-6.5 -7q-8 -9 -15 -15t-15 -6q-10 -1 -14.5 6t1.5 20
q1 2 4.5 7.5t7.5 10.5q-49 6 -72 34.5t-28.5 68.5t2.5 86t21 88q2 7 0.5 9.5t-7 4t-15.5 4t-23 10.5q2 10 6 15t12 11q51 35 92 77t86 84q40 38 86.5 69t93.5 60q25 17 61.5 32t79 27t89 20.5t93.5 11.5q24 28 39 44t19 18q3 1 8.5 -1t10 -6t5.5 -10t-5 -13zM623 532
q-49 -60 -103.5 -127.5t-107 -132t-100 -123t-81.5 -100.5q56 16 121 43.5t131.5 64t131.5 80t121.5 91t101.5 97.5t71 100q15 27 17.5 53t-8.5 45.5t-37 31.5t-68 12q-20 -1 -41 -2t-44 -3l-88 -109q7 -11 7 -23zM236 428q-37 -34 -68 -76.5t-52 -86.5t-30.5 -86t-4.5 -74
t26 -51t61 -17q31 39 77 97t100 125t111 137.5t110 134.5q-43 -3 -91 -11.5t-93.5 -22t-84 -31t-61.5 -38.5zM471 585q14 0 31 0.5t35 0t35 -2.5t32 -6l65 77q-54 -8 -105 -24.5t-93 -44.5z" />
    <glyph glyph-name="Ugrave" unicode="&#xd9;" horiz-adv-x="1427" 
d="M1239 434q-82 -26 -163 -57.5t-161 -65t-160.5 -67.5t-161.5 -64q-90 -34 -181 -64.5t-183 -58.5q-20 -6 -45 -10.5t-50.5 -5t-49.5 4.5t-42 17q-43 30 -47.5 68.5t15.5 82.5q23 51 55.5 95t71.5 82.5t83 72.5t90 65q6 5 19.5 10.5t20.5 7.5q22 4 29 -11.5t2.5 -33.5
t-19.5 -30t-36 0q-21 -6 -57 -36.5t-75 -72t-75 -88.5t-56.5 -87t-19 -66.5t36.5 -26.5q54 -1 124 14.5t150.5 41t168.5 60t178.5 71.5t180.5 74.5t174 70.5t160 59t138 39q17 4 26.5 -2.5t17.5 -22.5q7 -14 3 -22.5t-15 -16.5q-21 -17 -55.5 -48t-73 -70t-75 -82t-62 -84
t-35 -75.5t7.5 -56.5q-8 -8 -12 -8t-7 2q-27 19 -28.5 51t12.5 70.5t39 80t52.5 79t52 68t37.5 46.5zM907 718q-17 -4 -36.5 1t-39 15t-37.5 22t-32 23q-6 5 -6 13.5t4.5 15t12 10t16.5 -2.5q8 -6 26 -19t37.5 -28t35 -29t19.5 -21z" />
    <glyph glyph-name="Uacute" unicode="&#xda;" horiz-adv-x="1427" 
d="M1239 434q-82 -26 -163 -57.5t-161 -65t-160.5 -67.5t-161.5 -64q-90 -34 -181 -64.5t-183 -58.5q-20 -6 -45 -10.5t-50.5 -5t-49.5 4.5t-42 17q-43 30 -47.5 68.5t15.5 82.5q23 51 55.5 95t71.5 82.5t83 72.5t90 65q6 5 19.5 10.5t20.5 7.5q22 4 29 -11.5t2.5 -33.5
t-19.5 -30t-36 0q-21 -6 -57 -36.5t-75 -72t-75 -88.5t-56.5 -87t-19 -66.5t36.5 -26.5q54 -1 124 14.5t150.5 41t168.5 60t178.5 71.5t180.5 74.5t174 70.5t160 59t138 39q17 4 26.5 -2.5t17.5 -22.5q7 -14 3 -22.5t-15 -16.5q-21 -17 -55.5 -48t-73 -70t-75 -82t-62 -84
t-35 -75.5t7.5 -56.5q-8 -8 -12 -8t-7 2q-27 19 -28.5 51t12.5 70.5t39 80t52.5 79t52 68t37.5 46.5zM822 707q20 32 37.5 55t36.5 40q7 7 15 8t14 -2.5t8 -11t-3 -17.5q-6 -13 -18.5 -27.5t-28 -26t-32 -17.5t-29.5 -1z" />
    <glyph glyph-name="Ucircumflex" unicode="&#xdb;" horiz-adv-x="1427" 
d="M1239 434q-82 -26 -163 -57.5t-161 -65t-160.5 -67.5t-161.5 -64q-90 -34 -181 -64.5t-183 -58.5q-20 -6 -45 -10.5t-50.5 -5t-49.5 4.5t-42 17q-43 30 -47.5 68.5t15.5 82.5q23 51 55.5 95t71.5 82.5t83 72.5t90 65q6 5 19.5 10.5t20.5 7.5q22 4 29 -11.5t2.5 -33.5
t-19.5 -30t-36 0q-21 -6 -57 -36.5t-75 -72t-75 -88.5t-56.5 -87t-19 -66.5t36.5 -26.5q54 -1 124 14.5t150.5 41t168.5 60t178.5 71.5t180.5 74.5t174 70.5t160 59t138 39q17 4 26.5 -2.5t17.5 -22.5q7 -14 3 -22.5t-15 -16.5q-21 -17 -55.5 -48t-73 -70t-75 -82t-62 -84
t-35 -75.5t7.5 -56.5q-8 -8 -12 -8t-7 2q-27 19 -28.5 51t12.5 70.5t39 80t52.5 79t52 68t37.5 46.5zM926 682q-13 -2 -17.5 -0.5t-6.5 9.5q-2 13 -1 28.5t-1 26.5t-9.5 13.5t-24.5 -10.5q-14 -11 -28 -28t-31 -24q-16 2 -18 12.5t9 18.5q28 25 56 49t58 46q15 10 31 1
t15 -27q-1 -9 -3 -26.5t-6 -35.5t-10 -33t-13 -20z" />
    <glyph glyph-name="Udieresis" unicode="&#xdc;" horiz-adv-x="1427" 
d="M1239 434q-82 -26 -163 -57.5t-161 -65t-160.5 -67.5t-161.5 -64q-90 -34 -181 -64.5t-183 -58.5q-20 -6 -45 -10.5t-50.5 -5t-49.5 4.5t-42 17q-43 30 -47.5 68.5t15.5 82.5q23 51 55.5 95t71.5 82.5t83 72.5t90 65q6 5 19.5 10.5t20.5 7.5q22 4 29 -11.5t2.5 -33.5
t-19.5 -30t-36 0q-21 -6 -57 -36.5t-75 -72t-75 -88.5t-56.5 -87t-19 -66.5t36.5 -26.5q54 -1 124 14.5t150.5 41t168.5 60t178.5 71.5t180.5 74.5t174 70.5t160 59t138 39q17 4 26.5 -2.5t17.5 -22.5q7 -14 3 -22.5t-15 -16.5q-21 -17 -55.5 -48t-73 -70t-75 -82t-62 -84
t-35 -75.5t7.5 -56.5q-8 -8 -12 -8t-7 2q-27 19 -28.5 51t12.5 70.5t39 80t52.5 79t52 68t37.5 46.5zM809 718q1 12 9.5 16t17.5 3t14.5 -7.5t0.5 -15.5t-12.5 -13t-14 -3.5t-11 5.5t-4.5 15zM868 718q1 12 9.5 16t17.5 3t14.5 -7.5t0.5 -15.5t-12.5 -13t-14 -3.5t-11 5.5
t-4.5 15z" />
    <glyph glyph-name="Yacute" unicode="&#xdd;" horiz-adv-x="1202" 
d="M41 518q35 20 92.5 5.5t125.5 -48.5t139 -80.5t133 -91.5t108.5 -80.5t65.5 -46.5q26 -17 45.5 -18t48.5 11q99 42 170 119t99 181l7 28l-2 11q-9 1 -29.5 -10.5t-48.5 -29.5t-61.5 -38.5t-69.5 -35.5t-72.5 -21t-70.5 5q-57 18 -74 58t0 95q3 9 8 23.5t12 29.5t14 28.5
t13 19.5q14 16 30 15t27 -21q2 -5 -0.5 -12t-5.5 -11q-9 -12 -20 -32t-20 -42.5t-13.5 -44t-1 -38t17.5 -24t43 -0.5q40 9 83 27.5t85 42.5t80.5 50.5t71.5 51.5q14 11 24.5 18.5t30.5 -2.5q17 -9 24 -26.5t5 -35.5q-14 -139 -82.5 -248.5t-192.5 -175.5q-18 -10 -28 -16
t-10.5 -11.5t8 -13t26.5 -19.5q30 -20 61 -38.5t54 -46.5q-41 8 -71 25.5t-63 42.5q-17 13 -31 19.5t-28.5 9t-30 0t-35.5 -7.5q-54 -13 -117.5 -12.5t-130 13.5t-132.5 37t-125 57t-107.5 74t-78.5 88q-13 19 -24 46.5t-14 55t4.5 52.5t33.5 39zM709 137
q-60 40 -118.5 83.5t-118 85.5t-120.5 80.5t-126 70.5q-24 12 -53.5 21.5t-55 8t-43 -18.5t-16.5 -58q1 -43 22 -79t55 -66t77.5 -54t89 -42t89 -29.5t77.5 -17.5q60 -10 121 -7.5t120 22.5zM900 705q20 32 37.5 55t36.5 40q7 7 15 8t14 -2.5t8 -11t-3 -17.5
q-6 -13 -18.5 -27.5t-28 -26t-32 -17.5t-29.5 -1z" />
    <glyph glyph-name="Thorn" unicode="&#xde;" horiz-adv-x="323" 
d="M-146 47q-6 5 -8 13t8 22q75 123 151 244.5t153 243.5q3 5 8.5 12t12 12.5t14 8.5t14.5 -1q13 -2 12.5 -12.5t-4.5 -18.5q-16 -32 -35.5 -62.5t-37.5 -61.5q-7 -12 -11 -19t-2.5 -11t8.5 -5.5t22 -3.5q29 -4 49 -15t28 -26.5t4 -33t-23 -35.5q-30 -28 -63.5 -37
t-65 -13.5t-58 -12.5t-42.5 -34q-8 -12 -19.5 -31.5t-25 -41t-28 -42t-27.5 -34.5q-14 -14 -19.5 -14t-14.5 9zM171 368q-20 9 -40 7t-36.5 -12t-27.5 -27t-12 -38q35 2 64 10.5t52 21.5q17 10 16 20.5t-16 17.5z" />
    <glyph glyph-name="germandbls" unicode="&#xdf;" horiz-adv-x="508" 
d="M85 251q18 6 44 10.5t55 8.5t57.5 7.5t51 8.5t36 12.5t12.5 18.5q-1 9 -17 16.5t-37 15t-42.5 16t-34 20t-10.5 26.5t28 35q23 17 43 28t38 21.5t34 23.5t31 35t12 36t-17.5 18t-37.5 -3.5t-47 -27.5q-50 -41 -91 -89t-77.5 -98.5t-70.5 -102.5t-70 -102
q-3 -3 -9.5 -11.5t-13.5 -17.5t-13.5 -16.5t-9.5 -9.5q-14 -8 -23 -6t-14 9q-11 12 -7 19t11 18q43 59 81.5 120.5t78.5 121t85 113t102 95.5q41 32 77 41q34 8 66.5 2.5t54.5 -21t27.5 -39t-15.5 -51.5q-14 -18 -36.5 -39t-48.5 -41.5t-52.5 -39.5t-47.5 -34
q17 -10 41.5 -21.5t46.5 -25.5t37 -30.5t13 -35.5q0 -15 -8 -25.5t-20.5 -17t-28.5 -10t-32 -6.5q-20 -3 -52 -8.5t-66 -9.5t-65.5 -4t-50.5 6q-26 9 -22.5 21.5t24.5 19.5z" />
    <glyph glyph-name="agrave" unicode="&#xe0;" horiz-adv-x="580" 
d="M-24 276q8 17 24 34q20 22 47 41.5t57 35t60 27.5t56 19q44 13 72 -4.5t42 -60.5q5 -17 -2 -33.5t-9 -32.5q-5 -32 8 -46.5t36.5 -16.5t54.5 5t60.5 18t55 22.5t38.5 18.5q12 4 17 -9q3 -11 -11.5 -23.5t-39.5 -24.5t-56 -23.5t-61 -20t-55 -13.5t-37 -4q-14 1 -25 9.5
t-20.5 20t-16.5 24.5t-13 24q-8 16 -13 17t-19 -7q-27 -15 -47.5 -26.5t-39.5 -20.5t-39 -16.5t-46 -14.5q-14 -5 -31 1t-30 18t-19 28.5t2 33.5zM41 251q15 4 38.5 12.5t49.5 20.5t52.5 26t46.5 29q32 26 25 34t-38 -5q-49 -20 -93 -49.5t-81 -67.5zM314 509
q-17 -4 -36.5 1t-39 15t-37.5 22t-32 23q-6 5 -6 13.5t4.5 15t12 10t16.5 -2.5q8 -6 26 -19t37.5 -28t35 -29t19.5 -21z" />
    <glyph glyph-name="aacute" unicode="&#xe1;" horiz-adv-x="580" 
d="M-24 276q8 17 24 34q20 22 47 41.5t57 35t60 27.5t56 19q44 13 72 -4.5t42 -60.5q5 -17 -2 -33.5t-9 -32.5q-5 -32 8 -46.5t36.5 -16.5t54.5 5t60.5 18t55 22.5t38.5 18.5q12 4 17 -9q3 -11 -11.5 -23.5t-39.5 -24.5t-56 -23.5t-61 -20t-55 -13.5t-37 -4q-14 1 -25 9.5
t-20.5 20t-16.5 24.5t-13 24q-8 16 -13 17t-19 -7q-27 -15 -47.5 -26.5t-39.5 -20.5t-39 -16.5t-46 -14.5q-14 -5 -31 1t-30 18t-19 28.5t2 33.5zM41 251q15 4 38.5 12.5t49.5 20.5t52.5 26t46.5 29q32 26 25 34t-38 -5q-49 -20 -93 -49.5t-81 -67.5zM216 512q20 32 37.5 55
t36.5 40q7 7 15 8t14 -2.5t8 -11t-3 -17.5q-6 -13 -18.5 -27.5t-28 -26t-32 -17.5t-29.5 -1z" />
    <glyph glyph-name="acircumflex" unicode="&#xe2;" horiz-adv-x="580" 
d="M-24 276q8 17 24 34q20 22 47 41.5t57 35t60 27.5t56 19q44 13 72 -4.5t42 -60.5q5 -17 -2 -33.5t-9 -32.5q-5 -32 8 -46.5t36.5 -16.5t54.5 5t60.5 18t55 22.5t38.5 18.5q12 4 17 -9q3 -11 -11.5 -23.5t-39.5 -24.5t-56 -23.5t-61 -20t-55 -13.5t-37 -4q-14 1 -25 9.5
t-20.5 20t-16.5 24.5t-13 24q-8 16 -13 17t-19 -7q-27 -15 -47.5 -26.5t-39.5 -20.5t-39 -16.5t-46 -14.5q-14 -5 -31 1t-30 18t-19 28.5t2 33.5zM41 251q15 4 38.5 12.5t49.5 20.5t52.5 26t46.5 29q32 26 25 34t-38 -5q-49 -20 -93 -49.5t-81 -67.5zM342 491
q-13 -2 -17.5 -0.5t-6.5 9.5q-2 13 -1 28.5t-1 26.5t-9.5 13.5t-24.5 -10.5q-14 -11 -28 -28t-31 -24q-16 2 -18 12.5t9 18.5q28 25 56 49t58 46q15 10 31 1t15 -27q-1 -9 -3 -26.5t-6 -35.5t-10 -33t-13 -20z" />
    <glyph glyph-name="atilde" unicode="&#xe3;" horiz-adv-x="580" 
d="M-24 276q8 17 24 34q20 22 47 41.5t57 35t60 27.5t56 19q44 13 72 -4.5t42 -60.5q5 -17 -2 -33.5t-9 -32.5q-5 -32 8 -46.5t36.5 -16.5t54.5 5t60.5 18t55 22.5t38.5 18.5q12 4 17 -9q3 -11 -11.5 -23.5t-39.5 -24.5t-56 -23.5t-61 -20t-55 -13.5t-37 -4q-14 1 -25 9.5
t-20.5 20t-16.5 24.5t-13 24q-8 16 -13 17t-19 -7q-27 -15 -47.5 -26.5t-39.5 -20.5t-39 -16.5t-46 -14.5q-14 -5 -31 1t-30 18t-19 28.5t2 33.5zM41 251q15 4 38.5 12.5t49.5 20.5t52.5 26t46.5 29q32 26 25 34t-38 -5q-49 -20 -93 -49.5t-81 -67.5zM246 539q-3 15 -5 24
t-7.5 8.5t-18 -12.5t-36.5 -39q-7 -6 -15 -6.5t-13 3t-6.5 10.5t3.5 16q10 16 32.5 37.5t46 32t42 3t20.5 -49.5q1 -23 7.5 -26t15.5 3t20.5 16t22.5 13q14 4 19.5 -5.5t-1.5 -18.5q-14 -19 -34 -31t-39.5 -14.5t-34.5 6t-19 30.5z" />
    <glyph glyph-name="adieresis" unicode="&#xe4;" horiz-adv-x="580" 
d="M-24 276q8 17 24 34q20 22 47 41.5t57 35t60 27.5t56 19q44 13 72 -4.5t42 -60.5q5 -17 -2 -33.5t-9 -32.5q-5 -32 8 -46.5t36.5 -16.5t54.5 5t60.5 18t55 22.5t38.5 18.5q12 4 17 -9q3 -11 -11.5 -23.5t-39.5 -24.5t-56 -23.5t-61 -20t-55 -13.5t-37 -4q-14 1 -25 9.5
t-20.5 20t-16.5 24.5t-13 24q-8 16 -13 17t-19 -7q-27 -15 -47.5 -26.5t-39.5 -20.5t-39 -16.5t-46 -14.5q-14 -5 -31 1t-30 18t-19 28.5t2 33.5zM41 251q15 4 38.5 12.5t49.5 20.5t52.5 26t46.5 29q32 26 25 34t-38 -5q-49 -20 -93 -49.5t-81 -67.5zM207 534q1 12 9.5 16
t17.5 3t14.5 -7.5t0.5 -15.5t-12.5 -13t-14 -3.5t-11 5.5t-4.5 15zM266 534q1 12 9.5 16t17.5 3t14.5 -7.5t0.5 -15.5t-12.5 -13t-14 -3.5t-11 5.5t-4.5 15z" />
    <glyph glyph-name="aring" unicode="&#xe5;" horiz-adv-x="580" 
d="M-24 276q8 17 24 34q20 22 47 41.5t57 35t60 27.5t56 19q44 13 72 -4.5t42 -60.5q5 -17 -2 -33.5t-9 -32.5q-5 -32 8 -46.5t36.5 -16.5t54.5 5t60.5 18t55 22.5t38.5 18.5q12 4 17 -9q3 -11 -11.5 -23.5t-39.5 -24.5t-56 -23.5t-61 -20t-55 -13.5t-37 -4q-14 1 -25 9.5
t-20.5 20t-16.5 24.5t-13 24q-8 16 -13 17t-19 -7q-27 -15 -47.5 -26.5t-39.5 -20.5t-39 -16.5t-46 -14.5q-14 -5 -31 1t-30 18t-19 28.5t2 33.5zM41 251q15 4 38.5 12.5t49.5 20.5t52.5 26t46.5 29q32 26 25 34t-38 -5q-49 -20 -93 -49.5t-81 -67.5zM250 507
q-32 0 -39.5 18t-0.5 39.5t23 39t33 17.5q30 -2 41 -20t7 -39t-20.5 -38t-43.5 -17zM243 537q10 -3 19 3t14 16t3.5 20.5t-13.5 15.5q-8 4 -14 -3t-9.5 -17.5t-4 -21t4.5 -13.5z" />
    <glyph glyph-name="ae" unicode="&#xe6;" horiz-adv-x="743" 
d="M296 183q-14 7 -23 17t-13.5 21.5t-5.5 23.5t1 23q-7 11 -11.5 11.5t-17.5 -6.5q-27 -15 -47.5 -26.5t-39.5 -20.5t-39 -16.5t-46 -14.5q-14 -5 -31 1t-30 18t-19 28.5t2 33.5t24 34q20 22 47 41.5t57 35t60 27.5t56 19q78 22 109 -52q33 28 74 42.5t81 5.5
q21 -5 38 -20.5t19 -38.5q3 -35 -19 -52t-56.5 -24.5t-74.5 -11t-72 -12.5q0 -2 -0.5 -3t-0.5 -2q-5 -18 9 -27.5t35 -8.5q49 1 101 8.5t100.5 18t91.5 22.5t74 22q12 6 21 4t11.5 -8.5t-2 -14.5t-19.5 -13q-47 -15 -89 -26.5t-84 -22t-86.5 -21t-96.5 -23.5
q-26 -6 -45 -5.5t-43 13.5zM41 251q15 4 38.5 12.5t49.5 20.5t52.5 26t46.5 29q32 26 25 34t-38 -5q-49 -20 -93 -49.5t-81 -67.5zM476 353q4 6 2 9.5t-7 5t-11 1.5h-10q-31 -3 -60 -19.5t-48 -39.5q16 6 38 12.5t42.5 12.5t35.5 10.5t18 7.5z" />
    <glyph glyph-name="ccedilla" unicode="&#xe7;" horiz-adv-x="468" 
d="M28 139q17 -11 34 -21.5t32 -24.5q14 -12 12.5 -24t-12 -21t-27 -14.5t-33 -5.5t-30.5 6t-19 20q1 6 9 10.5t18.5 8t20.5 6t15 4.5q-54 29 -63.5 50.5t29.5 52.5q-14 9 -22 20.5t-11.5 24t-2.5 26t4 25.5q9 30 32.5 58t54.5 48t67 29t71 1q21 -5 35.5 -18.5t16.5 -36.5
q1 -8 -4 -19.5t-13 -22t-18.5 -18t-20.5 -7.5q-6 -1 -14 3.5t-13 9.5q-3 12 7 24.5t17 19.5q4 6 2 9.5t-7 5t-11 1.5h-10q-23 -2 -44.5 -11.5t-39.5 -23.5t-30.5 -32t-17.5 -37q-5 -18 9 -27.5t35 -8.5q49 1 101 8.5t100.5 18t91.5 22.5t74 22q12 6 21 4t11.5 -8.5t-2 -14.5
t-19.5 -13q-47 -15 -89 -26.5t-84 -22t-86.5 -21t-96.5 -23.5q-11 -3 -20 -4.5t-18 -1.5q-11 -8 -21 -15.5t-21 -14.5z" />
    <glyph glyph-name="egrave" unicode="&#xe8;" horiz-adv-x="467" 
d="M20 183q-33 17 -39.5 45.5t1.5 53.5q9 30 32.5 60t55 52t67.5 32.5t71 2.5q21 -5 38 -20.5t19 -38.5q3 -35 -19 -52t-56.5 -24.5t-74.5 -11t-72 -12.5q0 -2 -0.5 -3t-0.5 -2q-5 -18 9 -27.5t35 -8.5q49 1 101 8.5t100.5 18t91.5 22.5t74 22q12 6 21 4t11.5 -8.5t-2 -14.5
t-19.5 -13q-47 -15 -89 -26.5t-84 -22t-86.5 -21t-96.5 -23.5q-26 -6 -45 -5.5t-43 13.5zM200 353q4 6 2 9.5t-7 5t-11 1.5h-10q-31 -3 -60 -19.5t-48 -39.5q16 6 38 12.5t42.5 12.5t35.5 10.5t18 7.5zM284 507q-17 -4 -36.5 1t-39 15t-37.5 22t-32 23q-6 5 -6 13.5t4.5 15
t12 10t16.5 -2.5q8 -6 26 -19t37.5 -28t35 -29t19.5 -21z" />
    <glyph glyph-name="eacute" unicode="&#xe9;" horiz-adv-x="467" 
d="M20 183q-33 17 -39.5 45.5t1.5 53.5q9 30 32.5 60t55 52t67.5 32.5t71 2.5q21 -5 38 -20.5t19 -38.5q3 -35 -19 -52t-56.5 -24.5t-74.5 -11t-72 -12.5q0 -2 -0.5 -3t-0.5 -2q-5 -18 9 -27.5t35 -8.5q49 1 101 8.5t100.5 18t91.5 22.5t74 22q12 6 21 4t11.5 -8.5t-2 -14.5
t-19.5 -13q-47 -15 -89 -26.5t-84 -22t-86.5 -21t-96.5 -23.5q-26 -6 -45 -5.5t-43 13.5zM200 353q4 6 2 9.5t-7 5t-11 1.5h-10q-31 -3 -60 -19.5t-48 -39.5q16 6 38 12.5t42.5 12.5t35.5 10.5t18 7.5zM150 507q20 32 37.5 55t36.5 40q7 7 15 8t14 -2.5t8 -11t-3 -17.5
q-6 -13 -18.5 -27.5t-28 -26t-32 -17.5t-29.5 -1z" />
    <glyph glyph-name="ecircumflex" unicode="&#xea;" horiz-adv-x="467" 
d="M20 183q-33 17 -39.5 45.5t1.5 53.5q9 30 32.5 60t55 52t67.5 32.5t71 2.5q21 -5 38 -20.5t19 -38.5q3 -35 -19 -52t-56.5 -24.5t-74.5 -11t-72 -12.5q0 -2 -0.5 -3t-0.5 -2q-5 -18 9 -27.5t35 -8.5q49 1 101 8.5t100.5 18t91.5 22.5t74 22q12 6 21 4t11.5 -8.5t-2 -14.5
t-19.5 -13q-47 -15 -89 -26.5t-84 -22t-86.5 -21t-96.5 -23.5q-26 -6 -45 -5.5t-43 13.5zM200 353q4 6 2 9.5t-7 5t-11 1.5h-10q-31 -3 -60 -19.5t-48 -39.5q16 6 38 12.5t42.5 12.5t35.5 10.5t18 7.5zM296 502q-13 -2 -17.5 -0.5t-6.5 9.5q-2 13 -1 28.5t-1 26.5t-9.5 13.5
t-24.5 -10.5q-14 -11 -28 -28t-31 -24q-16 2 -18 12.5t9 18.5q28 25 56 49t58 46q15 10 31 1t15 -27q-1 -9 -3 -26.5t-6 -35.5t-10 -33t-13 -20z" />
    <glyph glyph-name="edieresis" unicode="&#xeb;" horiz-adv-x="467" 
d="M20 183q-33 17 -39.5 45.5t1.5 53.5q9 30 32.5 60t55 52t67.5 32.5t71 2.5q21 -5 38 -20.5t19 -38.5q3 -35 -19 -52t-56.5 -24.5t-74.5 -11t-72 -12.5q0 -2 -0.5 -3t-0.5 -2q-5 -18 9 -27.5t35 -8.5q49 1 101 8.5t100.5 18t91.5 22.5t74 22q12 6 21 4t11.5 -8.5t-2 -14.5
t-19.5 -13q-47 -15 -89 -26.5t-84 -22t-86.5 -21t-96.5 -23.5q-26 -6 -45 -5.5t-43 13.5zM200 353q4 6 2 9.5t-7 5t-11 1.5h-10q-31 -3 -60 -19.5t-48 -39.5q16 6 38 12.5t42.5 12.5t35.5 10.5t18 7.5zM185 525q1 12 9.5 16t17.5 3t14.5 -7.5t0.5 -15.5t-12.5 -13t-14 -3.5
t-11 5.5t-4.5 15zM244 525q1 12 9.5 16t17.5 3t14.5 -7.5t0.5 -15.5t-12.5 -13t-14 -3.5t-11 5.5t-4.5 15z" />
    <glyph glyph-name="igrave" unicode="&#xec;" horiz-adv-x="329" 
d="M26 181q-32 11 -45.5 38.5t3.5 65.5q5 12 15 27.5t21.5 32t23 31.5t19.5 25q12 14 23.5 16.5t25.5 -11.5q15 -14 9.5 -21t-15.5 -18q-7 -8 -17 -21t-19.5 -27t-17 -26.5t-10.5 -19.5q-10 -23 4.5 -31.5t41.5 -6t63 11.5t70 20.5t60.5 22t36.5 14.5q18 8 26 -1t-8 -25
q-11 -10 -43.5 -25t-71.5 -29.5t-76 -27t-56 -16.5q-18 -5 -32 -4.5t-31 5.5zM211 500q-17 -4 -36.5 1t-39 15t-37.5 22t-32 23q-6 5 -6 13.5t4.5 15t12 10t16.5 -2.5q8 -6 26 -19t37.5 -28t35 -29t19.5 -21z" />
    <glyph glyph-name="iacute" unicode="&#xed;" horiz-adv-x="329" 
d="M26 181q-32 11 -45.5 38.5t3.5 65.5q5 12 15 27.5t21.5 32t23 31.5t19.5 25q12 14 23.5 16.5t25.5 -11.5q15 -14 9.5 -21t-15.5 -18q-7 -8 -17 -21t-19.5 -27t-17 -26.5t-10.5 -19.5q-10 -23 4.5 -31.5t41.5 -6t63 11.5t70 20.5t60.5 22t36.5 14.5q18 8 26 -1t-8 -25
q-11 -10 -43.5 -25t-71.5 -29.5t-76 -27t-56 -16.5q-18 -5 -32 -4.5t-31 5.5zM122 503q20 32 37.5 55t36.5 40q7 7 15 8t14 -2.5t8 -11t-3 -17.5q-6 -13 -18.5 -27.5t-28 -26t-32 -17.5t-29.5 -1z" />
    <glyph glyph-name="icircumflex" unicode="&#xee;" horiz-adv-x="329" 
d="M26 181q-32 11 -45.5 38.5t3.5 65.5q5 12 15 27.5t21.5 32t23 31.5t19.5 25q12 14 23.5 16.5t25.5 -11.5q15 -14 9.5 -21t-15.5 -18q-7 -8 -17 -21t-19.5 -27t-17 -26.5t-10.5 -19.5q-10 -23 4.5 -31.5t41.5 -6t63 11.5t70 20.5t60.5 22t36.5 14.5q18 8 26 -1t-8 -25
q-11 -10 -43.5 -25t-71.5 -29.5t-76 -27t-56 -16.5q-18 -5 -32 -4.5t-31 5.5zM211 487q-13 -2 -17.5 -0.5t-6.5 9.5q-2 13 -1 28.5t-1 26.5t-9.5 13.5t-24.5 -10.5q-14 -11 -28 -28t-31 -24q-16 2 -18 12.5t9 18.5q28 25 56 49t58 46q15 10 31 1t15 -27q-1 -9 -3 -26.5
t-6 -35.5t-10 -33t-13 -20z" />
    <glyph glyph-name="idieresis" unicode="&#xef;" horiz-adv-x="329" 
d="M26 181q-32 11 -45.5 38.5t3.5 65.5q5 12 15 27.5t21.5 32t23 31.5t19.5 25q12 14 23.5 16.5t25.5 -11.5q15 -14 9.5 -21t-15.5 -18q-7 -8 -17 -21t-19.5 -27t-17 -26.5t-10.5 -19.5q-10 -23 4.5 -31.5t41.5 -6t63 11.5t70 20.5t60.5 22t36.5 14.5q18 8 26 -1t-8 -25
q-11 -10 -43.5 -25t-71.5 -29.5t-76 -27t-56 -16.5q-18 -5 -32 -4.5t-31 5.5zM96 529q1 12 9.5 16t17.5 3t14.5 -7.5t0.5 -15.5t-12.5 -13t-14 -3.5t-11 5.5t-4.5 15zM155 529q1 12 9.5 16t17.5 3t14.5 -7.5t0.5 -15.5t-12.5 -13t-14 -3.5t-11 5.5t-4.5 15z" />
    <glyph glyph-name="eth" unicode="&#xf0;" horiz-adv-x="499" 
d="M243 513q58 -55 101.5 -119t54.5 -124q5 -29 -7 -54t-34.5 -42t-53 -25t-63.5 -3q-76 11 -142 48.5t-102 91.5q-16 24 -8.5 44t27.5 33t46.5 18t49.5 -1q51 -14 95 -35.5t86 -47.5q11 -7 23.5 -12t26.5 -10q-15 57 -54.5 109t-94.5 100q-20 -11 -31 -17.5t-20 -10.5
q-11 -5 -19.5 -8t-15.5 -1q-11 3 -12.5 11.5t9.5 17.5q9 8 22.5 17t30.5 20q-20 15 -41 30t-43 29q-6 4 -14 7.5t-13.5 8.5t-6.5 11.5t6 16.5q16 10 26 13t21 -3q28 -16 57.5 -36.5t58.5 -46.5q26 14 48 24t31 11q4 0 8.5 -4t7 -9.5t1.5 -11.5t-8 -10zM88 325q-11 3 -16 1
t-5 -6.5t2.5 -11t6.5 -12.5q13 -21 41.5 -40t61.5 -34t65.5 -25.5t54.5 -14.5q11 -2 23.5 4.5t18.5 14.5t1 15.5t-30 8.5q-29 3 -57 17.5t-56 31.5t-56 32t-55 19z" />
    <glyph glyph-name="ntilde" unicode="&#xf1;" horiz-adv-x="510" 
d="M104 338q15 11 36 22.5t43 20.5t43 13.5t36.5 0.5t23.5 -17.5t4 -40.5q-4 -31 -6.5 -58t4.5 -43.5t27 -20.5t61 12q35 13 64.5 35.5t48.5 38.5q13 11 24 9.5t16 -9t2 -18.5t-17 -18q-9 -5 -23 -12.5t-29.5 -17t-32 -19t-31.5 -17.5q-43 -23 -78.5 -25.5t-59.5 10.5
t-36 40t-9 64q3 23 5 37t-1.5 18.5t-15.5 0t-39 -18.5q-56 -29 -102 -72t-95 -86q-9 -8 -19 -8.5t-17 4.5t-10.5 14t0.5 18q1 2 9 15.5t19.5 32.5t25.5 40.5t27 41.5t23 35t15 21q10 12 22 12t21.5 -6t13.5 -15.5t-3 -17.5q2 3 -2 -3t-7 -12t0 -8t19 7zM209 535q-3 15 -5 24
t-7.5 8.5t-18 -12.5t-36.5 -39q-7 -6 -15 -6.5t-13 3t-6.5 10.5t3.5 16q10 16 32.5 37.5t46 32t42 3t20.5 -49.5q1 -23 7.5 -26t15.5 3t20.5 16t22.5 13q14 4 19.5 -5.5t-1.5 -18.5q-14 -19 -34 -31t-39.5 -14.5t-34.5 6t-19 30.5z" />
    <glyph glyph-name="ograve" unicode="&#xf2;" horiz-adv-x="384" 
d="M395 303q-7 7 -28 13t-47.5 10.5t-55.5 6t-52 -0.5t-36.5 -9t-9.5 -19q8 -25 1.5 -44.5t-20.5 -34.5t-33 -26t-35 -19q-24 -13 -48.5 -6t-43.5 25q-9 10 -10.5 24.5t1 31t8.5 33t14 30.5q5 9 9.5 16.5t9.5 12.5q13 14 30 27t34 8q11 -3 40 -2.5t66 0.5t76.5 -2t71.5 -8.5
t51.5 -19.5t16.5 -35q-1 -6 -3.5 -10.5t-6.5 -1.5zM103 260q8 8 14 18t9 19q5 16 -0.5 27.5t-17.5 14.5q-20 0 -38 -19.5t-29 -44.5q-14 -33 -10.5 -43.5t15.5 -8t28.5 14t28.5 22.5zM196 477q-17 -4 -36.5 1t-39 15t-37.5 22t-32 23q-6 5 -6 13.5t4.5 15t12 10t16.5 -2.5
q8 -6 26 -19t37.5 -28t35 -29t19.5 -21z" />
    <glyph glyph-name="oacute" unicode="&#xf3;" horiz-adv-x="384" 
d="M395 303q-7 7 -28 13t-47.5 10.5t-55.5 6t-52 -0.5t-36.5 -9t-9.5 -19q8 -25 1.5 -44.5t-20.5 -34.5t-33 -26t-35 -19q-24 -13 -48.5 -6t-43.5 25q-9 10 -10.5 24.5t1 31t8.5 33t14 30.5q5 9 9.5 16.5t9.5 12.5q13 14 30 27t34 8q11 -3 40 -2.5t66 0.5t76.5 -2t71.5 -8.5
t51.5 -19.5t16.5 -35q-1 -6 -3.5 -10.5t-6.5 -1.5zM103 260q8 8 14 18t9 19q5 16 -0.5 27.5t-17.5 14.5q-20 0 -38 -19.5t-29 -44.5q-14 -33 -10.5 -43.5t15.5 -8t28.5 14t28.5 22.5zM99 487q20 32 37.5 55t36.5 40q7 7 15 8t14 -2.5t8 -11t-3 -17.5q-6 -13 -18.5 -27.5
t-28 -26t-32 -17.5t-29.5 -1z" />
    <glyph glyph-name="ocircumflex" unicode="&#xf4;" horiz-adv-x="384" 
d="M395 303q-7 7 -28 13t-47.5 10.5t-55.5 6t-52 -0.5t-36.5 -9t-9.5 -19q8 -25 1.5 -44.5t-20.5 -34.5t-33 -26t-35 -19q-24 -13 -48.5 -6t-43.5 25q-9 10 -10.5 24.5t1 31t8.5 33t14 30.5q5 9 9.5 16.5t9.5 12.5q13 14 30 27t34 8q11 -3 40 -2.5t66 0.5t76.5 -2t71.5 -8.5
t51.5 -19.5t16.5 -35q-1 -6 -3.5 -10.5t-6.5 -1.5zM103 260q8 8 14 18t9 19q5 16 -0.5 27.5t-17.5 14.5q-20 0 -38 -19.5t-29 -44.5q-14 -33 -10.5 -43.5t15.5 -8t28.5 14t28.5 22.5zM201 478q-13 -2 -17.5 -0.5t-6.5 9.5q-2 13 -1 28.5t-1 26.5t-9.5 13.5t-24.5 -10.5
q-14 -11 -28 -28t-31 -24q-16 2 -18 12.5t9 18.5q28 25 56 49t58 46q15 10 31 1t15 -27q-1 -9 -3 -26.5t-6 -35.5t-10 -33t-13 -20z" />
    <glyph glyph-name="otilde" unicode="&#xf5;" horiz-adv-x="384" 
d="M395 303q-7 7 -28 13t-47.5 10.5t-55.5 6t-52 -0.5t-36.5 -9t-9.5 -19q8 -25 1.5 -44.5t-20.5 -34.5t-33 -26t-35 -19q-24 -13 -48.5 -6t-43.5 25q-9 10 -10.5 24.5t1 31t8.5 33t14 30.5q5 9 9.5 16.5t9.5 12.5q13 14 30 27t34 8q11 -3 40 -2.5t66 0.5t76.5 -2t71.5 -8.5
t51.5 -19.5t16.5 -35q-1 -6 -3.5 -10.5t-6.5 -1.5zM103 260q8 8 14 18t9 19q5 16 -0.5 27.5t-17.5 14.5q-20 0 -38 -19.5t-29 -44.5q-14 -33 -10.5 -43.5t15.5 -8t28.5 14t28.5 22.5zM144 506q-3 15 -5 24t-7.5 8.5t-18 -12.5t-36.5 -39q-7 -6 -15 -6.5t-13 3t-6.5 10.5
t3.5 16q10 16 32.5 37.5t46 32t42 3t20.5 -49.5q1 -23 7.5 -26t15.5 3t20.5 16t22.5 13q14 4 19.5 -5.5t-1.5 -18.5q-14 -19 -34 -31t-39.5 -14.5t-34.5 6t-19 30.5z" />
    <glyph glyph-name="odieresis" unicode="&#xf6;" horiz-adv-x="384" 
d="M395 303q-7 7 -28 13t-47.5 10.5t-55.5 6t-52 -0.5t-36.5 -9t-9.5 -19q8 -25 1.5 -44.5t-20.5 -34.5t-33 -26t-35 -19q-24 -13 -48.5 -6t-43.5 25q-9 10 -10.5 24.5t1 31t8.5 33t14 30.5q5 9 9.5 16.5t9.5 12.5q13 14 30 27t34 8q11 -3 40 -2.5t66 0.5t76.5 -2t71.5 -8.5
t51.5 -19.5t16.5 -35q-1 -6 -3.5 -10.5t-6.5 -1.5zM103 260q8 8 14 18t9 19q5 16 -0.5 27.5t-17.5 14.5q-20 0 -38 -19.5t-29 -44.5q-14 -33 -10.5 -43.5t15.5 -8t28.5 14t28.5 22.5zM75 497q1 12 9.5 16t17.5 3t14.5 -7.5t0.5 -15.5t-12.5 -13t-14 -3.5t-11 5.5t-4.5 15z
M134 497q1 12 9.5 16t17.5 3t14.5 -7.5t0.5 -15.5t-12.5 -13t-14 -3.5t-11 5.5t-4.5 15z" />
    <glyph glyph-name="divide" unicode="&#xf7;" horiz-adv-x="367" 
d="M69 335q45 1 75 2t49.5 2t31.5 1t21 -1q11 -1 20.5 -2.5t14.5 -6.5q8 -8 5.5 -16t-16.5 -11q-20 -4 -52 -6.5t-64.5 -3t-58.5 1t-35 6.5q-3 1 -5.5 6.5t-2 11.5t4 11t12.5 5zM181 361q-8 0 -13 7.5t-6 16.5t3.5 17t15.5 9q15 1 21 -6.5t5 -17t-7.5 -18t-18.5 -8.5z
M145 221q-8 0 -12.5 7.5t-5.5 16.5t3 17t15 9q15 1 21.5 -6.5t5.5 -17t-8 -18t-19 -8.5z" />
    <glyph glyph-name="oslash" unicode="&#xf8;" horiz-adv-x="384" 
d="M162 379h53.5t56 -1.5t53 -5t44 -11t28.5 -18.5t8 -28q-1 -6 -3.5 -10.5t-6.5 -1.5q-7 7 -28 13t-47.5 10.5t-55.5 6t-52 -0.5t-36.5 -9t-9.5 -19q8 -25 1.5 -44.5t-20.5 -34.5t-33 -26t-35 -19q-15 -8 -30.5 -8t-29.5 6l-40 -56l-7 -7t-6 -3q-5 -2 -7.5 1.5t-0.5 9.5
q2 5 14 22t29 42l-14 12q-11 13 -11 34t6.5 42.5t17 41t19.5 30.5q13 14 30 27t34 8q6 -2 22 -2.5t34 -0.5q14 20 23.5 31.5t11.5 13.5q3 2 9.5 -2t1.5 -10zM41 275q-14 -35 -10 -45q19 27 39 55t39 54h-1q-20 0 -38 -19.5t-29 -44.5zM103 260q8 8 14 18t9 19q4 16 -2 29
l-71 -101q12 5 25.5 15t24.5 20z" />
    <glyph glyph-name="ugrave" unicode="&#xf9;" horiz-adv-x="416" 
d="M357 413q12 -9 8 -21q-11 -23 -26 -48t-29 -50.5t-24.5 -51.5t-11.5 -51q0 -11 -10.5 -18t-17.5 -6q-27 2 -34.5 18.5t-4 38t14 42t18.5 30.5q-1 -1 -18.5 -13.5t-41 -29t-47.5 -33t-39 -25.5q-38 -25 -82 -6q-20 9 -27 27t-5 41t11.5 48t22.5 48.5t28.5 42t29.5 28.5
q10 7 21.5 5.5t19.5 -7.5t11 -14t-2 -15q-11 -15 -23.5 -34t-23 -39t-18.5 -40.5t-11 -36.5q-2 -18 5 -20.5t23 5.5q18 9 50.5 33t67.5 52.5t66.5 56t46.5 41.5q8 7 17 9.5t16.5 1.5t12.5 -4t6 -5zM266 508q-17 -4 -36.5 1t-39 15t-37.5 22t-32 23q-6 5 -6 13.5t4.5 15
t12 10t16.5 -2.5q8 -6 26 -19t37.5 -28t35 -29t19.5 -21z" />
    <glyph glyph-name="uacute" unicode="&#xfa;" horiz-adv-x="416" 
d="M357 413q12 -9 8 -21q-11 -23 -26 -48t-29 -50.5t-24.5 -51.5t-11.5 -51q0 -11 -10.5 -18t-17.5 -6q-27 2 -34.5 18.5t-4 38t14 42t18.5 30.5q-1 -1 -18.5 -13.5t-41 -29t-47.5 -33t-39 -25.5q-38 -25 -82 -6q-20 9 -27 27t-5 41t11.5 48t22.5 48.5t28.5 42t29.5 28.5
q10 7 21.5 5.5t19.5 -7.5t11 -14t-2 -15q-11 -15 -23.5 -34t-23 -39t-18.5 -40.5t-11 -36.5q-2 -18 5 -20.5t23 5.5q18 9 50.5 33t67.5 52.5t66.5 56t46.5 41.5q8 7 17 9.5t16.5 1.5t12.5 -4t6 -5zM213 503q20 32 37.5 55t36.5 40q7 7 15 8t14 -2.5t8 -11t-3 -17.5
q-6 -13 -18.5 -27.5t-28 -26t-32 -17.5t-29.5 -1z" />
    <glyph glyph-name="ucircumflex" unicode="&#xfb;" horiz-adv-x="416" 
d="M357 413q12 -9 8 -21q-11 -23 -26 -48t-29 -50.5t-24.5 -51.5t-11.5 -51q0 -11 -10.5 -18t-17.5 -6q-27 2 -34.5 18.5t-4 38t14 42t18.5 30.5q-1 -1 -18.5 -13.5t-41 -29t-47.5 -33t-39 -25.5q-38 -25 -82 -6q-20 9 -27 27t-5 41t11.5 48t22.5 48.5t28.5 42t29.5 28.5
q10 7 21.5 5.5t19.5 -7.5t11 -14t-2 -15q-11 -15 -23.5 -34t-23 -39t-18.5 -40.5t-11 -36.5q-2 -18 5 -20.5t23 5.5q18 9 50.5 33t67.5 52.5t66.5 56t46.5 41.5q8 7 17 9.5t16.5 1.5t12.5 -4t6 -5zM289 487q-13 -2 -17.5 -0.5t-6.5 9.5q-2 13 -1 28.5t-1 26.5t-9.5 13.5
t-24.5 -10.5q-14 -11 -28 -28t-31 -24q-16 2 -18 12.5t9 18.5q28 25 56 49t58 46q15 10 31 1t15 -27q-1 -9 -3 -26.5t-6 -35.5t-10 -33t-13 -20z" />
    <glyph glyph-name="udieresis" unicode="&#xfc;" horiz-adv-x="416" 
d="M357 413q12 -9 8 -21q-11 -23 -26 -48t-29 -50.5t-24.5 -51.5t-11.5 -51q0 -11 -10.5 -18t-17.5 -6q-27 2 -34.5 18.5t-4 38t14 42t18.5 30.5q-1 -1 -18.5 -13.5t-41 -29t-47.5 -33t-39 -25.5q-38 -25 -82 -6q-20 9 -27 27t-5 41t11.5 48t22.5 48.5t28.5 42t29.5 28.5
q10 7 21.5 5.5t19.5 -7.5t11 -14t-2 -15q-11 -15 -23.5 -34t-23 -39t-18.5 -40.5t-11 -36.5q-2 -18 5 -20.5t23 5.5q18 9 50.5 33t67.5 52.5t66.5 56t46.5 41.5q8 7 17 9.5t16.5 1.5t12.5 -4t6 -5zM170 522q1 12 9.5 16t17.5 3t14.5 -7.5t0.5 -15.5t-12.5 -13t-14 -3.5
t-11 5.5t-4.5 15zM229 522q1 12 9.5 16t17.5 3t14.5 -7.5t0.5 -15.5t-12.5 -13t-14 -3.5t-11 5.5t-4.5 15z" />
    <glyph glyph-name="yacute" unicode="&#xfd;" horiz-adv-x="431" 
d="M108 230q-11 1 -23.5 -3.5t-25.5 -9.5t-25.5 -8t-22.5 1q-20 8 -29.5 30.5t0.5 42.5q14 29 33.5 59.5t39.5 54.5q7 9 16 11t16.5 -1.5t11 -11t0.5 -18.5q-13 -18 -27.5 -43t-19 -42.5t6.5 -22t50 18.5q60 35 116 73.5t115 73.5q7 4 17 8t19.5 4.5t17 -4.5t10.5 -18
q1 -5 -7.5 -15.5t-11.5 -13.5q-28 -26 -57.5 -50t-58.5 -50q-70 -62 -135.5 -127.5t-125.5 -137.5q-20 -24 -42.5 -50.5t-42 -55t-33.5 -58t-17 -60.5q0 -14 -8.5 -17t-17.5 2q-17 9 -24.5 25.5t-0.5 36.5q15 42 49 94.5t75.5 105t85 99t76.5 77.5zM200 496q20 32 37.5 55
t36.5 40q7 7 15 8t14 -2.5t8 -11t-3 -17.5q-6 -13 -18.5 -27.5t-28 -26t-32 -17.5t-29.5 -1z" />
    <glyph glyph-name="thorn" unicode="&#xfe;" horiz-adv-x="398" 
d="M-123 20q-13 -2 -23 6t-6 22q3 11 10.5 24t12.5 23q66 118 137.5 232.5t141.5 229.5q2 3 5.5 13.5t8.5 24t11 28t13 25.5q8 13 19.5 15.5t20.5 -2t14 -15.5t-1 -26q-5 -14 -13 -31.5t-16.5 -35t-15.5 -31.5l-10 -20q52 0 88 -17t49.5 -44.5t0 -63t-61.5 -72.5
q-27 -21 -54 -36.5t-55 -27.5t-58 -21t-63 -17q-37 -9 -57 -32t-34.5 -50.5t-27.5 -55t-36 -45.5zM35 257q23 5 59.5 20t73 35t66.5 43t41 44q13 25 -1 42.5t-40 21.5t-56.5 -7t-50.5 -41q-26 -39 -48 -78.5t-44 -81.5v2z" />
    <glyph glyph-name="ydieresis" unicode="&#xff;" horiz-adv-x="431" 
d="M108 230q-11 1 -23.5 -3.5t-25.5 -9.5t-25.5 -8t-22.5 1q-20 8 -29.5 30.5t0.5 42.5q14 29 33.5 59.5t39.5 54.5q7 9 16 11t16.5 -1.5t11 -11t0.5 -18.5q-13 -18 -27.5 -43t-19 -42.5t6.5 -22t50 18.5q60 35 116 73.5t115 73.5q7 4 17 8t19.5 4.5t17 -4.5t10.5 -18
q1 -5 -7.5 -15.5t-11.5 -13.5q-28 -26 -57.5 -50t-58.5 -50q-70 -62 -135.5 -127.5t-125.5 -137.5q-20 -24 -42.5 -50.5t-42 -55t-33.5 -58t-17 -60.5q0 -14 -8.5 -17t-17.5 2q-17 9 -24.5 25.5t-0.5 36.5q15 42 49 94.5t75.5 105t85 99t76.5 77.5zM188 518q1 12 9.5 16
t17.5 3t14.5 -7.5t0.5 -15.5t-12.5 -13t-14 -3.5t-11 5.5t-4.5 15zM247 518q1 12 9.5 16t17.5 3t14.5 -7.5t0.5 -15.5t-12.5 -13t-14 -3.5t-11 5.5t-4.5 15z" />
    <glyph glyph-name="dotlessi" unicode="&#x131;" horiz-adv-x="329" 
d="M26 181q-32 11 -45.5 38.5t3.5 65.5q5 12 15 27.5t21.5 32t23 31.5t19.5 25q12 14 23.5 16.5t25.5 -11.5q15 -14 9.5 -21t-15.5 -18q-7 -8 -17 -21t-19.5 -27t-17 -26.5t-10.5 -19.5q-10 -23 4.5 -31.5t41.5 -6t63 11.5t70 20.5t60.5 22t36.5 14.5q18 8 26 -1t-8 -25
q-11 -10 -43.5 -25t-71.5 -29.5t-76 -27t-56 -16.5q-18 -5 -32 -4.5t-31 5.5z" />
    <glyph glyph-name="Lslash" unicode="&#x141;" horiz-adv-x="833" 
d="M185 328q37 43 73.5 84t67.5 75.5t55 61t36 39.5q7 8 21 25t29.5 32.5t31.5 23t27 -3.5t9.5 -20.5t-9.5 -20.5q-13 -20 -29.5 -39t-34.5 -37t-36.5 -35t-34.5 -35q-28 -29 -58.5 -62t-62.5 -68q20 5 33.5 7.5t24.5 4.5q17 3 31 4t23 -2q13 -5 11 -13.5t-22 -16.5
q-26 -9 -67 -20t-86 -21q-57 -65 -109 -131t-88 -127q-9 -16 6.5 -21.5t44.5 -4.5t67 7t74.5 13.5t66 14t42.5 9.5q58 11 135 23t162.5 22.5t176 18.5t175.5 11.5t160.5 0.5t131.5 -14q26 -5 38.5 -12.5t29.5 -28.5q-77 10 -154 11.5t-154 -2t-154.5 -11.5t-153.5 -15
q-156 -16 -307.5 -45.5t-305.5 -57.5q-20 -3 -40 -5.5t-39 -0.5t-36.5 9.5t-32.5 24.5q-14 15 -15 24t7 27q4 10 21 33.5t43 56t59 72t69 81.5q-29 -5 -50.5 -8.5t-30.5 -1.5q-5 1 -9 5.5t-5 10.5t3.5 12t17.5 9z" />
    <glyph glyph-name="lslash" unicode="&#x142;" horiz-adv-x="411" 
d="M43 450q12 4 23 7t22 7q26 36 54.5 72.5t57.5 70t57.5 64t53.5 54.5q6 5 13 11.5t14.5 11t15 4.5t15.5 -8q9 -10 7 -17.5t-10 -16.5q-52 -57 -98.5 -108t-92.5 -110q13 4 21 6.5t16 4.5q11 2 20.5 3t15.5 -2q10 -5 9.5 -13.5t-12.5 -15.5q-19 -10 -50.5 -21.5
t-63.5 -21.5q-18 -26 -36 -54.5t-36 -60.5q-34 -59 -31 -89t30 -39t71.5 -0.5t94 27t97 43t80.5 46.5q6 4 12 3t9 -5.5t2.5 -11t-8.5 -14.5q-11 -11 -39.5 -27.5t-66 -34t-80 -34t-82.5 -28.5q-23 -7 -44.5 -12.5t-41 -5.5t-37.5 7t-34 25q-24 25 -20 60t24 81
q11 24 26 50.5t33 54.5q-8 0 -10 1q-4 1 -7.5 5.5t-5 10.5t1 11.5t10.5 8.5z" />
    <glyph glyph-name="OE" unicode="&#x152;" horiz-adv-x="1428" 
d="M13 299q2 10 6 15t12 11q51 35 92 77t86 84q40 38 86.5 69t93.5 60q31 20 77 38t100 31t111.5 19t111 3t99 -16.5t75.5 -39.5l7 -7l12 3q63 12 135.5 22.5t150.5 18t158 11.5t157.5 3.5t150.5 -6t137 -17.5q27 -5 41 -16.5t12.5 -21t-19.5 -14.5t-55 4q-19 5 -39.5 8
t-40.5 5q-29 4 -54.5 5.5t-39.5 1.5q-30 1 -81.5 0.5t-113 -2.5t-127 -5.5t-124.5 -9.5t-105.5 -14t-69.5 -18q-3 -30 -16.5 -54t-31.5 -46t-36.5 -43t-31.5 -44q43 -2 85.5 -0.5t84.5 4.5t84.5 6t85.5 3q34 0 48 -6t12.5 -13.5t-16.5 -14.5t-39 -9t-48 -2.5t-50 -2.5
q-74 -5 -147.5 -11t-146.5 -14q-16 -2 -27 -5t-24 -13q-36 -27 -71.5 -63.5t-61 -74.5t-36.5 -73.5t3.5 -60.5t58 -36t126.5 1q102 16 202 34.5t200.5 36.5t201.5 32t205 21q18 1 27.5 -0.5t13.5 -5t3.5 -8t-1.5 -9.5q-1 -4 -2 -7.5t-4 -7t-10.5 -5.5t-21.5 -3
q-100 -5 -205 -21.5t-205.5 -35.5t-194 -37t-172 -28t-138 -7t-92.5 26q-55 38 -65.5 85t19.5 98l1 2q-26 -19 -51 -34.5t-46 -28.5q-74 -45 -152.5 -80.5t-163.5 -49.5q-52 -9 -86.5 -1t-54.5 28t-28 49.5t-7 63t8 68.5t17 67q2 7 0.5 9.5t-7 4t-15.5 4t-23 10.5zM471 585
q23 0 53.5 1t57.5 -3.5t46 -16.5t19 -36q-26 3 -61.5 2t-74.5 -6.5t-79.5 -14.5t-77.5 -21.5t-67.5 -28t-50.5 -33.5q-39 -36 -71.5 -81.5t-53 -92t-28.5 -89.5t1 -74t37 -46t78 -4q61 14 134 43.5t148.5 71t149 91.5t134.5 105q-27 2 -42.5 12.5t-17 20.5t12 15.5
t43.5 -1.5q28 -7 58 5q59 62 90 121q13 25 16 44l-99 -28q-23 -6 -38 -10t-30 11q-23 23 7 49q2 2 17 6.5t36 10t46.5 11.5t48.5 12q-13 17 -37.5 26.5t-62.5 9.5q-37 -1 -81.5 -4.5t-90.5 -12.5t-90 -25t-80 -40z" />
    <glyph glyph-name="oe" unicode="&#x153;" horiz-adv-x="607" 
d="M160 183q-20 10 -31 27q-12 -10 -25.5 -17t-24.5 -13q-24 -13 -48.5 -6t-43.5 25q-9 10 -10.5 24.5t1 31t8.5 33t14 30.5q5 9 9.5 16.5t9.5 12.5q13 14 30 27t34 8q11 -3 40.5 -2.5t67.5 0.5v-1q34 29 75 44t82 6q21 -5 38 -20.5t19 -38.5q3 -35 -19 -52t-56.5 -24.5
t-74.5 -11t-72 -12.5q0 -2 -0.5 -3t-0.5 -2q-5 -18 9 -27.5t35 -8.5q49 1 101 8.5t100.5 18t91.5 22.5t74 22q12 6 21 4t11.5 -8.5t-2 -14.5t-19.5 -13q-47 -15 -89 -26.5t-84 -22t-86.5 -21t-96.5 -23.5q-26 -6 -45 -5.5t-43 13.5zM103 260q8 8 14 18t9 19q5 16 -0.5 27.5
t-17.5 14.5q-20 0 -38 -19.5t-29 -44.5q-14 -33 -10.5 -43.5t15.5 -8t28.5 14t28.5 22.5zM340 353q4 6 2 9.5t-7 5t-11 1.5h-10q-31 -3 -60 -19.5t-48 -39.5q16 6 38 12.5t42.5 12.5t35.5 10.5t18 7.5z" />
    <glyph glyph-name="Scaron" unicode="&#x160;" horiz-adv-x="1348" 
d="M407 216q-69 2 -142 5.5t-141 14.5q-35 6 -67.5 22.5t-50 40.5t-14.5 54t39 62q48 42 118.5 75.5t153.5 59t173 43t178 28t168.5 15t143.5 3.5q22 0 49 -1t54 -4t53 -9t46 -16q38 -19 38.5 -51t-31.5 -57q-7 -10 -29 -22.5t-52 -25.5t-64.5 -25.5t-66.5 -21.5t-57 -13.5
t-37 -1.5q-5 2 -8.5 7.5t-5.5 9.5q10 8 40.5 20.5t66 26t69 26t50.5 20.5q18 8 33 19.5t31 23.5q4 3 9 6.5t3 10.5t-16.5 11.5t-32 7.5t-34 4.5t-23.5 1.5q-220 8 -440 -26t-423 -122q-67 -28 -100 -55t-31.5 -48.5t38 -36t108.5 -17.5q126 -6 251 -8t251 -6
q66 -2 129.5 -8.5t129.5 -11.5q26 -2 53 -1t53 9q46 13 95.5 24t91 17.5t70 9.5t32.5 2q13 -4 9 -15t-14 -12q-22 -2 -56.5 -7t-71.5 -12t-71 -16t-55 -19q9 -8 19 -14t21 -13q5 -5 11.5 -7.5t11.5 -7.5q38 -35 36 -72.5t-47 -63.5q-42 -25 -104 -42t-130 -24.5t-133 -5.5
t-113 15q-13 3 -27 10t-15 23q-2 31 26 59.5t70 51.5t88.5 40.5t80.5 27.5q-58 5 -120.5 7t-126 2t-125 0.5t-116.5 2.5zM693 54q46 -5 106.5 -6t122 5.5t118 22t95.5 42.5q14 10 13.5 16t-15.5 16q-38 24 -82.5 29.5t-90.5 -2t-90 -24t-80.5 -35t-62 -36.5t-34.5 -28z
M711 851q13 2 17.5 0.5t6.5 -9.5q1 -13 0.5 -28.5t1.5 -26.5t9.5 -13.5t24.5 10.5q14 11 28 28t31 24q16 -2 18 -12.5t-9 -18.5q-28 -25 -56 -49t-58 -46q-8 -5 -16 -5t-15 4t-11.5 11t-3.5 16t3 26.5t6 35.5t9.5 33t13.5 20z" />
    <glyph glyph-name="scaron" unicode="&#x161;" horiz-adv-x="481" 
d="M70 269q-23 -8 -44 -7t-30 27q-7 21 12 47t48.5 49t62 40t52.5 20q6 1 14.5 -3.5t13 -12t3.5 -16t-14 -14.5q-33 -15 -55.5 -26t-37.5 -18.5t-23.5 -12.5t-12.5 -9q-14 -11 -12.5 -15t28.5 1q28 4 57.5 8.5t58 4t54.5 -8t48 -26.5q22 4 48 7.5t51 6t46 2.5t34 -2
q9 -2 15 -7t7 -11t-5 -10t-21 -3q-10 1 -30 0.5t-43.5 -2t-48 -4.5t-43.5 -9q3 -12 -5.5 -30t-23.5 -36t-33.5 -35t-33.5 -27q-34 -24 -69 -23t-55.5 17.5t-19 42.5t41.5 52q23 15 53 29.5t74 30.5q-14 5 -33.5 5.5t-41.5 -2.5t-45 -8.5t-42 -11.5zM159 172q11 3 23 11
t23 19t20.5 22.5t15.5 21.5q-27 -8 -51.5 -20t-44.5 -23q-18 -10 -23.5 -18.5t-2.5 -13.5t13.5 -5t26.5 6zM112 645q13 2 17.5 0.5t6.5 -9.5q1 -13 0.5 -28.5t1.5 -26.5t9.5 -13.5t24.5 10.5q14 11 28 28t31 24q16 -2 18 -12.5t-9 -18.5q-28 -25 -56 -49t-58 -46
q-8 -5 -16 -5t-15 4t-11.5 11t-3.5 16t3 26.5t6 35.5t9.5 33t13.5 20z" />
    <glyph glyph-name="Ydieresis" unicode="&#x178;" horiz-adv-x="1202" 
d="M41 518q35 20 92.5 5.5t125.5 -48.5t139 -80.5t133 -91.5t108.5 -80.5t65.5 -46.5q26 -17 45.5 -18t48.5 11q99 42 170 119t99 181l7 28l-2 11q-9 1 -29.5 -10.5t-48.5 -29.5t-61.5 -38.5t-69.5 -35.5t-72.5 -21t-70.5 5q-57 18 -74 58t0 95q3 9 8 23.5t12 29.5t14 28.5
t13 19.5q14 16 30 15t27 -21q2 -5 -0.5 -12t-5.5 -11q-9 -12 -20 -32t-20 -42.5t-13.5 -44t-1 -38t17.5 -24t43 -0.5q40 9 83 27.5t85 42.5t80.5 50.5t71.5 51.5q14 11 24.5 18.5t30.5 -2.5q17 -9 24 -26.5t5 -35.5q-14 -139 -82.5 -248.5t-192.5 -175.5q-18 -10 -28 -16
t-10.5 -11.5t8 -13t26.5 -19.5q30 -20 61 -38.5t54 -46.5q-41 8 -71 25.5t-63 42.5q-17 13 -31 19.5t-28.5 9t-30 0t-35.5 -7.5q-54 -13 -117.5 -12.5t-130 13.5t-132.5 37t-125 57t-107.5 74t-78.5 88q-13 19 -24 46.5t-14 55t4.5 52.5t33.5 39zM709 137
q-60 40 -118.5 83.5t-118 85.5t-120.5 80.5t-126 70.5q-24 12 -53.5 21.5t-55 8t-43 -18.5t-16.5 -58q1 -43 22 -79t55 -66t77.5 -54t89 -42t89 -29.5t77.5 -17.5q60 -10 121 -7.5t120 22.5zM883 699q1 12 9.5 16t17.5 3t14.5 -7.5t0.5 -15.5t-12.5 -13t-14 -3.5t-11 5.5
t-4.5 15zM942 699q1 12 9.5 16t17.5 3t14.5 -7.5t0.5 -15.5t-12.5 -13t-14 -3.5t-11 5.5t-4.5 15z" />
    <glyph glyph-name="Zcaron" unicode="&#x17d;" horiz-adv-x="1182" 
d="M719 250q25 13 53 30.5t54.5 37.5t48.5 41.5t34 42.5q-16 2 -33 1.5t-33 1.5t-30.5 9t-24.5 23q5 10 20.5 13.5t35.5 4.5t41.5 1t39.5 2t30.5 8.5t13.5 21.5t-13 26.5t-33 20t-38 14t-29 7.5q-60 14 -133.5 14.5t-149 -7.5t-147 -23.5t-127.5 -33.5q-20 -7 -35 -13.5
t-37 -4.5q-1 7 -2 18.5t3 17.5q5 9 20 16t24 10q66 21 148.5 36.5t169 22t170 3t150.5 -19.5q40 -10 62.5 -33t36.5 -61q10 -26 28.5 -31.5t40.5 -5.5t45.5 -3.5t43.5 -25.5q-17 -5 -27 -8.5t-28 -1.5q-28 2 -49.5 0t-39.5 -10.5t-34 -23t-32 -37.5q-14 -19 -30.5 -34
t-34.5 -29t-35.5 -28.5t-32.5 -31.5q18 -9 43 -17t53 -16t56.5 -17t53.5 -20.5t43.5 -26t26.5 -34.5q-10 -3 -22.5 0t-26 8.5t-26 12t-22.5 9.5q-47 16 -96.5 26.5t-97.5 19.5q-32 6 -61.5 0.5t-58.5 -19.5q-52 -26 -101 -48t-99 -40t-102.5 -31t-110.5 -21
q-33 -5 -77.5 -5.5t-88.5 7.5t-80 27t-52 54q-11 23 -10 40t24 33q39 28 105 44t157.5 24t208 10t256.5 2zM622 198q-22 7 -69.5 8t-107.5 -2.5t-126 -11t-124 -18t-102.5 -23t-61.5 -25.5q-14 -11 -12 -19.5t13.5 -15t29 -11t35 -7t32 -4t20.5 -1.5q56 -3 117 7t122.5 28
t121 43t112.5 52zM722 852q13 2 17.5 0.5t6.5 -9.5q1 -13 0.5 -28.5t1.5 -26.5t9.5 -13.5t24.5 10.5q14 11 28 28t31 24q16 -2 18 -12.5t-9 -18.5q-28 -25 -56 -49t-58 -46q-8 -5 -16 -5t-15 4t-11.5 11t-3.5 16t3 26.5t6 35.5t9.5 33t13.5 20z" />
    <glyph glyph-name="zcaron" unicode="&#x17e;" horiz-adv-x="374" 
d="M99 234q18 1 41 5t47 7t46 4.5t39 -1.5t24.5 -8t6.5 -11t-9 -10.5t-22 -5.5q-8 -1 -33.5 -4.5t-57.5 -8t-65 -9.5t-55 -8q-14 -2 -22 -1.5t-14 3.5t-10.5 8.5t-11.5 13.5q-8 9 -5 18.5t11.5 19t21.5 19t27 17.5q7 4 4 5t-11 -0.5t-19.5 -3.5t-21.5 -3q-8 -1 -17.5 2.5
t-14 9.5t0 14t24.5 16q30 11 67 16.5t73 15.5q29 7 47 19.5t19 21.5t-18 10t-62 -13q-24 -8 -35 -16q-9 -6 -18 -9t-17 9q-3 25 18.5 42t52.5 25.5t62.5 8.5t48.5 -9q18 -9 21.5 -21t-1.5 -24.5t-14 -24.5t-16 -22q-5 -6 0 -10t13 -6t16 -2.5t10 -1.5q23 -7 18.5 -17.5
t-30.5 -10.5q-50 -3 -81.5 -12t-49.5 -20t-24 -21.5t-4 -15.5zM190 646q13 2 17.5 0.5t6.5 -9.5q1 -13 0.5 -28.5t1.5 -26.5t9.5 -13.5t24.5 10.5q14 11 28 28t31 24q16 -2 18 -12.5t-9 -18.5q-28 -25 -56 -49t-58 -46q-8 -5 -16 -5t-15 4t-11.5 11t-3.5 16t3 26.5t6 35.5
t9.5 33t13.5 20z" />
    <glyph glyph-name="circumflex" unicode="&#x2c6;" horiz-adv-x="273" 
d="M184 611q-13 -2 -17.5 -0.5t-6.5 9.5q-2 13 -1 28.5t-1 26.5t-9.5 13.5t-24.5 -10.5q-14 -11 -28 -28t-31 -24q-16 2 -18 12.5t9 18.5q28 25 56 49t58 46q15 10 31 1t15 -27q-1 -9 -3 -26.5t-6 -35.5t-10 -33t-13 -20z" />
    <glyph glyph-name="caron" unicode="&#x2c7;" horiz-adv-x="273" 
d="M90 763q13 2 17.5 0.5t6.5 -9.5q1 -13 0.5 -28.5t1.5 -26.5t9.5 -13.5t24.5 10.5q14 11 28 28t31 24q16 -2 18 -12.5t-9 -18.5q-28 -25 -56 -49t-58 -46q-8 -5 -16 -5t-15 4t-11.5 11t-3.5 16t3 26.5t6 35.5t9.5 33t13.5 20z" />
    <glyph glyph-name="ring" unicode="&#x2da;" horiz-adv-x="226" 
d="M101 629q-32 0 -39.5 18t-0.5 39.5t23 39t33 17.5q30 -2 41 -20t7 -39t-20.5 -38t-43.5 -17zM94 659q10 -3 19 3t14 16t3.5 20.5t-13.5 15.5q-8 4 -14 -3t-9.5 -17.5t-4 -21t4.5 -13.5z" />
    <glyph glyph-name="tilde" unicode="&#x2dc;" horiz-adv-x="324" 
d="M142 653q-3 15 -5 24t-7.5 8.5t-18 -12.5t-36.5 -39q-7 -6 -15 -6.5t-13 3t-6.5 10.5t3.5 16q10 16 32.5 37.5t46 32t42 3t20.5 -49.5q1 -23 7.5 -26t15.5 3t20.5 16t22.5 13q14 4 19.5 -5.5t-1.5 -18.5q-14 -19 -34 -31t-39.5 -14.5t-34.5 6t-19 30.5z" />
    <glyph glyph-name="quoteleft" unicode="&#x2018;" horiz-adv-x="253" 
d="M135 575q8 9 14.5 10.5t10.5 -1.5t5 -9t-1 -12q-2 -5 -5.5 -12.5t-6.5 -16t-5.5 -16t-3.5 -13.5l-4 -14t-14 -8q-28 -1 -32 11t3.5 28t20 31.5t18.5 21.5z" />
    <glyph glyph-name="quoteright" unicode="&#x2019;" horiz-adv-x="253" 
d="M111 503q-8 -9 -14.5 -10.5t-10.5 1.5t-5 9t1 12q2 5 5.5 12.5t6.5 16t5.5 16t3.5 13.5l4 14t14 8q28 1 32 -11t-3.5 -28t-20 -31.5t-18.5 -21.5z" />
    <glyph glyph-name="quotesinglbase" unicode="&#x201a;" horiz-adv-x="289" 
d="M122 179q-11 -15 -25.5 -28.5t-28.5 -22t-24.5 -8t-11.5 14.5q-1 6 6 14t9 14q7 16 8 29.5t9 29.5q7 14 19 22t23.5 8t20 -8t8.5 -26q1 -11 -3 -20.5t-10 -18.5z" />
    <glyph glyph-name="quotedblleft" unicode="&#x201c;" horiz-adv-x="331" 
d="M145 575q8 9 14.5 10.5t10.5 -1.5t5 -9t-1 -12q-2 -5 -5.5 -12.5t-6.5 -16t-5.5 -16t-3.5 -13.5l-4 -14t-14 -8q-28 -1 -32 11t3.5 28t20 31.5t18.5 21.5zM217 575q8 9 14.5 10.5t10.5 -1.5t5 -9t-1 -12q-2 -5 -5.5 -12.5t-6.5 -16t-5.5 -16t-3.5 -13.5l-4 -14t-14 -8
q-28 -1 -32 11t3.5 28t20 31.5t18.5 21.5z" />
    <glyph glyph-name="quotedblright" unicode="&#x201d;" horiz-adv-x="331" 
d="M189 503q-8 -9 -14.5 -10.5t-10.5 1.5t-5 9t1 12q2 5 5.5 12.5t6.5 16t5.5 16t3.5 13.5l4 14t14 8q28 1 32 -11t-3.5 -28t-20 -31.5t-18.5 -21.5zM117 503q-8 -9 -14.5 -10.5t-10.5 1.5t-5 9t1 12q2 5 5.5 12.5t6.5 16t5.5 16t3.5 13.5l4 14t14 8q28 1 32 -11t-3.5 -28
t-20 -31.5t-18.5 -21.5z" />
    <glyph glyph-name="quotedblbase" unicode="&#x201e;" horiz-adv-x="401" 
d="M234 179q-11 -15 -25.5 -28.5t-28.5 -22t-24.5 -8t-11.5 14.5q-1 6 6 14t9 14q7 16 8 29.5t9 29.5q7 14 19 22t23.5 8t20 -8t8.5 -26q1 -11 -3 -20.5t-10 -18.5zM129 179q-11 -15 -25.5 -28.5t-28.5 -22t-24.5 -8t-11.5 14.5q-1 6 6 14t9 14q7 16 8 29.5t9 29.5
q7 14 19 22t23.5 8t20 -8t8.5 -26q1 -11 -3 -20.5t-10 -18.5z" />
    <glyph glyph-name="ellipsis" unicode="&#x2026;" horiz-adv-x="723" 
d="M91 163q-13 0 -21 12t-9.5 27t5.5 28t25 15q24 3 34.5 -9.5t9.5 -28.5t-13 -30t-31 -14zM332 163q-13 0 -21 12t-9.5 27t5.5 28t25 15q24 3 34.5 -9.5t9.5 -28.5t-13 -30t-31 -14zM573 163q-13 0 -21 12t-9.5 27t5.5 28t25 15q24 3 34.5 -9.5t9.5 -28.5t-13 -30t-31 -14z
" />
    <glyph glyph-name="perthousand" unicode="&#x2030;" horiz-adv-x="0" 
d="M-1208 16q8 2 21 -5.5t16 -12.5q9 -12 26 -12t34 2q86 7 171.5 13t171.5 12q78 5 154.5 11t154.5 10q260 13 519 19t518 -1q35 -1 70.5 -3t69.5 -7q18 -3 29.5 -9t13 -12t-9.5 -9.5t-38 -1.5q-194 10 -385.5 3.5t-383.5 -16.5q-189 -9 -375 -18.5t-375 -20.5
q-21 -1 -58.5 -3.5l-82.5 -5.5t-93.5 -5.5t-92 -4t-77.5 -2t-49 1.5q-14 2 -23 5t-20 11q-18 14 -11 27.5t31 19.5q22 6 36.5 8t37.5 6zM822 -1q-24 14 -12.5 22.5t58.5 13.5q37 4 64 0t40.5 -12t11.5 -17.5t-24 -15.5q-13 -3 -32 -3t-38.5 1.5t-37.5 4.5t-30 6z" />
    <glyph glyph-name="fraction" unicode="&#x2044;" horiz-adv-x="339" 
d="M373 715q-10 -20 -31 -58.5t-47.5 -89t-58 -108.5t-62.5 -116t-60 -112t-52.5 -96.5t-38 -69.5t-17.5 -31q-6 -10 -12 -17t-13 -9q-10 -3 -16 3t-2 20q3 10 20.5 44.5t44 85.5t59.5 113t67 125t67 123.5t60 107.5t45 77t22 33q3 2 8.5 1t11 -4t7.5 -8.5t-2 -13.5z" />
    <glyph glyph-name="Euro" unicode="&#x20ac;" horiz-adv-x="541" 
d="M223 434q16 -2 34 -2.5t33 -5.5q7 -3 11 -8.5t4 -10.5t-4.5 -8.5t-13.5 -1.5q-22 -1 -43.5 0t-39.5 -4q-8 -2 -17 -8.5t-13.5 -13t-2 -12.5t18.5 -8q10 -1 24.5 0t29.5 1t28.5 -2t21.5 -8q5 -3 6.5 -7.5t5.5 -6.5q-15 -7 -44 -8.5t-58.5 -3.5t-53 -7t-27.5 -19
q-7 -24 -14.5 -47.5t-6 -41.5t16 -27t51.5 -2q69 14 133.5 40.5t118.5 70.5q10 9 19 8.5t14 -6t5.5 -13.5t-5.5 -15q-20 -23 -51.5 -44t-67.5 -38t-72.5 -29.5t-66.5 -18.5q-31 -6 -58 2t-51 28q-20 17 -28 34.5t-9.5 33.5t-1 29t-1 20.5t-9.5 8t-28 -8.5q-5 2 -9 5t-5 8
q-6 10 3.5 18t23.5 14t28.5 10.5t19.5 8.5q5 5 11.5 17.5t11.5 19.5q-5 1 -14.5 3.5t-19.5 6t-17 9t-6 12.5q1 5 6.5 7.5t9.5 4.5q14 3 28 5t28 3q16 1 41 21t55 45.5t63.5 50.5t66 36.5t63.5 3t56 -50.5q12 -20 8.5 -38.5t-15 -36t-27.5 -33t-30 -27.5q-8 -8 -17.5 -8.5
t-17.5 7.5t-5 15t9 15q14 17 27 35.5t24 38.5t4 27t-29 4q-27 -3 -49 -12.5t-40.5 -23t-36.5 -29.5t-37 -32z" />
    </font>
</defs>
</svg>
