<svg width="41" height="40" viewBox="0 0 41 40" fill="none" xmlns="http://www.w3.org/2000/svg">
<path d="M36.1985 16.0012C35.3736 16.0032 34.5694 16.261 33.8971 16.7374C33.2241 17.2151 32.7151 17.888 32.4406 18.6662H30.7748C30.477 16.321 29.4089 14.141 27.7365 12.4694C26.0655 10.7972 23.8854 9.72916 21.54 9.43135V7.76574C22.4288 7.45194 23.1784 6.833 23.6555 6.02018C24.1326 5.2067 24.3071 4.25064 24.1472 3.32189C23.988 2.39182 23.5049 1.54902 22.784 0.940735C22.0631 0.333121 21.1502 -6.11833e-07 20.2074 -6.11833e-07C19.264 -6.11833e-07 18.3518 0.333121 17.6309 0.940735C16.9093 1.54902 16.4269 2.39182 16.267 3.32123C16.1071 4.25064 16.2816 5.2067 16.7594 6.01952C17.2364 6.833 17.9853 7.45194 18.8748 7.76641V9.43202C16.5295 9.72916 14.3494 10.7978 12.6776 12.4694C11.0059 14.141 9.93717 16.3203 9.63933 18.6655H7.9736C7.66044 17.7767 7.04079 17.0272 6.22791 16.5502C5.41503 16.0731 4.45823 15.8993 3.52942 16.0585C2.59927 16.2184 1.75641 16.7007 1.14875 17.4216C0.540422 18.1425 0.207275 19.0552 0.207275 19.9993C0.207275 20.9421 0.540422 21.8548 1.14875 22.5757C1.75641 23.2966 2.59927 23.7796 3.52875 23.9388C4.45823 24.0987 5.41436 23.9242 6.22724 23.4471C7.04145 22.9701 7.65977 22.2206 7.97426 21.3318H9.64C9.83989 22.9055 10.3889 24.4145 11.2464 25.749C12.104 27.0842 13.2486 28.2108 14.5972 29.0469L11.2524 32.4048C10.5075 32.065 9.67798 31.9557 8.87043 32.0916C8.06355 32.2262 7.31463 32.6 6.72163 33.1643C6.20059 33.6806 5.83146 34.3302 5.65556 35.0418C5.47899 35.754 5.50231 36.5009 5.72219 37.2004C5.9414 37.9 6.34917 38.5262 6.90153 39.0099C7.45189 39.4923 8.12618 39.8148 8.84911 39.94C9.57204 40.0659 10.315 39.9906 10.9979 39.7221C11.6809 39.4543 12.2765 39.0026 12.7203 38.419C13.1634 37.8347 13.4379 37.1398 13.5132 36.4102C13.5878 35.68 13.4599 34.9445 13.1447 34.2823L17.1425 30.2848C18.1406 30.556 19.1733 30.6812 20.2074 30.6579C21.2455 30.6566 22.2783 30.5047 23.2724 30.2048L27.3501 34.2823C27.0343 34.9438 26.907 35.68 26.9816 36.4102C27.0569 37.1398 27.3308 37.8347 27.7745 38.419C28.2183 39.0033 28.8139 39.4543 29.4962 39.7221C30.1792 39.9913 30.9221 40.0666 31.645 39.9407C32.368 39.8148 33.0416 39.4923 33.5933 39.0093C34.145 38.5256 34.5527 37.9 34.7726 37.1997C34.9925 36.5002 35.0158 35.7533 34.8392 35.0411C34.6627 34.3296 34.2942 33.68 33.7732 33.1636C33.1882 32.5813 32.4373 32.1942 31.6237 32.0563C30.8102 31.9178 29.9733 32.0344 29.229 32.3908L25.8576 29.0196C27.1955 28.1815 28.3302 27.0575 29.1804 25.7284C30.0313 24.3985 30.5756 22.8968 30.7748 21.3311H32.4406C32.6851 22.022 33.1149 22.633 33.6832 23.0967C34.2516 23.5597 34.9365 23.8582 35.6634 23.9581C36.3897 24.0581 37.1293 23.9568 37.8023 23.665C38.4752 23.3725 39.0549 22.9008 39.4773 22.3019C39.8997 21.7022 40.1489 20.998 40.1982 20.2665C40.2475 19.5349 40.0943 18.8041 39.7558 18.1532C39.4173 17.5029 38.9063 16.9579 38.2793 16.5782C37.6517 16.1984 36.9321 15.9985 36.1985 16.0012ZM10.4929 36.9346C10.3689 37.0592 10.2217 37.1584 10.0591 37.2257C9.89652 37.2937 9.72262 37.3283 9.54605 37.3283C9.37082 37.3283 9.19625 37.2937 9.03434 37.2257C8.87176 37.1584 8.72451 37.0592 8.60058 36.9346C8.47532 36.8107 8.37671 36.6627 8.30874 36.5009C8.24145 36.3383 8.20614 36.1644 8.20614 35.9878C8.20614 35.8126 8.24145 35.6381 8.30874 35.4755C8.37671 35.3136 8.47532 35.1664 8.60058 35.0424C8.72451 34.9172 8.87176 34.8179 9.03367 34.7506C9.19625 34.6827 9.37082 34.648 9.54672 34.648C9.72262 34.648 9.89652 34.6827 10.0591 34.7506C10.2217 34.8179 10.3689 34.9172 10.4922 35.0424C10.6175 35.1664 10.7167 35.3136 10.7847 35.4755C10.852 35.6381 10.8866 35.8126 10.8866 35.9885C10.8866 36.1644 10.852 36.3383 10.7847 36.5009C10.7167 36.6627 10.6181 36.8113 10.4929 36.9346ZM30.9481 34.6554C31.2559 34.6567 31.5544 34.7653 31.7916 34.9618C32.0288 35.159 32.1901 35.4322 32.2487 35.7347C32.3073 36.0371 32.2587 36.3509 32.1121 36.6214C31.9655 36.8926 31.7296 37.1045 31.4445 37.2211C31.1586 37.3377 30.8421 37.3516 30.5476 37.261C30.2531 37.1698 29.9993 36.9799 29.8287 36.7227C29.6588 36.4655 29.5828 36.1577 29.6148 35.8513C29.6461 35.5448 29.7827 35.2583 30.0013 35.0418C30.1265 34.9179 30.2745 34.8206 30.4364 34.754C30.5989 34.6873 30.7728 34.654 30.9481 34.6554ZM20.2074 2.67564C20.4706 2.67564 20.7285 2.75359 20.9477 2.90016C21.1669 3.04673 21.3375 3.2546 21.4387 3.49778C21.5393 3.74163 21.5653 4.00946 21.514 4.26796C21.4627 4.52646 21.3361 4.76365 21.1496 4.95019C20.963 5.13674 20.7258 5.26333 20.4673 5.31463C20.2088 5.36593 19.9409 5.33995 19.697 5.23868C19.4538 5.13807 19.246 4.96752 19.0994 4.74832C18.9528 4.52846 18.8748 4.27129 18.8748 4.00812C18.8748 3.65501 19.0148 3.31523 19.2653 3.06539C19.5151 2.81555 19.8536 2.67564 20.2074 2.67564ZM20.2074 12.0031C22.3276 12.0031 24.3618 12.8452 25.8609 14.3442C27.3601 15.8433 28.203 17.8773 28.203 19.998C28.203 20.6776 28.1137 21.3538 27.9364 22.01C26.979 21.0027 25.8336 20.1925 24.565 19.6249C24.8342 18.9187 24.9281 18.1572 24.8382 17.4063C24.7482 16.6561 24.477 15.9392 24.0486 15.3163C23.6195 14.694 23.0458 14.185 22.3769 13.8332C21.7079 13.4821 20.963 13.2982 20.2074 13.2982C19.4512 13.2982 18.7069 13.4821 18.038 13.8332C17.3683 14.185 16.7947 14.694 16.3656 15.3163C15.9371 15.9392 15.666 16.6561 15.5767 17.407C15.4867 18.1572 15.58 18.9187 15.8499 19.6249C14.5812 20.1925 13.4359 21.0027 12.4784 22.01C12.3012 21.3538 12.2119 20.6776 12.2119 19.998C12.2119 17.8773 13.0541 15.844 14.5539 14.3442C16.0531 12.8452 18.0866 12.0031 20.2074 12.0031ZM22.2063 17.9993C22.2063 18.3943 22.089 18.7808 21.8692 19.1092C21.6493 19.4383 21.3375 19.6942 20.9723 19.8454C20.6072 19.9967 20.2054 20.0366 19.8176 19.9593C19.4299 19.8821 19.0734 19.6915 18.7942 19.4124C18.5144 19.1325 18.3238 18.7768 18.2465 18.389C18.1699 18.0013 18.2092 17.5995 18.3605 17.2344C18.5117 16.8686 18.7682 16.5568 19.0967 16.337C19.4252 16.1171 19.8123 16.0005 20.2074 16.0005C20.7378 16.0005 21.2462 16.2111 21.6206 16.5855C21.9958 16.9606 22.2063 17.4689 22.2063 17.9993ZM4.21637 21.3305C3.95251 21.3305 3.69532 21.2519 3.47611 21.1059C3.25624 20.9594 3.08567 20.7508 2.98506 20.5077C2.88444 20.2645 2.85846 19.996 2.9091 19.7375C2.9604 19.479 3.08766 19.2418 3.27423 19.0552C3.46079 18.8687 3.69799 18.7421 3.95651 18.6908C4.21503 18.6395 4.48288 18.6655 4.72608 18.7668C4.96995 18.8674 5.17783 19.0386 5.32441 19.2571C5.471 19.477 5.54895 19.7342 5.54895 19.998C5.54895 20.3511 5.40903 20.6902 5.15851 20.9401C4.90865 21.1899 4.5695 21.3305 4.21637 21.3305ZM17.5422 27.5399C17.381 27.4353 17.1991 27.3666 17.0092 27.34C15.676 26.773 14.5233 25.8509 13.6777 24.675C14.6412 23.3459 15.9898 22.3458 17.5422 21.8102C18.3225 22.3578 19.2533 22.6523 20.2074 22.6523C21.1609 22.6523 22.0917 22.3578 22.8726 21.8102C24.3984 22.3538 25.7223 23.3485 26.6705 24.6617C25.807 25.8429 24.6363 26.7644 23.2857 27.3267C23.1747 27.3547 23.068 27.3946 22.9659 27.4466C22.0864 27.7897 21.1516 27.9749 20.2074 27.9929C19.2993 27.9996 18.3971 27.8463 17.5422 27.5399ZM36.1985 21.3305C35.9346 21.3305 35.6774 21.2519 35.4582 21.1059C35.2383 20.9594 35.0678 20.7508 34.9672 20.5077C34.8666 20.2645 34.8406 19.996 34.8912 19.7375C34.9425 19.479 35.0698 19.2418 35.2563 19.0552C35.4429 18.8687 35.6801 18.7421 35.9386 18.6908C36.1971 18.6395 36.465 18.6655 36.7082 18.7668C36.9521 18.8674 37.1599 19.0386 37.3065 19.2571C37.4531 19.477 37.5311 19.7342 37.5311 19.998C37.5311 20.3511 37.3911 20.6902 37.1406 20.9401C36.8908 21.1899 36.5516 21.3305 36.1985 21.3305Z" fill="#1BCFF6"/>
</svg>
