<svg width="33" height="32" viewBox="0 0 33 32" fill="none" xmlns="http://www.w3.org/2000/svg">
<path d="M29.2383 4.57271H26.9526C26.6497 4.57271 26.3583 4.69271 26.1446 4.90755C25.9303 5.12183 25.8097 5.4121 25.8097 5.71552V6.85832H14.8137L13.42 2.47681C13.1212 1.582 12.4857 0.839173 11.648 0.405479C10.8103 -0.0276438 9.83658 -0.117925 8.93373 0.154634C8.47658 0.28777 8.0503 0.511189 7.68116 0.811747C7.31201 1.11288 7.00687 1.48429 6.78401 1.90541C6.56744 2.31053 6.43544 2.75508 6.39373 3.2122C6.35258 3.66933 6.40344 4.13045 6.54401 4.56814L7.27258 6.85832H1.80973C1.50687 6.85832 1.21544 6.97832 1.00173 7.19316C0.78687 7.40744 0.66687 7.69771 0.66687 8.00112V30.8572C0.66687 31.16 0.78687 31.4509 1.00173 31.6652C1.21544 31.8794 1.50687 32 1.80973 32H29.2383C30.1469 31.9989 31.0189 31.6372 31.6612 30.9943C32.3046 30.3521 32.6657 29.4801 32.6669 28.5716V8.00112C32.6657 7.09202 32.3046 6.22064 31.6612 5.57781C31.0189 4.93498 30.1469 4.57385 29.2383 4.57271ZM15.4292 16.3373L14.572 17.9047L12.9149 17.055L9.7983 7.25602L12.304 6.51034L15.4292 16.3373ZM8.80401 2.97507C8.88573 2.82308 8.99658 2.68937 9.13087 2.58138C9.26516 2.47338 9.41944 2.39396 9.58516 2.34653C9.9143 2.24139 10.2714 2.26825 10.5806 2.42253C10.8897 2.57681 11.1269 2.84479 11.2417 3.17106L11.6114 4.3333L9.10516 5.07897L8.7223 3.87617C8.67487 3.72761 8.65773 3.57219 8.67144 3.41734C8.68573 3.26249 8.73087 3.11221 8.80401 2.97507ZM29.2383 29.7144H2.95258V9.14393H7.99944L10.88 18.2024C10.9257 18.3464 11 18.4795 11.0972 18.5943C11.1943 18.7098 11.3143 18.8046 11.448 18.8732L14.5194 20.4463C14.6806 20.5285 14.8589 20.572 15.0394 20.572H18.3812C18.836 20.572 19.272 20.7525 19.5932 21.0737C19.9149 21.3954 20.0954 21.8313 20.0954 22.2862C20.0954 22.7404 19.9149 23.1764 19.5932 23.4981C19.272 23.8198 18.836 24.0004 18.3812 24.0004H6.38116V26.286H18.3812C19.4423 26.286 20.4594 25.8643 21.2097 25.1146C21.96 24.3638 22.3812 23.3467 22.3812 22.2856C22.3812 21.2245 21.96 20.2074 21.2097 19.4572C20.4594 18.7069 19.4423 18.2858 18.3812 18.2858H16.9686L17.6692 17.0058C17.7434 16.8704 17.7897 16.7207 17.8046 16.567C17.82 16.4127 17.8034 16.2585 17.756 16.1105L15.5412 9.14393H25.8097V26.286C25.8097 26.5888 25.9297 26.8797 26.1446 27.0939C26.3589 27.3082 26.6497 27.4288 26.9526 27.4288H29.2383C29.5412 27.4288 29.8326 27.5488 30.0463 27.7636C30.2606 27.9779 30.3812 28.2682 30.3812 28.5716C30.3812 28.8744 30.2612 29.1653 30.0463 29.3796C29.832 29.5938 29.5412 29.7144 29.2383 29.7144ZM30.3812 25.3392C30.0143 25.2089 29.6274 25.1426 29.2383 25.1432H28.0954V6.85832H29.2383C29.5412 6.85832 29.832 6.97889 30.0463 7.19316C30.2606 7.40744 30.3806 7.69771 30.3812 8.00112V25.3392Z" fill="#FF872E"/>
</svg>
