<svg width="47" height="30" viewBox="0 0 47 30" fill="none" xmlns="http://www.w3.org/2000/svg">
<path fill-rule="evenodd" clip-rule="evenodd" d="M21.4447 12.51C21.4447 10.0567 19.4536 8.06559 17.0002 8.06559H11.6669C9.21355 8.06559 7.22244 10.0567 7.22244 12.51V24.9545C7.22244 27.4078 9.21355 29.3989 11.6669 29.3989H17.0002C19.4536 29.3989 21.4447 27.4078 21.4447 24.9545V12.51ZM17.8891 12.51V24.9545C17.8891 25.4451 17.4909 25.8434 17.0002 25.8434H11.6669C11.1762 25.8434 10.778 25.4451 10.778 24.9545V12.51C10.778 12.0194 11.1762 11.6211 11.6669 11.6211H17.0002C17.4909 11.6211 17.8891 12.0194 17.8891 12.51ZM26.778 13.3989H37.4447C38.426 13.3989 39.2224 12.6025 39.2224 11.6211C39.2224 10.6398 38.426 9.84337 37.4447 9.84337H26.778C25.7967 9.84337 25.0002 10.6398 25.0002 11.6211C25.0002 12.6025 25.7967 13.3989 26.778 13.3989ZM26.778 20.51H37.4447C38.426 20.51 39.2224 19.7136 39.2224 18.7323C39.2224 17.7509 38.426 16.9545 37.4447 16.9545H26.778C25.7967 16.9545 25.0002 17.7509 25.0002 18.7323C25.0002 19.7136 25.7967 20.51 26.778 20.51ZM26.778 27.6211H37.4447C38.426 27.6211 39.2224 26.8247 39.2224 25.8434C39.2224 24.862 38.426 24.0656 37.4447 24.0656H26.778C25.7967 24.0656 25.0002 24.862 25.0002 25.8434C25.0002 26.8247 25.7967 27.6211 26.778 27.6211ZM1.88911 4.51004H44.5558C45.5371 4.51004 46.3336 3.71359 46.3336 2.73226C46.3336 1.75093 45.5371 0.954483 44.5558 0.954483H1.88911C0.907773 0.954483 0.111328 1.75093 0.111328 2.73226C0.111328 3.71359 0.907773 4.51004 1.88911 4.51004Z" fill="#515DEF"/>
</svg>
